<svg version="1.1" viewBox="0.0 0.0 655.0 371.0" fill="none" stroke="none" stroke-linecap="square" stroke-miterlimit="10" width="655" height="371" xmlns:xlink="http://www.w3.org/1999/xlink" xmlns="http://www.w3.org/2000/svg"><path fill="#ffffff" fill-opacity="0.0" d="M0 0L655.0 0L655.0 371.0L0 371.0L0 0Z" fill-rule="nonzero"/><path fill="#ff0000" d="M327.5 58.916668C389.84744 58.916668 441.35596 107.58071 444.89386 169.8277L327.5 176.5Z" fill-rule="nonzero"/><path fill="#76b900" d="M271.94897 72.866394C289.0331 63.708736 308.11624 58.916668 327.5 58.916668L327.5 176.5Z" fill-rule="nonzero"/><path fill="#88aaff" d="M234.78221 104.18643C244.85468 91.2719 257.514 80.60402 271.94897 72.866394L327.5 176.5Z" fill-rule="nonzero"/><path fill="#ff00ff" d="M210.94696 160.96846C213.70654 140.25974 221.9338 120.660194 234.78221 104.18643L327.5 176.5Z" fill-rule="nonzero"/><path fill="#ff9900" d="M444.89386 169.8277C447.42868 214.42574 424.4736 256.6085 385.6481 278.699C346.8226 300.78952 298.83286 298.97223 261.78925 274.00864C224.7456 249.04506 205.04651 205.24707 210.94696 160.96846L327.5 176.5Z" fill-rule="nonzero"/><path fill="#ff0000" d="M64.0 316.95C64.0 320.2637 61.31371 322.95 58.0 322.95C54.68629 322.95 52.0 320.2637 52.0 316.95C52.0 313.6363 54.68629 310.95 58.0 310.95C61.31371 310.95 64.0 313.6363 64.0 316.95Z" fill-rule="nonzero"/><path fill="#999999" d="M72.8125 319.3094L74.421875 319.16876Q74.53125 320.1375 74.9375 320.7625Q75.359375 321.3719 76.234375 321.7625Q77.125 322.1375 78.21875 322.1375Q79.203125 322.1375 79.9375 321.85626Q80.6875 321.5594 81.046875 321.0594Q81.421875 320.54376 81.421875 319.95Q81.421875 319.34064 81.0625 318.8875Q80.71875 318.4344 79.90625 318.1375Q79.390625 317.9344 77.609375 317.5125Q75.84375 317.075 75.125 316.7Q74.203125 316.21564 73.75 315.4969Q73.296875 314.77814 73.296875 313.90314Q73.296875 312.91876 73.84375 312.075Q74.40625 311.23126 75.46875 310.79376Q76.53125 310.34064 77.84375 310.34064Q79.265625 310.34064 80.359375 310.8094Q81.453125 311.2625 82.046875 312.16876Q82.640625 313.0594 82.671875 314.2L81.046875 314.325Q80.90625 313.09064 80.140625 312.46564Q79.390625 311.84064 77.90625 311.84064Q76.359375 311.84064 75.640625 312.41876Q74.9375 312.98126 74.9375 313.77814Q74.9375 314.48126 75.453125 314.91876Q75.9375 315.3719 78.015625 315.84064Q80.09375 316.3094 80.875 316.66876Q82.0 317.1844 82.53125 317.98126Q83.0625 318.77814 83.0625 319.8094Q83.0625 320.84064 82.46875 321.7469Q81.890625 322.65314 80.78125 323.16876Q79.6875 323.66876 78.296875 323.66876Q76.546875 323.66876 75.359375 323.16876Q74.1875 322.65314 73.515625 321.6375Q72.84375 320.60626 72.8125 319.3094ZM85.203125 312.3875L85.203125 310.5594L86.78125 310.5594L86.78125 312.3875L85.203125 312.3875ZM85.203125 323.45L85.203125 314.1219L86.78125 314.1219L86.78125 323.45L85.203125 323.45ZM89.1875 323.45L89.1875 314.1219L90.609375 314.1219L90.609375 315.45Q91.640625 313.90314 93.578125 313.90314Q94.421875 313.90314 95.125 314.21564Q95.84375 314.5125 96.1875 315.0125Q96.546875 315.4969 96.6875 316.16876Q96.765625 316.60626 96.765625 317.71564L96.765625 323.45L95.1875 323.45L95.1875 317.77814Q95.1875 316.8094 95.0 316.325Q94.828125 315.84064 94.34375 315.5594Q93.875 315.27814 93.25 315.27814Q92.234375 315.27814 91.5 315.91876Q90.765625 316.5594 90.765625 318.35626L90.765625 323.45L89.1875 323.45ZM98.890625 324.23126L100.4375 324.45Q100.53125 325.16876 100.96875 325.4969Q101.5625 325.9344 102.578125 325.9344Q103.671875 325.9344 104.265625 325.48126Q104.875 325.04376 105.078125 324.2625Q105.203125 323.77814 105.203125 322.23126Q104.15625 323.45 102.609375 323.45Q100.6875 323.45 99.625 322.0594Q98.578125 320.66876 98.578125 318.73126Q98.578125 317.3875 99.0625 316.2625Q99.546875 315.1375 100.46875 314.52814Q101.390625 313.90314 102.625 313.90314Q104.28125 313.90314 105.34375 315.2469L105.34375 314.1219L106.8125 314.1219L106.8125 322.1844Q106.8125 324.3719 106.359375 325.27814Q105.921875 326.1844 104.953125 326.7Q104.0 327.23126 102.59375 327.23126Q100.921875 327.23126 99.890625 326.48126Q98.859375 325.73126 98.890625 324.23126ZM100.203125 318.6219Q100.203125 320.45 100.9375 321.29376Q101.671875 322.1375 102.765625 322.1375Q103.859375 322.1375 104.59375 321.3094Q105.328125 320.46564 105.328125 318.66876Q105.328125 316.95 104.5625 316.09064Q103.8125 315.21564 102.734375 315.21564Q101.6875 315.21564 100.9375 316.075Q100.203125 316.9344 100.203125 318.6219ZM109.15625 323.45L109.15625 310.5594L110.734375 310.5594L110.734375 323.45L109.15625 323.45ZM119.578125 320.45L121.21875 320.65314Q120.828125 322.075 119.78125 322.8719Q118.734375 323.66876 117.109375 323.66876Q115.0625 323.66876 113.859375 322.40314Q112.65625 321.1375 112.65625 318.85626Q112.65625 316.5125 113.859375 315.21564Q115.078125 313.90314 117.015625 313.90314Q118.890625 313.90314 120.078125 315.1844Q121.265625 316.45 121.265625 318.7625Q121.265625 318.90314 121.25 319.1844L114.296875 319.1844Q114.375 320.73126 115.15625 321.54376Q115.953125 322.35626 117.109375 322.35626Q117.984375 322.35626 118.59375 321.90314Q119.21875 321.45 119.578125 320.45ZM114.375 317.8875L119.59375 317.8875Q119.484375 316.71564 119.0 316.1219Q118.234375 315.2 117.03125 315.2Q115.953125 315.2 115.203125 315.9344Q114.46875 316.66876 114.375 317.8875ZM131.67188 323.45L131.67188 312.09064L127.421875 312.09064L127.421875 310.5594L137.64062 310.5594L137.64062 312.09064L133.375 312.09064L133.375 323.45L131.67188 323.45ZM145.57812 320.45L147.21875 320.65314Q146.82812 322.075 145.78125 322.8719Q144.73438 323.66876 143.10938 323.66876Q141.0625 323.66876 139.85938 322.40314Q138.65625 321.1375 138.65625 318.85626Q138.65625 316.5125 139.85938 315.21564Q141.07812 313.90314 143.01562 313.90314Q144.89062 313.90314 146.07812 315.1844Q147.26562 316.45 147.26562 318.7625Q147.26562 318.90314 147.25 319.1844L140.29688 319.1844Q140.375 320.73126 141.15625 321.54376Q141.95312 322.35626 143.10938 322.35626Q143.98438 322.35626 144.59375 321.90314Q145.21875 321.45 145.57812 320.45ZM140.375 317.8875L145.59375 317.8875Q145.48438 316.71564 145.0 316.1219Q144.23438 315.2 143.03125 315.2Q141.95312 315.2 141.20312 315.9344Q140.46875 316.66876 140.375 317.8875ZM149.15625 323.45L149.15625 310.5594L150.73438 310.5594L150.73438 323.45L149.15625 323.45ZM159.57812 320.45L161.21875 320.65314Q160.82812 322.075 159.78125 322.8719Q158.73438 323.66876 157.10938 323.66876Q155.0625 323.66876 153.85938 322.40314Q152.65625 321.1375 152.65625 318.85626Q152.65625 316.5125 153.85938 315.21564Q155.07812 313.90314 157.01562 313.90314Q158.89062 313.90314 160.07812 315.1844Q161.26562 316.45 161.26562 318.7625Q161.26562 318.90314 161.25 319.1844L154.29688 319.1844Q154.375 320.73126 155.15625 321.54376Q155.95312 322.35626 157.10938 322.35626Q157.98438 322.35626 158.59375 321.90314Q159.21875 321.45 159.57812 320.45ZM154.375 317.8875L159.59375 317.8875Q159.48438 316.71564 159.0 316.1219Q158.23438 315.2 157.03125 315.2Q155.95312 315.2 155.20312 315.9344Q154.46875 316.66876 154.375 317.8875ZM169.28125 320.02814L170.82812 320.23126Q170.57812 321.84064 169.53125 322.7625Q168.48438 323.66876 166.95312 323.66876Q165.03125 323.66876 163.85938 322.41876Q162.70312 321.15314 162.70312 318.825Q162.70312 317.3094 163.20312 316.1844Q163.70312 315.04376 164.71875 314.48126Q165.75 313.90314 166.95312 313.90314Q168.48438 313.90314 169.4375 314.6844Q170.40625 315.45 170.6875 316.85626L169.14062 317.09064Q168.92188 316.15314 168.35938 315.6844Q167.8125 315.2 167.01562 315.2Q165.82812 315.2 165.07812 316.0594Q164.32812 316.91876 164.32812 318.77814Q164.32812 320.65314 165.04688 321.5125Q165.76562 322.35626 166.9375 322.35626Q167.85938 322.35626 168.48438 321.79376Q169.10938 321.21564 169.28125 320.02814ZM171.59375 318.77814Q171.59375 316.1844 173.04688 314.9344Q174.25 313.90314 175.96875 313.90314Q177.90625 313.90314 179.125 315.16876Q180.34375 316.4344 180.34375 318.65314Q180.34375 320.45 179.79688 321.48126Q179.26562 322.5125 178.23438 323.09064Q177.20312 323.66876 175.96875 323.66876Q174.01562 323.66876 172.79688 322.41876Q171.59375 321.15314 171.59375 318.77814ZM173.21875 318.77814Q173.21875 320.575 174.0 321.46564Q174.78125 322.35626 175.96875 322.35626Q177.15625 322.35626 177.9375 321.46564Q178.71875 320.5594 178.71875 318.73126Q178.71875 316.9969 177.92188 316.10626Q177.14062 315.21564 175.96875 315.21564Q174.78125 315.21564 174.0 316.10626Q173.21875 316.9969 173.21875 318.77814ZM182.1875 323.45L182.1875 314.1219L183.60938 314.1219L183.60938 315.45Q184.64062 313.90314 186.57812 313.90314Q187.42188 313.90314 188.125 314.21564Q188.84375 314.5125 189.1875 315.0125Q189.54688 315.4969 189.6875 316.16876Q189.76562 316.60626 189.76562 317.71564L189.76562 323.45L188.1875 323.45L188.1875 317.77814Q188.1875 316.8094 188.0 316.325Q187.82812 315.84064 187.34375 315.5594Q186.875 315.27814 186.25 315.27814Q185.23438 315.27814 184.5 315.91876Q183.76562 316.5594 183.76562 318.35626L183.76562 323.45L182.1875 323.45Z" fill-rule="nonzero"/><path fill="#ff9900" d="M219.0 316.95C219.0 320.2637 216.3137 322.95 213.0 322.95C209.6863 322.95 207.0 320.2637 207.0 316.95C207.0 313.6363 209.6863 310.95 213.0 310.95C216.3137 310.95 219.0 313.6363 219.0 316.95Z" fill-rule="nonzero"/><path fill="#999999" d="M227.98438 317.8094L227.98438 316.34064L236.51562 312.73126L236.51562 314.3094L229.75 317.09064L236.51562 319.8875L236.51562 321.46564L227.98438 317.8094ZM247.0625 321.9344L247.0625 323.45L238.54688 323.45Q238.53125 322.8719 238.73438 322.35626Q239.0625 321.48126 239.76562 320.6375Q240.48438 319.79376 241.84375 318.6844Q243.9375 316.96564 244.67188 315.96564Q245.42188 314.95 245.42188 314.0594Q245.42188 313.10626 244.75 312.46564Q244.07812 311.825 243.0 311.825Q241.84375 311.825 241.15625 312.5125Q240.48438 313.2 240.46875 314.40314L238.84375 314.23126Q239.01562 312.41876 240.09375 311.46564Q241.1875 310.5125 243.03125 310.5125Q244.875 310.5125 245.95312 311.54376Q247.04688 312.575 247.04688 314.09064Q247.04688 314.85626 246.71875 315.60626Q246.40625 316.35626 245.67188 317.1844Q244.9375 318.0125 243.23438 319.45Q241.8125 320.65314 241.40625 321.075Q241.0 321.4969 240.75 321.9344L247.0625 321.9344ZM248.75 320.075L250.40625 319.9344Q250.59375 321.15314 251.26562 321.7625Q251.9375 322.3719 252.89062 322.3719Q254.03125 322.3719 254.8125 321.5125Q255.60938 320.65314 255.60938 319.21564Q255.60938 317.8719 254.84375 317.09064Q254.09375 316.3094 252.85938 316.3094Q252.09375 316.3094 251.46875 316.65314Q250.85938 316.9969 250.51562 317.5594L249.03125 317.35626L250.28125 310.7469L256.6875 310.7469L256.6875 312.2469L251.54688 312.2469L250.84375 315.71564Q252.01562 314.90314 253.28125 314.90314Q254.96875 314.90314 256.125 316.075Q257.29688 317.2469 257.29688 319.075Q257.29688 320.825 256.26562 322.10626Q255.03125 323.66876 252.89062 323.66876Q251.125 323.66876 250.01562 322.6844Q248.90625 321.7 248.75 320.075ZM259.04688 313.65314Q259.04688 312.27814 259.73438 311.3094Q260.4375 310.34064 261.75 310.34064Q262.96875 310.34064 263.76562 311.21564Q264.5625 312.075 264.5625 313.7625Q264.5625 315.3875 263.75 316.27814Q262.95312 317.15314 261.76562 317.15314Q260.60938 317.15314 259.82812 316.29376Q259.04688 315.41876 259.04688 313.65314ZM261.79688 311.4344Q261.20312 311.4344 260.8125 311.95Q260.42188 312.45 260.42188 313.8094Q260.42188 315.0594 260.8125 315.5594Q261.21875 316.0594 261.79688 316.0594Q262.39062 316.0594 262.78125 315.5594Q263.17188 315.04376 263.17188 313.7Q263.17188 312.45 262.78125 311.95Q262.39062 311.4344 261.79688 311.4344ZM261.8125 323.91876L268.85938 310.34064L270.14062 310.34064L263.10938 323.91876L261.8125 323.91876ZM267.375 320.41876Q267.375 319.04376 268.0625 318.075Q268.76562 317.10626 270.09375 317.10626Q271.3125 317.10626 272.09375 317.98126Q272.89062 318.84064 272.89062 320.52814Q272.89062 322.15314 272.09375 323.04376Q271.29688 323.91876 270.10938 323.91876Q268.9375 323.91876 268.15625 323.04376Q267.375 322.16876 267.375 320.41876ZM270.14062 318.2Q269.54688 318.2 269.15625 318.71564Q268.76562 319.21564 268.76562 320.59064Q268.76562 321.8094 269.15625 322.325Q269.54688 322.84064 270.125 322.84064Q270.73438 322.84064 271.125 322.325Q271.51562 321.8094 271.51562 320.46564Q271.51562 319.21564 271.125 318.71564Q270.73438 318.2 270.14062 318.2ZM279.59375 318.77814Q279.59375 316.1844 281.04688 314.9344Q282.25 313.90314 283.96875 313.90314Q285.90625 313.90314 287.125 315.16876Q288.34375 316.4344 288.34375 318.65314Q288.34375 320.45 287.79688 321.48126Q287.26562 322.5125 286.23438 323.09064Q285.20312 323.66876 283.96875 323.66876Q282.01562 323.66876 280.79688 322.41876Q279.59375 321.15314 279.59375 318.77814ZM281.21875 318.77814Q281.21875 320.575 282.0 321.46564Q282.78125 322.35626 283.96875 322.35626Q285.15625 322.35626 285.9375 321.46564Q286.71875 320.5594 286.71875 318.73126Q286.71875 316.9969 285.92188 316.10626Q285.14062 315.21564 283.96875 315.21564Q282.78125 315.21564 282.0 316.10626Q281.21875 316.9969 281.21875 318.77814ZM290.5625 323.45L290.5625 315.34064L289.17188 315.34064L289.17188 314.1219L290.5625 314.1219L290.5625 313.1219Q290.5625 312.1844 290.73438 311.73126Q290.95312 311.10626 291.53125 310.73126Q292.10938 310.34064 293.15625 310.34064Q293.8125 310.34064 294.625 310.4969L294.39062 311.8875Q293.89062 311.79376 293.45312 311.79376Q292.73438 311.79376 292.4375 312.10626Q292.14062 312.40314 292.14062 313.2469L292.14062 314.1219L293.95312 314.1219L293.95312 315.34064L292.14062 315.34064L292.14062 323.45L290.5625 323.45ZM303.67188 323.45L303.67188 312.09064L299.42188 312.09064L299.42188 310.5594L309.64062 310.5594L309.64062 312.09064L305.375 312.09064L305.375 323.45L303.67188 323.45ZM317.57812 320.45L319.21875 320.65314Q318.82812 322.075 317.78125 322.8719Q316.73438 323.66876 315.10938 323.66876Q313.0625 323.66876 311.85938 322.40314Q310.65625 321.1375 310.65625 318.85626Q310.65625 316.5125 311.85938 315.21564Q313.07812 313.90314 315.01562 313.90314Q316.89062 313.90314 318.07812 315.1844Q319.26562 316.45 319.26562 318.7625Q319.26562 318.90314 319.25 319.1844L312.29688 319.1844Q312.375 320.73126 313.15625 321.54376Q313.95312 322.35626 315.10938 322.35626Q315.98438 322.35626 316.59375 321.90314Q317.21875 321.45 317.57812 320.45ZM312.375 317.8875L317.59375 317.8875Q317.48438 316.71564 317.0 316.1219Q316.23438 315.2 315.03125 315.2Q313.95312 315.2 313.20312 315.9344Q312.46875 316.66876 312.375 317.8875ZM321.15625 323.45L321.15625 310.5594L322.73438 310.5594L322.73438 323.45L321.15625 323.45ZM331.57812 320.45L333.21875 320.65314Q332.82812 322.075 331.78125 322.8719Q330.73438 323.66876 329.10938 323.66876Q327.0625 323.66876 325.85938 322.40314Q324.65625 321.1375 324.65625 318.85626Q324.65625 316.5125 325.85938 315.21564Q327.07812 313.90314 329.01562 313.90314Q330.89062 313.90314 332.07812 315.1844Q333.26562 316.45 333.26562 318.7625Q333.26562 318.90314 333.25 319.1844L326.29688 319.1844Q326.375 320.73126 327.15625 321.54376Q327.95312 322.35626 329.10938 322.35626Q329.98438 322.35626 330.59375 321.90314Q331.21875 321.45 331.57812 320.45ZM326.375 317.8875L331.59375 317.8875Q331.48438 316.71564 331.0 316.1219Q330.23438 315.2 329.03125 315.2Q327.95312 315.2 327.20312 315.9344Q326.46875 316.66876 326.375 317.8875ZM341.28125 320.02814L342.82812 320.23126Q342.57812 321.84064 341.53125 322.7625Q340.48438 323.66876 338.95312 323.66876Q337.03125 323.66876 335.85938 322.41876Q334.70312 321.15314 334.70312 318.825Q334.70312 317.3094 335.20312 316.1844Q335.70312 315.04376 336.71875 314.48126Q337.75 313.90314 338.95312 313.90314Q340.48438 313.90314 341.4375 314.6844Q342.40625 315.45 342.6875 316.85626L341.14062 317.09064Q340.92188 316.15314 340.35938 315.6844Q339.8125 315.2 339.01562 315.2Q337.82812 315.2 337.07812 316.0594Q336.32812 316.91876 336.32812 318.77814Q336.32812 320.65314 337.04688 321.5125Q337.76562 322.35626 338.9375 322.35626Q339.85938 322.35626 340.48438 321.79376Q341.10938 321.21564 341.28125 320.02814ZM343.59375 318.77814Q343.59375 316.1844 345.04688 314.9344Q346.25 313.90314 347.96875 313.90314Q349.90625 313.90314 351.125 315.16876Q352.34375 316.4344 352.34375 318.65314Q352.34375 320.45 351.79688 321.48126Q351.26562 322.5125 350.23438 323.09064Q349.20312 323.66876 347.96875 323.66876Q346.01562 323.66876 344.79688 322.41876Q343.59375 321.15314 343.59375 318.77814ZM345.21875 318.77814Q345.21875 320.575 346.0 321.46564Q346.78125 322.35626 347.96875 322.35626Q349.15625 322.35626 349.9375 321.46564Q350.71875 320.5594 350.71875 318.73126Q350.71875 316.9969 349.92188 316.10626Q349.14062 315.21564 347.96875 315.21564Q346.78125 315.21564 346.0 316.10626Q345.21875 316.9969 345.21875 318.77814ZM354.1875 323.45L354.1875 314.1219L355.60938 314.1219L355.60938 315.45Q356.64062 313.90314 358.57812 313.90314Q359.42188 313.90314 360.125 314.21564Q360.84375 314.5125 361.1875 315.0125Q361.54688 315.4969 361.6875 316.16876Q361.76562 316.60626 361.76562 317.71564L361.76562 323.45L360.1875 323.45L360.1875 317.77814Q360.1875 316.8094 360.0 316.325Q359.82812 315.84064 359.34375 315.5594Q358.875 315.27814 358.25 315.27814Q357.23438 315.27814 356.5 315.91876Q355.76562 316.5594 355.76562 318.35626L355.76562 323.45L354.1875 323.45ZM363.54688 320.66876L365.125 320.41876Q365.25 321.35626 365.84375 321.85626Q366.45312 322.35626 367.53125 322.35626Q368.625 322.35626 369.15625 321.91876Q369.6875 321.46564 369.6875 320.8719Q369.6875 320.34064 369.21875 320.02814Q368.89062 319.825 367.59375 319.4969Q365.85938 319.0594 365.1875 318.7469Q364.51562 318.41876 364.15625 317.85626Q363.8125 317.27814 363.8125 316.59064Q363.8125 315.96564 364.09375 315.4344Q364.39062 314.90314 364.875 314.5594Q365.25 314.27814 365.89062 314.09064Q366.53125 313.90314 367.25 313.90314Q368.35938 313.90314 369.1875 314.23126Q370.01562 314.54376 370.40625 315.09064Q370.8125 315.6219 370.95312 316.52814L369.40625 316.73126Q369.29688 316.0125 368.79688 315.60626Q368.29688 315.2 367.375 315.2Q366.28125 315.2 365.8125 315.5594Q365.34375 315.91876 365.34375 316.40314Q365.34375 316.71564 365.54688 316.96564Q365.73438 317.21564 366.14062 317.3875Q366.39062 317.46564 367.54688 317.79376Q369.21875 318.23126 369.875 318.52814Q370.54688 318.8094 370.92188 319.35626Q371.3125 319.90314 371.3125 320.7Q371.3125 321.4969 370.84375 322.2Q370.39062 322.90314 369.51562 323.29376Q368.64062 323.66876 367.54688 323.66876Q365.71875 323.66876 364.76562 322.91876Q363.8125 322.15314 363.54688 320.66876Z" fill-rule="nonzero"/><path fill="#ff00ff" d="M400.0 316.95C400.0 320.2637 397.31372 322.95 394.0 322.95C390.68628 322.95 388.0 320.2637 388.0 316.95C388.0 313.6363 390.68628 310.95 394.0 310.95C397.31372 310.95 400.0 313.6363 400.0 316.95Z" fill-rule="nonzero"/><path fill="#999999" d="M417.0625 321.9344L417.0625 323.45L408.54688 323.45Q408.53125 322.8719 408.73438 322.35626Q409.0625 321.48126 409.76562 320.6375Q410.48438 319.79376 411.84375 318.6844Q413.9375 316.96564 414.67188 315.96564Q415.42188 314.95 415.42188 314.0594Q415.42188 313.10626 414.75 312.46564Q414.07812 311.825 413.0 311.825Q411.84375 311.825 411.15625 312.5125Q410.48438 313.2 410.46875 314.40314L408.84375 314.23126Q409.01562 312.41876 410.09375 311.46564Q411.1875 310.5125 413.03125 310.5125Q414.875 310.5125 415.95312 311.54376Q417.04688 312.575 417.04688 314.09064Q417.04688 314.85626 416.71875 315.60626Q416.40625 316.35626 415.67188 317.1844Q414.9375 318.0125 413.23438 319.45Q411.8125 320.65314 411.40625 321.075Q411.0 321.4969 410.75 321.9344L417.0625 321.9344ZM418.75 320.075L420.40625 319.9344Q420.59375 321.15314 421.26562 321.7625Q421.9375 322.3719 422.89062 322.3719Q424.03125 322.3719 424.8125 321.5125Q425.60938 320.65314 425.60938 319.21564Q425.60938 317.8719 424.84375 317.09064Q424.09375 316.3094 422.85938 316.3094Q422.09375 316.3094 421.46875 316.65314Q420.85938 316.9969 420.51562 317.5594L419.03125 317.35626L420.28125 310.7469L426.6875 310.7469L426.6875 312.2469L421.54688 312.2469L420.84375 315.71564Q422.01562 314.90314 423.28125 314.90314Q424.96875 314.90314 426.125 316.075Q427.29688 317.2469 427.29688 319.075Q427.29688 320.825 426.26562 322.10626Q425.03125 323.66876 422.89062 323.66876Q421.125 323.66876 420.01562 322.6844Q418.90625 321.7 418.75 320.075ZM429.04688 313.65314Q429.04688 312.27814 429.73438 311.3094Q430.4375 310.34064 431.75 310.34064Q432.96875 310.34064 433.76562 311.21564Q434.5625 312.075 434.5625 313.7625Q434.5625 315.3875 433.75 316.27814Q432.95312 317.15314 431.76562 317.15314Q430.60938 317.15314 429.82812 316.29376Q429.04688 315.41876 429.04688 313.65314ZM431.79688 311.4344Q431.20312 311.4344 430.8125 311.95Q430.42188 312.45 430.42188 313.8094Q430.42188 315.0594 430.8125 315.5594Q431.21875 316.0594 431.79688 316.0594Q432.39062 316.0594 432.78125 315.5594Q433.17188 315.04376 433.17188 313.7Q433.17188 312.45 432.78125 311.95Q432.39062 311.4344 431.79688 311.4344ZM431.8125 323.91876L438.85938 310.34064L440.14062 310.34064L433.10938 323.91876L431.8125 323.91876ZM437.375 320.41876Q437.375 319.04376 438.0625 318.075Q438.76562 317.10626 440.09375 317.10626Q441.3125 317.10626 442.09375 317.98126Q442.89062 318.84064 442.89062 320.52814Q442.89062 322.15314 442.09375 323.04376Q441.29688 323.91876 440.10938 323.91876Q438.9375 323.91876 438.15625 323.04376Q437.375 322.16876 437.375 320.41876ZM440.14062 318.2Q439.54688 318.2 439.15625 318.71564Q438.76562 319.21564 438.76562 320.59064Q438.76562 321.8094 439.15625 322.325Q439.54688 322.84064 440.125 322.84064Q440.73438 322.84064 441.125 322.325Q441.51562 321.8094 441.51562 320.46564Q441.51562 319.21564 441.125 318.71564Q440.73438 318.2 440.14062 318.2ZM453.64062 322.02814L453.875 323.4344Q453.20312 323.575 452.67188 323.575Q451.8125 323.575 451.32812 323.3094Q450.85938 323.02814 450.67188 322.59064Q450.48438 322.1375 450.48438 320.71564L450.48438 315.34064L449.3125 315.34064L449.3125 314.1219L450.48438 314.1219L450.48438 311.8094L452.04688 310.85626L452.04688 314.1219L453.64062 314.1219L453.64062 315.34064L452.04688 315.34064L452.04688 320.8094Q452.04688 321.48126 452.125 321.6844Q452.21875 321.8719 452.40625 321.98126Q452.59375 322.09064 452.95312 322.09064Q453.20312 322.09064 453.64062 322.02814ZM454.59375 318.77814Q454.59375 316.1844 456.04688 314.9344Q457.25 313.90314 458.96875 313.90314Q460.90625 313.90314 462.125 315.16876Q463.34375 316.4344 463.34375 318.65314Q463.34375 320.45 462.79688 321.48126Q462.26562 322.5125 461.23438 323.09064Q460.20312 323.66876 458.96875 323.66876Q457.01562 323.66876 455.79688 322.41876Q454.59375 321.15314 454.59375 318.77814ZM456.21875 318.77814Q456.21875 320.575 457.0 321.46564Q457.78125 322.35626 458.96875 322.35626Q460.15625 322.35626 460.9375 321.46564Q461.71875 320.5594 461.71875 318.73126Q461.71875 316.9969 460.92188 316.10626Q460.14062 315.21564 458.96875 315.21564Q457.78125 315.21564 457.0 316.10626Q456.21875 316.9969 456.21875 318.77814ZM469.75 320.075L471.40625 319.9344Q471.59375 321.15314 472.26562 321.7625Q472.9375 322.3719 473.89062 322.3719Q475.03125 322.3719 475.8125 321.5125Q476.60938 320.65314 476.60938 319.21564Q476.60938 317.8719 475.84375 317.09064Q475.09375 316.3094 473.85938 316.3094Q473.09375 316.3094 472.46875 316.65314Q471.85938 316.9969 471.51562 317.5594L470.03125 317.35626L471.28125 310.7469L477.6875 310.7469L477.6875 312.2469L472.54688 312.2469L471.84375 315.71564Q473.01562 314.90314 474.28125 314.90314Q475.96875 314.90314 477.125 316.075Q478.29688 317.2469 478.29688 319.075Q478.29688 320.825 477.26562 322.10626Q476.03125 323.66876 473.89062 323.66876Q472.125 323.66876 471.01562 322.6844Q469.90625 321.7 469.75 320.075ZM479.75 317.09064Q479.75 314.8094 480.21875 313.41876Q480.6875 312.02814 481.60938 311.27814Q482.54688 310.5125 483.95312 310.5125Q484.98438 310.5125 485.76562 310.9344Q486.54688 311.34064 487.04688 312.1375Q487.5625 312.91876 487.85938 314.0594Q488.15625 315.1844 488.15625 317.09064Q488.15625 319.35626 487.6875 320.7625Q487.21875 322.15314 486.28125 322.91876Q485.35938 323.66876 483.95312 323.66876Q482.07812 323.66876 481.01562 322.34064Q479.75 320.73126 479.75 317.09064ZM481.375 317.09064Q481.375 320.2625 482.10938 321.325Q482.85938 322.3719 483.95312 322.3719Q485.03125 322.3719 485.78125 321.325Q486.53125 320.2625 486.53125 317.09064Q486.53125 313.91876 485.78125 312.8719Q485.03125 311.825 483.9375 311.825Q482.84375 311.825 482.1875 312.7469Q481.375 313.91876 481.375 317.09064ZM490.04688 313.65314Q490.04688 312.27814 490.73438 311.3094Q491.4375 310.34064 492.75 310.34064Q493.96875 310.34064 494.76562 311.21564Q495.5625 312.075 495.5625 313.7625Q495.5625 315.3875 494.75 316.27814Q493.95312 317.15314 492.76562 317.15314Q491.60938 317.15314 490.82812 316.29376Q490.04688 315.41876 490.04688 313.65314ZM492.79688 311.4344Q492.20312 311.4344 491.8125 311.95Q491.42188 312.45 491.42188 313.8094Q491.42188 315.0594 491.8125 315.5594Q492.21875 316.0594 492.79688 316.0594Q493.39062 316.0594 493.78125 315.5594Q494.17188 315.04376 494.17188 313.7Q494.17188 312.45 493.78125 311.95Q493.39062 311.4344 492.79688 311.4344ZM492.8125 323.91876L499.85938 310.34064L501.14062 310.34064L494.10938 323.91876L492.8125 323.91876ZM498.375 320.41876Q498.375 319.04376 499.0625 318.075Q499.76562 317.10626 501.09375 317.10626Q502.3125 317.10626 503.09375 317.98126Q503.89062 318.84064 503.89062 320.52814Q503.89062 322.15314 503.09375 323.04376Q502.29688 323.91876 501.10938 323.91876Q499.9375 323.91876 499.15625 323.04376Q498.375 322.16876 498.375 320.41876ZM501.14062 318.2Q500.54688 318.2 500.15625 318.71564Q499.76562 319.21564 499.76562 320.59064Q499.76562 321.8094 500.15625 322.325Q500.54688 322.84064 501.125 322.84064Q501.73438 322.84064 502.125 322.325Q502.51562 321.8094 502.51562 320.46564Q502.51562 319.21564 502.125 318.71564Q501.73438 318.2 501.14062 318.2ZM510.59375 318.77814Q510.59375 316.1844 512.0469 314.9344Q513.25 313.90314 514.96875 313.90314Q516.90625 313.90314 518.125 315.16876Q519.34375 316.4344 519.34375 318.65314Q519.34375 320.45 518.7969 321.48126Q518.2656 322.5125 517.2344 323.09064Q516.2031 323.66876 514.96875 323.66876Q513.0156 323.66876 511.79688 322.41876Q510.59375 321.15314 510.59375 318.77814ZM512.21875 318.77814Q512.21875 320.575 513.0 321.46564Q513.78125 322.35626 514.96875 322.35626Q516.15625 322.35626 516.9375 321.46564Q517.71875 320.5594 517.71875 318.73126Q517.71875 316.9969 516.9219 316.10626Q516.1406 315.21564 514.96875 315.21564Q513.78125 315.21564 513.0 316.10626Q512.21875 316.9969 512.21875 318.77814ZM521.5625 323.45L521.5625 315.34064L520.1719 315.34064L520.1719 314.1219L521.5625 314.1219L521.5625 313.1219Q521.5625 312.1844 521.7344 311.73126Q521.9531 311.10626 522.53125 310.73126Q523.1094 310.34064 524.15625 310.34064Q524.8125 310.34064 525.625 310.4969L525.3906 311.8875Q524.8906 311.79376 524.4531 311.79376Q523.7344 311.79376 523.4375 312.10626Q523.1406 312.40314 523.1406 313.2469L523.1406 314.1219L524.9531 314.1219L524.9531 315.34064L523.1406 315.34064L523.1406 323.45L521.5625 323.45ZM534.6719 323.45L534.6719 312.09064L530.4219 312.09064L530.4219 310.5594L540.6406 310.5594L540.6406 312.09064L536.375 312.09064L536.375 323.45L534.6719 323.45ZM548.5781 320.45L550.21875 320.65314Q549.8281 322.075 548.78125 322.8719Q547.7344 323.66876 546.1094 323.66876Q544.0625 323.66876 542.8594 322.40314Q541.65625 321.1375 541.65625 318.85626Q541.65625 316.5125 542.8594 315.21564Q544.0781 313.90314 546.0156 313.90314Q547.8906 313.90314 549.0781 315.1844Q550.2656 316.45 550.2656 318.7625Q550.2656 318.90314 550.25 319.1844L543.2969 319.1844Q543.375 320.73126 544.15625 321.54376Q544.9531 322.35626 546.1094 322.35626Q546.9844 322.35626 547.59375 321.90314Q548.21875 321.45 548.5781 320.45ZM543.375 317.8875L548.59375 317.8875Q548.4844 316.71564 548.0 316.1219Q547.2344 315.2 546.03125 315.2Q544.9531 315.2 544.2031 315.9344Q543.46875 316.66876 543.375 317.8875ZM552.15625 323.45L552.15625 310.5594L553.7344 310.5594L553.7344 323.45L552.15625 323.45ZM562.5781 320.45L564.21875 320.65314Q563.8281 322.075 562.78125 322.8719Q561.7344 323.66876 560.1094 323.66876Q558.0625 323.66876 556.8594 322.40314Q555.65625 321.1375 555.65625 318.85626Q555.65625 316.5125 556.8594 315.21564Q558.0781 313.90314 560.0156 313.90314Q561.8906 313.90314 563.0781 315.1844Q564.2656 316.45 564.2656 318.7625Q564.2656 318.90314 564.25 319.1844L557.2969 319.1844Q557.375 320.73126 558.15625 321.54376Q558.9531 322.35626 560.1094 322.35626Q560.9844 322.35626 561.59375 321.90314Q562.21875 321.45 562.5781 320.45ZM557.375 317.8875L562.59375 317.8875Q562.4844 316.71564 562.0 316.1219Q561.2344 315.2 560.03125 315.2Q558.9531 315.2 558.2031 315.9344Q557.46875 316.66876 557.375 317.8875ZM572.28125 320.02814L573.8281 320.23126Q573.5781 321.84064 572.53125 322.7625Q571.4844 323.66876 569.9531 323.66876Q568.03125 323.66876 566.8594 322.41876Q565.7031 321.15314 565.7031 318.825Q565.7031 317.3094 566.2031 316.1844Q566.7031 315.04376 567.71875 314.48126Q568.75 313.90314 569.9531 313.90314Q571.4844 313.90314 572.4375 314.6844Q573.40625 315.45 573.6875 316.85626L572.1406 317.09064Q571.9219 316.15314 571.3594 315.6844Q570.8125 315.2 570.0156 315.2Q568.8281 315.2 568.0781 316.0594Q567.3281 316.91876 567.3281 318.77814Q567.3281 320.65314 568.0469 321.5125Q568.7656 322.35626 569.9375 322.35626Q570.8594 322.35626 571.4844 321.79376Q572.1094 321.21564 572.28125 320.02814ZM574.59375 318.77814Q574.59375 316.1844 576.0469 314.9344Q577.25 313.90314 578.96875 313.90314Q580.90625 313.90314 582.125 315.16876Q583.34375 316.4344 583.34375 318.65314Q583.34375 320.45 582.7969 321.48126Q582.2656 322.5125 581.2344 323.09064Q580.2031 323.66876 578.96875 323.66876Q577.0156 323.66876 575.7969 322.41876Q574.59375 321.15314 574.59375 318.77814ZM576.21875 318.77814Q576.21875 320.575 577.0 321.46564Q577.78125 322.35626 578.96875 322.35626Q580.15625 322.35626 580.9375 321.46564Q581.71875 320.5594 581.71875 318.73126Q581.71875 316.9969 580.9219 316.10626Q580.1406 315.21564 578.96875 315.21564Q577.78125 315.21564 577.0 316.10626Q576.21875 316.9969 576.21875 318.77814ZM585.1875 323.45L585.1875 314.1219L586.6094 314.1219L586.6094 315.45Q587.6406 313.90314 589.5781 313.90314Q590.4219 313.90314 591.125 314.21564Q591.84375 314.5125 592.1875 315.0125Q592.5469 315.4969 592.6875 316.16876Q592.7656 316.60626 592.7656 317.71564L592.7656 323.45L591.1875 323.45L591.1875 317.77814Q591.1875 316.8094 591.0 316.325Q590.8281 315.84064 590.34375 315.5594Q589.875 315.27814 589.25 315.27814Q588.2344 315.27814 587.5 315.91876Q586.7656 316.5594 586.7656 318.35626L586.7656 323.45L585.1875 323.45ZM594.5469 320.66876L596.125 320.41876Q596.25 321.35626 596.84375 321.85626Q597.4531 322.35626 598.53125 322.35626Q599.625 322.35626 600.15625 321.91876Q600.6875 321.46564 600.6875 320.8719Q600.6875 320.34064 600.21875 320.02814Q599.8906 319.825 598.59375 319.4969Q596.8594 319.0594 596.1875 318.7469Q595.5156 318.41876 595.15625 317.85626Q594.8125 317.27814 594.8125 316.59064Q594.8125 315.96564 595.09375 315.4344Q595.3906 314.90314 595.875 314.5594Q596.25 314.27814 596.8906 314.09064Q597.53125 313.90314 598.25 313.90314Q599.3594 313.90314 600.1875 314.23126Q601.0156 314.54376 601.40625 315.09064Q601.8125 315.6219 601.9531 316.52814L600.40625 316.73126Q600.2969 316.0125 599.7969 315.60626Q599.2969 315.2 598.375 315.2Q597.28125 315.2 596.8125 315.5594Q596.34375 315.91876 596.34375 316.40314Q596.34375 316.71564 596.5469 316.96564Q596.7344 317.21564 597.1406 317.3875Q597.3906 317.46564 598.5469 317.79376Q600.21875 318.23126 600.875 318.52814Q601.5469 318.8094 601.9219 319.35626Q602.3125 319.90314 602.3125 320.7Q602.3125 321.4969 601.84375 322.2Q601.3906 322.90314 600.5156 323.29376Q599.6406 323.66876 598.5469 323.66876Q596.71875 323.66876 595.7656 322.91876Q594.8125 322.15314 594.5469 320.66876Z" fill-rule="nonzero"/><path fill="#88aaff" d="M136.0 341.95C136.0 345.2637 133.3137 347.95 130.0 347.95C126.686295 347.95 124.0 345.2637 124.0 341.95C124.0 338.6363 126.686295 335.95 130.0 335.95C133.3137 335.95 136.0 338.6363 136.0 341.95Z" fill-rule="nonzero"/><path fill="#999999" d="M144.75 345.075L146.40625 344.9344Q146.59375 346.15314 147.26562 346.7625Q147.9375 347.3719 148.89062 347.3719Q150.03125 347.3719 150.8125 346.5125Q151.60938 345.65314 151.60938 344.21564Q151.60938 342.8719 150.84375 342.09064Q150.09375 341.3094 148.85938 341.3094Q148.09375 341.3094 147.46875 341.65314Q146.85938 341.9969 146.51562 342.5594L145.03125 342.35626L146.28125 335.7469L152.6875 335.7469L152.6875 337.2469L147.54688 337.2469L146.84375 340.71564Q148.01562 339.90314 149.28125 339.90314Q150.96875 339.90314 152.125 341.075Q153.29688 342.2469 153.29688 344.075Q153.29688 345.825 152.26562 347.10626Q151.03125 348.66876 148.89062 348.66876Q147.125 348.66876 146.01562 347.6844Q144.90625 346.7 144.75 345.075ZM154.75 342.09064Q154.75 339.8094 155.21875 338.41876Q155.6875 337.02814 156.60938 336.27814Q157.54688 335.5125 158.95312 335.5125Q159.98438 335.5125 160.76562 335.9344Q161.54688 336.34064 162.04688 337.1375Q162.5625 337.91876 162.85938 339.0594Q163.15625 340.1844 163.15625 342.09064Q163.15625 344.35626 162.6875 345.7625Q162.21875 347.15314 161.28125 347.91876Q160.35938 348.66876 158.95312 348.66876Q157.07812 348.66876 156.01562 347.34064Q154.75 345.73126 154.75 342.09064ZM156.375 342.09064Q156.375 345.2625 157.10938 346.325Q157.85938 347.3719 158.95312 347.3719Q160.03125 347.3719 160.78125 346.325Q161.53125 345.2625 161.53125 342.09064Q161.53125 338.91876 160.78125 337.8719Q160.03125 336.825 158.9375 336.825Q157.84375 336.825 157.1875 337.7469Q156.375 338.91876 156.375 342.09064ZM165.04688 338.65314Q165.04688 337.27814 165.73438 336.3094Q166.4375 335.34064 167.75 335.34064Q168.96875 335.34064 169.76562 336.21564Q170.5625 337.075 170.5625 338.7625Q170.5625 340.3875 169.75 341.27814Q168.95312 342.15314 167.76562 342.15314Q166.60938 342.15314 165.82812 341.29376Q165.04688 340.41876 165.04688 338.65314ZM167.79688 336.4344Q167.20312 336.4344 166.8125 336.95Q166.42188 337.45 166.42188 338.8094Q166.42188 340.0594 166.8125 340.5594Q167.21875 341.0594 167.79688 341.0594Q168.39062 341.0594 168.78125 340.5594Q169.17188 340.04376 169.17188 338.7Q169.17188 337.45 168.78125 336.95Q168.39062 336.4344 167.79688 336.4344ZM167.8125 348.91876L174.85938 335.34064L176.14062 335.34064L169.10938 348.91876L167.8125 348.91876ZM173.375 345.41876Q173.375 344.04376 174.0625 343.075Q174.76562 342.10626 176.09375 342.10626Q177.3125 342.10626 178.09375 342.98126Q178.89062 343.84064 178.89062 345.52814Q178.89062 347.15314 178.09375 348.04376Q177.29688 348.91876 176.10938 348.91876Q174.9375 348.91876 174.15625 348.04376Q173.375 347.16876 173.375 345.41876ZM176.14062 343.2Q175.54688 343.2 175.15625 343.71564Q174.76562 344.21564 174.76562 345.59064Q174.76562 346.8094 175.15625 347.325Q175.54688 347.84064 176.125 347.84064Q176.73438 347.84064 177.125 347.325Q177.51562 346.8094 177.51562 345.46564Q177.51562 344.21564 177.125 343.71564Q176.73438 343.2 176.14062 343.2ZM189.64062 347.02814L189.875 348.4344Q189.20312 348.575 188.67188 348.575Q187.8125 348.575 187.32812 348.3094Q186.85938 348.02814 186.67188 347.59064Q186.48438 347.1375 186.48438 345.71564L186.48438 340.34064L185.3125 340.34064L185.3125 339.1219L186.48438 339.1219L186.48438 336.8094L188.04688 335.85626L188.04688 339.1219L189.64062 339.1219L189.64062 340.34064L188.04688 340.34064L188.04688 345.8094Q188.04688 346.48126 188.125 346.6844Q188.21875 346.8719 188.40625 346.98126Q188.59375 347.09064 188.95312 347.09064Q189.20312 347.09064 189.64062 347.02814ZM190.59375 343.77814Q190.59375 341.1844 192.04688 339.9344Q193.25 338.90314 194.96875 338.90314Q196.90625 338.90314 198.125 340.16876Q199.34375 341.4344 199.34375 343.65314Q199.34375 345.45 198.79688 346.48126Q198.26562 347.5125 197.23438 348.09064Q196.20312 348.66876 194.96875 348.66876Q193.01562 348.66876 191.79688 347.41876Q190.59375 346.15314 190.59375 343.77814ZM192.21875 343.77814Q192.21875 345.575 193.0 346.46564Q193.78125 347.35626 194.96875 347.35626Q196.15625 347.35626 196.9375 346.46564Q197.71875 345.5594 197.71875 343.73126Q197.71875 341.9969 196.92188 341.10626Q196.14062 340.21564 194.96875 340.21564Q193.78125 340.21564 193.0 341.10626Q192.21875 341.9969 192.21875 343.77814ZM205.85938 337.2469L205.85938 335.73126L214.1875 335.73126L214.1875 336.96564Q212.96875 338.27814 211.75 340.45Q210.54688 342.60626 209.89062 344.90314Q209.40625 346.52814 209.28125 348.45L207.65625 348.45Q207.6875 346.9344 208.25 344.77814Q208.82812 342.6219 209.89062 340.6219Q210.95312 338.6219 212.15625 337.2469L205.85938 337.2469ZM215.75 345.075L217.40625 344.9344Q217.59375 346.15314 218.26562 346.7625Q218.9375 347.3719 219.89062 347.3719Q221.03125 347.3719 221.8125 346.5125Q222.60938 345.65314 222.60938 344.21564Q222.60938 342.8719 221.84375 342.09064Q221.09375 341.3094 219.85938 341.3094Q219.09375 341.3094 218.46875 341.65314Q217.85938 341.9969 217.51562 342.5594L216.03125 342.35626L217.28125 335.7469L223.6875 335.7469L223.6875 337.2469L218.54688 337.2469L217.84375 340.71564Q219.01562 339.90314 220.28125 339.90314Q221.96875 339.90314 223.125 341.075Q224.29688 342.2469 224.29688 344.075Q224.29688 345.825 223.26562 347.10626Q222.03125 348.66876 219.89062 348.66876Q218.125 348.66876 217.01562 347.6844Q215.90625 346.7 215.75 345.075ZM226.04688 338.65314Q226.04688 337.27814 226.73438 336.3094Q227.4375 335.34064 228.75 335.34064Q229.96875 335.34064 230.76562 336.21564Q231.5625 337.075 231.5625 338.7625Q231.5625 340.3875 230.75 341.27814Q229.95312 342.15314 228.76562 342.15314Q227.60938 342.15314 226.82812 341.29376Q226.04688 340.41876 226.04688 338.65314ZM228.79688 336.4344Q228.20312 336.4344 227.8125 336.95Q227.42188 337.45 227.42188 338.8094Q227.42188 340.0594 227.8125 340.5594Q228.21875 341.0594 228.79688 341.0594Q229.39062 341.0594 229.78125 340.5594Q230.17188 340.04376 230.17188 338.7Q230.17188 337.45 229.78125 336.95Q229.39062 336.4344 228.79688 336.4344ZM228.8125 348.91876L235.85938 335.34064L237.14062 335.34064L230.10938 348.91876L228.8125 348.91876ZM234.375 345.41876Q234.375 344.04376 235.0625 343.075Q235.76562 342.10626 237.09375 342.10626Q238.3125 342.10626 239.09375 342.98126Q239.89062 343.84064 239.89062 345.52814Q239.89062 347.15314 239.09375 348.04376Q238.29688 348.91876 237.10938 348.91876Q235.9375 348.91876 235.15625 348.04376Q234.375 347.16876 234.375 345.41876ZM237.14062 343.2Q236.54688 343.2 236.15625 343.71564Q235.76562 344.21564 235.76562 345.59064Q235.76562 346.8094 236.15625 347.325Q236.54688 347.84064 237.125 347.84064Q237.73438 347.84064 238.125 347.325Q238.51562 346.8094 238.51562 345.46564Q238.51562 344.21564 238.125 343.71564Q237.73438 343.2 237.14062 343.2ZM246.59375 343.77814Q246.59375 341.1844 248.04688 339.9344Q249.25 338.90314 250.96875 338.90314Q252.90625 338.90314 254.125 340.16876Q255.34375 341.4344 255.34375 343.65314Q255.34375 345.45 254.79688 346.48126Q254.26562 347.5125 253.23438 348.09064Q252.20312 348.66876 250.96875 348.66876Q249.01562 348.66876 247.79688 347.41876Q246.59375 346.15314 246.59375 343.77814ZM248.21875 343.77814Q248.21875 345.575 249.0 346.46564Q249.78125 347.35626 250.96875 347.35626Q252.15625 347.35626 252.9375 346.46564Q253.71875 345.5594 253.71875 343.73126Q253.71875 341.9969 252.92188 341.10626Q252.14062 340.21564 250.96875 340.21564Q249.78125 340.21564 249.0 341.10626Q248.21875 341.9969 248.21875 343.77814ZM257.5625 348.45L257.5625 340.34064L256.17188 340.34064L256.17188 339.1219L257.5625 339.1219L257.5625 338.1219Q257.5625 337.1844 257.73438 336.73126Q257.95312 336.10626 258.53125 335.73126Q259.10938 335.34064 260.15625 335.34064Q260.8125 335.34064 261.625 335.4969L261.39062 336.8875Q260.89062 336.79376 260.45312 336.79376Q259.73438 336.79376 259.4375 337.10626Q259.14062 337.40314 259.14062 338.2469L259.14062 339.1219L260.95312 339.1219L260.95312 340.34064L259.14062 340.34064L259.14062 348.45L257.5625 348.45ZM270.67188 348.45L270.67188 337.09064L266.42188 337.09064L266.42188 335.5594L276.64062 335.5594L276.64062 337.09064L272.375 337.09064L272.375 348.45L270.67188 348.45ZM284.57812 345.45L286.21875 345.65314Q285.82812 347.075 284.78125 347.8719Q283.73438 348.66876 282.10938 348.66876Q280.0625 348.66876 278.85938 347.40314Q277.65625 346.1375 277.65625 343.85626Q277.65625 341.5125 278.85938 340.21564Q280.07812 338.90314 282.01562 338.90314Q283.89062 338.90314 285.07812 340.1844Q286.26562 341.45 286.26562 343.7625Q286.26562 343.90314 286.25 344.1844L279.29688 344.1844Q279.375 345.73126 280.15625 346.54376Q280.95312 347.35626 282.10938 347.35626Q282.98438 347.35626 283.59375 346.90314Q284.21875 346.45 284.57812 345.45ZM279.375 342.8875L284.59375 342.8875Q284.48438 341.71564 284.0 341.1219Q283.23438 340.2 282.03125 340.2Q280.95312 340.2 280.20312 340.9344Q279.46875 341.66876 279.375 342.8875ZM288.15625 348.45L288.15625 335.5594L289.73438 335.5594L289.73438 348.45L288.15625 348.45ZM298.57812 345.45L300.21875 345.65314Q299.82812 347.075 298.78125 347.8719Q297.73438 348.66876 296.10938 348.66876Q294.0625 348.66876 292.85938 347.40314Q291.65625 346.1375 291.65625 343.85626Q291.65625 341.5125 292.85938 340.21564Q294.07812 338.90314 296.01562 338.90314Q297.89062 338.90314 299.07812 340.1844Q300.26562 341.45 300.26562 343.7625Q300.26562 343.90314 300.25 344.1844L293.29688 344.1844Q293.375 345.73126 294.15625 346.54376Q294.95312 347.35626 296.10938 347.35626Q296.98438 347.35626 297.59375 346.90314Q298.21875 346.45 298.57812 345.45ZM293.375 342.8875L298.59375 342.8875Q298.48438 341.71564 298.0 341.1219Q297.23438 340.2 296.03125 340.2Q294.95312 340.2 294.20312 340.9344Q293.46875 341.66876 293.375 342.8875ZM308.28125 345.02814L309.82812 345.23126Q309.57812 346.84064 308.53125 347.7625Q307.48438 348.66876 305.95312 348.66876Q304.03125 348.66876 302.85938 347.41876Q301.70312 346.15314 301.70312 343.825Q301.70312 342.3094 302.20312 341.1844Q302.70312 340.04376 303.71875 339.48126Q304.75 338.90314 305.95312 338.90314Q307.48438 338.90314 308.4375 339.6844Q309.40625 340.45 309.6875 341.85626L308.14062 342.09064Q307.92188 341.15314 307.35938 340.6844Q306.8125 340.2 306.01562 340.2Q304.82812 340.2 304.07812 341.0594Q303.32812 341.91876 303.32812 343.77814Q303.32812 345.65314 304.04688 346.5125Q304.76562 347.35626 305.9375 347.35626Q306.85938 347.35626 307.48438 346.79376Q308.10938 346.21564 308.28125 345.02814ZM310.59375 343.77814Q310.59375 341.1844 312.04688 339.9344Q313.25 338.90314 314.96875 338.90314Q316.90625 338.90314 318.125 340.16876Q319.34375 341.4344 319.34375 343.65314Q319.34375 345.45 318.79688 346.48126Q318.26562 347.5125 317.23438 348.09064Q316.20312 348.66876 314.96875 348.66876Q313.01562 348.66876 311.79688 347.41876Q310.59375 346.15314 310.59375 343.77814ZM312.21875 343.77814Q312.21875 345.575 313.0 346.46564Q313.78125 347.35626 314.96875 347.35626Q316.15625 347.35626 316.9375 346.46564Q317.71875 345.5594 317.71875 343.73126Q317.71875 341.9969 316.92188 341.10626Q316.14062 340.21564 314.96875 340.21564Q313.78125 340.21564 313.0 341.10626Q312.21875 341.9969 312.21875 343.77814ZM321.1875 348.45L321.1875 339.1219L322.60938 339.1219L322.60938 340.45Q323.64062 338.90314 325.57812 338.90314Q326.42188 338.90314 327.125 339.21564Q327.84375 339.5125 328.1875 340.0125Q328.54688 340.4969 328.6875 341.16876Q328.76562 341.60626 328.76562 342.71564L328.76562 348.45L327.1875 348.45L327.1875 342.77814Q327.1875 341.8094 327.0 341.325Q326.82812 340.84064 326.34375 340.5594Q325.875 340.27814 325.25 340.27814Q324.23438 340.27814 323.5 340.91876Q322.76562 341.5594 322.76562 343.35626L322.76562 348.45L321.1875 348.45ZM330.54688 345.66876L332.125 345.41876Q332.25 346.35626 332.84375 346.85626Q333.45312 347.35626 334.53125 347.35626Q335.625 347.35626 336.15625 346.91876Q336.6875 346.46564 336.6875 345.8719Q336.6875 345.34064 336.21875 345.02814Q335.89062 344.825 334.59375 344.4969Q332.85938 344.0594 332.1875 343.7469Q331.51562 343.41876 331.15625 342.85626Q330.8125 342.27814 330.8125 341.59064Q330.8125 340.96564 331.09375 340.4344Q331.39062 339.90314 331.875 339.5594Q332.25 339.27814 332.89062 339.09064Q333.53125 338.90314 334.25 338.90314Q335.35938 338.90314 336.1875 339.23126Q337.01562 339.54376 337.40625 340.09064Q337.8125 340.6219 337.95312 341.52814L336.40625 341.73126Q336.29688 341.0125 335.79688 340.60626Q335.29688 340.2 334.375 340.2Q333.28125 340.2 332.8125 340.5594Q332.34375 340.91876 332.34375 341.40314Q332.34375 341.71564 332.54688 341.96564Q332.73438 342.21564 333.14062 342.3875Q333.39062 342.46564 334.54688 342.79376Q336.21875 343.23126 336.875 343.52814Q337.54688 343.8094 337.92188 344.35626Q338.3125 344.90314 338.3125 345.7Q338.3125 346.4969 337.84375 347.2Q337.39062 347.90314 336.51562 348.29376Q335.64062 348.66876 334.54688 348.66876Q332.71875 348.66876 331.76562 347.91876Q330.8125 347.15314 330.54688 345.66876Z" fill-rule="nonzero"/><path fill="#76b900" d="M367.0 341.95C367.0 345.2637 364.31372 347.95 361.0 347.95C357.68628 347.95 355.0 345.2637 355.0 341.95C355.0 338.6363 357.68628 335.95 361.0 335.95C364.31372 335.95 367.0 338.6363 367.0 341.95Z" fill-rule="nonzero"/><path fill="#999999" d="M384.51562 342.8094L375.98438 346.46564L375.98438 344.8875L382.75 342.09064L375.98438 339.3094L375.98438 337.73126L384.51562 341.34064L384.51562 342.8094ZM395.51562 340.8719L387.0 340.8719L387.0 339.40314L395.51562 339.40314L395.51562 340.8719ZM395.51562 344.77814L387.0 344.77814L387.0 343.3094L395.51562 343.3094L395.51562 344.77814ZM397.85938 337.2469L397.85938 335.73126L406.1875 335.73126L406.1875 336.96564Q404.96875 338.27814 403.75 340.45Q402.54688 342.60626 401.89062 344.90314Q401.40625 346.52814 401.28125 348.45L399.65625 348.45Q399.6875 346.9344 400.25 344.77814Q400.82812 342.6219 401.89062 340.6219Q402.95312 338.6219 404.15625 337.2469L397.85938 337.2469ZM407.75 345.075L409.40625 344.9344Q409.59375 346.15314 410.26562 346.7625Q410.9375 347.3719 411.89062 347.3719Q413.03125 347.3719 413.8125 346.5125Q414.60938 345.65314 414.60938 344.21564Q414.60938 342.8719 413.84375 342.09064Q413.09375 341.3094 411.85938 341.3094Q411.09375 341.3094 410.46875 341.65314Q409.85938 341.9969 409.51562 342.5594L408.03125 342.35626L409.28125 335.7469L415.6875 335.7469L415.6875 337.2469L410.54688 337.2469L409.84375 340.71564Q411.01562 339.90314 412.28125 339.90314Q413.96875 339.90314 415.125 341.075Q416.29688 342.2469 416.29688 344.075Q416.29688 345.825 415.26562 347.10626Q414.03125 348.66876 411.89062 348.66876Q410.125 348.66876 409.01562 347.6844Q407.90625 346.7 407.75 345.075ZM418.04688 338.65314Q418.04688 337.27814 418.73438 336.3094Q419.4375 335.34064 420.75 335.34064Q421.96875 335.34064 422.76562 336.21564Q423.5625 337.075 423.5625 338.7625Q423.5625 340.3875 422.75 341.27814Q421.95312 342.15314 420.76562 342.15314Q419.60938 342.15314 418.82812 341.29376Q418.04688 340.41876 418.04688 338.65314ZM420.79688 336.4344Q420.20312 336.4344 419.8125 336.95Q419.42188 337.45 419.42188 338.8094Q419.42188 340.0594 419.8125 340.5594Q420.21875 341.0594 420.79688 341.0594Q421.39062 341.0594 421.78125 340.5594Q422.17188 340.04376 422.17188 338.7Q422.17188 337.45 421.78125 336.95Q421.39062 336.4344 420.79688 336.4344ZM420.8125 348.91876L427.85938 335.34064L429.14062 335.34064L422.10938 348.91876L420.8125 348.91876ZM426.375 345.41876Q426.375 344.04376 427.0625 343.075Q427.76562 342.10626 429.09375 342.10626Q430.3125 342.10626 431.09375 342.98126Q431.89062 343.84064 431.89062 345.52814Q431.89062 347.15314 431.09375 348.04376Q430.29688 348.91876 429.10938 348.91876Q427.9375 348.91876 427.15625 348.04376Q426.375 347.16876 426.375 345.41876ZM429.14062 343.2Q428.54688 343.2 428.15625 343.71564Q427.76562 344.21564 427.76562 345.59064Q427.76562 346.8094 428.15625 347.325Q428.54688 347.84064 429.125 347.84064Q429.73438 347.84064 430.125 347.325Q430.51562 346.8094 430.51562 345.46564Q430.51562 344.21564 430.125 343.71564Q429.73438 343.2 429.14062 343.2ZM438.59375 343.77814Q438.59375 341.1844 440.04688 339.9344Q441.25 338.90314 442.96875 338.90314Q444.90625 338.90314 446.125 340.16876Q447.34375 341.4344 447.34375 343.65314Q447.34375 345.45 446.79688 346.48126Q446.26562 347.5125 445.23438 348.09064Q444.20312 348.66876 442.96875 348.66876Q441.01562 348.66876 439.79688 347.41876Q438.59375 346.15314 438.59375 343.77814ZM440.21875 343.77814Q440.21875 345.575 441.0 346.46564Q441.78125 347.35626 442.96875 347.35626Q444.15625 347.35626 444.9375 346.46564Q445.71875 345.5594 445.71875 343.73126Q445.71875 341.9969 444.92188 341.10626Q444.14062 340.21564 442.96875 340.21564Q441.78125 340.21564 441.0 341.10626Q440.21875 341.9969 440.21875 343.77814ZM449.5625 348.45L449.5625 340.34064L448.17188 340.34064L448.17188 339.1219L449.5625 339.1219L449.5625 338.1219Q449.5625 337.1844 449.73438 336.73126Q449.95312 336.10626 450.53125 335.73126Q451.10938 335.34064 452.15625 335.34064Q452.8125 335.34064 453.625 335.4969L453.39062 336.8875Q452.89062 336.79376 452.45312 336.79376Q451.73438 336.79376 451.4375 337.10626Q451.14062 337.40314 451.14062 338.2469L451.14062 339.1219L452.95312 339.1219L452.95312 340.34064L451.14062 340.34064L451.14062 348.45L449.5625 348.45ZM462.67188 348.45L462.67188 337.09064L458.42188 337.09064L458.42188 335.5594L468.64062 335.5594L468.64062 337.09064L464.375 337.09064L464.375 348.45L462.67188 348.45ZM476.57812 345.45L478.21875 345.65314Q477.82812 347.075 476.78125 347.8719Q475.73438 348.66876 474.10938 348.66876Q472.0625 348.66876 470.85938 347.40314Q469.65625 346.1375 469.65625 343.85626Q469.65625 341.5125 470.85938 340.21564Q472.07812 338.90314 474.01562 338.90314Q475.89062 338.90314 477.07812 340.1844Q478.26562 341.45 478.26562 343.7625Q478.26562 343.90314 478.25 344.1844L471.29688 344.1844Q471.375 345.73126 472.15625 346.54376Q472.95312 347.35626 474.10938 347.35626Q474.98438 347.35626 475.59375 346.90314Q476.21875 346.45 476.57812 345.45ZM471.375 342.8875L476.59375 342.8875Q476.48438 341.71564 476.0 341.1219Q475.23438 340.2 474.03125 340.2Q472.95312 340.2 472.20312 340.9344Q471.46875 341.66876 471.375 342.8875ZM480.15625 348.45L480.15625 335.5594L481.73438 335.5594L481.73438 348.45L480.15625 348.45ZM490.57812 345.45L492.21875 345.65314Q491.82812 347.075 490.78125 347.8719Q489.73438 348.66876 488.10938 348.66876Q486.0625 348.66876 484.85938 347.40314Q483.65625 346.1375 483.65625 343.85626Q483.65625 341.5125 484.85938 340.21564Q486.07812 338.90314 488.01562 338.90314Q489.89062 338.90314 491.07812 340.1844Q492.26562 341.45 492.26562 343.7625Q492.26562 343.90314 492.25 344.1844L485.29688 344.1844Q485.375 345.73126 486.15625 346.54376Q486.95312 347.35626 488.10938 347.35626Q488.98438 347.35626 489.59375 346.90314Q490.21875 346.45 490.57812 345.45ZM485.375 342.8875L490.59375 342.8875Q490.48438 341.71564 490.0 341.1219Q489.23438 340.2 488.03125 340.2Q486.95312 340.2 486.20312 340.9344Q485.46875 341.66876 485.375 342.8875ZM500.28125 345.02814L501.82812 345.23126Q501.57812 346.84064 500.53125 347.7625Q499.48438 348.66876 497.95312 348.66876Q496.03125 348.66876 494.85938 347.41876Q493.70312 346.15314 493.70312 343.825Q493.70312 342.3094 494.20312 341.1844Q494.70312 340.04376 495.71875 339.48126Q496.75 338.90314 497.95312 338.90314Q499.48438 338.90314 500.4375 339.6844Q501.40625 340.45 501.6875 341.85626L500.14062 342.09064Q499.92188 341.15314 499.35938 340.6844Q498.8125 340.2 498.01562 340.2Q496.82812 340.2 496.07812 341.0594Q495.32812 341.91876 495.32812 343.77814Q495.32812 345.65314 496.04688 346.5125Q496.76562 347.35626 497.9375 347.35626Q498.85938 347.35626 499.48438 346.79376Q500.10938 346.21564 500.28125 345.02814ZM502.59375 343.77814Q502.59375 341.1844 504.04688 339.9344Q505.25 338.90314 506.96875 338.90314Q508.90625 338.90314 510.125 340.16876Q511.34375 341.4344 511.34375 343.65314Q511.34375 345.45 510.79688 346.48126Q510.26562 347.5125 509.23438 348.09064Q508.20312 348.66876 506.96875 348.66876Q505.01562 348.66876 503.79688 347.41876Q502.59375 346.15314 502.59375 343.77814ZM504.21875 343.77814Q504.21875 345.575 505.0 346.46564Q505.78125 347.35626 506.96875 347.35626Q508.15625 347.35626 508.9375 346.46564Q509.71875 345.5594 509.71875 343.73126Q509.71875 341.9969 508.92188 341.10626Q508.14062 340.21564 506.96875 340.21564Q505.78125 340.21564 505.0 341.10626Q504.21875 341.9969 504.21875 343.77814ZM513.1875 348.45L513.1875 339.1219L514.6094 339.1219L514.6094 340.45Q515.6406 338.90314 517.5781 338.90314Q518.4219 338.90314 519.125 339.21564Q519.84375 339.5125 520.1875 340.0125Q520.5469 340.4969 520.6875 341.16876Q520.7656 341.60626 520.7656 342.71564L520.7656 348.45L519.1875 348.45L519.1875 342.77814Q519.1875 341.8094 519.0 341.325Q518.8281 340.84064 518.34375 340.5594Q517.875 340.27814 517.25 340.27814Q516.2344 340.27814 515.5 340.91876Q514.7656 341.5594 514.7656 343.35626L514.7656 348.45L513.1875 348.45ZM522.5469 345.66876L524.125 345.41876Q524.25 346.35626 524.84375 346.85626Q525.4531 347.35626 526.53125 347.35626Q527.625 347.35626 528.15625 346.91876Q528.6875 346.46564 528.6875 345.8719Q528.6875 345.34064 528.21875 345.02814Q527.8906 344.825 526.59375 344.4969Q524.8594 344.0594 524.1875 343.7469Q523.5156 343.41876 523.15625 342.85626Q522.8125 342.27814 522.8125 341.59064Q522.8125 340.96564 523.09375 340.4344Q523.3906 339.90314 523.875 339.5594Q524.25 339.27814 524.8906 339.09064Q525.53125 338.90314 526.25 338.90314Q527.3594 338.90314 528.1875 339.23126Q529.0156 339.54376 529.40625 340.09064Q529.8125 340.6219 529.9531 341.52814L528.40625 341.73126Q528.2969 341.0125 527.7969 340.60626Q527.2969 340.2 526.375 340.2Q525.28125 340.2 524.8125 340.5594Q524.34375 340.91876 524.34375 341.40314Q524.34375 341.71564 524.5469 341.96564Q524.7344 342.21564 525.1406 342.3875Q525.3906 342.46564 526.5469 342.79376Q528.21875 343.23126 528.875 343.52814Q529.5469 343.8094 529.9219 344.35626Q530.3125 344.90314 530.3125 345.7Q530.3125 346.4969 529.84375 347.2Q529.3906 347.90314 528.5156 348.29376Q527.6406 348.66876 526.5469 348.66876Q524.71875 348.66876 523.7656 347.91876Q522.8125 347.15314 522.5469 345.66876Z" fill-rule="nonzero"/><path fill="#999999" d="M54.265625 40.55L54.265625 23.3625L56.53125 23.3625L56.53125 38.51875L65.0 38.51875L65.0 40.55L54.265625 40.55ZM67.09375 25.8L67.09375 23.3625L69.203125 23.3625L69.203125 25.8L67.09375 25.8ZM67.09375 40.55L67.09375 28.096874L69.203125 28.096874L69.203125 40.55L67.09375 40.55ZM74.03125 40.55L72.078125 40.55L72.078125 23.3625L74.1875 23.3625L74.1875 29.503124Q75.515625 27.815624 77.59375 27.815624Q78.734375 27.815624 79.765625 28.284374Q80.796875 28.753124 81.453125 29.596874Q82.109375 30.425 82.484375 31.6125Q82.859375 32.784374 82.859375 34.14375Q82.859375 37.33125 81.28125 39.08125Q79.703125 40.83125 77.484375 40.83125Q75.28125 40.83125 74.03125 38.9875L74.03125 40.55ZM74.0 34.2375Q74.0 36.471874 74.609375 37.471874Q75.609375 39.096874 77.3125 39.096874Q78.6875 39.096874 79.6875 37.89375Q80.703125 36.690624 80.703125 34.315624Q80.703125 31.878124 79.734375 30.721874Q78.78125 29.55 77.40625 29.55Q76.015625 29.55 75.0 30.753124Q74.0 31.95625 74.0 34.2375ZM85.0625 40.55L85.0625 28.096874L86.953125 28.096874L86.953125 29.9875Q87.6875 28.659374 88.296875 28.2375Q88.921875 27.815624 89.65625 27.815624Q90.71875 27.815624 91.828125 28.503124L91.09375 30.45625Q90.328125 30.003124 89.546875 30.003124Q88.859375 30.003124 88.296875 30.425Q87.75 30.83125 87.515625 31.565624Q87.171875 32.690624 87.171875 34.034374L87.171875 40.55L85.0625 40.55ZM101.203125 39.01875Q100.03125 40.003124 98.9375 40.425Q97.859375 40.83125 96.625 40.83125Q94.578125 40.83125 93.46875 39.83125Q92.375 38.83125 92.375 37.26875Q92.375 36.346874 92.78125 35.596874Q93.203125 34.846874 93.875 34.39375Q94.546875 33.925 95.390625 33.690624Q96.015625 33.534374 97.265625 33.378124Q99.828125 33.065624 101.03125 32.64375Q101.046875 32.221874 101.046875 32.096874Q101.046875 30.815624 100.4375 30.284374Q99.640625 29.565624 98.046875 29.565624Q96.546875 29.565624 95.84375 30.096874Q95.140625 30.6125 94.796875 31.940624L92.734375 31.659374Q93.015625 30.33125 93.65625 29.51875Q94.296875 28.70625 95.515625 28.26875Q96.734375 27.815624 98.34375 27.815624Q99.9375 27.815624 100.9375 28.190624Q101.9375 28.565624 102.40625 29.14375Q102.875 29.70625 103.0625 30.58125Q103.15625 31.1125 103.15625 32.51875L103.15625 35.33125Q103.15625 38.26875 103.296875 39.05Q103.4375 39.83125 103.828125 40.55L101.625 40.55Q101.296875 39.89375 101.203125 39.01875ZM101.03125 34.3Q99.875 34.76875 97.578125 35.096874Q96.28125 35.284374 95.734375 35.51875Q95.203125 35.753124 94.90625 36.20625Q94.625 36.659374 94.625 37.20625Q94.625 38.05 95.25 38.6125Q95.890625 39.175 97.125 39.175Q98.34375 39.175 99.296875 38.64375Q100.25 38.1125 100.6875 37.190624Q101.03125 36.471874 101.03125 35.08125L101.03125 34.3ZM106.0625 40.55L106.0625 28.096874L107.953125 28.096874L107.953125 29.9875Q108.6875 28.659374 109.296875 28.2375Q109.921875 27.815624 110.65625 27.815624Q111.71875 27.815624 112.828125 28.503124L112.09375 30.45625Q111.328125 30.003124 110.546875 30.003124Q109.859375 30.003124 109.296875 30.425Q108.75 30.83125 108.515625 31.565624Q108.171875 32.690624 108.171875 34.034374L108.171875 40.55L106.0625 40.55ZM113.984375 45.346874L113.75 43.3625Q114.453125 43.55 114.96875 43.55Q115.671875 43.55 116.09375 43.315624Q116.515625 43.08125 116.78125 42.659374Q116.984375 42.346874 117.421875 41.096874Q117.484375 40.909374 117.609375 40.58125L112.890625 28.096874L115.15625 28.096874L117.75 35.315624Q118.25 36.675 118.65625 38.190624Q119.015625 36.7375 119.515625 35.3625L122.1875 28.096874L124.296875 28.096874L119.5625 40.76875Q118.796875 42.815624 118.375 43.58125Q117.8125 44.628124 117.078125 45.1125Q116.359375 45.596874 115.34375 45.596874Q114.734375 45.596874 113.984375 45.346874ZM133.40625 40.55L133.40625 23.3625L145.82812 23.3625L145.82812 25.39375L135.67188 25.39375L135.67188 30.659374L145.17188 30.659374L145.17188 32.675L135.67188 32.675L135.67188 38.51875L146.21875 38.51875L146.21875 40.55L133.40625 40.55ZM152.54688 40.55L147.8125 28.096874L150.03125 28.096874L152.70312 35.55Q153.14062 36.76875 153.5 38.065624Q153.78125 37.08125 154.28125 35.690624L157.04688 28.096874L159.21875 28.096874L154.51562 40.55L152.54688 40.55ZM160.29688 34.33125Q160.29688 30.8625 162.21875 29.20625Q163.82812 27.815624 166.14062 27.815624Q168.70312 27.815624 170.32812 29.503124Q171.95312 31.190624 171.95312 34.14375Q171.95312 36.55 171.23438 37.925Q170.51562 39.3 169.14062 40.065624Q167.76562 40.83125 166.14062 40.83125Q163.51562 40.83125 161.90625 39.159374Q160.29688 37.471874 160.29688 34.33125ZM162.46875 34.33125Q162.46875 36.721874 163.5 37.909374Q164.54688 39.096874 166.14062 39.096874Q167.70312 39.096874 168.75 37.909374Q169.79688 36.70625 169.79688 34.253124Q169.79688 31.940624 168.73438 30.753124Q167.6875 29.565624 166.14062 29.565624Q164.54688 29.565624 163.5 30.753124Q162.46875 31.940624 162.46875 34.33125ZM174.03125 40.55L174.03125 23.3625L176.14062 23.3625L176.14062 40.55L174.03125 40.55ZM187.23438 40.55L187.23438 38.721874Q185.78125 40.83125 183.29688 40.83125Q182.1875 40.83125 181.23438 40.409374Q180.28125 39.9875 179.8125 39.346874Q179.35938 38.70625 179.17188 37.784374Q179.03125 37.159374 179.03125 35.815624L179.03125 28.096874L181.14062 28.096874L181.14062 35.003124Q181.14062 36.659374 181.28125 37.2375Q181.46875 38.065624 182.10938 38.55Q182.76562 39.01875 183.71875 39.01875Q184.65625 39.01875 185.48438 38.534374Q186.32812 38.034374 186.67188 37.20625Q187.01562 36.3625 187.01562 34.76875L187.01562 28.096874L189.125 28.096874L189.125 40.55L187.23438 40.55ZM196.6875 38.659374L197.0 40.51875Q196.10938 40.721874 195.40625 40.721874Q194.25 40.721874 193.60938 40.3625Q192.98438 39.9875 192.71875 39.39375Q192.46875 38.8 192.46875 36.909374L192.46875 29.7375L190.92188 29.7375L190.92188 28.096874L192.46875 28.096874L192.46875 25.01875L194.5625 23.753124L194.5625 28.096874L196.6875 28.096874L196.6875 29.7375L194.5625 29.7375L194.5625 37.01875Q194.5625 37.925 194.67188 38.190624Q194.79688 38.440624 195.04688 38.596874Q195.29688 38.7375 195.76562 38.7375Q196.10938 38.7375 196.6875 38.659374ZM199.09375 25.8L199.09375 23.3625L201.20312 23.3625L201.20312 25.8L199.09375 25.8ZM199.09375 40.55L199.09375 28.096874L201.20312 28.096874L201.20312 40.55L199.09375 40.55ZM203.29688 34.33125Q203.29688 30.8625 205.21875 29.20625Q206.82812 27.815624 209.14062 27.815624Q211.70312 27.815624 213.32812 29.503124Q214.95312 31.190624 214.95312 34.14375Q214.95312 36.55 214.23438 37.925Q213.51562 39.3 212.14062 40.065624Q210.76562 40.83125 209.14062 40.83125Q206.51562 40.83125 204.90625 39.159374Q203.29688 37.471874 203.29688 34.33125ZM205.46875 34.33125Q205.46875 36.721874 206.5 37.909374Q207.54688 39.096874 209.14062 39.096874Q210.70312 39.096874 211.75 37.909374Q212.79688 36.70625 212.79688 34.253124Q212.79688 31.940624 211.73438 30.753124Q210.6875 29.565624 209.14062 29.565624Q207.54688 29.565624 206.5 30.753124Q205.46875 31.940624 205.46875 34.33125ZM217.07812 40.55L217.07812 28.096874L218.98438 28.096874L218.98438 29.878124Q220.35938 27.815624 222.9375 27.815624Q224.0625 27.815624 225.0 28.221874Q225.95312 28.628124 226.42188 29.284374Q226.89062 29.940624 227.07812 30.846874Q227.20312 31.425 227.20312 32.89375L227.20312 40.55L225.09375 40.55L225.09375 32.971874Q225.09375 31.690624 224.84375 31.05Q224.59375 30.409374 223.96875 30.034374Q223.34375 29.64375 222.5 29.64375Q221.15625 29.64375 220.17188 30.503124Q219.1875 31.3625 219.1875 33.753124L219.1875 40.55L217.07812 40.55ZM241.71875 40.55L241.71875 25.39375L236.0625 25.39375L236.0625 23.3625L249.6875 23.3625L249.6875 25.39375L244.0 25.39375L244.0 40.55L241.71875 40.55ZM260.60938 36.534374L262.78125 36.815624Q262.26562 38.721874 260.875 39.784374Q259.48438 40.83125 257.3125 40.83125Q254.57812 40.83125 252.96875 39.159374Q251.375 37.471874 251.375 34.425Q251.375 31.284374 252.98438 29.55Q254.60938 27.815624 257.1875 27.815624Q259.6875 27.815624 261.26562 29.51875Q262.85938 31.221874 262.85938 34.3Q262.85938 34.4875 262.84375 34.8625L253.5625 34.8625Q253.67188 36.909374 254.71875 38.003124Q255.76562 39.096874 257.32812 39.096874Q258.48438 39.096874 259.29688 38.4875Q260.125 37.878124 260.60938 36.534374ZM253.67188 33.128124L260.625 33.128124Q260.48438 31.565624 259.82812 30.76875Q258.82812 29.55 257.21875 29.55Q255.76562 29.55 254.76562 30.534374Q253.78125 31.503124 253.67188 33.128124ZM265.03125 40.55L265.03125 23.3625L267.14062 23.3625L267.14062 40.55L265.03125 40.55ZM278.60938 36.534374L280.78125 36.815624Q280.26562 38.721874 278.875 39.784374Q277.48438 40.83125 275.3125 40.83125Q272.57812 40.83125 270.96875 39.159374Q269.375 37.471874 269.375 34.425Q269.375 31.284374 270.98438 29.55Q272.60938 27.815624 275.1875 27.815624Q277.6875 27.815624 279.26562 29.51875Q280.85938 31.221874 280.85938 34.3Q280.85938 34.4875 280.84375 34.8625L271.5625 34.8625Q271.67188 36.909374 272.71875 38.003124Q273.76562 39.096874 275.32812 39.096874Q276.48438 39.096874 277.29688 38.4875Q278.125 37.878124 278.60938 36.534374ZM271.67188 33.128124L278.625 33.128124Q278.48438 31.565624 277.82812 30.76875Q276.82812 29.55 275.21875 29.55Q273.76562 29.55 272.76562 30.534374Q271.78125 31.503124 271.67188 33.128124ZM291.20312 35.9875L293.28125 36.253124Q292.9375 38.409374 291.53125 39.628124Q290.14062 40.83125 288.09375 40.83125Q285.54688 40.83125 283.98438 39.159374Q282.4375 37.4875 282.4375 34.378124Q282.4375 32.3625 283.10938 30.846874Q283.78125 29.33125 285.14062 28.58125Q286.5 27.815624 288.10938 27.815624Q290.14062 27.815624 291.42188 28.846874Q292.71875 29.878124 293.07812 31.753124L291.03125 32.08125Q290.73438 30.815624 289.98438 30.190624Q289.25 29.55 288.1875 29.55Q286.59375 29.55 285.59375 30.70625Q284.60938 31.846874 284.60938 34.315624Q284.60938 36.815624 285.5625 37.95625Q286.53125 39.096874 288.07812 39.096874Q289.3125 39.096874 290.14062 38.33125Q290.98438 37.565624 291.20312 35.9875ZM294.29688 34.33125Q294.29688 30.8625 296.21875 29.20625Q297.82812 27.815624 300.14062 27.815624Q302.70312 27.815624 304.32812 29.503124Q305.95312 31.190624 305.95312 34.14375Q305.95312 36.55 305.23438 37.925Q304.51562 39.3 303.14062 40.065624Q301.76562 40.83125 300.14062 40.83125Q297.51562 40.83125 295.90625 39.159374Q294.29688 37.471874 294.29688 34.33125ZM296.46875 34.33125Q296.46875 36.721874 297.5 37.909374Q298.54688 39.096874 300.14062 39.096874Q301.70312 39.096874 302.75 37.909374Q303.79688 36.70625 303.79688 34.253124Q303.79688 31.940624 302.73438 30.753124Q301.6875 29.565624 300.14062 29.565624Q298.54688 29.565624 297.5 30.753124Q296.46875 31.940624 296.46875 34.33125ZM308.07812 40.55L308.07812 28.096874L309.98438 28.096874L309.98438 29.878124Q311.35938 27.815624 313.9375 27.815624Q315.0625 27.815624 316.0 28.221874Q316.95312 28.628124 317.42188 29.284374Q317.89062 29.940624 318.07812 30.846874Q318.20312 31.425 318.20312 32.89375L318.20312 40.55L316.09375 40.55L316.09375 32.971874Q316.09375 31.690624 315.84375 31.05Q315.59375 30.409374 314.96875 30.034374Q314.34375 29.64375 313.5 29.64375Q312.15625 29.64375 311.17188 30.503124Q310.1875 31.3625 310.1875 33.753124L310.1875 40.55L308.07812 40.55ZM328.35938 40.55L328.35938 23.3625L334.82812 23.3625Q336.54688 23.3625 337.45312 23.534374Q338.71875 23.7375 339.5625 24.33125Q340.42188 24.925 340.9375 26.003124Q341.46875 27.065624 341.46875 28.33125Q341.46875 30.534374 340.0625 32.05Q338.67188 33.565624 335.03125 33.565624L330.625 33.565624L330.625 40.55L328.35938 40.55ZM330.625 31.534374L335.0625 31.534374Q337.26562 31.534374 338.1875 30.721874Q339.125 29.89375 339.125 28.409374Q339.125 27.33125 338.57812 26.565624Q338.03125 25.8 337.14062 25.55Q336.5625 25.39375 335.01562 25.39375L330.625 25.39375L330.625 31.534374ZM352.20312 39.01875Q351.03125 40.003124 349.9375 40.425Q348.85938 40.83125 347.625 40.83125Q345.57812 40.83125 344.46875 39.83125Q343.375 38.83125 343.375 37.26875Q343.375 36.346874 343.78125 35.596874Q344.20312 34.846874 344.875 34.39375Q345.54688 33.925 346.39062 33.690624Q347.01562 33.534374 348.26562 33.378124Q350.82812 33.065624 352.03125 32.64375Q352.04688 32.221874 352.04688 32.096874Q352.04688 30.815624 351.4375 30.284374Q350.64062 29.565624 349.04688 29.565624Q347.54688 29.565624 346.84375 30.096874Q346.14062 30.6125 345.79688 31.940624L343.73438 31.659374Q344.01562 30.33125 344.65625 29.51875Q345.29688 28.70625 346.51562 28.26875Q347.73438 27.815624 349.34375 27.815624Q350.9375 27.815624 351.9375 28.190624Q352.9375 28.565624 353.40625 29.14375Q353.875 29.70625 354.0625 30.58125Q354.15625 31.1125 354.15625 32.51875L354.15625 35.33125Q354.15625 38.26875 354.29688 39.05Q354.4375 39.83125 354.82812 40.55L352.625 40.55Q352.29688 39.89375 352.20312 39.01875ZM352.03125 34.3Q350.875 34.76875 348.57812 35.096874Q347.28125 35.284374 346.73438 35.51875Q346.20312 35.753124 345.90625 36.20625Q345.625 36.659374 345.625 37.20625Q345.625 38.05 346.25 38.6125Q346.89062 39.175 348.125 39.175Q349.34375 39.175 350.29688 38.64375Q351.25 38.1125 351.6875 37.190624Q352.03125 36.471874 352.03125 35.08125L352.03125 34.3ZM357.0625 40.55L357.0625 28.096874L358.95312 28.096874L358.95312 29.9875Q359.6875 28.659374 360.29688 28.2375Q360.92188 27.815624 361.65625 27.815624Q362.71875 27.815624 363.82812 28.503124L363.09375 30.45625Q362.32812 30.003124 361.54688 30.003124Q360.85938 30.003124 360.29688 30.425Q359.75 30.83125 359.51562 31.565624Q359.17188 32.690624 359.17188 34.034374L359.17188 40.55L357.0625 40.55ZM369.6875 38.659374L370.0 40.51875Q369.10938 40.721874 368.40625 40.721874Q367.25 40.721874 366.60938 40.3625Q365.98438 39.9875 365.71875 39.39375Q365.46875 38.8 365.46875 36.909374L365.46875 29.7375L363.92188 29.7375L363.92188 28.096874L365.46875 28.096874L365.46875 25.01875L367.5625 23.753124L367.5625 28.096874L369.6875 28.096874L369.6875 29.7375L367.5625 29.7375L367.5625 37.01875Q367.5625 37.925 367.67188 38.190624Q367.79688 38.440624 368.04688 38.596874Q368.29688 38.7375 368.76562 38.7375Q369.10938 38.7375 369.6875 38.659374ZM372.09375 25.8L372.09375 23.3625L374.20312 23.3625L374.20312 25.8L372.09375 25.8ZM372.09375 40.55L372.09375 28.096874L374.20312 28.096874L374.20312 40.55L372.09375 40.55ZM385.20312 35.9875L387.28125 36.253124Q386.9375 38.409374 385.53125 39.628124Q384.14062 40.83125 382.09375 40.83125Q379.54688 40.83125 377.98438 39.159374Q376.4375 37.4875 376.4375 34.378124Q376.4375 32.3625 377.10938 30.846874Q377.78125 29.33125 379.14062 28.58125Q380.5 27.815624 382.10938 27.815624Q384.14062 27.815624 385.42188 28.846874Q386.71875 29.878124 387.07812 31.753124L385.03125 32.08125Q384.73438 30.815624 383.98438 30.190624Q383.25 29.55 382.1875 29.55Q380.59375 29.55 379.59375 30.70625Q378.60938 31.846874 378.60938 34.315624Q378.60938 36.815624 379.5625 37.95625Q380.53125 39.096874 382.07812 39.096874Q383.3125 39.096874 384.14062 38.33125Q384.98438 37.565624 385.20312 35.9875ZM389.09375 25.8L389.09375 23.3625L391.20312 23.3625L391.20312 25.8L389.09375 25.8ZM389.09375 40.55L389.09375 28.096874L391.20312 28.096874L391.20312 40.55L389.09375 40.55ZM394.07812 45.315624L394.07812 28.096874L396.0 28.096874L396.0 29.721874Q396.6875 28.76875 397.53125 28.3Q398.39062 27.815624 399.60938 27.815624Q401.20312 27.815624 402.42188 28.64375Q403.64062 29.45625 404.26562 30.95625Q404.89062 32.45625 404.89062 34.2375Q404.89062 36.14375 404.20312 37.675Q403.51562 39.20625 402.20312 40.01875Q400.90625 40.83125 399.46875 40.83125Q398.40625 40.83125 397.5625 40.39375Q396.73438 39.940624 396.1875 39.253124L396.1875 45.315624L394.07812 45.315624ZM396.0 34.39375Q396.0 36.8 396.96875 37.95625Q397.9375 39.096874 399.32812 39.096874Q400.73438 39.096874 401.73438 37.909374Q402.73438 36.721874 402.73438 34.221874Q402.73438 31.846874 401.75 30.659374Q400.78125 29.471874 399.42188 29.471874Q398.0625 29.471874 397.03125 30.7375Q396.0 31.9875 396.0 34.39375ZM415.20312 39.01875Q414.03125 40.003124 412.9375 40.425Q411.85938 40.83125 410.625 40.83125Q408.57812 40.83125 407.46875 39.83125Q406.375 38.83125 406.375 37.26875Q406.375 36.346874 406.78125 35.596874Q407.20312 34.846874 407.875 34.39375Q408.54688 33.925 409.39062 33.690624Q410.01562 33.534374 411.26562 33.378124Q413.82812 33.065624 415.03125 32.64375Q415.04688 32.221874 415.04688 32.096874Q415.04688 30.815624 414.4375 30.284374Q413.64062 29.565624 412.04688 29.565624Q410.54688 29.565624 409.84375 30.096874Q409.14062 30.6125 408.79688 31.940624L406.73438 31.659374Q407.01562 30.33125 407.65625 29.51875Q408.29688 28.70625 409.51562 28.26875Q410.73438 27.815624 412.34375 27.815624Q413.9375 27.815624 414.9375 28.190624Q415.9375 28.565624 416.40625 29.14375Q416.875 29.70625 417.0625 30.58125Q417.15625 31.1125 417.15625 32.51875L417.15625 35.33125Q417.15625 38.26875 417.29688 39.05Q417.4375 39.83125 417.82812 40.55L415.625 40.55Q415.29688 39.89375 415.20312 39.01875ZM415.03125 34.3Q413.875 34.76875 411.57812 35.096874Q410.28125 35.284374 409.73438 35.51875Q409.20312 35.753124 408.90625 36.20625Q408.625 36.659374 408.625 37.20625Q408.625 38.05 409.25 38.6125Q409.89062 39.175 411.125 39.175Q412.34375 39.175 413.29688 38.64375Q414.25 38.1125 414.6875 37.190624Q415.03125 36.471874 415.03125 35.08125L415.03125 34.3ZM424.6875 38.659374L425.0 40.51875Q424.10938 40.721874 423.40625 40.721874Q422.25 40.721874 421.60938 40.3625Q420.98438 39.9875 420.71875 39.39375Q420.46875 38.8 420.46875 36.909374L420.46875 29.7375L418.92188 29.7375L418.92188 28.096874L420.46875 28.096874L420.46875 25.01875L422.5625 23.753124L422.5625 28.096874L424.6875 28.096874L424.6875 29.7375L422.5625 29.7375L422.5625 37.01875Q422.5625 37.925 422.67188 38.190624Q422.79688 38.440624 423.04688 38.596874Q423.29688 38.7375 423.76562 38.7375Q424.10938 38.7375 424.6875 38.659374ZM427.09375 25.8L427.09375 23.3625L429.20312 23.3625L429.20312 25.8L427.09375 25.8ZM427.09375 40.55L427.09375 28.096874L429.20312 28.096874L429.20312 40.55L427.09375 40.55ZM431.29688 34.33125Q431.29688 30.8625 433.21875 29.20625Q434.82812 27.815624 437.14062 27.815624Q439.70312 27.815624 441.32812 29.503124Q442.95312 31.190624 442.95312 34.14375Q442.95312 36.55 442.23438 37.925Q441.51562 39.3 440.14062 40.065624Q438.76562 40.83125 437.14062 40.83125Q434.51562 40.83125 432.90625 39.159374Q431.29688 37.471874 431.29688 34.33125ZM433.46875 34.33125Q433.46875 36.721874 434.5 37.909374Q435.54688 39.096874 437.14062 39.096874Q438.70312 39.096874 439.75 37.909374Q440.79688 36.70625 440.79688 34.253124Q440.79688 31.940624 439.73438 30.753124Q438.6875 29.565624 437.14062 29.565624Q435.54688 29.565624 434.5 30.753124Q433.46875 31.940624 433.46875 34.33125ZM445.07812 40.55L445.07812 28.096874L446.98438 28.096874L446.98438 29.878124Q448.35938 27.815624 450.9375 27.815624Q452.0625 27.815624 453.0 28.221874Q453.95312 28.628124 454.42188 29.284374Q454.89062 29.940624 455.07812 30.846874Q455.20312 31.425 455.20312 32.89375L455.20312 40.55L453.09375 40.55L453.09375 32.971874Q453.09375 31.690624 452.84375 31.05Q452.59375 30.409374 451.96875 30.034374Q451.34375 29.64375 450.5 29.64375Q449.15625 29.64375 448.17188 30.503124Q447.1875 31.3625 447.1875 33.753124L447.1875 40.55L445.07812 40.55ZM465.35938 40.55L465.35938 23.3625L471.82812 23.3625Q473.54688 23.3625 474.45312 23.534374Q475.71875 23.7375 476.5625 24.33125Q477.42188 24.925 477.9375 26.003124Q478.46875 27.065624 478.46875 28.33125Q478.46875 30.534374 477.0625 32.05Q475.67188 33.565624 472.03125 33.565624L467.625 33.565624L467.625 40.55L465.35938 40.55ZM467.625 31.534374L472.0625 31.534374Q474.26562 31.534374 475.1875 30.721874Q476.125 29.89375 476.125 28.409374Q476.125 27.33125 475.57812 26.565624Q475.03125 25.8 474.14062 25.55Q473.5625 25.39375 472.01562 25.39375L467.625 25.39375L467.625 31.534374ZM489.60938 36.534374L491.78125 36.815624Q491.26562 38.721874 489.875 39.784374Q488.48438 40.83125 486.3125 40.83125Q483.57812 40.83125 481.96875 39.159374Q480.375 37.471874 480.375 34.425Q480.375 31.284374 481.98438 29.55Q483.60938 27.815624 486.1875 27.815624Q488.6875 27.815624 490.26562 29.51875Q491.85938 31.221874 491.85938 34.3Q491.85938 34.4875 491.84375 34.8625L482.5625 34.8625Q482.67188 36.909374 483.71875 38.003124Q484.76562 39.096874 486.32812 39.096874Q487.48438 39.096874 488.29688 38.4875Q489.125 37.878124 489.60938 36.534374ZM482.67188 33.128124L489.625 33.128124Q489.48438 31.565624 488.82812 30.76875Q487.82812 29.55 486.21875 29.55Q484.76562 29.55 483.76562 30.534374Q482.78125 31.503124 482.67188 33.128124ZM494.0625 40.55L494.0625 28.096874L495.95312 28.096874L495.95312 29.9875Q496.6875 28.659374 497.29688 28.2375Q497.92188 27.815624 498.65625 27.815624Q499.71875 27.815624 500.82812 28.503124L500.09375 30.45625Q499.32812 30.003124 498.54688 30.003124Q497.85938 30.003124 497.29688 30.425Q496.75 30.83125 496.51562 31.565624Q496.17188 32.690624 496.17188 34.034374L496.17188 40.55L494.0625 40.55ZM507.46875 40.55L514.0625 23.3625L516.5156 23.3625L523.5469 40.55L520.9531 40.55L518.9531 35.346874L511.76562 35.346874L509.875 40.55L507.46875 40.55ZM512.4219 33.4875L518.25 33.4875L516.4531 28.7375Q515.6406 26.565624 515.2344 25.175Q514.90625 26.83125 514.3125 28.45625L512.4219 33.4875ZM529.6875 38.659374L530.0 40.51875Q529.1094 40.721874 528.40625 40.721874Q527.25 40.721874 526.6094 40.3625Q525.9844 39.9875 525.71875 39.39375Q525.46875 38.8 525.46875 36.909374L525.46875 29.7375L523.9219 29.7375L523.9219 28.096874L525.46875 28.096874L525.46875 25.01875L527.5625 23.753124L527.5625 28.096874L529.6875 28.096874L529.6875 29.7375L527.5625 29.7375L527.5625 37.01875Q527.5625 37.925 527.6719 38.190624Q527.7969 38.440624 528.0469 38.596874Q528.2969 38.7375 528.7656 38.7375Q529.1094 38.7375 529.6875 38.659374ZM536.6875 38.659374L537.0 40.51875Q536.1094 40.721874 535.40625 40.721874Q534.25 40.721874 533.6094 40.3625Q532.9844 39.9875 532.71875 39.39375Q532.46875 38.8 532.46875 36.909374L532.46875 29.7375L530.9219 29.7375L530.9219 28.096874L532.46875 28.096874L532.46875 25.01875L534.5625 23.753124L534.5625 28.096874L536.6875 28.096874L536.6875 29.7375L534.5625 29.7375L534.5625 37.01875Q534.5625 37.925 534.6719 38.190624Q534.7969 38.440624 535.0469 38.596874Q535.2969 38.7375 535.7656 38.7375Q536.1094 38.7375 536.6875 38.659374ZM547.6094 36.534374L549.78125 36.815624Q549.2656 38.721874 547.875 39.784374Q546.4844 40.83125 544.3125 40.83125Q541.5781 40.83125 539.96875 39.159374Q538.375 37.471874 538.375 34.425Q538.375 31.284374 539.9844 29.55Q541.6094 27.815624 544.1875 27.815624Q546.6875 27.815624 548.2656 29.51875Q549.8594 31.221874 549.8594 34.3Q549.8594 34.4875 549.84375 34.8625L540.5625 34.8625Q540.6719 36.909374 541.71875 38.003124Q542.7656 39.096874 544.3281 39.096874Q545.4844 39.096874 546.2969 38.4875Q547.125 37.878124 547.6094 36.534374ZM540.6719 33.128124L547.625 33.128124Q547.4844 31.565624 546.8281 30.76875Q545.8281 29.55 544.21875 29.55Q542.7656 29.55 541.7656 30.534374Q540.78125 31.503124 540.6719 33.128124ZM552.0781 40.55L552.0781 28.096874L553.9844 28.096874L553.9844 29.878124Q555.3594 27.815624 557.9375 27.815624Q559.0625 27.815624 560.0 28.221874Q560.9531 28.628124 561.4219 29.284374Q561.8906 29.940624 562.0781 30.846874Q562.2031 31.425 562.2031 32.89375L562.2031 40.55L560.09375 40.55L560.09375 32.971874Q560.09375 31.690624 559.84375 31.05Q559.59375 30.409374 558.96875 30.034374Q558.34375 29.64375 557.5 29.64375Q556.15625 29.64375 555.1719 30.503124Q554.1875 31.3625 554.1875 33.753124L554.1875 40.55L552.0781 40.55ZM573.15625 40.55L573.15625 38.971874Q571.96875 40.83125 569.6719 40.83125Q568.1875 40.83125 566.9375 40.01875Q565.6875 39.190624 565.0 37.721874Q564.3281 36.253124 564.3281 34.33125Q564.3281 32.471874 564.9375 30.95625Q565.5625 29.440624 566.7969 28.628124Q568.0469 27.815624 569.5781 27.815624Q570.7031 27.815624 571.5781 28.3Q572.46875 28.76875 573.0156 29.534374L573.0156 23.3625L575.1094 23.3625L575.1094 40.55L573.15625 40.55ZM566.4844 34.33125Q566.4844 36.721874 567.4844 37.909374Q568.5 39.096874 569.875 39.096874Q571.2656 39.096874 572.21875 37.971874Q573.1875 36.83125 573.1875 34.51875Q573.1875 31.95625 572.2031 30.76875Q571.21875 29.565624 569.78125 29.565624Q568.375 29.565624 567.4219 30.721874Q566.4844 31.8625 566.4844 34.33125ZM586.6094 36.534374L588.78125 36.815624Q588.2656 38.721874 586.875 39.784374Q585.4844 40.83125 583.3125 40.83125Q580.5781 40.83125 578.96875 39.159374Q577.375 37.471874 577.375 34.425Q577.375 31.284374 578.9844 29.55Q580.6094 27.815624 583.1875 27.815624Q585.6875 27.815624 587.2656 29.51875Q588.8594 31.221874 588.8594 34.3Q588.8594 34.4875 588.84375 34.8625L579.5625 34.8625Q579.6719 36.909374 580.71875 38.003124Q581.7656 39.096874 583.3281 39.096874Q584.4844 39.096874 585.2969 38.4875Q586.125 37.878124 586.6094 36.534374ZM579.6719 33.128124L586.625 33.128124Q586.4844 31.565624 585.8281 30.76875Q584.8281 29.55 583.21875 29.55Q581.7656 29.55 580.7656 30.534374Q579.78125 31.503124 579.6719 33.128124ZM599.6094 36.534374L601.78125 36.815624Q601.2656 38.721874 599.875 39.784374Q598.4844 40.83125 596.3125 40.83125Q593.5781 40.83125 591.96875 39.159374Q590.375 37.471874 590.375 34.425Q590.375 31.284374 591.9844 29.55Q593.6094 27.815624 596.1875 27.815624Q598.6875 27.815624 600.2656 29.51875Q601.8594 31.221874 601.8594 34.3Q601.8594 34.4875 601.84375 34.8625L592.5625 34.8625Q592.6719 36.909374 593.71875 38.003124Q594.7656 39.096874 596.3281 39.096874Q597.4844 39.096874 598.2969 38.4875Q599.125 37.878124 599.6094 36.534374ZM592.6719 33.128124L599.625 33.128124Q599.4844 31.565624 598.8281 30.76875Q597.8281 29.55 596.21875 29.55Q594.7656 29.55 593.7656 30.534374Q592.78125 31.503124 592.6719 33.128124Z" fill-rule="nonzero"/></svg>