<svg version="1.1" viewBox="0.0 0.0 705.0 441.0" fill="none" stroke="none" stroke-linecap="square" stroke-miterlimit="10" width="705" height="441" xmlns:xlink="http://www.w3.org/1999/xlink" xmlns="http://www.w3.org/2000/svg"><path fill="#ffffff" fill-opacity="0.0" d="M0 0L705.0 0L705.0 441.0L0 441.0L0 0Z" fill-rule="nonzero"/><path stroke="#333333" stroke-width="1.0" stroke-linecap="butt" d="M101.5 350.5L682.5 350.5" fill-rule="nonzero"/><path stroke="#999999" stroke-width="1.0" stroke-linecap="butt" d="M101.5 295.5L682.5 295.5" fill-rule="nonzero"/><path stroke="#999999" stroke-width="1.0" stroke-linecap="butt" d="M101.5 239.5L682.5 239.5" fill-rule="nonzero"/><path stroke="#999999" stroke-width="1.0" stroke-linecap="butt" d="M101.5 184.5L682.5 184.5" fill-rule="nonzero"/><path stroke="#999999" stroke-width="1.0" stroke-linecap="butt" d="M101.5 128.5L682.5 128.5" fill-rule="nonzero"/><path stroke="#999999" stroke-width="1.0" stroke-linecap="butt" d="M101.5 72.5L682.5 72.5" fill-rule="nonzero"/><clipPath id="id_0"><path d="M101.05 72.75L682.95 72.75L682.95 350.95L101.05 350.95L101.05 72.75Z" clip-rule="nonzero"/></clipPath><path stroke="#000000" stroke-width="2.0" stroke-linecap="butt" stroke-opacity="0.0" clip-path="url(#id_0)" d="M114.0 351.0L103.0 351.0L103.0 125.0C103.0 123.89543 103.89543 123.0 105.0 123.0L112.0 123.0C113.10457 123.0 114.0 123.89543 114.0 125.0Z" fill-rule="nonzero"/><path fill="#88aaff" clip-path="url(#id_0)" d="M114.0 351.0L103.0 351.0L103.0 125.0C103.0 123.89543 103.89543 123.0 105.0 123.0L112.0 123.0C113.10457 123.0 114.0 123.89543 114.0 125.0Z" fill-rule="nonzero"/><path stroke="#000000" stroke-width="2.0" stroke-linecap="butt" stroke-opacity="0.0" clip-path="url(#id_0)" d="M127.0 351.0L116.0 351.0L116.0 225.0C116.0 223.89543 116.89543 223.0 118.0 223.0L125.0 223.0C126.10457 223.0 127.0 223.89543 127.0 225.0Z" fill-rule="nonzero"/><path fill="#88aaff" clip-path="url(#id_0)" d="M127.0 351.0L116.0 351.0L116.0 225.0C116.0 223.89543 116.89543 223.0 118.0 223.0L125.0 223.0C126.10457 223.0 127.0 223.89543 127.0 225.0Z" fill-rule="nonzero"/><path stroke="#000000" stroke-width="2.0" stroke-linecap="butt" stroke-opacity="0.0" clip-path="url(#id_0)" d="M140.0 351.0L129.0 351.0L129.0 275.0C129.0 273.89542 129.89543 273.0 131.0 273.0L138.0 273.0C139.10457 273.0 140.0 273.89542 140.0 275.0Z" fill-rule="nonzero"/><path fill="#88aaff" clip-path="url(#id_0)" d="M140.0 351.0L129.0 351.0L129.0 275.0C129.0 273.89542 129.89543 273.0 131.0 273.0L138.0 273.0C139.10457 273.0 140.0 273.89542 140.0 275.0Z" fill-rule="nonzero"/><path stroke="#000000" stroke-width="2.0" stroke-linecap="butt" stroke-opacity="0.0" clip-path="url(#id_0)" d="M153.0 351.0L142.0 351.0L142.0 297.0C142.0 295.89542 142.89543 295.0 144.0 295.0L151.0 295.0C152.10457 295.0 153.0 295.89542 153.0 297.0Z" fill-rule="nonzero"/><path fill="#88aaff" clip-path="url(#id_0)" d="M153.0 351.0L142.0 351.0L142.0 297.0C142.0 295.89542 142.89543 295.0 144.0 295.0L151.0 295.0C152.10457 295.0 153.0 295.89542 153.0 297.0Z" fill-rule="nonzero"/><path stroke="#000000" stroke-width="2.0" stroke-linecap="butt" stroke-opacity="0.0" clip-path="url(#id_0)" d="M167.0 351.0L156.0 351.0L156.0 320.0C156.0 318.89542 156.89543 318.0 158.0 318.0L165.0 318.0C166.10457 318.0 167.0 318.89542 167.0 320.0Z" fill-rule="nonzero"/><path fill="#88aaff" clip-path="url(#id_0)" d="M167.0 351.0L156.0 351.0L156.0 320.0C156.0 318.89542 156.89543 318.0 158.0 318.0L165.0 318.0C166.10457 318.0 167.0 318.89542 167.0 320.0Z" fill-rule="nonzero"/><path stroke="#000000" stroke-width="2.0" stroke-linecap="butt" stroke-opacity="0.0" clip-path="url(#id_0)" d="M180.0 351.0L169.0 351.0L169.0 314.0C169.0 312.89542 169.89543 312.0 171.0 312.0L178.0 312.0C179.10457 312.0 180.0 312.89542 180.0 314.0Z" fill-rule="nonzero"/><path fill="#88aaff" clip-path="url(#id_0)" d="M180.0 351.0L169.0 351.0L169.0 314.0C169.0 312.89542 169.89543 312.0 171.0 312.0L178.0 312.0C179.10457 312.0 180.0 312.89542 180.0 314.0Z" fill-rule="nonzero"/><path stroke="#000000" stroke-width="2.0" stroke-linecap="butt" stroke-opacity="0.0" clip-path="url(#id_0)" d="M193.0 351.0L182.0 351.0L182.0 325.0C182.0 323.89542 182.89543 323.0 184.0 323.0L191.0 323.0C192.10457 323.0 193.0 323.89542 193.0 325.0Z" fill-rule="nonzero"/><path fill="#88aaff" clip-path="url(#id_0)" d="M193.0 351.0L182.0 351.0L182.0 325.0C182.0 323.89542 182.89543 323.0 184.0 323.0L191.0 323.0C192.10457 323.0 193.0 323.89542 193.0 325.0Z" fill-rule="nonzero"/><path stroke="#000000" stroke-width="2.0" stroke-linecap="butt" stroke-opacity="0.0" clip-path="url(#id_0)" d="M206.0 351.0L195.0 351.0L195.0 331.0C195.0 329.89542 195.89543 329.0 197.0 329.0L204.0 329.0C205.10457 329.0 206.0 329.89542 206.0 331.0Z" fill-rule="nonzero"/><path fill="#88aaff" clip-path="url(#id_0)" d="M206.0 351.0L195.0 351.0L195.0 331.0C195.0 329.89542 195.89543 329.0 197.0 329.0L204.0 329.0C205.10457 329.0 206.0 329.89542 206.0 331.0Z" fill-rule="nonzero"/><path stroke="#000000" stroke-width="2.0" stroke-linecap="butt" stroke-opacity="0.0" clip-path="url(#id_0)" d="M219.0 351.0L208.0 351.0L208.0 342.0C208.0 340.89542 208.89543 340.0 210.0 340.0L217.0 340.0C218.10457 340.0 219.0 340.89542 219.0 342.0Z" fill-rule="nonzero"/><path fill="#88aaff" clip-path="url(#id_0)" d="M219.0 351.0L208.0 351.0L208.0 342.0C208.0 340.89542 208.89543 340.0 210.0 340.0L217.0 340.0C218.10457 340.0 219.0 340.89542 219.0 342.0Z" fill-rule="nonzero"/><path stroke="#000000" stroke-width="2.0" stroke-linecap="butt" stroke-opacity="0.0" clip-path="url(#id_0)" d="M233.0 351.0L222.0 351.0L222.0 351.0L233.0 351.0Z" fill-rule="nonzero"/><path fill="#88aaff" clip-path="url(#id_0)" d="M233.0 351.0L222.0 351.0L222.0 351.0L233.0 351.0Z" fill-rule="nonzero"/><path stroke="#000000" stroke-width="2.0" stroke-linecap="butt" stroke-opacity="0.0" clip-path="url(#id_0)" d="M246.0 351.0L235.0 351.0L235.0 331.0C235.0 329.89542 235.89543 329.0 237.0 329.0L244.0 329.0C245.10457 329.0 246.0 329.89542 246.0 331.0Z" fill-rule="nonzero"/><path fill="#88aaff" clip-path="url(#id_0)" d="M246.0 351.0L235.0 351.0L235.0 331.0C235.0 329.89542 235.89543 329.0 237.0 329.0L244.0 329.0C245.10457 329.0 246.0 329.89542 246.0 331.0Z" fill-rule="nonzero"/><path stroke="#000000" stroke-width="2.0" stroke-linecap="butt" stroke-opacity="0.0" clip-path="url(#id_0)" d="M259.0 351.0L248.0 351.0L248.0 347.0C248.0 345.89542 248.89543 345.0 250.0 345.0L257.0 345.0C258.10458 345.0 259.0 345.89542 259.0 347.0Z" fill-rule="nonzero"/><path fill="#88aaff" clip-path="url(#id_0)" d="M259.0 351.0L248.0 351.0L248.0 347.0C248.0 345.89542 248.89543 345.0 250.0 345.0L257.0 345.0C258.10458 345.0 259.0 345.89542 259.0 347.0Z" fill-rule="nonzero"/><path stroke="#000000" stroke-width="2.0" stroke-linecap="butt" stroke-opacity="0.0" clip-path="url(#id_0)" d="M272.0 351.0L261.0 351.0L261.0 347.0C261.0 345.89542 261.89542 345.0 263.0 345.0L270.0 345.0C271.10458 345.0 272.0 345.89542 272.0 347.0Z" fill-rule="nonzero"/><path fill="#88aaff" clip-path="url(#id_0)" d="M272.0 351.0L261.0 351.0L261.0 347.0C261.0 345.89542 261.89542 345.0 263.0 345.0L270.0 345.0C271.10458 345.0 272.0 345.89542 272.0 347.0Z" fill-rule="nonzero"/><path stroke="#000000" stroke-width="2.0" stroke-linecap="butt" stroke-opacity="0.0" clip-path="url(#id_0)" d="M286.0 351.0L275.0 351.0L275.0 351.0L286.0 351.0Z" fill-rule="nonzero"/><path fill="#88aaff" clip-path="url(#id_0)" d="M286.0 351.0L275.0 351.0L275.0 351.0L286.0 351.0Z" fill-rule="nonzero"/><path stroke="#000000" stroke-width="2.0" stroke-linecap="butt" stroke-opacity="0.0" clip-path="url(#id_0)" d="M299.0 351.0L288.0 351.0L288.0 351.0L299.0 351.0Z" fill-rule="nonzero"/><path fill="#88aaff" clip-path="url(#id_0)" d="M299.0 351.0L288.0 351.0L288.0 351.0L299.0 351.0Z" fill-rule="nonzero"/><path stroke="#000000" stroke-width="2.0" stroke-linecap="butt" stroke-opacity="0.0" clip-path="url(#id_0)" d="M312.0 351.0L301.0 351.0L301.0 342.0C301.0 340.89542 301.89542 340.0 303.0 340.0L310.0 340.0C311.10458 340.0 312.0 340.89542 312.0 342.0Z" fill-rule="nonzero"/><path fill="#88aaff" clip-path="url(#id_0)" d="M312.0 351.0L301.0 351.0L301.0 342.0C301.0 340.89542 301.89542 340.0 303.0 340.0L310.0 340.0C311.10458 340.0 312.0 340.89542 312.0 342.0Z" fill-rule="nonzero"/><path stroke="#000000" stroke-width="2.0" stroke-linecap="butt" stroke-opacity="0.0" clip-path="url(#id_0)" d="M325.0 351.0L314.0 351.0L314.0 342.0C314.0 340.89542 314.89542 340.0 316.0 340.0L323.0 340.0C324.10458 340.0 325.0 340.89542 325.0 342.0Z" fill-rule="nonzero"/><path fill="#88aaff" clip-path="url(#id_0)" d="M325.0 351.0L314.0 351.0L314.0 342.0C314.0 340.89542 314.89542 340.0 316.0 340.0L323.0 340.0C324.10458 340.0 325.0 340.89542 325.0 342.0Z" fill-rule="nonzero"/><path stroke="#000000" stroke-width="2.0" stroke-linecap="butt" stroke-opacity="0.0" clip-path="url(#id_0)" d="M338.0 351.0L327.0 351.0L327.0 347.0C327.0 345.89542 327.89542 345.0 329.0 345.0L336.0 345.0C337.10458 345.0 338.0 345.89542 338.0 347.0Z" fill-rule="nonzero"/><path fill="#88aaff" clip-path="url(#id_0)" d="M338.0 351.0L327.0 351.0L327.0 347.0C327.0 345.89542 327.89542 345.0 329.0 345.0L336.0 345.0C337.10458 345.0 338.0 345.89542 338.0 347.0Z" fill-rule="nonzero"/><path stroke="#000000" stroke-width="2.0" stroke-linecap="butt" stroke-opacity="0.0" clip-path="url(#id_0)" d="M352.0 351.0L341.0 351.0L341.0 342.0C341.0 340.89542 341.89542 340.0 343.0 340.0L350.0 340.0C351.10458 340.0 352.0 340.89542 352.0 342.0Z" fill-rule="nonzero"/><path fill="#88aaff" clip-path="url(#id_0)" d="M352.0 351.0L341.0 351.0L341.0 342.0C341.0 340.89542 341.89542 340.0 343.0 340.0L350.0 340.0C351.10458 340.0 352.0 340.89542 352.0 342.0Z" fill-rule="nonzero"/><path stroke="#000000" stroke-width="2.0" stroke-linecap="butt" stroke-opacity="0.0" clip-path="url(#id_0)" d="M365.0 351.0L354.0 351.0L354.0 347.0C354.0 345.89542 354.89542 345.0 356.0 345.0L363.0 345.0C364.10458 345.0 365.0 345.89542 365.0 347.0Z" fill-rule="nonzero"/><path fill="#88aaff" clip-path="url(#id_0)" d="M365.0 351.0L354.0 351.0L354.0 347.0C354.0 345.89542 354.89542 345.0 356.0 345.0L363.0 345.0C364.10458 345.0 365.0 345.89542 365.0 347.0Z" fill-rule="nonzero"/><path stroke="#000000" stroke-width="2.0" stroke-linecap="butt" stroke-opacity="0.0" clip-path="url(#id_0)" d="M378.0 351.0L367.0 351.0L367.0 331.0C367.0 329.89542 367.89542 329.0 369.0 329.0L376.0 329.0C377.10458 329.0 378.0 329.89542 378.0 331.0Z" fill-rule="nonzero"/><path fill="#88aaff" clip-path="url(#id_0)" d="M378.0 351.0L367.0 351.0L367.0 331.0C367.0 329.89542 367.89542 329.0 369.0 329.0L376.0 329.0C377.10458 329.0 378.0 329.89542 378.0 331.0Z" fill-rule="nonzero"/><path stroke="#000000" stroke-width="2.0" stroke-linecap="butt" stroke-opacity="0.0" clip-path="url(#id_0)" d="M391.0 351.0L380.0 351.0L380.0 342.0C380.0 340.89542 380.89542 340.0 382.0 340.0L389.0 340.0C390.10458 340.0 391.0 340.89542 391.0 342.0Z" fill-rule="nonzero"/><path fill="#88aaff" clip-path="url(#id_0)" d="M391.0 351.0L380.0 351.0L380.0 342.0C380.0 340.89542 380.89542 340.0 382.0 340.0L389.0 340.0C390.10458 340.0 391.0 340.89542 391.0 342.0Z" fill-rule="nonzero"/><path stroke="#000000" stroke-width="2.0" stroke-linecap="butt" stroke-opacity="0.0" clip-path="url(#id_0)" d="M405.0 351.0L394.0 351.0L394.0 351.0L405.0 351.0Z" fill-rule="nonzero"/><path fill="#88aaff" clip-path="url(#id_0)" d="M405.0 351.0L394.0 351.0L394.0 351.0L405.0 351.0Z" fill-rule="nonzero"/><path stroke="#000000" stroke-width="2.0" stroke-linecap="butt" stroke-opacity="0.0" clip-path="url(#id_0)" d="M418.0 351.0L407.0 351.0L407.0 351.0L418.0 351.0Z" fill-rule="nonzero"/><path fill="#88aaff" clip-path="url(#id_0)" d="M418.0 351.0L407.0 351.0L407.0 351.0L418.0 351.0Z" fill-rule="nonzero"/><path stroke="#000000" stroke-width="2.0" stroke-linecap="butt" stroke-opacity="0.0" clip-path="url(#id_0)" d="M431.0 351.0L420.0 351.0L420.0 347.0C420.0 345.89542 420.89542 345.0 422.0 345.0L429.0 345.0C430.10458 345.0 431.0 345.89542 431.0 347.0Z" fill-rule="nonzero"/><path fill="#88aaff" clip-path="url(#id_0)" d="M431.0 351.0L420.0 351.0L420.0 347.0C420.0 345.89542 420.89542 345.0 422.0 345.0L429.0 345.0C430.10458 345.0 431.0 345.89542 431.0 347.0Z" fill-rule="nonzero"/><path stroke="#000000" stroke-width="2.0" stroke-linecap="butt" stroke-opacity="0.0" clip-path="url(#id_0)" d="M444.0 351.0L433.0 351.0L433.0 342.0C433.0 340.89542 433.89542 340.0 435.0 340.0L442.0 340.0C443.10458 340.0 444.0 340.89542 444.0 342.0Z" fill-rule="nonzero"/><path fill="#88aaff" clip-path="url(#id_0)" d="M444.0 351.0L433.0 351.0L433.0 342.0C433.0 340.89542 433.89542 340.0 435.0 340.0L442.0 340.0C443.10458 340.0 444.0 340.89542 444.0 342.0Z" fill-rule="nonzero"/><path stroke="#000000" stroke-width="2.0" stroke-linecap="butt" stroke-opacity="0.0" clip-path="url(#id_0)" d="M458.0 351.0L447.0 351.0L447.0 342.0C447.0 340.89542 447.89542 340.0 449.0 340.0L456.0 340.0C457.10458 340.0 458.0 340.89542 458.0 342.0Z" fill-rule="nonzero"/><path fill="#88aaff" clip-path="url(#id_0)" d="M458.0 351.0L447.0 351.0L447.0 342.0C447.0 340.89542 447.89542 340.0 449.0 340.0L456.0 340.0C457.10458 340.0 458.0 340.89542 458.0 342.0Z" fill-rule="nonzero"/><path stroke="#000000" stroke-width="2.0" stroke-linecap="butt" stroke-opacity="0.0" clip-path="url(#id_0)" d="M471.0 351.0L460.0 351.0L460.0 347.0C460.0 345.89542 460.89542 345.0 462.0 345.0L469.0 345.0C470.10458 345.0 471.0 345.89542 471.0 347.0Z" fill-rule="nonzero"/><path fill="#88aaff" clip-path="url(#id_0)" d="M471.0 351.0L460.0 351.0L460.0 347.0C460.0 345.89542 460.89542 345.0 462.0 345.0L469.0 345.0C470.10458 345.0 471.0 345.89542 471.0 347.0Z" fill-rule="nonzero"/><path stroke="#000000" stroke-width="2.0" stroke-linecap="butt" stroke-opacity="0.0" clip-path="url(#id_0)" d="M484.0 351.0L473.0 351.0L473.0 351.0L484.0 351.0Z" fill-rule="nonzero"/><path fill="#88aaff" clip-path="url(#id_0)" d="M484.0 351.0L473.0 351.0L473.0 351.0L484.0 351.0Z" fill-rule="nonzero"/><path stroke="#000000" stroke-width="2.0" stroke-linecap="butt" stroke-opacity="0.0" clip-path="url(#id_0)" d="M497.0 351.0L486.0 351.0L486.0 351.0L497.0 351.0Z" fill-rule="nonzero"/><path fill="#88aaff" clip-path="url(#id_0)" d="M497.0 351.0L486.0 351.0L486.0 351.0L497.0 351.0Z" fill-rule="nonzero"/><path stroke="#000000" stroke-width="2.0" stroke-linecap="butt" stroke-opacity="0.0" clip-path="url(#id_0)" d="M510.0 351.0L499.0 351.0L499.0 351.0L510.0 351.0Z" fill-rule="nonzero"/><path fill="#88aaff" clip-path="url(#id_0)" d="M510.0 351.0L499.0 351.0L499.0 351.0L510.0 351.0Z" fill-rule="nonzero"/><path stroke="#000000" stroke-width="2.0" stroke-linecap="butt" stroke-opacity="0.0" clip-path="url(#id_0)" d="M524.0 351.0L513.0 351.0L513.0 342.0C513.0 340.89542 513.89545 340.0 515.0 340.0L522.0 340.0C523.10455 340.0 524.0 340.89542 524.0 342.0Z" fill-rule="nonzero"/><path fill="#88aaff" clip-path="url(#id_0)" d="M524.0 351.0L513.0 351.0L513.0 342.0C513.0 340.89542 513.89545 340.0 515.0 340.0L522.0 340.0C523.10455 340.0 524.0 340.89542 524.0 342.0Z" fill-rule="nonzero"/><path stroke="#000000" stroke-width="2.0" stroke-linecap="butt" stroke-opacity="0.0" clip-path="url(#id_0)" d="M537.0 351.0L526.0 351.0L526.0 351.0L537.0 351.0Z" fill-rule="nonzero"/><path fill="#88aaff" clip-path="url(#id_0)" d="M537.0 351.0L526.0 351.0L526.0 351.0L537.0 351.0Z" fill-rule="nonzero"/><path stroke="#000000" stroke-width="2.0" stroke-linecap="butt" stroke-opacity="0.0" clip-path="url(#id_0)" d="M550.0 351.0L539.0 351.0L539.0 351.0L550.0 351.0Z" fill-rule="nonzero"/><path fill="#88aaff" clip-path="url(#id_0)" d="M550.0 351.0L539.0 351.0L539.0 351.0L550.0 351.0Z" fill-rule="nonzero"/><path stroke="#000000" stroke-width="2.0" stroke-linecap="butt" stroke-opacity="0.0" clip-path="url(#id_0)" d="M563.0 351.0L552.0 351.0L552.0 336.0C552.0 334.89542 552.89545 334.0 554.0 334.0L561.0 334.0C562.10455 334.0 563.0 334.89542 563.0 336.0Z" fill-rule="nonzero"/><path fill="#88aaff" clip-path="url(#id_0)" d="M563.0 351.0L552.0 351.0L552.0 336.0C552.0 334.89542 552.89545 334.0 554.0 334.0L561.0 334.0C562.10455 334.0 563.0 334.89542 563.0 336.0Z" fill-rule="nonzero"/><path stroke="#000000" stroke-width="2.0" stroke-linecap="butt" stroke-opacity="0.0" clip-path="url(#id_0)" d="M577.0 351.0L566.0 351.0L566.0 342.0C566.0 340.89542 566.89545 340.0 568.0 340.0L575.0 340.0C576.10455 340.0 577.0 340.89542 577.0 342.0Z" fill-rule="nonzero"/><path fill="#88aaff" clip-path="url(#id_0)" d="M577.0 351.0L566.0 351.0L566.0 342.0C566.0 340.89542 566.89545 340.0 568.0 340.0L575.0 340.0C576.10455 340.0 577.0 340.89542 577.0 342.0Z" fill-rule="nonzero"/><path stroke="#000000" stroke-width="2.0" stroke-linecap="butt" stroke-opacity="0.0" clip-path="url(#id_0)" d="M590.0 351.0L579.0 351.0L579.0 347.0C579.0 345.89542 579.89545 345.0 581.0 345.0L588.0 345.0C589.10455 345.0 590.0 345.89542 590.0 347.0Z" fill-rule="nonzero"/><path fill="#88aaff" clip-path="url(#id_0)" d="M590.0 351.0L579.0 351.0L579.0 347.0C579.0 345.89542 579.89545 345.0 581.0 345.0L588.0 345.0C589.10455 345.0 590.0 345.89542 590.0 347.0Z" fill-rule="nonzero"/><path stroke="#000000" stroke-width="2.0" stroke-linecap="butt" stroke-opacity="0.0" clip-path="url(#id_0)" d="M603.0 351.0L592.0 351.0L592.0 347.0C592.0 345.89542 592.89545 345.0 594.0 345.0L601.0 345.0C602.10455 345.0 603.0 345.89542 603.0 347.0Z" fill-rule="nonzero"/><path fill="#88aaff" clip-path="url(#id_0)" d="M603.0 351.0L592.0 351.0L592.0 347.0C592.0 345.89542 592.89545 345.0 594.0 345.0L601.0 345.0C602.10455 345.0 603.0 345.89542 603.0 347.0Z" fill-rule="nonzero"/><path stroke="#000000" stroke-width="2.0" stroke-linecap="butt" stroke-opacity="0.0" clip-path="url(#id_0)" d="M616.0 351.0L605.0 351.0L605.0 347.0C605.0 345.89542 605.89545 345.0 607.0 345.0L614.0 345.0C615.10455 345.0 616.0 345.89542 616.0 347.0Z" fill-rule="nonzero"/><path fill="#88aaff" clip-path="url(#id_0)" d="M616.0 351.0L605.0 351.0L605.0 347.0C605.0 345.89542 605.89545 345.0 607.0 345.0L614.0 345.0C615.10455 345.0 616.0 345.89542 616.0 347.0Z" fill-rule="nonzero"/><path stroke="#000000" stroke-width="2.0" stroke-linecap="butt" stroke-opacity="0.0" clip-path="url(#id_0)" d="M629.0 351.0L618.0 351.0L618.0 342.0C618.0 340.89542 618.89545 340.0 620.0 340.0L627.0 340.0C628.10455 340.0 629.0 340.89542 629.0 342.0Z" fill-rule="nonzero"/><path fill="#88aaff" clip-path="url(#id_0)" d="M629.0 351.0L618.0 351.0L618.0 342.0C618.0 340.89542 618.89545 340.0 620.0 340.0L627.0 340.0C628.10455 340.0 629.0 340.89542 629.0 342.0Z" fill-rule="nonzero"/><path stroke="#000000" stroke-width="2.0" stroke-linecap="butt" stroke-opacity="0.0" clip-path="url(#id_0)" d="M643.0 351.0L632.0 351.0L632.0 351.0L643.0 351.0Z" fill-rule="nonzero"/><path fill="#88aaff" clip-path="url(#id_0)" d="M643.0 351.0L632.0 351.0L632.0 351.0L643.0 351.0Z" fill-rule="nonzero"/><path stroke="#000000" stroke-width="2.0" stroke-linecap="butt" stroke-opacity="0.0" clip-path="url(#id_0)" d="M656.0 351.0L645.0 351.0L645.0 347.0C645.0 345.89542 645.89545 345.0 647.0 345.0L654.0 345.0C655.10455 345.0 656.0 345.89542 656.0 347.0Z" fill-rule="nonzero"/><path fill="#88aaff" clip-path="url(#id_0)" d="M656.0 351.0L645.0 351.0L645.0 347.0C645.0 345.89542 645.89545 345.0 647.0 345.0L654.0 345.0C655.10455 345.0 656.0 345.89542 656.0 347.0Z" fill-rule="nonzero"/><path stroke="#000000" stroke-width="2.0" stroke-linecap="butt" stroke-opacity="0.0" clip-path="url(#id_0)" d="M669.0 351.0L658.0 351.0L658.0 347.0C658.0 345.89542 658.89545 345.0 660.0 345.0L667.0 345.0C668.10455 345.0 669.0 345.89542 669.0 347.0Z" fill-rule="nonzero"/><path fill="#88aaff" clip-path="url(#id_0)" d="M669.0 351.0L658.0 351.0L658.0 347.0C658.0 345.89542 658.89545 345.0 660.0 345.0L667.0 345.0C668.10455 345.0 669.0 345.89542 669.0 347.0Z" fill-rule="nonzero"/><path stroke="#000000" stroke-width="2.0" stroke-linecap="butt" stroke-opacity="0.0" clip-path="url(#id_0)" d="M682.0 351.0L671.0 351.0L671.0 351.0L682.0 351.0Z" fill-rule="nonzero"/><path fill="#88aaff" clip-path="url(#id_0)" d="M682.0 351.0L671.0 351.0L671.0 351.0L682.0 351.0Z" fill-rule="nonzero"/><path fill="#999999" d="M321.67188 414.95L321.67188 403.59064L317.42188 403.59064L317.42188 402.0594L327.64062 402.0594L327.64062 403.59064L323.375 403.59064L323.375 414.95L321.67188 414.95ZM335.57812 411.95L337.21875 412.15314Q336.82812 413.575 335.78125 414.3719Q334.73438 415.16876 333.10938 415.16876Q331.0625 415.16876 329.85938 413.90314Q328.65625 412.6375 328.65625 410.35626Q328.65625 408.0125 329.85938 406.71564Q331.07812 405.40314 333.01562 405.40314Q334.89062 405.40314 336.07812 406.6844Q337.26562 407.95 337.26562 410.2625Q337.26562 410.40314 337.25 410.6844L330.29688 410.6844Q330.375 412.23126 331.15625 413.04376Q331.95312 413.85626 333.10938 413.85626Q333.98438 413.85626 334.59375 413.40314Q335.21875 412.95 335.57812 411.95ZM330.375 409.3875L335.59375 409.3875Q335.48438 408.21564 335.0 407.6219Q334.23438 406.7 333.03125 406.7Q331.95312 406.7 331.20312 407.4344Q330.46875 408.16876 330.375 409.3875ZM339.15625 414.95L339.15625 402.0594L340.73438 402.0594L340.73438 414.95L339.15625 414.95ZM349.57812 411.95L351.21875 412.15314Q350.82812 413.575 349.78125 414.3719Q348.73438 415.16876 347.10938 415.16876Q345.0625 415.16876 343.85938 413.90314Q342.65625 412.6375 342.65625 410.35626Q342.65625 408.0125 343.85938 406.71564Q345.07812 405.40314 347.01562 405.40314Q348.89062 405.40314 350.07812 406.6844Q351.26562 407.95 351.26562 410.2625Q351.26562 410.40314 351.25 410.6844L344.29688 410.6844Q344.375 412.23126 345.15625 413.04376Q345.95312 413.85626 347.10938 413.85626Q347.98438 413.85626 348.59375 413.40314Q349.21875 412.95 349.57812 411.95ZM344.375 409.3875L349.59375 409.3875Q349.48438 408.21564 349.0 407.6219Q348.23438 406.7 347.03125 406.7Q345.95312 406.7 345.20312 407.4344Q344.46875 408.16876 344.375 409.3875ZM359.28125 411.52814L360.82812 411.73126Q360.57812 413.34064 359.53125 414.2625Q358.48438 415.16876 356.95312 415.16876Q355.03125 415.16876 353.85938 413.91876Q352.70312 412.65314 352.70312 410.325Q352.70312 408.8094 353.20312 407.6844Q353.70312 406.54376 354.71875 405.98126Q355.75 405.40314 356.95312 405.40314Q358.48438 405.40314 359.4375 406.1844Q360.40625 406.95 360.6875 408.35626L359.14062 408.59064Q358.92188 407.65314 358.35938 407.1844Q357.8125 406.7 357.01562 406.7Q355.82812 406.7 355.07812 407.5594Q354.32812 408.41876 354.32812 410.27814Q354.32812 412.15314 355.04688 413.0125Q355.76562 413.85626 356.9375 413.85626Q357.85938 413.85626 358.48438 413.29376Q359.10938 412.71564 359.28125 411.52814ZM361.59375 410.27814Q361.59375 407.6844 363.04688 406.4344Q364.25 405.40314 365.96875 405.40314Q367.90625 405.40314 369.125 406.66876Q370.34375 407.9344 370.34375 410.15314Q370.34375 411.95 369.79688 412.98126Q369.26562 414.0125 368.23438 414.59064Q367.20312 415.16876 365.96875 415.16876Q364.01562 415.16876 362.79688 413.91876Q361.59375 412.65314 361.59375 410.27814ZM363.21875 410.27814Q363.21875 412.075 364.0 412.96564Q364.78125 413.85626 365.96875 413.85626Q367.15625 413.85626 367.9375 412.96564Q368.71875 412.0594 368.71875 410.23126Q368.71875 408.4969 367.92188 407.60626Q367.14062 406.71564 365.96875 406.71564Q364.78125 406.71564 364.0 407.60626Q363.21875 408.4969 363.21875 410.27814ZM372.1875 414.95L372.1875 405.6219L373.60938 405.6219L373.60938 406.95Q374.64062 405.40314 376.57812 405.40314Q377.42188 405.40314 378.125 405.71564Q378.84375 406.0125 379.1875 406.5125Q379.54688 406.9969 379.6875 407.66876Q379.76562 408.10626 379.76562 409.21564L379.76562 414.95L378.1875 414.95L378.1875 409.27814Q378.1875 408.3094 378.0 407.825Q377.82812 407.34064 377.34375 407.0594Q376.875 406.77814 376.25 406.77814Q375.23438 406.77814 374.5 407.41876Q373.76562 408.0594 373.76562 409.85626L373.76562 414.95L372.1875 414.95ZM381.54688 412.16876L383.125 411.91876Q383.25 412.85626 383.84375 413.35626Q384.45312 413.85626 385.53125 413.85626Q386.625 413.85626 387.15625 413.41876Q387.6875 412.96564 387.6875 412.3719Q387.6875 411.84064 387.21875 411.52814Q386.89062 411.325 385.59375 410.9969Q383.85938 410.5594 383.1875 410.2469Q382.51562 409.91876 382.15625 409.35626Q381.8125 408.77814 381.8125 408.09064Q381.8125 407.46564 382.09375 406.9344Q382.39062 406.40314 382.875 406.0594Q383.25 405.77814 383.89062 405.59064Q384.53125 405.40314 385.25 405.40314Q386.35938 405.40314 387.1875 405.73126Q388.01562 406.04376 388.40625 406.59064Q388.8125 407.1219 388.95312 408.02814L387.40625 408.23126Q387.29688 407.5125 386.79688 407.10626Q386.29688 406.7 385.375 406.7Q384.28125 406.7 383.8125 407.0594Q383.34375 407.41876 383.34375 407.90314Q383.34375 408.21564 383.54688 408.46564Q383.73438 408.71564 384.14062 408.8875Q384.39062 408.96564 385.54688 409.29376Q387.21875 409.73126 387.875 410.02814Q388.54688 410.3094 388.92188 410.85626Q389.3125 411.40314 389.3125 412.2Q389.3125 412.9969 388.84375 413.7Q388.39062 414.40314 387.51562 414.79376Q386.64062 415.16876 385.54688 415.16876Q383.71875 415.16876 382.76562 414.41876Q381.8125 413.65314 381.54688 412.16876ZM394.96875 414.95L399.92188 402.0594L401.76562 402.0594L407.03125 414.95L405.09375 414.95L403.59375 411.04376L398.20312 411.04376L396.78125 414.95L394.96875 414.95ZM398.6875 409.65314L403.0625 409.65314L401.71875 406.09064Q401.09375 404.46564 400.79688 403.41876Q400.5625 404.65314 400.10938 405.8719L398.6875 409.65314ZM411.64062 413.52814L411.875 414.9344Q411.20312 415.075 410.67188 415.075Q409.8125 415.075 409.32812 414.8094Q408.85938 414.52814 408.67188 414.09064Q408.48438 413.6375 408.48438 412.21564L408.48438 406.84064L407.3125 406.84064L407.3125 405.6219L408.48438 405.6219L408.48438 403.3094L410.04688 402.35626L410.04688 405.6219L411.64062 405.6219L411.64062 406.84064L410.04688 406.84064L410.04688 412.3094Q410.04688 412.98126 410.125 413.1844Q410.21875 413.3719 410.40625 413.48126Q410.59375 413.59064 410.95312 413.59064Q411.20312 413.59064 411.64062 413.52814ZM416.64062 413.52814L416.875 414.9344Q416.20312 415.075 415.67188 415.075Q414.8125 415.075 414.32812 414.8094Q413.85938 414.52814 413.67188 414.09064Q413.48438 413.6375 413.48438 412.21564L413.48438 406.84064L412.3125 406.84064L412.3125 405.6219L413.48438 405.6219L413.48438 403.3094L415.04688 402.35626L415.04688 405.6219L416.64062 405.6219L416.64062 406.84064L415.04688 406.84064L415.04688 412.3094Q415.04688 412.98126 415.125 413.1844Q415.21875 413.3719 415.40625 413.48126Q415.59375 413.59064 415.95312 413.59064Q416.20312 413.59064 416.64062 413.52814ZM424.57812 411.95L426.21875 412.15314Q425.82812 413.575 424.78125 414.3719Q423.73438 415.16876 422.10938 415.16876Q420.0625 415.16876 418.85938 413.90314Q417.65625 412.6375 417.65625 410.35626Q417.65625 408.0125 418.85938 406.71564Q420.07812 405.40314 422.01562 405.40314Q423.89062 405.40314 425.07812 406.6844Q426.26562 407.95 426.26562 410.2625Q426.26562 410.40314 426.25 410.6844L419.29688 410.6844Q419.375 412.23126 420.15625 413.04376Q420.95312 413.85626 422.10938 413.85626Q422.98438 413.85626 423.59375 413.40314Q424.21875 412.95 424.57812 411.95ZM419.375 409.3875L424.59375 409.3875Q424.48438 408.21564 424.0 407.6219Q423.23438 406.7 422.03125 406.7Q420.95312 406.7 420.20312 407.4344Q419.46875 408.16876 419.375 409.3875ZM428.1875 414.95L428.1875 405.6219L429.60938 405.6219L429.60938 406.95Q430.64062 405.40314 432.57812 405.40314Q433.42188 405.40314 434.125 405.71564Q434.84375 406.0125 435.1875 406.5125Q435.54688 406.9969 435.6875 407.66876Q435.76562 408.10626 435.76562 409.21564L435.76562 414.95L434.1875 414.95L434.1875 409.27814Q434.1875 408.3094 434.0 407.825Q433.82812 407.34064 433.34375 407.0594Q432.875 406.77814 432.25 406.77814Q431.23438 406.77814 430.5 407.41876Q429.76562 408.0594 429.76562 409.85626L429.76562 414.95L428.1875 414.95ZM444.25 414.95L444.25 413.77814Q443.35938 415.16876 441.625 415.16876Q440.51562 415.16876 439.57812 414.5594Q438.64062 413.9344 438.125 412.84064Q437.60938 411.73126 437.60938 410.29376Q437.60938 408.8875 438.07812 407.7625Q438.54688 406.6219 439.46875 406.0125Q440.40625 405.40314 441.5625 405.40314Q442.40625 405.40314 443.0625 405.7625Q443.71875 406.1219 444.14062 406.6844L444.14062 402.0594L445.70312 402.0594L445.70312 414.95L444.25 414.95ZM439.23438 410.29376Q439.23438 412.09064 439.98438 412.98126Q440.75 413.85626 441.78125 413.85626Q442.8125 413.85626 443.53125 413.0125Q444.26562 412.16876 444.26562 410.41876Q444.26562 408.5125 443.53125 407.6219Q442.79688 406.71564 441.71875 406.71564Q440.65625 406.71564 439.9375 407.575Q439.23438 408.4344 439.23438 410.29376ZM454.57812 411.95L456.21875 412.15314Q455.82812 413.575 454.78125 414.3719Q453.73438 415.16876 452.10938 415.16876Q450.0625 415.16876 448.85938 413.90314Q447.65625 412.6375 447.65625 410.35626Q447.65625 408.0125 448.85938 406.71564Q450.07812 405.40314 452.01562 405.40314Q453.89062 405.40314 455.07812 406.6844Q456.26562 407.95 456.26562 410.2625Q456.26562 410.40314 456.25 410.6844L449.29688 410.6844Q449.375 412.23126 450.15625 413.04376Q450.95312 413.85626 452.10938 413.85626Q452.98438 413.85626 453.59375 413.40314Q454.21875 412.95 454.57812 411.95ZM449.375 409.3875L454.59375 409.3875Q454.48438 408.21564 454.0 407.6219Q453.23438 406.7 452.03125 406.7Q450.95312 406.7 450.20312 407.4344Q449.46875 408.16876 449.375 409.3875ZM464.25 414.95L464.25 413.77814Q463.35938 415.16876 461.625 415.16876Q460.51562 415.16876 459.57812 414.5594Q458.64062 413.9344 458.125 412.84064Q457.60938 411.73126 457.60938 410.29376Q457.60938 408.8875 458.07812 407.7625Q458.54688 406.6219 459.46875 406.0125Q460.40625 405.40314 461.5625 405.40314Q462.40625 405.40314 463.0625 405.7625Q463.71875 406.1219 464.14062 406.6844L464.14062 402.0594L465.70312 402.0594L465.70312 414.95L464.25 414.95ZM459.23438 410.29376Q459.23438 412.09064 459.98438 412.98126Q460.75 413.85626 461.78125 413.85626Q462.8125 413.85626 463.53125 413.0125Q464.26562 412.16876 464.26562 410.41876Q464.26562 408.5125 463.53125 407.6219Q462.79688 406.71564 461.71875 406.71564Q460.65625 406.71564 459.9375 407.575Q459.23438 408.4344 459.23438 410.29376Z" fill-rule="nonzero"/><path fill="#999999" d="M39.05001 258.38126L26.159388 253.42813L26.159388 251.58438L39.05001 246.31876L39.05001 248.25626L35.14376 249.75626L35.14376 255.14688L39.05001 256.56876L39.05001 258.38126ZM33.753136 254.6625L33.753136 250.2875L30.190638 251.63126Q28.565638 252.25626 27.518763 252.55313Q28.753138 252.7875 29.971888 253.24063L33.753136 254.6625ZM37.628136 241.70938L39.034386 241.475Q39.17501 242.14688 39.17501 242.67813Q39.17501 243.5375 38.909386 244.02188Q38.628136 244.49063 38.190636 244.67813Q37.73751 244.86563 36.315636 244.86563L30.940638 244.86563L30.940638 246.0375L29.721888 246.0375L29.721888 244.86563L27.409388 244.86563L26.456263 243.30313L29.721888 243.30313L29.721888 241.70938L30.940638 241.70938L30.940638 243.30313L36.409386 243.30313Q37.08126 243.30313 37.284386 243.225Q37.471886 243.13126 37.58126 242.94376Q37.690636 242.75626 37.690636 242.39688Q37.690636 242.14688 37.628136 241.70938ZM37.628136 236.70938L39.034386 236.475Q39.17501 237.14688 39.17501 237.67813Q39.17501 238.5375 38.909386 239.02188Q38.628136 239.49063 38.190636 239.67813Q37.73751 239.86563 36.315636 239.86563L30.940638 239.86563L30.940638 241.0375L29.721888 241.0375L29.721888 239.86563L27.409388 239.86563L26.456263 238.30313L29.721888 238.30313L29.721888 236.70938L30.940638 236.70938L30.940638 238.30313L36.409386 238.30313Q37.08126 238.30313 37.284386 238.225Q37.471886 238.13126 37.58126 237.94376Q37.690636 237.75626 37.690636 237.39688Q37.690636 237.14688 37.628136 236.70938ZM36.05001 228.77188L36.253136 227.13126Q37.67501 227.52188 38.471886 228.56876Q39.26876 229.61563 39.26876 231.24063Q39.26876 233.2875 38.003136 234.49063Q36.73751 235.69376 34.45626 235.69376Q32.11251 235.69376 30.815638 234.49063Q29.503138 233.27188 29.503138 231.33438Q29.503138 229.45938 30.784388 228.27188Q32.05001 227.08438 34.36251 227.08438Q34.503136 227.08438 34.784386 227.1L34.784386 234.05313Q36.33126 233.975 37.14376 233.19376Q37.95626 232.39688 37.95626 231.24063Q37.95626 230.36563 37.503136 229.75626Q37.05001 229.13126 36.05001 228.77188ZM33.48751 233.975L33.48751 228.75626Q32.315636 228.86563 31.721888 229.35Q30.800013 230.11563 30.800013 231.31876Q30.800013 232.39688 31.534388 233.14688Q32.26876 233.88126 33.48751 233.975ZM39.05001 225.1625L29.721888 225.1625L29.721888 223.74063L31.050013 223.74063Q29.503138 222.70938 29.503138 220.77188Q29.503138 219.92813 29.815638 219.225Q30.112513 218.50626 30.612513 218.1625Q31.096888 217.80313 31.768763 217.6625Q32.20626 217.58438 33.315636 217.58438L39.05001 217.58438L39.05001 219.1625L33.378136 219.1625Q32.409386 219.1625 31.925013 219.35Q31.440638 219.52188 31.159388 220.00626Q30.878138 220.475 30.878138 221.1Q30.878138 222.11563 31.518763 222.85Q32.159386 223.58438 33.95626 223.58438L39.05001 223.58438L39.05001 225.1625ZM39.05001 209.1L37.878136 209.1Q39.26876 209.99063 39.26876 211.725Q39.26876 212.83438 38.659386 213.77188Q38.034386 214.70938 36.940636 215.225Q35.83126 215.74063 34.39376 215.74063Q32.98751 215.74063 31.862513 215.27188Q30.721888 214.80313 30.112513 213.88126Q29.503138 212.94376 29.503138 211.7875Q29.503138 210.94376 29.862513 210.2875Q30.221888 209.63126 30.784388 209.20938L26.159388 209.20938L26.159388 207.64688L39.05001 207.64688L39.05001 209.1ZM34.39376 214.11563Q36.190636 214.11563 37.08126 213.36563Q37.95626 212.6 37.95626 211.56876Q37.95626 210.5375 37.11251 209.81876Q36.26876 209.08438 34.51876 209.08438Q32.61251 209.08438 31.721888 209.81876Q30.815638 210.55313 30.815638 211.63126Q30.815638 212.69376 31.675013 213.4125Q32.534386 214.11563 34.39376 214.11563ZM36.05001 198.77188L36.253136 197.13126Q37.67501 197.52188 38.471886 198.56876Q39.26876 199.61563 39.26876 201.24063Q39.26876 203.2875 38.003136 204.49063Q36.73751 205.69376 34.45626 205.69376Q32.11251 205.69376 30.815638 204.49063Q29.503138 203.27188 29.503138 201.33438Q29.503138 199.45938 30.784388 198.27188Q32.05001 197.08438 34.36251 197.08438Q34.503136 197.08438 34.784386 197.1L34.784386 204.05313Q36.33126 203.975 37.14376 203.19376Q37.95626 202.39688 37.95626 201.24063Q37.95626 200.36563 37.503136 199.75626Q37.05001 199.13126 36.05001 198.77188ZM33.48751 203.975L33.48751 198.75626Q32.315636 198.86563 31.721888 199.35Q30.800013 200.11563 30.800013 201.31876Q30.800013 202.39688 31.534388 203.14688Q32.26876 203.88126 33.48751 203.975ZM36.05001 188.77188L36.253136 187.13126Q37.67501 187.52188 38.471886 188.56876Q39.26876 189.61563 39.26876 191.24063Q39.26876 193.2875 38.003136 194.49063Q36.73751 195.69376 34.45626 195.69376Q32.11251 195.69376 30.815638 194.49063Q29.503138 193.27188 29.503138 191.33438Q29.503138 189.45938 30.784388 188.27188Q32.05001 187.08438 34.36251 187.08438Q34.503136 187.08438 34.784386 187.1L34.784386 194.05313Q36.33126 193.975 37.14376 193.19376Q37.95626 192.39688 37.95626 191.24063Q37.95626 190.36563 37.503136 189.75626Q37.05001 189.13126 36.05001 188.77188ZM33.48751 193.975L33.48751 188.75626Q32.315636 188.86563 31.721888 189.35Q30.800013 190.11563 30.800013 191.31876Q30.800013 192.39688 31.534388 193.14688Q32.26876 193.88126 33.48751 193.975ZM36.26876 185.80313L36.01876 184.225Q36.95626 184.1 37.45626 183.50626Q37.95626 182.89688 37.95626 181.81876Q37.95626 180.725 37.51876 180.19376Q37.065636 179.6625 36.471886 179.6625Q35.940636 179.6625 35.628136 180.13126Q35.42501 180.45938 35.096886 181.75626Q34.659386 183.49063 34.346886 184.1625Q34.01876 184.83438 33.45626 185.19376Q32.878136 185.5375 32.190636 185.5375Q31.565638 185.5375 31.034388 185.25626Q30.503138 184.95938 30.159388 184.475Q29.878138 184.1 29.690638 183.45938Q29.503138 182.81876 29.503138 182.1Q29.503138 180.99063 29.831263 180.1625Q30.143763 179.33438 30.690638 178.94376Q31.221888 178.5375 32.128136 178.39688L32.33126 179.94376Q31.612513 180.05313 31.206263 180.55313Q30.800013 181.05313 30.800013 181.975Q30.800013 183.06876 31.159388 183.5375Q31.518763 184.00626 32.003136 184.00626Q32.315636 184.00626 32.565636 183.80313Q32.815636 183.61563 32.98751 183.20938Q33.065636 182.95938 33.39376 181.80313Q33.83126 180.13126 34.128136 179.475Q34.409386 178.80313 34.95626 178.42813Q35.503136 178.0375 36.30001 178.0375Q37.096886 178.0375 37.80001 178.50626Q38.503136 178.95938 38.89376 179.83438Q39.26876 180.70938 39.26876 181.80313Q39.26876 183.63126 38.51876 184.58438Q37.753136 185.5375 36.26876 185.80313Z" fill-rule="nonzero"/><path fill="#999999" d="M86.62813 351.0125Q86.62813 349.23126 86.9875 348.15314Q87.3625 347.0594 88.08125 346.48126Q88.8 345.8875 89.89375 345.8875Q90.70625 345.8875 91.31563 346.21564Q91.925 346.54376 92.31563 347.15314Q92.72188 347.7625 92.94063 348.6375Q93.15938 349.5125 93.15938 351.0125Q93.15938 352.77814 92.8 353.85626Q92.44063 354.9344 91.72188 355.52814Q91.00313 356.1219 89.89375 356.1219Q88.45625 356.1219 87.62813 355.075Q86.62813 353.825 86.62813 351.0125ZM87.89375 351.0125Q87.89375 353.48126 88.47188 354.29376Q89.05 355.10626 89.89375 355.10626Q90.75313 355.10626 91.33125 354.29376Q91.90938 353.46564 91.90938 351.0125Q91.90938 348.52814 91.33125 347.71564Q90.75313 346.90314 89.87813 346.90314Q89.03438 346.90314 88.53438 347.6219Q87.89375 348.54376 87.89375 351.0125Z" fill-rule="nonzero"/><path fill="#999999" d="M83.26875 300.31L82.03438 300.31L82.03438 292.46625Q81.59688 292.88812 80.8625 293.32562Q80.14375 293.7475 79.58125 293.95062L79.58125 292.76312Q80.6125 292.27875 81.37813 291.59125Q82.15938 290.90375 82.47188 290.2475L83.26875 290.2475L83.26875 300.31ZM86.62813 295.3725Q86.62813 293.59125 86.9875 292.51312Q87.3625 291.41937 88.08125 290.84125Q88.8 290.2475 89.89375 290.2475Q90.70625 290.2475 91.31563 290.57562Q91.925 290.90375 92.31563 291.51312Q92.72188 292.1225 92.94063 292.9975Q93.15938 293.8725 93.15938 295.3725Q93.15938 297.13812 92.8 298.21625Q92.44063 299.29437 91.72188 299.88812Q91.00313 300.48187 89.89375 300.48187Q88.45625 300.48187 87.62813 299.435Q86.62813 298.185 86.62813 295.3725ZM87.89375 295.3725Q87.89375 297.84125 88.47188 298.65375Q89.05 299.46625 89.89375 299.46625Q90.75313 299.46625 91.33125 298.65375Q91.90938 297.82562 91.90938 295.3725Q91.90938 292.88812 91.33125 292.07562Q90.75313 291.26312 89.87813 291.26312Q89.03438 291.26312 88.53438 291.98187Q87.89375 292.90375 87.89375 295.3725Z" fill-rule="nonzero"/><path fill="#999999" d="M85.09688 243.4825L85.09688 244.67L78.47188 244.67Q78.45625 244.2325 78.6125 243.81062Q78.87813 243.13875 79.425 242.4825Q79.9875 241.82625 81.03438 240.96687Q82.675 239.62312 83.2375 238.84187Q83.81563 238.06062 83.81563 237.3575Q83.81563 236.62312 83.28438 236.12312Q82.76875 235.62312 81.94063 235.62312Q81.05 235.62312 80.50313 236.15437Q79.97188 236.68562 79.97188 237.63875L78.70625 237.49812Q78.83125 236.09187 79.675 235.3575Q80.53438 234.6075 81.95625 234.6075Q83.40938 234.6075 84.2375 235.40437Q85.08125 236.20125 85.08125 237.38875Q85.08125 237.99812 84.83125 238.57625Q84.59688 239.15437 84.01875 239.795Q83.45625 240.43562 82.12813 241.56062Q81.01875 242.4825 80.70625 242.82625Q80.39375 243.15437 80.19063 243.4825L85.09688 243.4825ZM86.62813 239.7325Q86.62813 237.95125 86.9875 236.87312Q87.3625 235.77937 88.08125 235.20125Q88.8 234.6075 89.89375 234.6075Q90.70625 234.6075 91.31563 234.93562Q91.925 235.26375 92.31563 235.87312Q92.72188 236.4825 92.94063 237.3575Q93.15938 238.2325 93.15938 239.7325Q93.15938 241.49812 92.8 242.57625Q92.44063 243.65437 91.72188 244.24812Q91.00313 244.84187 89.89375 244.84187Q88.45625 244.84187 87.62813 243.795Q86.62813 242.545 86.62813 239.7325ZM87.89375 239.7325Q87.89375 242.20125 88.47188 243.01375Q89.05 243.82625 89.89375 243.82625Q90.75313 243.82625 91.33125 243.01375Q91.90938 242.18562 91.90938 239.7325Q91.90938 237.24812 91.33125 236.43562Q90.75313 235.62312 89.87813 235.62312Q89.03438 235.62312 88.53438 236.34187Q87.89375 237.26375 87.89375 239.7325Z" fill-rule="nonzero"/><path fill="#999999" d="M78.64375 186.38937L79.8625 186.2175Q80.08125 187.26437 80.58125 187.73312Q81.09688 188.18625 81.83125 188.18625Q82.70625 188.18625 83.3 187.5925Q83.89375 186.98312 83.89375 186.0925Q83.89375 185.24875 83.33125 184.70187Q82.78438 184.155 81.94063 184.155Q81.58125 184.155 81.06563 184.28L81.20625 183.20187Q81.33125 183.2175 81.39375 183.2175Q82.19063 183.2175 82.81563 182.81125Q83.44063 182.405 83.44063 181.54562Q83.44063 180.87375 82.9875 180.43625Q82.53438 179.98312 81.8 179.98312Q81.08125 179.98312 80.59688 180.43625Q80.12813 180.87375 79.9875 181.78L78.76875 181.56125Q78.9875 180.32687 79.78438 179.655Q80.58125 178.9675 81.76875 178.9675Q82.59688 178.9675 83.28438 179.32687Q83.97188 179.67062 84.33125 180.28Q84.70625 180.88937 84.70625 181.57687Q84.70625 182.2175 84.3625 182.74875Q84.01875 183.28 83.33125 183.60812Q84.22188 183.81125 84.70625 184.45187Q85.20625 185.0925 85.20625 186.07687Q85.20625 187.38937 84.2375 188.29562Q83.28438 189.20187 81.83125 189.20187Q80.50313 189.20187 79.62813 188.42062Q78.76875 187.63937 78.64375 186.38937ZM86.62813 184.0925Q86.62813 182.31125 86.9875 181.23312Q87.3625 180.13937 88.08125 179.56125Q88.8 178.9675 89.89375 178.9675Q90.70625 178.9675 91.31563 179.29562Q91.925 179.62375 92.31563 180.23312Q92.72188 180.8425 92.94063 181.7175Q93.15938 182.5925 93.15938 184.0925Q93.15938 185.85812 92.8 186.93625Q92.44063 188.01437 91.72188 188.60812Q91.00313 189.20187 89.89375 189.20187Q88.45625 189.20187 87.62813 188.155Q86.62813 186.905 86.62813 184.0925ZM87.89375 184.0925Q87.89375 186.56125 88.47188 187.37375Q89.05 188.18625 89.89375 188.18625Q90.75313 188.18625 91.33125 187.37375Q91.90938 186.54562 91.90938 184.0925Q91.90938 181.60812 91.33125 180.79562Q90.75313 179.98312 89.87813 179.98312Q89.03438 179.98312 88.53438 180.70187Q87.89375 181.62375 87.89375 184.0925Z" fill-rule="nonzero"/><path fill="#999999" d="M82.58125 133.39L82.58125 130.98375L78.22188 130.98375L78.22188 129.85875L82.8 123.374374L83.8 123.374374L83.8 129.85875L85.15938 129.85875L85.15938 130.98375L83.8 130.98375L83.8 133.39L82.58125 133.39ZM82.58125 129.85875L82.58125 125.343124L79.44063 129.85875L82.58125 129.85875ZM86.62813 128.4525Q86.62813 126.67125 86.9875 125.593124Q87.3625 124.499374 88.08125 123.92125Q88.8 123.3275 89.89375 123.3275Q90.70625 123.3275 91.31563 123.655624Q91.925 123.98375 92.31563 124.593124Q92.72188 125.2025 92.94063 126.0775Q93.15938 126.9525 93.15938 128.4525Q93.15938 130.21812 92.8 131.29625Q92.44063 132.37437 91.72188 132.96812Q91.00313 133.56187 89.89375 133.56187Q88.45625 133.56187 87.62813 132.515Q86.62813 131.265 86.62813 128.4525ZM87.89375 128.4525Q87.89375 130.92125 88.47188 131.73375Q89.05 132.54625 89.89375 132.54625Q90.75313 132.54625 91.33125 131.73375Q91.90938 130.90562 91.90938 128.4525Q91.90938 125.968124 91.33125 125.155624Q90.75313 124.343124 89.87813 124.343124Q89.03438 124.343124 88.53438 125.061874Q87.89375 125.98375 87.89375 128.4525Z" fill-rule="nonzero"/><path fill="#999999" d="M78.62813 75.125L79.925 75.015625Q80.06563 75.953125 80.58125 76.4375Q81.1125 76.90625 81.84688 76.90625Q82.7375 76.90625 83.34688 76.234375Q83.97188 75.5625 83.97188 74.46875Q83.97188 73.40625 83.37813 72.796875Q82.78438 72.1875 81.83125 72.1875Q81.2375 72.1875 80.75313 72.46875Q80.28438 72.734375 80.00313 73.15625L78.84688 73.015625L79.81563 67.859375L84.8 67.859375L84.8 69.046875L80.8 69.046875L80.26875 71.734375Q81.175 71.109375 82.15938 71.109375Q83.47188 71.109375 84.3625 72.015625Q85.26875 72.921875 85.26875 74.359375Q85.26875 75.71875 84.4875 76.703125Q83.51875 77.921875 81.84688 77.921875Q80.4875 77.921875 79.6125 77.15625Q78.75313 76.390625 78.62813 75.125ZM86.62813 72.8125Q86.62813 71.03125 86.9875 69.953125Q87.3625 68.859375 88.08125 68.28125Q88.8 67.6875 89.89375 67.6875Q90.70625 67.6875 91.31563 68.015625Q91.925 68.34375 92.31563 68.953125Q92.72188 69.5625 92.94063 70.4375Q93.15938 71.3125 93.15938 72.8125Q93.15938 74.578125 92.8 75.65625Q92.44063 76.734375 91.72188 77.328125Q91.00313 77.921875 89.89375 77.921875Q88.45625 77.921875 87.62813 76.875Q86.62813 75.625 86.62813 72.8125ZM87.89375 72.8125Q87.89375 75.28125 88.47188 76.09375Q89.05 76.90625 89.89375 76.90625Q90.75313 76.90625 91.33125 76.09375Q91.90938 75.265625 91.90938 72.8125Q91.90938 70.328125 91.33125 69.515625Q90.75313 68.703125 89.87813 68.703125Q89.03438 68.703125 88.53438 69.421875Q87.89375 70.34375 87.89375 72.8125Z" fill-rule="nonzero"/><path fill="#999999" d="M105.05 359.48123L105.05 360.5281L98.33125 360.5281Q98.69063 360.91873 99.06563 361.54373Q99.425 362.1531 99.59688 362.63748L98.58125 362.63748Q98.15938 361.76248 97.58125 361.10623Q96.9875 360.43436 96.425 360.1531L96.425 359.48123L105.05 359.48123Z" fill-rule="nonzero"/><path fill="#999999" d="M129.23438 363.45L129.09375 362.3875Q129.98438 362.21564 130.39062 361.77814Q130.78125 361.34064 130.78125 360.71564Q130.78125 359.96564 130.26562 359.45Q129.75 358.9344 128.98438 358.9344Q128.26562 358.9344 127.796875 359.41876Q127.3125 359.8875 127.3125 360.6219Q127.3125 360.91876 127.4375 361.3719L126.5 361.2469Q126.515625 361.1375 126.515625 361.075Q126.515625 360.40314 126.171875 359.8719Q125.8125 359.325 125.078125 359.325Q124.5 359.325 124.125 359.71564Q123.734375 360.10626 123.734375 360.73126Q123.734375 361.34064 124.125 361.7625Q124.515625 362.16876 125.28125 362.27814L125.09375 363.34064Q124.046875 363.15314 123.46875 362.46564Q122.875 361.77814 122.875 360.7625Q122.875 360.0594 123.1875 359.46564Q123.484375 358.8719 124.0 358.5594Q124.515625 358.2469 125.109375 358.2469Q125.65625 358.2469 126.125 358.54376Q126.578125 358.84064 126.84375 359.41876Q127.015625 358.66876 127.578125 358.2469Q128.125 357.825 128.96875 357.825Q130.09375 357.825 130.875 358.65314Q131.65625 359.46564 131.65625 360.71564Q131.65625 361.84064 130.98438 362.59064Q130.29688 363.34064 129.23438 363.45Z" fill-rule="nonzero"/><path fill="#999999" d="M155.7 363.45L155.60625 362.34064Q156.41875 362.21564 156.825 361.77814Q157.23125 361.325 157.23125 360.6844Q157.23125 359.9344 156.65312 359.40314Q156.075 358.8719 155.1375 358.8719Q154.23125 358.8719 153.71562 359.3875Q153.18437 359.8875 153.18437 360.71564Q153.18437 361.21564 153.41875 361.6375Q153.65312 362.04376 154.0125 362.27814L153.8875 363.2625L149.48125 362.4344L149.48125 358.15314L150.48125 358.15314L150.48125 361.59064L152.79375 362.04376Q152.24687 361.27814 152.24687 360.4344Q152.24687 359.3094 153.02812 358.54376Q153.80937 357.7625 155.04375 357.7625Q156.2 357.7625 157.05937 358.4344Q158.09062 359.2625 158.09062 360.6844Q158.09062 361.85626 157.43437 362.60626Q156.77812 363.34064 155.7 363.45Z" fill-rule="nonzero"/><path fill="#999999" d="M176.93124 363.3875L175.91562 363.3875L175.91562 357.825L176.74374 357.825Q177.61874 358.6375 179.07187 359.45Q180.50937 360.2469 182.04062 360.6844Q183.11874 361.0125 184.4 361.09064L184.4 362.1844Q183.38437 362.16876 181.94687 361.79376Q180.50937 361.40314 179.18124 360.7Q177.85312 359.98126 176.93124 359.16876L176.93124 363.3875Z" fill-rule="nonzero"/><path fill="#999999" d="M208.86563 363.29376L208.77188 362.27814Q209.49063 362.15314 209.81876 361.79376Q210.13126 361.41876 210.13126 360.85626Q210.13126 360.3719 209.9125 360.0125Q209.67813 359.6375 209.31876 359.40314Q208.94376 359.16876 208.31876 359.0125Q207.67813 358.85626 207.02188 358.85626Q206.94376 358.85626 206.80313 358.85626Q207.30313 359.16876 207.63126 359.71564Q207.94376 360.2625 207.94376 360.90314Q207.94376 361.98126 207.17813 362.71564Q206.39688 363.45 205.13126 363.45Q203.81876 363.45 203.02188 362.6844Q202.225 361.90314 202.225 360.7469Q202.225 359.91876 202.67813 359.23126Q203.13126 358.52814 203.975 358.16876Q204.80313 357.8094 206.38126 357.8094Q208.02188 357.8094 209.00626 358.16876Q209.975 358.5125 210.49063 359.23126Q210.99063 359.9344 210.99063 360.8719Q210.99063 361.8875 210.44376 362.52814Q209.88126 363.16876 208.86563 363.29376ZM205.06876 358.98126Q204.1625 358.98126 203.63126 359.46564Q203.1 359.9344 203.1 360.6219Q203.1 361.325 203.67813 361.85626Q204.24063 362.3719 205.1625 362.3719Q205.975 362.3719 206.49063 361.8719Q207.00626 361.3719 207.00626 360.65314Q207.00626 359.91876 206.49063 359.45Q205.975 358.98126 205.06876 358.98126Z" fill-rule="nonzero"/><path fill="#999999" d="M237.3 366.48123L237.3 367.5281L230.58125 367.5281Q230.94063 367.91873 231.31563 368.54373Q231.675 369.1531 231.84688 369.63748L230.83125 369.63748Q230.40938 368.76248 229.83125 368.10623Q229.2375 367.43436 228.675 367.1531L228.675 366.48123L237.3 366.48123ZM237.3 359.48123L237.3 360.5281L230.58125 360.5281Q230.94063 360.91873 231.31563 361.54373Q231.675 362.1531 231.84688 362.63748L230.83125 362.63748Q230.40938 361.76248 229.83125 361.10623Q229.2375 360.43436 228.675 360.1531L228.675 359.48123L237.3 359.48123Z" fill-rule="nonzero"/><path fill="#999999" d="M263.75 366.48126L263.75 367.52814L257.03125 367.52814Q257.39062 367.91876 257.76562 368.54376Q258.125 369.15314 258.29688 369.6375L257.28125 369.6375Q256.85938 368.7625 256.28125 368.10626Q255.6875 367.4344 255.125 367.15314L255.125 366.48126L263.75 366.48126ZM261.48438 363.45L261.34375 362.3875Q262.23438 362.21564 262.64062 361.77814Q263.03125 361.34064 263.03125 360.71564Q263.03125 359.96564 262.51562 359.45Q262.0 358.9344 261.23438 358.9344Q260.51562 358.9344 260.04688 359.41876Q259.5625 359.8875 259.5625 360.6219Q259.5625 360.91876 259.6875 361.3719L258.75 361.2469Q258.76562 361.1375 258.76562 361.075Q258.76562 360.40314 258.42188 359.8719Q258.0625 359.325 257.32812 359.325Q256.75 359.325 256.375 359.71564Q255.98438 360.10626 255.98438 360.73126Q255.98438 361.34064 256.375 361.7625Q256.76562 362.16876 257.53125 362.27814L257.34375 363.34064Q256.29688 363.15314 255.71875 362.46564Q255.125 361.77814 255.125 360.7625Q255.125 360.0594 255.4375 359.46564Q255.73438 358.8719 256.25 358.5594Q256.76562 358.2469 257.35938 358.2469Q257.90625 358.2469 258.375 358.54376Q258.82812 358.84064 259.09375 359.41876Q259.26562 358.66876 259.82812 358.2469Q260.375 357.825 261.21875 357.825Q262.34375 357.825 263.125 358.65314Q263.90625 359.46564 263.90625 360.71564Q263.90625 361.84064 263.23438 362.59064Q262.54688 363.34064 261.48438 363.45Z" fill-rule="nonzero"/><path fill="#999999" d="M290.2 366.48126L290.2 367.52814L283.48126 367.52814Q283.84064 367.91876 284.21564 368.54376Q284.575 369.15314 284.7469 369.6375L283.73126 369.6375Q283.3094 368.7625 282.73126 368.10626Q282.1375 367.4344 281.575 367.15314L281.575 366.48126L290.2 366.48126ZM287.95 363.45L287.85626 362.34064Q288.66876 362.21564 289.075 361.77814Q289.48126 361.325 289.48126 360.6844Q289.48126 359.9344 288.90314 359.40314Q288.325 358.8719 287.3875 358.8719Q286.48126 358.8719 285.96564 359.3875Q285.4344 359.8875 285.4344 360.71564Q285.4344 361.21564 285.66876 361.6375Q285.90314 362.04376 286.2625 362.27814L286.1375 363.2625L281.73126 362.4344L281.73126 358.15314L282.73126 358.15314L282.73126 361.59064L285.04376 362.04376Q284.4969 361.27814 284.4969 360.4344Q284.4969 359.3094 285.27814 358.54376Q286.0594 357.7625 287.29376 357.7625Q288.45 357.7625 289.3094 358.4344Q290.34064 359.2625 290.34064 360.6844Q290.34064 361.85626 289.6844 362.60626Q289.02814 363.34064 287.95 363.45Z" fill-rule="nonzero"/><path fill="#999999" d="M316.65 366.48123L316.65 367.5281L309.93124 367.5281Q310.29062 367.91873 310.66562 368.54373Q311.025 369.1531 311.19687 369.63748L310.18124 369.63748Q309.75937 368.76248 309.18124 368.10623Q308.5875 367.43436 308.025 367.1531L308.025 366.48123L316.65 366.48123ZM309.18124 363.38748L308.16562 363.38748L308.16562 357.82498L308.99374 357.82498Q309.86874 358.63748 311.32187 359.44998Q312.75937 360.24686 314.29062 360.68436Q315.36874 361.01248 316.65 361.0906L316.65 362.18436Q315.63437 362.16873 314.19687 361.79373Q312.75937 361.4031 311.43124 360.69998Q310.10312 359.98123 309.18124 359.16873L309.18124 363.38748Z" fill-rule="nonzero"/><path fill="#999999" d="M343.1 366.48126L343.1 367.52814L336.38126 367.52814Q336.74063 367.91876 337.11563 368.54376Q337.475 369.15314 337.64688 369.6375L336.63126 369.6375Q336.20938 368.7625 335.63126 368.10626Q335.0375 367.4344 334.475 367.15314L334.475 366.48126L343.1 366.48126ZM341.11563 363.29376L341.02188 362.27814Q341.74063 362.15314 342.06876 361.79376Q342.38126 361.41876 342.38126 360.85626Q342.38126 360.3719 342.1625 360.0125Q341.92813 359.6375 341.56876 359.40314Q341.19376 359.16876 340.56876 359.0125Q339.92813 358.85626 339.27188 358.85626Q339.19376 358.85626 339.05313 358.85626Q339.55313 359.16876 339.88126 359.71564Q340.19376 360.2625 340.19376 360.90314Q340.19376 361.98126 339.42813 362.71564Q338.64688 363.45 337.38126 363.45Q336.06876 363.45 335.27188 362.6844Q334.475 361.90314 334.475 360.7469Q334.475 359.91876 334.92813 359.23126Q335.38126 358.52814 336.225 358.16876Q337.05313 357.8094 338.63126 357.8094Q340.27188 357.8094 341.25626 358.16876Q342.225 358.5125 342.74063 359.23126Q343.24063 359.9344 343.24063 360.8719Q343.24063 361.8875 342.69376 362.52814Q342.13126 363.16876 341.11563 363.29376ZM337.31876 358.98126Q336.4125 358.98126 335.88126 359.46564Q335.35 359.9344 335.35 360.6219Q335.35 361.325 335.92813 361.85626Q336.49063 362.3719 337.4125 362.3719Q338.225 362.3719 338.74063 361.8719Q339.25626 361.3719 339.25626 360.65314Q339.25626 359.91876 338.74063 359.45Q338.225 358.98126 337.31876 358.98126Z" fill-rule="nonzero"/><path fill="#999999" d="M368.53436 364.9031L369.55 364.9031L369.55 370.5906Q369.175 370.5906 368.8156 370.4656Q368.2375 370.24686 367.675 369.7781Q367.1125 369.29373 366.3781 368.38748Q365.22186 366.98123 364.55 366.49686Q363.8781 365.99686 363.28436 365.99686Q362.65936 365.99686 362.2375 366.44998Q361.8 366.9031 361.8 367.62186Q361.8 368.38748 362.2531 368.8406Q362.70624 369.29373 363.51874 369.30936L363.40936 370.38748Q362.1906 370.2781 361.5656 369.55936Q360.925 368.82498 360.925 367.5906Q360.925 366.35623 361.6125 365.63748Q362.3 364.91873 363.3156 364.91873Q363.83124 364.91873 364.33124 365.13748Q364.8156 365.3406 365.3781 365.8406Q365.925 366.32498 366.8781 367.44998Q367.675 368.4031 367.97186 368.68436Q368.2531 368.94998 368.53436 369.12186L368.53436 364.9031ZM369.55 359.48123L369.55 360.5281L362.83124 360.5281Q363.1906 360.91873 363.5656 361.54373Q363.925 362.1531 364.09686 362.63748L363.08124 362.63748Q362.65936 361.76248 362.08124 361.10623Q361.4875 360.43436 360.925 360.1531L360.925 359.48123L369.55 359.48123Z" fill-rule="nonzero"/><path fill="#999999" d="M394.98438 364.90314L396.0 364.90314L396.0 370.59064Q395.625 370.59064 395.26562 370.46564Q394.6875 370.2469 394.125 369.77814Q393.5625 369.29376 392.82812 368.3875Q391.67188 366.98126 391.0 366.4969Q390.32812 365.9969 389.73438 365.9969Q389.10938 365.9969 388.6875 366.45Q388.25 366.90314 388.25 367.6219Q388.25 368.3875 388.70312 368.84064Q389.15625 369.29376 389.96875 369.3094L389.85938 370.3875Q388.64062 370.27814 388.01562 369.5594Q387.375 368.825 387.375 367.59064Q387.375 366.35626 388.0625 365.6375Q388.75 364.91876 389.76562 364.91876Q390.28125 364.91876 390.78125 365.1375Q391.26562 365.34064 391.82812 365.84064Q392.375 366.325 393.32812 367.45Q394.125 368.40314 394.42188 368.6844Q394.70312 368.95 394.98438 369.1219L394.98438 364.90314ZM393.73438 363.45L393.59375 362.3875Q394.48438 362.21564 394.89062 361.77814Q395.28125 361.34064 395.28125 360.71564Q395.28125 359.96564 394.76562 359.45Q394.25 358.9344 393.48438 358.9344Q392.76562 358.9344 392.29688 359.41876Q391.8125 359.8875 391.8125 360.6219Q391.8125 360.91876 391.9375 361.3719L391.0 361.2469Q391.01562 361.1375 391.01562 361.075Q391.01562 360.40314 390.67188 359.8719Q390.3125 359.325 389.57812 359.325Q389.0 359.325 388.625 359.71564Q388.23438 360.10626 388.23438 360.73126Q388.23438 361.34064 388.625 361.7625Q389.01562 362.16876 389.78125 362.27814L389.59375 363.34064Q388.54688 363.15314 387.96875 362.46564Q387.375 361.77814 387.375 360.7625Q387.375 360.0594 387.6875 359.46564Q387.98438 358.8719 388.5 358.5594Q389.01562 358.2469 389.60938 358.2469Q390.15625 358.2469 390.625 358.54376Q391.07812 358.84064 391.34375 359.41876Q391.51562 358.66876 392.07812 358.2469Q392.625 357.825 393.46875 357.825Q394.59375 357.825 395.375 358.65314Q396.15625 359.46564 396.15625 360.71564Q396.15625 361.84064 395.48438 362.59064Q394.79688 363.34064 393.73438 363.45Z" fill-rule="nonzero"/><path fill="#999999" d="M421.4344 364.90314L422.45 364.90314L422.45 370.59064Q422.075 370.59064 421.71564 370.46564Q421.1375 370.2469 420.575 369.77814Q420.0125 369.29376 419.27814 368.3875Q418.1219 366.98126 417.45 366.4969Q416.77814 365.9969 416.1844 365.9969Q415.5594 365.9969 415.1375 366.45Q414.7 366.90314 414.7 367.6219Q414.7 368.3875 415.15314 368.84064Q415.60626 369.29376 416.41876 369.3094L416.3094 370.3875Q415.09064 370.27814 414.46564 369.5594Q413.825 368.825 413.825 367.59064Q413.825 366.35626 414.5125 365.6375Q415.2 364.91876 416.21564 364.91876Q416.73126 364.91876 417.23126 365.1375Q417.71564 365.34064 418.27814 365.84064Q418.825 366.325 419.77814 367.45Q420.575 368.40314 420.8719 368.6844Q421.15314 368.95 421.4344 369.1219L421.4344 364.90314ZM420.2 363.45L420.10626 362.34064Q420.91876 362.21564 421.325 361.77814Q421.73126 361.325 421.73126 360.6844Q421.73126 359.9344 421.15314 359.40314Q420.575 358.8719 419.6375 358.8719Q418.73126 358.8719 418.21564 359.3875Q417.6844 359.8875 417.6844 360.71564Q417.6844 361.21564 417.91876 361.6375Q418.15314 362.04376 418.5125 362.27814L418.3875 363.2625L413.98126 362.4344L413.98126 358.15314L414.98126 358.15314L414.98126 361.59064L417.29376 362.04376Q416.7469 361.27814 416.7469 360.4344Q416.7469 359.3094 417.52814 358.54376Q418.3094 357.7625 419.54376 357.7625Q420.7 357.7625 421.5594 358.4344Q422.59064 359.2625 422.59064 360.6844Q422.59064 361.85626 421.9344 362.60626Q421.27814 363.34064 420.2 363.45Z" fill-rule="nonzero"/><path fill="#999999" d="M447.88437 364.9031L448.9 364.9031L448.9 370.5906Q448.525 370.5906 448.16562 370.4656Q447.5875 370.24686 447.025 369.7781Q446.4625 369.29373 445.72812 368.38748Q444.57187 366.98123 443.9 366.49686Q443.22812 365.99686 442.63437 365.99686Q442.00937 365.99686 441.5875 366.44998Q441.15 366.9031 441.15 367.62186Q441.15 368.38748 441.60312 368.8406Q442.05624 369.29373 442.86874 369.30936L442.75937 370.38748Q441.54062 370.2781 440.91562 369.55936Q440.275 368.82498 440.275 367.5906Q440.275 366.35623 440.9625 365.63748Q441.65 364.91873 442.66562 364.91873Q443.18124 364.91873 443.68124 365.13748Q444.16562 365.3406 444.72812 365.8406Q445.275 366.32498 446.22812 367.44998Q447.025 368.4031 447.32187 368.68436Q447.60312 368.94998 447.88437 369.12186L447.88437 364.9031ZM441.43124 363.38748L440.41562 363.38748L440.41562 357.82498L441.24374 357.82498Q442.11874 358.63748 443.57187 359.44998Q445.00937 360.24686 446.54062 360.68436Q447.61874 361.01248 448.9 361.0906L448.9 362.18436Q447.88437 362.16873 446.44687 361.79373Q445.00937 361.4031 443.68124 360.69998Q442.35312 359.98123 441.43124 359.16873L441.43124 363.38748Z" fill-rule="nonzero"/><path fill="#999999" d="M474.33438 364.9031L475.35 364.9031L475.35 370.5906Q474.975 370.5906 474.61563 370.4656Q474.0375 370.24686 473.475 369.7781Q472.9125 369.29373 472.17813 368.38748Q471.02188 366.98123 470.35 366.49686Q469.67813 365.99686 469.08438 365.99686Q468.45938 365.99686 468.0375 366.44998Q467.6 366.9031 467.6 367.62186Q467.6 368.38748 468.05313 368.8406Q468.50626 369.29373 469.31876 369.30936L469.20938 370.38748Q467.99063 370.2781 467.36563 369.55936Q466.725 368.82498 466.725 367.5906Q466.725 366.35623 467.4125 365.63748Q468.1 364.91873 469.11563 364.91873Q469.63126 364.91873 470.13126 365.13748Q470.61563 365.3406 471.17813 365.8406Q471.725 366.32498 472.67813 367.44998Q473.475 368.4031 473.77188 368.68436Q474.05313 368.94998 474.33438 369.12186L474.33438 364.9031ZM473.36563 363.29373L473.27188 362.2781Q473.99063 362.1531 474.31876 361.79373Q474.63126 361.41873 474.63126 360.85623Q474.63126 360.37186 474.4125 360.01248Q474.17813 359.63748 473.81876 359.4031Q473.44376 359.16873 472.81876 359.01248Q472.17813 358.85623 471.52188 358.85623Q471.44376 358.85623 471.30313 358.85623Q471.80313 359.16873 472.13126 359.7156Q472.44376 360.26248 472.44376 360.9031Q472.44376 361.98123 471.67813 362.7156Q470.89688 363.44998 469.63126 363.44998Q468.31876 363.44998 467.52188 362.68436Q466.725 361.9031 466.725 360.74686Q466.725 359.91873 467.17813 359.23123Q467.63126 358.5281 468.475 358.16873Q469.30313 357.80936 470.88126 357.80936Q472.52188 357.80936 473.50626 358.16873Q474.475 358.51248 474.99063 359.23123Q475.49063 359.93436 475.49063 360.87186Q475.49063 361.88748 474.94376 362.5281Q474.38126 363.16873 473.36563 363.29373ZM469.56876 358.98123Q468.6625 358.98123 468.13126 359.4656Q467.6 359.93436 467.6 360.62186Q467.6 361.32498 468.17813 361.85623Q468.74063 362.37186 469.6625 362.37186Q470.475 362.37186 470.99063 361.87186Q471.50626 361.37186 471.50626 360.6531Q471.50626 359.91873 470.99063 359.44998Q470.475 358.98123 469.56876 358.98123Z" fill-rule="nonzero"/><path fill="#999999" d="M499.53436 370.45L499.39374 369.3875Q500.28436 369.21564 500.6906 368.77814Q501.08124 368.34064 501.08124 367.71564Q501.08124 366.96564 500.5656 366.45Q500.05 365.9344 499.28436 365.9344Q498.5656 365.9344 498.09686 366.41876Q497.6125 366.8875 497.6125 367.6219Q497.6125 367.91876 497.7375 368.3719L496.8 368.2469Q496.8156 368.1375 496.8156 368.075Q496.8156 367.40314 496.47186 366.8719Q496.1125 366.325 495.3781 366.325Q494.8 366.325 494.425 366.71564Q494.03436 367.10626 494.03436 367.73126Q494.03436 368.34064 494.425 368.7625Q494.8156 369.16876 495.58124 369.27814L495.39374 370.34064Q494.34686 370.15314 493.76874 369.46564Q493.175 368.77814 493.175 367.7625Q493.175 367.0594 493.4875 366.46564Q493.78436 365.8719 494.3 365.5594Q494.8156 365.2469 495.40936 365.2469Q495.95624 365.2469 496.425 365.54376Q496.8781 365.84064 497.14374 366.41876Q497.3156 365.66876 497.8781 365.2469Q498.425 364.825 499.26874 364.825Q500.39374 364.825 501.175 365.65314Q501.95624 366.46564 501.95624 367.71564Q501.95624 368.84064 501.28436 369.59064Q500.59686 370.34064 499.53436 370.45ZM501.8 359.48126L501.8 360.52814L495.08124 360.52814Q495.4406 360.91876 495.8156 361.54376Q496.175 362.15314 496.34686 362.6375L495.33124 362.6375Q494.90936 361.7625 494.33124 361.10626Q493.7375 360.4344 493.175 360.15314L493.175 359.48126L501.8 359.48126Z" fill-rule="nonzero"/><path fill="#999999" d="M525.9844 370.45L525.84375 369.3875Q526.7344 369.21564 527.1406 368.77814Q527.53125 368.34064 527.53125 367.71564Q527.53125 366.96564 527.0156 366.45Q526.5 365.9344 525.7344 365.9344Q525.0156 365.9344 524.5469 366.41876Q524.0625 366.8875 524.0625 367.6219Q524.0625 367.91876 524.1875 368.3719L523.25 368.2469Q523.2656 368.1375 523.2656 368.075Q523.2656 367.40314 522.9219 366.8719Q522.5625 366.325 521.8281 366.325Q521.25 366.325 520.875 366.71564Q520.4844 367.10626 520.4844 367.73126Q520.4844 368.34064 520.875 368.7625Q521.2656 369.16876 522.03125 369.27814L521.84375 370.34064Q520.7969 370.15314 520.21875 369.46564Q519.625 368.77814 519.625 367.7625Q519.625 367.0594 519.9375 366.46564Q520.2344 365.8719 520.75 365.5594Q521.2656 365.2469 521.8594 365.2469Q522.40625 365.2469 522.875 365.54376Q523.3281 365.84064 523.59375 366.41876Q523.7656 365.66876 524.3281 365.2469Q524.875 364.825 525.71875 364.825Q526.84375 364.825 527.625 365.65314Q528.40625 366.46564 528.40625 367.71564Q528.40625 368.84064 527.7344 369.59064Q527.0469 370.34064 525.9844 370.45ZM525.9844 363.45L525.84375 362.3875Q526.7344 362.21564 527.1406 361.77814Q527.53125 361.34064 527.53125 360.71564Q527.53125 359.96564 527.0156 359.45Q526.5 358.9344 525.7344 358.9344Q525.0156 358.9344 524.5469 359.41876Q524.0625 359.8875 524.0625 360.6219Q524.0625 360.91876 524.1875 361.3719L523.25 361.2469Q523.2656 361.1375 523.2656 361.075Q523.2656 360.40314 522.9219 359.8719Q522.5625 359.325 521.8281 359.325Q521.25 359.325 520.875 359.71564Q520.4844 360.10626 520.4844 360.73126Q520.4844 361.34064 520.875 361.7625Q521.2656 362.16876 522.03125 362.27814L521.84375 363.34064Q520.7969 363.15314 520.21875 362.46564Q519.625 361.77814 519.625 360.7625Q519.625 360.0594 519.9375 359.46564Q520.2344 358.8719 520.75 358.5594Q521.2656 358.2469 521.8594 358.2469Q522.40625 358.2469 522.875 358.54376Q523.3281 358.84064 523.59375 359.41876Q523.7656 358.66876 524.3281 358.2469Q524.875 357.825 525.71875 357.825Q526.84375 357.825 527.625 358.65314Q528.40625 359.46564 528.40625 360.71564Q528.40625 361.84064 527.7344 362.59064Q527.0469 363.34064 525.9844 363.45Z" fill-rule="nonzero"/><path fill="#999999" d="M552.4344 370.45L552.29376 369.3875Q553.1844 369.21564 553.59064 368.77814Q553.98126 368.34064 553.98126 367.71564Q553.98126 366.96564 553.46564 366.45Q552.95 365.9344 552.1844 365.9344Q551.46564 365.9344 550.9969 366.41876Q550.5125 366.8875 550.5125 367.6219Q550.5125 367.91876 550.6375 368.3719L549.7 368.2469Q549.71564 368.1375 549.71564 368.075Q549.71564 367.40314 549.3719 366.8719Q549.0125 366.325 548.27814 366.325Q547.7 366.325 547.325 366.71564Q546.9344 367.10626 546.9344 367.73126Q546.9344 368.34064 547.325 368.7625Q547.71564 369.16876 548.48126 369.27814L548.29376 370.34064Q547.2469 370.15314 546.66876 369.46564Q546.075 368.77814 546.075 367.7625Q546.075 367.0594 546.3875 366.46564Q546.6844 365.8719 547.2 365.5594Q547.71564 365.2469 548.3094 365.2469Q548.85626 365.2469 549.325 365.54376Q549.77814 365.84064 550.04376 366.41876Q550.21564 365.66876 550.77814 365.2469Q551.325 364.825 552.16876 364.825Q553.29376 364.825 554.075 365.65314Q554.85626 366.46564 554.85626 367.71564Q554.85626 368.84064 554.1844 369.59064Q553.4969 370.34064 552.4344 370.45ZM552.45 363.45L552.35626 362.34064Q553.16876 362.21564 553.575 361.77814Q553.98126 361.325 553.98126 360.6844Q553.98126 359.9344 553.40314 359.40314Q552.825 358.8719 551.8875 358.8719Q550.98126 358.8719 550.46564 359.3875Q549.9344 359.8875 549.9344 360.71564Q549.9344 361.21564 550.16876 361.6375Q550.40314 362.04376 550.7625 362.27814L550.6375 363.2625L546.23126 362.4344L546.23126 358.15314L547.23126 358.15314L547.23126 361.59064L549.54376 362.04376Q548.9969 361.27814 548.9969 360.4344Q548.9969 359.3094 549.77814 358.54376Q550.5594 357.7625 551.79376 357.7625Q552.95 357.7625 553.8094 358.4344Q554.84064 359.2625 554.84064 360.6844Q554.84064 361.85626 554.1844 362.60626Q553.52814 363.34064 552.45 363.45Z" fill-rule="nonzero"/><path fill="#999999" d="M578.8844 370.44998L578.7438 369.38748Q579.6344 369.2156 580.04065 368.7781Q580.4313 368.3406 580.4313 367.7156Q580.4313 366.9656 579.91565 366.44998Q579.4 365.93436 578.6344 365.93436Q577.91565 365.93436 577.4469 366.41873Q576.9625 366.88748 576.9625 367.62186Q576.9625 367.91873 577.0875 368.37186L576.15 368.24686Q576.16565 368.13748 576.16565 368.07498Q576.16565 367.4031 575.8219 366.87186Q575.4625 366.32498 574.72815 366.32498Q574.15 366.32498 573.775 366.7156Q573.3844 367.10623 573.3844 367.73123Q573.3844 368.3406 573.775 368.76248Q574.16565 369.16873 574.9313 369.2781L574.7438 370.3406Q573.6969 370.1531 573.1188 369.4656Q572.525 368.7781 572.525 367.76248Q572.525 367.05936 572.8375 366.4656Q573.1344 365.87186 573.65 365.55936Q574.16565 365.24686 574.7594 365.24686Q575.3063 365.24686 575.775 365.54373Q576.22815 365.8406 576.4938 366.41873Q576.66565 365.66873 577.22815 365.24686Q577.775 364.82498 578.6188 364.82498Q579.7438 364.82498 580.525 365.6531Q581.3063 366.4656 581.3063 367.7156Q581.3063 368.8406 580.6344 369.5906Q579.9469 370.3406 578.8844 370.44998ZM573.6813 363.38748L572.66565 363.38748L572.66565 357.82498L573.4938 357.82498Q574.3688 358.63748 575.8219 359.44998Q577.2594 360.24686 578.79065 360.68436Q579.8688 361.01248 581.15 361.0906L581.15 362.18436Q580.1344 362.16873 578.6969 361.79373Q577.2594 361.4031 575.9313 360.69998Q574.60315 359.98123 573.6813 359.16873L573.6813 363.38748Z" fill-rule="nonzero"/><path fill="#999999" d="M605.33435 370.44998L605.1937 369.38748Q606.08435 369.2156 606.4906 368.7781Q606.8812 368.3406 606.8812 367.7156Q606.8812 366.9656 606.3656 366.44998Q605.85 365.93436 605.08435 365.93436Q604.3656 365.93436 603.89685 366.41873Q603.4125 366.88748 603.4125 367.62186Q603.4125 367.91873 603.5375 368.37186L602.6 368.24686Q602.6156 368.13748 602.6156 368.07498Q602.6156 367.4031 602.27185 366.87186Q601.9125 366.32498 601.1781 366.32498Q600.6 366.32498 600.225 366.7156Q599.83435 367.10623 599.83435 367.73123Q599.83435 368.3406 600.225 368.76248Q600.6156 369.16873 601.3812 369.2781L601.1937 370.3406Q600.14685 370.1531 599.5687 369.4656Q598.975 368.7781 598.975 367.76248Q598.975 367.05936 599.2875 366.4656Q599.58435 365.87186 600.1 365.55936Q600.6156 365.24686 601.20935 365.24686Q601.7562 365.24686 602.225 365.54373Q602.6781 365.8406 602.9437 366.41873Q603.1156 365.66873 603.6781 365.24686Q604.225 364.82498 605.0687 364.82498Q606.1937 364.82498 606.975 365.6531Q607.7562 366.4656 607.7562 367.7156Q607.7562 368.8406 607.08435 369.5906Q606.39685 370.3406 605.33435 370.44998ZM605.6156 363.29373L605.52185 362.2781Q606.2406 362.1531 606.5687 361.79373Q606.8812 361.41873 606.8812 360.85623Q606.8812 360.37186 606.6625 360.01248Q606.4281 359.63748 606.0687 359.4031Q605.6937 359.16873 605.0687 359.01248Q604.4281 358.85623 603.77185 358.85623Q603.6937 358.85623 603.5531 358.85623Q604.0531 359.16873 604.3812 359.7156Q604.6937 360.26248 604.6937 360.9031Q604.6937 361.98123 603.9281 362.7156Q603.14685 363.44998 601.8812 363.44998Q600.5687 363.44998 599.77185 362.68436Q598.975 361.9031 598.975 360.74686Q598.975 359.91873 599.4281 359.23123Q599.8812 358.5281 600.725 358.16873Q601.5531 357.80936 603.1312 357.80936Q604.77185 357.80936 605.7562 358.16873Q606.725 358.51248 607.2406 359.23123Q607.7406 359.93436 607.7406 360.87186Q607.7406 361.88748 607.1937 362.5281Q606.6312 363.16873 605.6156 363.29373ZM601.8187 358.98123Q600.9125 358.98123 600.3812 359.4656Q599.85 359.93436 599.85 360.62186Q599.85 361.32498 600.4281 361.85623Q600.9906 362.37186 601.9125 362.37186Q602.725 362.37186 603.2406 361.87186Q603.7562 361.37186 603.7562 360.6531Q603.7562 359.91873 603.2406 359.44998Q602.725 358.98123 601.8187 358.98123Z" fill-rule="nonzero"/><path fill="#999999" d="M634.05 367.075L631.9875 367.075L631.9875 370.79376L631.01874 370.79376L625.45624 366.8719L625.45624 366.0125L631.01874 366.0125L631.01874 364.85626L631.9875 364.85626L631.9875 366.0125L634.05 366.0125L634.05 367.075ZM631.01874 367.075L627.15936 367.075L631.01874 369.7625L631.01874 367.075ZM634.05 359.48126L634.05 360.52814L627.33124 360.52814Q627.6906 360.91876 628.0656 361.54376Q628.425 362.15314 628.59686 362.6375L627.58124 362.6375Q627.15936 361.7625 626.58124 361.10626Q625.9875 360.4344 625.425 360.15314L625.425 359.48126L634.05 359.48126Z" fill-rule="nonzero"/><path fill="#999999" d="M660.5 367.075L658.4375 367.075L658.4375 370.79376L657.46875 370.79376L651.90625 366.8719L651.90625 366.0125L657.46875 366.0125L657.46875 364.85626L658.4375 364.85626L658.4375 366.0125L660.5 366.0125L660.5 367.075ZM657.46875 367.075L653.6094 367.075L657.46875 369.7625L657.46875 367.075ZM658.2344 363.45L658.09375 362.3875Q658.9844 362.21564 659.3906 361.77814Q659.78125 361.34064 659.78125 360.71564Q659.78125 359.96564 659.2656 359.45Q658.75 358.9344 657.9844 358.9344Q657.2656 358.9344 656.7969 359.41876Q656.3125 359.8875 656.3125 360.6219Q656.3125 360.91876 656.4375 361.3719L655.5 361.2469Q655.5156 361.1375 655.5156 361.075Q655.5156 360.40314 655.1719 359.8719Q654.8125 359.325 654.0781 359.325Q653.5 359.325 653.125 359.71564Q652.7344 360.10626 652.7344 360.73126Q652.7344 361.34064 653.125 361.7625Q653.5156 362.16876 654.28125 362.27814L654.09375 363.34064Q653.0469 363.15314 652.46875 362.46564Q651.875 361.77814 651.875 360.7625Q651.875 360.0594 652.1875 359.46564Q652.4844 358.8719 653.0 358.5594Q653.5156 358.2469 654.1094 358.2469Q654.65625 358.2469 655.125 358.54376Q655.5781 358.84064 655.84375 359.41876Q656.0156 358.66876 656.5781 358.2469Q657.125 357.825 657.96875 357.825Q659.09375 357.825 659.875 358.65314Q660.65625 359.46564 660.65625 360.71564Q660.65625 361.84064 659.9844 362.59064Q659.2969 363.34064 658.2344 363.45Z" fill-rule="nonzero"/><path fill="#999999" d="M686.95 367.075L684.8875 367.075L684.8875 370.79376L683.91876 370.79376L678.35626 366.8719L678.35626 366.0125L683.91876 366.0125L683.91876 364.85626L684.8875 364.85626L684.8875 366.0125L686.95 366.0125L686.95 367.075ZM683.91876 367.075L680.0594 367.075L683.91876 369.7625L683.91876 367.075ZM684.7 363.45L684.60626 362.34064Q685.41876 362.21564 685.825 361.77814Q686.23126 361.325 686.23126 360.6844Q686.23126 359.9344 685.65314 359.40314Q685.075 358.8719 684.1375 358.8719Q683.23126 358.8719 682.71564 359.3875Q682.1844 359.8875 682.1844 360.71564Q682.1844 361.21564 682.41876 361.6375Q682.65314 362.04376 683.0125 362.27814L682.8875 363.2625L678.48126 362.4344L678.48126 358.15314L679.48126 358.15314L679.48126 361.59064L681.79376 362.04376Q681.2469 361.27814 681.2469 360.4344Q681.2469 359.3094 682.02814 358.54376Q682.8094 357.7625 684.04376 357.7625Q685.2 357.7625 686.0594 358.4344Q687.09064 359.2625 687.09064 360.6844Q687.09064 361.85626 686.4344 362.60626Q685.77814 363.34064 684.7 363.45Z" fill-rule="nonzero"/><path fill="#999999" d="M66.59 42.86132L66.59 25.814445L70.05875 25.814445L70.05875 39.970695L78.68375 39.970695L78.68375 42.86132L66.59 42.86132ZM81.465 28.720695L81.465 25.67382L84.76187 25.67382L84.76187 28.720695L81.465 28.720695ZM81.465 42.86132L81.465 30.408195L84.76187 30.408195L84.76187 42.86132L81.465 42.86132ZM88.32437 42.86132L88.32437 25.67382L91.62125 25.67382L91.62125 31.86132Q93.1525 30.126945 95.23062 30.126945Q97.51187 30.126945 98.99625 31.783195Q100.48062 33.42382 100.48062 36.501945Q100.48062 39.689445 98.965 41.42382Q97.44937 43.14257 95.2775 43.14257Q94.215 43.14257 93.16812 42.61132Q92.13687 42.08007 91.38687 41.033195L91.38687 42.86132L88.32437 42.86132ZM91.60562 36.36132Q91.60562 38.29882 92.215 39.220695Q93.05875 40.533195 94.48062 40.533195Q95.57437 40.533195 96.34 39.61132Q97.10562 38.67382 97.10562 36.67382Q97.10562 34.533195 96.32437 33.595695Q95.55875 32.658195 94.35562 32.658195Q93.16812 32.658195 92.38687 33.58007Q91.60562 34.48632 91.60562 36.36132ZM106.62125 42.86132L103.32437 42.86132L103.32437 30.408195L106.38687 30.408195L106.38687 32.189445Q107.16812 30.92382 107.79312 30.533195Q108.43375 30.126945 109.23062 30.126945Q110.35562 30.126945 111.38687 30.751945L110.37125 33.626945Q109.54312 33.08007 108.82437 33.08007Q108.13687 33.08007 107.6525 33.470695Q107.16812 33.845695 106.88687 34.845695Q106.62125 35.845695 106.62125 39.01757L106.62125 42.86132ZM114.93375 34.20507L111.94937 33.67382Q112.44937 31.86132 113.66812 31.001945Q114.9025 30.126945 117.34 30.126945Q119.54312 30.126945 120.62125 30.658195Q121.69937 31.17382 122.13687 31.98632Q122.57437 32.783195 122.57437 34.92382L122.54312 38.76757Q122.54312 40.408195 122.69937 41.189445Q122.85562 41.970695 123.29312 42.86132L120.0275 42.86132Q119.9025 42.533195 119.715 41.89257Q119.63687 41.595695 119.59 41.501945Q118.74625 42.314445 117.7775 42.73632Q116.82437 43.14257 115.74625 43.14257Q113.82437 43.14257 112.715 42.095695Q111.60562 41.04882 111.60562 39.45507Q111.60562 38.408195 112.10562 37.58007Q112.60562 36.751945 113.51187 36.314445Q114.43375 35.876945 116.13687 35.54882Q118.44937 35.11132 119.34 34.73632L119.34 34.408195Q119.34 33.45507 118.87125 33.064445Q118.4025 32.658195 117.10562 32.658195Q116.215 32.658195 115.715 33.001945Q115.23062 33.345695 114.93375 34.20507ZM119.34 36.876945Q118.69937 37.095695 117.32437 37.39257Q115.965 37.67382 115.54312 37.95507Q114.9025 38.42382 114.9025 39.126945Q114.9025 39.814445 115.41812 40.314445Q115.93375 40.814445 116.73062 40.814445Q117.62125 40.814445 118.41812 40.23632Q119.0275 39.783195 119.215 39.14257Q119.34 38.720695 119.34 37.533195L119.34 36.876945ZM128.62125 42.86132L125.32437 42.86132L125.32437 30.408195L128.38687 30.408195L128.38687 32.189445Q129.16812 30.92382 129.79312 30.533195Q130.43375 30.126945 131.23062 30.126945Q132.35562 30.126945 133.38687 30.751945L132.37125 33.626945Q131.54312 33.08007 130.82437 33.08007Q130.13687 33.08007 129.6525 33.470695Q129.16812 33.845695 128.88687 34.845695Q128.62125 35.845695 128.62125 39.01757L128.62125 42.86132ZM132.91812 30.408195L136.41812 30.408195L139.38687 39.251945L142.29312 30.408195L145.715 30.408195L141.30875 42.39257L140.5275 44.564445Q140.09 45.658195 139.69937 46.220695Q139.30875 46.79882 138.79312 47.158195Q138.29312 47.51757 137.54312 47.70507Q136.80875 47.908195 135.87125 47.908195Q134.91812 47.908195 133.99625 47.720695L133.715 45.14257Q134.48062 45.283195 135.10562 45.283195Q136.24625 45.283195 136.79312 44.61132Q137.35562 43.939445 137.6525 42.89257L132.91812 30.408195ZM154.49625 42.86132L154.49625 25.67382L167.23062 25.67382L167.23062 28.58007L157.965 28.58007L157.965 32.39257L166.59 32.39257L166.59 35.283195L157.965 35.283195L157.965 39.970695L167.55875 39.970695L167.55875 42.86132L154.49625 42.86132ZM173.88687 42.86132L168.87125 30.408195L172.34 30.408195L174.68375 36.76757L175.35562 38.89257Q175.62125 38.08007 175.69937 37.814445Q175.85562 37.29882 176.04312 36.76757L178.41812 30.408195L181.80875 30.408195L176.85562 42.86132L173.88687 42.86132ZM182.715 36.45507Q182.715 34.814445 183.51187 33.283195Q184.32437 31.751945 185.80875 30.939445Q187.29312 30.126945 189.12125 30.126945Q191.94937 30.126945 193.74625 31.970695Q195.55875 33.79882 195.55875 36.595695Q195.55875 39.42382 193.73062 41.283195Q191.9025 43.14257 189.13687 43.14257Q187.43375 43.14257 185.87125 42.376945Q184.32437 41.595695 183.51187 40.11132Q182.715 38.61132 182.715 36.45507ZM186.09 36.64257Q186.09 38.48632 186.965 39.470695Q187.84 40.45507 189.13687 40.45507Q190.41812 40.45507 191.29312 39.470695Q192.16812 38.48632 192.16812 36.61132Q192.16812 34.783195 191.29312 33.79882Q190.41812 32.814445 189.13687 32.814445Q187.84 32.814445 186.965 33.79882Q186.09 34.783195 186.09 36.64257ZM198.465 42.86132L198.465 25.67382L201.76187 25.67382L201.76187 42.86132L198.465 42.86132ZM213.66812 42.86132L213.66812 41.001945Q212.98062 41.98632 211.87125 42.564445Q210.76187 43.14257 209.54312 43.14257Q208.2775 43.14257 207.2775 42.595695Q206.29312 42.033195 205.84 41.04882Q205.4025 40.04882 205.4025 38.283195L205.4025 30.408195L208.69937 30.408195L208.69937 36.126945Q208.69937 38.751945 208.87125 39.345695Q209.05875 39.939445 209.5275 40.283195Q210.01187 40.626945 210.76187 40.626945Q211.60562 40.626945 212.26187 40.17382Q212.93375 39.70507 213.18375 39.01757Q213.43375 38.33007 213.43375 35.658195L213.43375 30.408195L216.715 30.408195L216.715 42.86132L213.66812 42.86132ZM226.18375 30.408195L226.18375 33.033195L223.93375 33.033195L223.93375 38.04882Q223.93375 39.58007 223.99625 39.83007Q224.05875 40.08007 224.2775 40.251945Q224.51187 40.408195 224.84 40.408195Q225.29312 40.408195 226.16812 40.095695L226.44937 42.64257Q225.29312 43.14257 223.84 43.14257Q222.94937 43.14257 222.23062 42.845695Q221.5275 42.54882 221.18375 42.08007Q220.85562 41.595695 220.73062 40.783195Q220.62125 40.20507 220.62125 38.470695L220.62125 33.033195L219.10562 33.033195L219.10562 30.408195L220.62125 30.408195L220.62125 27.939445L223.93375 26.01757L223.93375 30.408195L226.18375 30.408195ZM228.465 28.720695L228.465 25.67382L231.76187 25.67382L231.76187 28.720695L228.465 28.720695ZM228.465 42.86132L228.465 30.408195L231.76187 30.408195L231.76187 42.86132L228.465 42.86132ZM234.715 36.45507Q234.715 34.814445 235.51187 33.283195Q236.32437 31.751945 237.80875 30.939445Q239.29312 30.126945 241.12125 30.126945Q243.94937 30.126945 245.74625 31.970695Q247.55875 33.79882 247.55875 36.595695Q247.55875 39.42382 245.73062 41.283195Q243.9025 43.14257 241.13687 43.14257Q239.43375 43.14257 237.87125 42.376945Q236.32437 41.595695 235.51187 40.11132Q234.715 38.61132 234.715 36.45507ZM238.09 36.64257Q238.09 38.48632 238.965 39.470695Q239.84 40.45507 241.13687 40.45507Q242.41812 40.45507 243.29312 39.470695Q244.16812 38.48632 244.16812 36.61132Q244.16812 34.783195 243.29312 33.79882Q242.41812 32.814445 241.13687 32.814445Q239.84 32.814445 238.965 33.79882Q238.09 34.783195 238.09 36.64257ZM261.79312 42.86132L258.49625 42.86132L258.49625 36.501945Q258.49625 34.48632 258.2775 33.908195Q258.07437 33.314445 257.59 32.98632Q257.12125 32.658195 256.465 32.658195Q255.60562 32.658195 254.91812 33.126945Q254.24625 33.595695 253.99625 34.376945Q253.74625 35.14257 253.74625 37.220695L253.74625 42.86132L250.44937 42.86132L250.44937 30.408195L253.51187 30.408195L253.51187 32.23632Q255.13687 30.126945 257.60562 30.126945Q258.69937 30.126945 259.59 30.533195Q260.49625 30.92382 260.965 31.533195Q261.43375 32.14257 261.60562 32.92382Q261.79312 33.689445 261.79312 35.126945L261.79312 42.86132ZM276.35562 42.86132L276.35562 28.58007L271.26187 28.58007L271.26187 25.67382L284.91812 25.67382L284.91812 28.58007L279.82437 28.58007L279.82437 42.86132L276.35562 42.86132ZM294.68375 38.89257L297.965 39.45507Q297.32437 41.251945 295.94937 42.20507Q294.59 43.14257 292.54312 43.14257Q289.29312 43.14257 287.74625 41.01757Q286.51187 39.314445 286.51187 36.73632Q286.51187 33.64257 288.12125 31.89257Q289.74625 30.126945 292.215 30.126945Q294.99625 30.126945 296.59 31.970695Q298.19937 33.79882 298.13687 37.58007L289.88687 37.58007Q289.91812 39.04882 290.68375 39.86132Q291.44937 40.67382 292.57437 40.67382Q293.35562 40.67382 293.87125 40.251945Q294.4025 39.83007 294.68375 38.89257ZM294.87125 35.564445Q294.82437 34.14257 294.12125 33.408195Q293.41812 32.658195 292.41812 32.658195Q291.34 32.658195 290.63687 33.439445Q289.93375 34.220695 289.94937 35.564445L294.87125 35.564445ZM300.465 42.86132L300.465 25.67382L303.76187 25.67382L303.76187 42.86132L300.465 42.86132ZM314.68375 38.89257L317.965 39.45507Q317.32437 41.251945 315.94937 42.20507Q314.59 43.14257 312.54312 43.14257Q309.29312 43.14257 307.74625 41.01757Q306.51187 39.314445 306.51187 36.73632Q306.51187 33.64257 308.12125 31.89257Q309.74625 30.126945 312.215 30.126945Q314.99625 30.126945 316.59 31.970695Q318.19937 33.79882 318.13687 37.58007L309.88687 37.58007Q309.91812 39.04882 310.68375 39.86132Q311.44937 40.67382 312.57437 40.67382Q313.35562 40.67382 313.87125 40.251945Q314.4025 39.83007 314.68375 38.89257ZM314.87125 35.564445Q314.82437 34.14257 314.12125 33.408195Q313.41812 32.658195 312.41812 32.658195Q311.34 32.658195 310.63687 33.439445Q309.93375 34.220695 309.94937 35.564445L314.87125 35.564445ZM331.32437 34.095695L328.07437 34.67382Q327.91812 33.70507 327.32437 33.220695Q326.74625 32.720695 325.82437 32.720695Q324.59 32.720695 323.85562 33.58007Q323.13687 34.42382 323.13687 36.408195Q323.13687 38.626945 323.87125 39.54882Q324.62125 40.45507 325.87125 40.45507Q326.80875 40.45507 327.4025 39.92382Q328.01187 39.39257 328.24625 38.095695L331.48062 38.64257Q330.98062 40.86132 329.54312 42.001945Q328.12125 43.14257 325.715 43.14257Q322.99625 43.14257 321.37125 41.42382Q319.74625 39.689445 319.74625 36.64257Q319.74625 33.564445 321.37125 31.845695Q322.99625 30.126945 325.7775 30.126945Q328.05875 30.126945 329.38687 31.11132Q330.73062 32.095695 331.32437 34.095695ZM332.715 36.45507Q332.715 34.814445 333.51187 33.283195Q334.32437 31.751945 335.80875 30.939445Q337.29312 30.126945 339.12125 30.126945Q341.94937 30.126945 343.74625 31.970695Q345.55875 33.79882 345.55875 36.595695Q345.55875 39.42382 343.73062 41.283195Q341.9025 43.14257 339.13687 43.14257Q337.43375 43.14257 335.87125 42.376945Q334.32437 41.595695 333.51187 40.11132Q332.715 38.61132 332.715 36.45507ZM336.09 36.64257Q336.09 38.48632 336.965 39.470695Q337.84 40.45507 339.13687 40.45507Q340.41812 40.45507 341.29312 39.470695Q342.16812 38.48632 342.16812 36.61132Q342.16812 34.783195 341.29312 33.79882Q340.41812 32.814445 339.13687 32.814445Q337.84 32.814445 336.965 33.79882Q336.09 34.783195 336.09 36.64257ZM359.79312 42.86132L356.49625 42.86132L356.49625 36.501945Q356.49625 34.48632 356.2775 33.908195Q356.07437 33.314445 355.59 32.98632Q355.12125 32.658195 354.465 32.658195Q353.60562 32.658195 352.91812 33.126945Q352.24625 33.595695 351.99625 34.376945Q351.74625 35.14257 351.74625 37.220695L351.74625 42.86132L348.44937 42.86132L348.44937 30.408195L351.51187 30.408195L351.51187 32.23632Q353.13687 30.126945 355.60562 30.126945Q356.69937 30.126945 357.59 30.533195Q358.49625 30.92382 358.965 31.533195Q359.43375 32.14257 359.60562 32.92382Q359.79312 33.689445 359.79312 35.126945L359.79312 42.86132ZM362.30875 39.314445L365.62125 38.79882Q365.82437 39.76757 366.465 40.26757Q367.12125 40.76757 368.2775 40.76757Q369.55875 40.76757 370.19937 40.29882Q370.63687 39.970695 370.63687 39.408195Q370.63687 39.033195 370.4025 38.79882Q370.1525 38.564445 369.29312 38.36132Q365.30875 37.48632 364.24625 36.751945Q362.76187 35.751945 362.76187 33.95507Q362.76187 32.33007 364.04312 31.23632Q365.32437 30.126945 368.01187 30.126945Q370.55875 30.126945 371.79312 30.970695Q373.04312 31.79882 373.51187 33.42382L370.4025 34.001945Q370.215 33.26757 369.6525 32.89257Q369.09 32.501945 368.05875 32.501945Q366.76187 32.501945 366.19937 32.86132Q365.82437 33.126945 365.82437 33.533195Q365.82437 33.876945 366.1525 34.126945Q366.60562 34.45507 369.23062 35.064445Q371.85562 35.658195 372.9025 36.51757Q373.93375 37.39257 373.93375 38.970695Q373.93375 40.67382 372.49625 41.908195Q371.07437 43.14257 368.2775 43.14257Q365.73062 43.14257 364.24625 42.11132Q362.76187 41.08007 362.30875 39.314445ZM398.98062 42.86132L395.215 42.86132L393.715 38.95507L386.84 38.95507L385.43375 42.86132L381.74625 42.86132L388.43375 25.67382L392.10562 25.67382L398.98062 42.86132ZM392.60562 36.064445L390.23062 29.689445L387.91812 36.064445L392.60562 36.064445ZM406.18375 30.408195L406.18375 33.033195L403.93375 33.033195L403.93375 38.04882Q403.93375 39.58007 403.99625 39.83007Q404.05875 40.08007 404.2775 40.251945Q404.51187 40.408195 404.84 40.408195Q405.29312 40.408195 406.16812 40.095695L406.44937 42.64257Q405.29312 43.14257 403.84 43.14257Q402.94937 43.14257 402.23062 42.845695Q401.5275 42.54882 401.18375 42.08007Q400.85562 41.595695 400.73062 40.783195Q400.62125 40.20507 400.62125 38.470695L400.62125 33.033195L399.10562 33.033195L399.10562 30.408195L400.62125 30.408195L400.62125 27.939445L403.93375 26.01757L403.93375 30.408195L406.18375 30.408195ZM414.18375 30.408195L414.18375 33.033195L411.93375 33.033195L411.93375 38.04882Q411.93375 39.58007 411.99625 39.83007Q412.05875 40.08007 412.2775 40.251945Q412.51187 40.408195 412.84 40.408195Q413.29312 40.408195 414.16812 40.095695L414.44937 42.64257Q413.29312 43.14257 411.84 43.14257Q410.94937 43.14257 410.23062 42.845695Q409.5275 42.54882 409.18375 42.08007Q408.85562 41.595695 408.73062 40.783195Q408.62125 40.20507 408.62125 38.470695L408.62125 33.033195L407.10562 33.033195L407.10562 30.408195L408.62125 30.408195L408.62125 27.939445L411.93375 26.01757L411.93375 30.408195L414.18375 30.408195ZM423.68375 38.89257L426.965 39.45507Q426.32437 41.251945 424.94937 42.20507Q423.59 43.14257 421.54312 43.14257Q418.29312 43.14257 416.74625 41.01757Q415.51187 39.314445 415.51187 36.73632Q415.51187 33.64257 417.12125 31.89257Q418.74625 30.126945 421.215 30.126945Q423.99625 30.126945 425.59 31.970695Q427.19937 33.79882 427.13687 37.58007L418.88687 37.58007Q418.91812 39.04882 419.68375 39.86132Q420.44937 40.67382 421.57437 40.67382Q422.35562 40.67382 422.87125 40.251945Q423.4025 39.83007 423.68375 38.89257ZM423.87125 35.564445Q423.82437 34.14257 423.12125 33.408195Q422.41812 32.658195 421.41812 32.658195Q420.34 32.658195 419.63687 33.439445Q418.93375 34.220695 418.94937 35.564445L423.87125 35.564445ZM440.79312 42.86132L437.49625 42.86132L437.49625 36.501945Q437.49625 34.48632 437.2775 33.908195Q437.07437 33.314445 436.59 32.98632Q436.12125 32.658195 435.465 32.658195Q434.60562 32.658195 433.91812 33.126945Q433.24625 33.595695 432.99625 34.376945Q432.74625 35.14257 432.74625 37.220695L432.74625 42.86132L429.44937 42.86132L429.44937 30.408195L432.51187 30.408195L432.51187 32.23632Q434.13687 30.126945 436.60562 30.126945Q437.69937 30.126945 438.59 30.533195Q439.49625 30.92382 439.965 31.533195Q440.43375 32.14257 440.60562 32.92382Q440.79312 33.689445 440.79312 35.126945L440.79312 42.86132ZM455.88687 42.86132L452.82437 42.86132L452.82437 41.033195Q452.05875 42.095695 451.0275 42.626945Q449.99625 43.14257 448.93375 43.14257Q446.79312 43.14257 445.26187 41.42382Q443.73062 39.689445 443.73062 36.595695Q443.73062 33.42382 445.215 31.783195Q446.715 30.126945 448.98062 30.126945Q451.07437 30.126945 452.59 31.86132L452.59 25.67382L455.88687 25.67382L455.88687 42.86132ZM447.09 36.36132Q447.09 38.36132 447.6525 39.251945Q448.44937 40.533195 449.87125 40.533195Q451.01187 40.533195 451.80875 39.58007Q452.60562 38.61132 452.60562 36.689445Q452.60562 34.533195 451.82437 33.595695Q451.05875 32.658195 449.85562 32.658195Q448.68375 32.658195 447.88687 33.595695Q447.09 34.51757 447.09 36.36132ZM466.68375 38.89257L469.965 39.45507Q469.32437 41.251945 467.94937 42.20507Q466.59 43.14257 464.54312 43.14257Q461.29312 43.14257 459.74625 41.01757Q458.51187 39.314445 458.51187 36.73632Q458.51187 33.64257 460.12125 31.89257Q461.74625 30.126945 464.215 30.126945Q466.99625 30.126945 468.59 31.970695Q470.19937 33.79882 470.13687 37.58007L461.88687 37.58007Q461.91812 39.04882 462.68375 39.86132Q463.44937 40.67382 464.57437 40.67382Q465.35562 40.67382 465.87125 40.251945Q466.4025 39.83007 466.68375 38.89257ZM466.87125 35.564445Q466.82437 34.14257 466.12125 33.408195Q465.41812 32.658195 464.41812 32.658195Q463.34 32.658195 462.63687 33.439445Q461.93375 34.220695 461.94937 35.564445L466.87125 35.564445ZM483.88687 42.86132L480.82437 42.86132L480.82437 41.033195Q480.05875 42.095695 479.0275 42.626945Q477.99625 43.14257 476.93375 43.14257Q474.79312 43.14257 473.26187 41.42382Q471.73062 39.689445 471.73062 36.595695Q471.73062 33.42382 473.215 31.783195Q474.715 30.126945 476.98062 30.126945Q479.07437 30.126945 480.59 31.86132L480.59 25.67382L483.88687 25.67382L483.88687 42.86132ZM475.09 36.36132Q475.09 38.36132 475.6525 39.251945Q476.44937 40.533195 477.87125 40.533195Q479.01187 40.533195 479.80875 39.58007Q480.60562 38.61132 480.60562 36.689445Q480.60562 34.533195 479.82437 33.595695Q479.05875 32.658195 477.85562 32.658195Q476.68375 32.658195 475.88687 33.595695Q475.09 34.51757 475.09 36.36132ZM494.49625 42.86132L494.49625 25.67382L500.05875 25.67382Q503.23062 25.67382 504.18375 25.939445Q505.66812 26.33007 506.6525 27.626945Q507.6525 28.908195 507.6525 30.970695Q507.6525 32.54882 507.07437 33.626945Q506.51187 34.70507 505.62125 35.33007Q504.73062 35.939445 503.82437 36.126945Q502.57437 36.376945 500.23062 36.376945L497.965 36.376945L497.965 42.86132L494.49625 42.86132ZM497.965 28.58007L497.965 33.45507L499.85562 33.45507Q501.91812 33.45507 502.60562 33.189445Q503.29312 32.92382 503.68375 32.345695Q504.07437 31.76757 504.07437 31.01757Q504.07437 30.08007 503.5275 29.470695Q502.98062 28.86132 502.13687 28.70507Q501.51187 28.58007 499.63687 28.58007L497.965 28.58007ZM517.6837 38.89257L520.96497 39.45507Q520.32434 41.251945 518.94934 42.20507Q517.58997 43.14257 515.5431 43.14257Q512.2931 43.14257 510.74625 41.01757Q509.51187 39.314445 509.51187 36.73632Q509.51187 33.64257 511.12125 31.89257Q512.7462 30.126945 515.21497 30.126945Q517.9962 30.126945 519.58997 31.970695Q521.19934 33.79882 521.13684 37.58007L512.88684 37.58007Q512.9181 39.04882 513.6837 39.86132Q514.44934 40.67382 515.57434 40.67382Q516.3556 40.67382 516.8712 40.251945Q517.40247 39.83007 517.6837 38.89257ZM517.8712 35.564445Q517.82434 34.14257 517.1212 33.408195Q516.4181 32.658195 515.4181 32.658195Q514.33997 32.658195 513.63684 33.439445Q512.9337 34.220695 512.94934 35.564445L517.8712 35.564445ZM526.6212 42.86132L523.32434 42.86132L523.32434 30.408195L526.38684 30.408195L526.38684 32.189445Q527.1681 30.92382 527.7931 30.533195Q528.4337 30.126945 529.2306 30.126945Q530.3556 30.126945 531.38684 30.751945L530.3712 33.626945Q529.5431 33.08007 528.82434 33.08007Q528.13684 33.08007 527.65247 33.470695Q527.1681 33.845695 526.88684 34.845695Q526.6212 35.845695 526.6212 39.01757L526.6212 42.86132ZM554.9806 42.86132L551.21497 42.86132L549.71497 38.95507L542.83997 38.95507L541.4337 42.86132L537.7462 42.86132L544.4337 25.67382L548.1056 25.67382L554.9806 42.86132ZM548.6056 36.064445L546.2306 29.689445L543.9181 36.064445L548.6056 36.064445ZM562.1837 30.408195L562.1837 33.033195L559.9337 33.033195L559.9337 38.04882Q559.9337 39.58007 559.9962 39.83007Q560.0587 40.08007 560.27747 40.251945Q560.51184 40.408195 560.83997 40.408195Q561.2931 40.408195 562.1681 40.095695L562.44934 42.64257Q561.2931 43.14257 559.83997 43.14257Q558.94934 43.14257 558.2306 42.845695Q557.52747 42.54882 557.1837 42.08007Q556.8556 41.595695 556.7306 40.783195Q556.6212 40.20507 556.6212 38.470695L556.6212 33.033195L555.1056 33.033195L555.1056 30.408195L556.6212 30.408195L556.6212 27.939445L559.9337 26.01757L559.9337 30.408195L562.1837 30.408195ZM570.1837 30.408195L570.1837 33.033195L567.9337 33.033195L567.9337 38.04882Q567.9337 39.58007 567.9962 39.83007Q568.0587 40.08007 568.27747 40.251945Q568.51184 40.408195 568.83997 40.408195Q569.2931 40.408195 570.1681 40.095695L570.44934 42.64257Q569.2931 43.14257 567.83997 43.14257Q566.94934 43.14257 566.2306 42.845695Q565.52747 42.54882 565.1837 42.08007Q564.8556 41.595695 564.7306 40.783195Q564.6212 40.20507 564.6212 38.470695L564.6212 33.033195L563.1056 33.033195L563.1056 30.408195L564.6212 30.408195L564.6212 27.939445L567.9337 26.01757L567.9337 30.408195L570.1837 30.408195ZM579.6837 38.89257L582.96497 39.45507Q582.32434 41.251945 580.94934 42.20507Q579.58997 43.14257 577.5431 43.14257Q574.2931 43.14257 572.7462 41.01757Q571.51184 39.314445 571.51184 36.73632Q571.51184 33.64257 573.1212 31.89257Q574.7462 30.126945 577.21497 30.126945Q579.9962 30.126945 581.58997 31.970695Q583.19934 33.79882 583.13684 37.58007L574.88684 37.58007Q574.9181 39.04882 575.6837 39.86132Q576.44934 40.67382 577.57434 40.67382Q578.3556 40.67382 578.8712 40.251945Q579.40247 39.83007 579.6837 38.89257ZM579.8712 35.564445Q579.82434 34.14257 579.1212 33.408195Q578.4181 32.658195 577.4181 32.658195Q576.33997 32.658195 575.63684 33.439445Q574.9337 34.220695 574.94934 35.564445L579.8712 35.564445ZM596.7931 42.86132L593.4962 42.86132L593.4962 36.501945Q593.4962 34.48632 593.27747 33.908195Q593.07434 33.314445 592.58997 32.98632Q592.1212 32.658195 591.46497 32.658195Q590.6056 32.658195 589.9181 33.126945Q589.2462 33.595695 588.9962 34.376945Q588.7462 35.14257 588.7462 37.220695L588.7462 42.86132L585.44934 42.86132L585.44934 30.408195L588.51184 30.408195L588.51184 32.23632Q590.13684 30.126945 592.6056 30.126945Q593.69934 30.126945 594.58997 30.533195Q595.4962 30.92382 595.96497 31.533195Q596.4337 32.14257 596.6056 32.92382Q596.7931 33.689445 596.7931 35.126945L596.7931 42.86132ZM611.88684 42.86132L608.82434 42.86132L608.82434 41.033195Q608.0587 42.095695 607.02747 42.626945Q605.9962 43.14257 604.9337 43.14257Q602.7931 43.14257 601.26184 41.42382Q599.7306 39.689445 599.7306 36.595695Q599.7306 33.42382 601.21497 31.783195Q602.71497 30.126945 604.9806 30.126945Q607.07434 30.126945 608.58997 31.86132L608.58997 25.67382L611.88684 25.67382L611.88684 42.86132ZM603.08997 36.36132Q603.08997 38.36132 603.65247 39.251945Q604.44934 40.533195 605.8712 40.533195Q607.01184 40.533195 607.8087 39.58007Q608.6056 38.61132 608.6056 36.689445Q608.6056 34.533195 607.82434 33.595695Q607.0587 32.658195 605.8556 32.658195Q604.6837 32.658195 603.88684 33.595695Q603.08997 34.51757 603.08997 36.36132ZM622.6837 38.89257L625.96497 39.45507Q625.32434 41.251945 623.94934 42.20507Q622.58997 43.14257 620.5431 43.14257Q617.2931 43.14257 615.7462 41.01757Q614.51184 39.314445 614.51184 36.73632Q614.51184 33.64257 616.1212 31.89257Q617.7462 30.126945 620.21497 30.126945Q622.9962 30.126945 624.58997 31.970695Q626.19934 33.79882 626.13684 37.58007L617.88684 37.58007Q617.9181 39.04882 618.6837 39.86132Q619.44934 40.67382 620.57434 40.67382Q621.3556 40.67382 621.8712 40.251945Q622.40247 39.83007 622.6837 38.89257ZM622.8712 35.564445Q622.82434 34.14257 622.1212 33.408195Q621.4181 32.658195 620.4181 32.658195Q619.33997 32.658195 618.63684 33.439445Q617.9337 34.220695 617.94934 35.564445L622.8712 35.564445ZM635.6837 38.89257L638.96497 39.45507Q638.32434 41.251945 636.94934 42.20507Q635.58997 43.14257 633.5431 43.14257Q630.2931 43.14257 628.7462 41.01757Q627.51184 39.314445 627.51184 36.73632Q627.51184 33.64257 629.1212 31.89257Q630.7462 30.126945 633.21497 30.126945Q635.9962 30.126945 637.58997 31.970695Q639.19934 33.79882 639.13684 37.58007L630.88684 37.58007Q630.9181 39.04882 631.6837 39.86132Q632.44934 40.67382 633.57434 40.67382Q634.3556 40.67382 634.8712 40.251945Q635.40247 39.83007 635.6837 38.89257ZM635.8712 35.564445Q635.82434 34.14257 635.1212 33.408195Q634.4181 32.658195 633.4181 32.658195Q632.33997 32.658195 631.63684 33.439445Q630.9337 34.220695 630.94934 35.564445L635.8712 35.564445Z" fill-rule="nonzero"/></svg>