<svg version="1.1" viewBox="0.0 0.0 704.0 435.0" fill="none" stroke="none" stroke-linecap="square" stroke-miterlimit="10" width="704" height="435" xmlns:xlink="http://www.w3.org/1999/xlink" xmlns="http://www.w3.org/2000/svg"><path fill="#ffffff" fill-opacity="0.0" d="M0 0L704.0 0L704.0 435.0L0 435.0L0 0Z" fill-rule="nonzero"/><path stroke="#333333" stroke-width="1.0" stroke-linecap="butt" d="M100.5 345.5L682.5 345.5" fill-rule="nonzero"/><path stroke="#cccccc" stroke-width="1.0" stroke-linecap="butt" d="M100.5 290.5L682.5 290.5" fill-rule="nonzero"/><path stroke="#cccccc" stroke-width="1.0" stroke-linecap="butt" d="M100.5 236.5L682.5 236.5" fill-rule="nonzero"/><path stroke="#cccccc" stroke-width="1.0" stroke-linecap="butt" d="M100.5 181.5L682.5 181.5" fill-rule="nonzero"/><path stroke="#cccccc" stroke-width="1.0" stroke-linecap="butt" d="M100.5 126.5L682.5 126.5" fill-rule="nonzero"/><path stroke="#cccccc" stroke-width="1.0" stroke-linecap="butt" d="M100.5 72.5L682.5 72.5" fill-rule="nonzero"/><clipPath id="id_0"><path d="M100.75 72.25L682.25 72.25L682.25 345.25L100.75 345.25L100.75 72.25Z" clip-rule="nonzero"/></clipPath><path stroke="#000000" stroke-width="2.0" stroke-linecap="butt" stroke-opacity="0.0" clip-path="url(#id_0)" d="M113.0 345.0L102.0 345.0L102.0 123.0C102.0 121.89543 102.89543 121.0 104.0 121.0L111.0 121.0C112.10457 121.0 113.0 121.89543 113.0 123.0Z" fill-rule="nonzero"/><path fill="#38761d" clip-path="url(#id_0)" d="M113.0 345.0L102.0 345.0L102.0 123.0C102.0 121.89543 102.89543 121.0 104.0 121.0L111.0 121.0C112.10457 121.0 113.0 121.89543 113.0 123.0Z" fill-rule="nonzero"/><path stroke="#000000" stroke-width="2.0" stroke-linecap="butt" stroke-opacity="0.0" clip-path="url(#id_0)" d="M127.0 345.0L116.0 345.0L116.0 222.0C116.0 220.89543 116.89543 220.0 118.0 220.0L125.0 220.0C126.10457 220.0 127.0 220.89543 127.0 222.0Z" fill-rule="nonzero"/><path fill="#38761d" clip-path="url(#id_0)" d="M127.0 345.0L116.0 345.0L116.0 222.0C116.0 220.89543 116.89543 220.0 118.0 220.0L125.0 220.0C126.10457 220.0 127.0 220.89543 127.0 222.0Z" fill-rule="nonzero"/><path stroke="#000000" stroke-width="2.0" stroke-linecap="butt" stroke-opacity="0.0" clip-path="url(#id_0)" d="M140.0 345.0L129.0 345.0L129.0 271.0C129.0 269.89542 129.89543 269.0 131.0 269.0L138.0 269.0C139.10457 269.0 140.0 269.89542 140.0 271.0Z" fill-rule="nonzero"/><path fill="#38761d" clip-path="url(#id_0)" d="M140.0 345.0L129.0 345.0L129.0 271.0C129.0 269.89542 129.89543 269.0 131.0 269.0L138.0 269.0C139.10457 269.0 140.0 269.89542 140.0 271.0Z" fill-rule="nonzero"/><path stroke="#000000" stroke-width="2.0" stroke-linecap="butt" stroke-opacity="0.0" clip-path="url(#id_0)" d="M153.0 345.0L142.0 345.0L142.0 293.0C142.0 291.89542 142.89543 291.0 144.0 291.0L151.0 291.0C152.10457 291.0 153.0 291.89542 153.0 293.0Z" fill-rule="nonzero"/><path fill="#38761d" clip-path="url(#id_0)" d="M153.0 345.0L142.0 345.0L142.0 293.0C142.0 291.89542 142.89543 291.0 144.0 291.0L151.0 291.0C152.10457 291.0 153.0 291.89542 153.0 293.0Z" fill-rule="nonzero"/><path stroke="#000000" stroke-width="2.0" stroke-linecap="butt" stroke-opacity="0.0" clip-path="url(#id_0)" d="M166.0 345.0L155.0 345.0L155.0 314.0C155.0 312.89542 155.89543 312.0 157.0 312.0L164.0 312.0C165.10457 312.0 166.0 312.89542 166.0 314.0Z" fill-rule="nonzero"/><path fill="#38761d" clip-path="url(#id_0)" d="M166.0 345.0L155.0 345.0L155.0 314.0C155.0 312.89542 155.89543 312.0 157.0 312.0L164.0 312.0C165.10457 312.0 166.0 312.89542 166.0 314.0Z" fill-rule="nonzero"/><path stroke="#000000" stroke-width="2.0" stroke-linecap="butt" stroke-opacity="0.0" clip-path="url(#id_0)" d="M179.0 345.0L168.0 345.0L168.0 309.0C168.0 307.89542 168.89543 307.0 170.0 307.0L177.0 307.0C178.10457 307.0 179.0 307.89542 179.0 309.0Z" fill-rule="nonzero"/><path fill="#38761d" clip-path="url(#id_0)" d="M179.0 345.0L168.0 345.0L168.0 309.0C168.0 307.89542 168.89543 307.0 170.0 307.0L177.0 307.0C178.10457 307.0 179.0 307.89542 179.0 309.0Z" fill-rule="nonzero"/><path stroke="#000000" stroke-width="2.0" stroke-linecap="butt" stroke-opacity="0.0" clip-path="url(#id_0)" d="M193.0 345.0L182.0 345.0L182.0 314.0C182.0 312.89542 182.89543 312.0 184.0 312.0L191.0 312.0C192.10457 312.0 193.0 312.89542 193.0 314.0Z" fill-rule="nonzero"/><path fill="#38761d" clip-path="url(#id_0)" d="M193.0 345.0L182.0 345.0L182.0 314.0C182.0 312.89542 182.89543 312.0 184.0 312.0L191.0 312.0C192.10457 312.0 193.0 312.89542 193.0 314.0Z" fill-rule="nonzero"/><path stroke="#000000" stroke-width="2.0" stroke-linecap="butt" stroke-opacity="0.0" clip-path="url(#id_0)" d="M206.0 345.0L195.0 345.0L195.0 325.0C195.0 323.89542 195.89543 323.0 197.0 323.0L204.0 323.0C205.10457 323.0 206.0 323.89542 206.0 325.0Z" fill-rule="nonzero"/><path fill="#38761d" clip-path="url(#id_0)" d="M206.0 345.0L195.0 345.0L195.0 325.0C195.0 323.89542 195.89543 323.0 197.0 323.0L204.0 323.0C205.10457 323.0 206.0 323.89542 206.0 325.0Z" fill-rule="nonzero"/><path stroke="#000000" stroke-width="2.0" stroke-linecap="butt" stroke-opacity="0.0" clip-path="url(#id_0)" d="M219.0 345.0L208.0 345.0L208.0 336.0C208.0 334.89542 208.89543 334.0 210.0 334.0L217.0 334.0C218.10457 334.0 219.0 334.89542 219.0 336.0Z" fill-rule="nonzero"/><path fill="#38761d" clip-path="url(#id_0)" d="M219.0 345.0L208.0 345.0L208.0 336.0C208.0 334.89542 208.89543 334.0 210.0 334.0L217.0 334.0C218.10457 334.0 219.0 334.89542 219.0 336.0Z" fill-rule="nonzero"/><path stroke="#000000" stroke-width="2.0" stroke-linecap="butt" stroke-opacity="0.0" clip-path="url(#id_0)" d="M232.0 345.0L221.0 345.0L221.0 345.0L232.0 345.0Z" fill-rule="nonzero"/><path fill="#38761d" clip-path="url(#id_0)" d="M232.0 345.0L221.0 345.0L221.0 345.0L232.0 345.0Z" fill-rule="nonzero"/><path stroke="#000000" stroke-width="2.0" stroke-linecap="butt" stroke-opacity="0.0" clip-path="url(#id_0)" d="M246.0 345.0L235.0 345.0L235.0 325.0C235.0 323.89542 235.89543 323.0 237.0 323.0L244.0 323.0C245.10457 323.0 246.0 323.89542 246.0 325.0Z" fill-rule="nonzero"/><path fill="#38761d" clip-path="url(#id_0)" d="M246.0 345.0L235.0 345.0L235.0 325.0C235.0 323.89542 235.89543 323.0 237.0 323.0L244.0 323.0C245.10457 323.0 246.0 323.89542 246.0 325.0Z" fill-rule="nonzero"/><path stroke="#000000" stroke-width="2.0" stroke-linecap="butt" stroke-opacity="0.0" clip-path="url(#id_0)" d="M259.0 345.0L248.0 345.0L248.0 342.0C248.0 340.89542 248.89543 340.0 250.0 340.0L257.0 340.0C258.10458 340.0 259.0 340.89542 259.0 342.0Z" fill-rule="nonzero"/><path fill="#38761d" clip-path="url(#id_0)" d="M259.0 345.0L248.0 345.0L248.0 342.0C248.0 340.89542 248.89543 340.0 250.0 340.0L257.0 340.0C258.10458 340.0 259.0 340.89542 259.0 342.0Z" fill-rule="nonzero"/><path stroke="#000000" stroke-width="2.0" stroke-linecap="butt" stroke-opacity="0.0" clip-path="url(#id_0)" d="M272.0 345.0L261.0 345.0L261.0 342.0C261.0 340.89542 261.89542 340.0 263.0 340.0L270.0 340.0C271.10458 340.0 272.0 340.89542 272.0 342.0Z" fill-rule="nonzero"/><path fill="#38761d" clip-path="url(#id_0)" d="M272.0 345.0L261.0 345.0L261.0 342.0C261.0 340.89542 261.89542 340.0 263.0 340.0L270.0 340.0C271.10458 340.0 272.0 340.89542 272.0 342.0Z" fill-rule="nonzero"/><path stroke="#000000" stroke-width="2.0" stroke-linecap="butt" stroke-opacity="0.0" clip-path="url(#id_0)" d="M285.0 345.0L274.0 345.0L274.0 345.0L285.0 345.0Z" fill-rule="nonzero"/><path fill="#38761d" clip-path="url(#id_0)" d="M285.0 345.0L274.0 345.0L274.0 345.0L285.0 345.0Z" fill-rule="nonzero"/><path stroke="#000000" stroke-width="2.0" stroke-linecap="butt" stroke-opacity="0.0" clip-path="url(#id_0)" d="M298.0 345.0L287.0 345.0L287.0 342.0C287.0 340.89542 287.89542 340.0 289.0 340.0L296.0 340.0C297.10458 340.0 298.0 340.89542 298.0 342.0Z" fill-rule="nonzero"/><path fill="#38761d" clip-path="url(#id_0)" d="M298.0 345.0L287.0 345.0L287.0 342.0C287.0 340.89542 287.89542 340.0 289.0 340.0L296.0 340.0C297.10458 340.0 298.0 340.89542 298.0 342.0Z" fill-rule="nonzero"/><path stroke="#000000" stroke-width="2.0" stroke-linecap="butt" stroke-opacity="0.0" clip-path="url(#id_0)" d="M312.0 345.0L301.0 345.0L301.0 336.0C301.0 334.89542 301.89542 334.0 303.0 334.0L310.0 334.0C311.10458 334.0 312.0 334.89542 312.0 336.0Z" fill-rule="nonzero"/><path fill="#38761d" clip-path="url(#id_0)" d="M312.0 345.0L301.0 345.0L301.0 336.0C301.0 334.89542 301.89542 334.0 303.0 334.0L310.0 334.0C311.10458 334.0 312.0 334.89542 312.0 336.0Z" fill-rule="nonzero"/><path stroke="#000000" stroke-width="2.0" stroke-linecap="butt" stroke-opacity="0.0" clip-path="url(#id_0)" d="M325.0 345.0L314.0 345.0L314.0 336.0C314.0 334.89542 314.89542 334.0 316.0 334.0L323.0 334.0C324.10458 334.0 325.0 334.89542 325.0 336.0Z" fill-rule="nonzero"/><path fill="#38761d" clip-path="url(#id_0)" d="M325.0 345.0L314.0 345.0L314.0 336.0C314.0 334.89542 314.89542 334.0 316.0 334.0L323.0 334.0C324.10458 334.0 325.0 334.89542 325.0 336.0Z" fill-rule="nonzero"/><path stroke="#000000" stroke-width="2.0" stroke-linecap="butt" stroke-opacity="0.0" clip-path="url(#id_0)" d="M338.0 345.0L327.0 345.0L327.0 342.0C327.0 340.89542 327.89542 340.0 329.0 340.0L336.0 340.0C337.10458 340.0 338.0 340.89542 338.0 342.0Z" fill-rule="nonzero"/><path fill="#38761d" clip-path="url(#id_0)" d="M338.0 345.0L327.0 345.0L327.0 342.0C327.0 340.89542 327.89542 340.0 329.0 340.0L336.0 340.0C337.10458 340.0 338.0 340.89542 338.0 342.0Z" fill-rule="nonzero"/><path stroke="#000000" stroke-width="2.0" stroke-linecap="butt" stroke-opacity="0.0" clip-path="url(#id_0)" d="M351.0 345.0L340.0 345.0L340.0 336.0C340.0 334.89542 340.89542 334.0 342.0 334.0L349.0 334.0C350.10458 334.0 351.0 334.89542 351.0 336.0Z" fill-rule="nonzero"/><path fill="#38761d" clip-path="url(#id_0)" d="M351.0 345.0L340.0 345.0L340.0 336.0C340.0 334.89542 340.89542 334.0 342.0 334.0L349.0 334.0C350.10458 334.0 351.0 334.89542 351.0 336.0Z" fill-rule="nonzero"/><path stroke="#000000" stroke-width="2.0" stroke-linecap="butt" stroke-opacity="0.0" clip-path="url(#id_0)" d="M364.0 345.0L353.0 345.0L353.0 342.0C353.0 340.89542 353.89542 340.0 355.0 340.0L362.0 340.0C363.10458 340.0 364.0 340.89542 364.0 342.0Z" fill-rule="nonzero"/><path fill="#38761d" clip-path="url(#id_0)" d="M364.0 345.0L353.0 345.0L353.0 342.0C353.0 340.89542 353.89542 340.0 355.0 340.0L362.0 340.0C363.10458 340.0 364.0 340.89542 364.0 342.0Z" fill-rule="nonzero"/><path stroke="#000000" stroke-width="2.0" stroke-linecap="butt" stroke-opacity="0.0" clip-path="url(#id_0)" d="M378.0 345.0L367.0 345.0L367.0 325.0C367.0 323.89542 367.89542 323.0 369.0 323.0L376.0 323.0C377.10458 323.0 378.0 323.89542 378.0 325.0Z" fill-rule="nonzero"/><path fill="#38761d" clip-path="url(#id_0)" d="M378.0 345.0L367.0 345.0L367.0 325.0C367.0 323.89542 367.89542 323.0 369.0 323.0L376.0 323.0C377.10458 323.0 378.0 323.89542 378.0 325.0Z" fill-rule="nonzero"/><path stroke="#000000" stroke-width="2.0" stroke-linecap="butt" stroke-opacity="0.0" clip-path="url(#id_0)" d="M391.0 345.0L380.0 345.0L380.0 342.0C380.0 340.89542 380.89542 340.0 382.0 340.0L389.0 340.0C390.10458 340.0 391.0 340.89542 391.0 342.0Z" fill-rule="nonzero"/><path fill="#38761d" clip-path="url(#id_0)" d="M391.0 345.0L380.0 345.0L380.0 342.0C380.0 340.89542 380.89542 340.0 382.0 340.0L389.0 340.0C390.10458 340.0 391.0 340.89542 391.0 342.0Z" fill-rule="nonzero"/><path stroke="#000000" stroke-width="2.0" stroke-linecap="butt" stroke-opacity="0.0" clip-path="url(#id_0)" d="M404.0 345.0L393.0 345.0L393.0 345.0L404.0 345.0Z" fill-rule="nonzero"/><path fill="#38761d" clip-path="url(#id_0)" d="M404.0 345.0L393.0 345.0L393.0 345.0L404.0 345.0Z" fill-rule="nonzero"/><path stroke="#000000" stroke-width="2.0" stroke-linecap="butt" stroke-opacity="0.0" clip-path="url(#id_0)" d="M417.0 345.0L406.0 345.0L406.0 345.0L417.0 345.0Z" fill-rule="nonzero"/><path fill="#38761d" clip-path="url(#id_0)" d="M417.0 345.0L406.0 345.0L406.0 345.0L417.0 345.0Z" fill-rule="nonzero"/><path stroke="#000000" stroke-width="2.0" stroke-linecap="butt" stroke-opacity="0.0" clip-path="url(#id_0)" d="M431.0 345.0L420.0 345.0L420.0 342.0C420.0 340.89542 420.89542 340.0 422.0 340.0L429.0 340.0C430.10458 340.0 431.0 340.89542 431.0 342.0Z" fill-rule="nonzero"/><path fill="#38761d" clip-path="url(#id_0)" d="M431.0 345.0L420.0 345.0L420.0 342.0C420.0 340.89542 420.89542 340.0 422.0 340.0L429.0 340.0C430.10458 340.0 431.0 340.89542 431.0 342.0Z" fill-rule="nonzero"/><path stroke="#000000" stroke-width="2.0" stroke-linecap="butt" stroke-opacity="0.0" clip-path="url(#id_0)" d="M444.0 345.0L433.0 345.0L433.0 336.0C433.0 334.89542 433.89542 334.0 435.0 334.0L442.0 334.0C443.10458 334.0 444.0 334.89542 444.0 336.0Z" fill-rule="nonzero"/><path fill="#38761d" clip-path="url(#id_0)" d="M444.0 345.0L433.0 345.0L433.0 336.0C433.0 334.89542 433.89542 334.0 435.0 334.0L442.0 334.0C443.10458 334.0 444.0 334.89542 444.0 336.0Z" fill-rule="nonzero"/><path stroke="#000000" stroke-width="2.0" stroke-linecap="butt" stroke-opacity="0.0" clip-path="url(#id_0)" d="M457.0 345.0L446.0 345.0L446.0 336.0C446.0 334.89542 446.89542 334.0 448.0 334.0L455.0 334.0C456.10458 334.0 457.0 334.89542 457.0 336.0Z" fill-rule="nonzero"/><path fill="#38761d" clip-path="url(#id_0)" d="M457.0 345.0L446.0 345.0L446.0 336.0C446.0 334.89542 446.89542 334.0 448.0 334.0L455.0 334.0C456.10458 334.0 457.0 334.89542 457.0 336.0Z" fill-rule="nonzero"/><path stroke="#000000" stroke-width="2.0" stroke-linecap="butt" stroke-opacity="0.0" clip-path="url(#id_0)" d="M470.0 345.0L459.0 345.0L459.0 342.0C459.0 340.89542 459.89542 340.0 461.0 340.0L468.0 340.0C469.10458 340.0 470.0 340.89542 470.0 342.0Z" fill-rule="nonzero"/><path fill="#38761d" clip-path="url(#id_0)" d="M470.0 345.0L459.0 345.0L459.0 342.0C459.0 340.89542 459.89542 340.0 461.0 340.0L468.0 340.0C469.10458 340.0 470.0 340.89542 470.0 342.0Z" fill-rule="nonzero"/><path stroke="#000000" stroke-width="2.0" stroke-linecap="butt" stroke-opacity="0.0" clip-path="url(#id_0)" d="M483.0 345.0L472.0 345.0L472.0 345.0L483.0 345.0Z" fill-rule="nonzero"/><path fill="#38761d" clip-path="url(#id_0)" d="M483.0 345.0L472.0 345.0L472.0 345.0L483.0 345.0Z" fill-rule="nonzero"/><path stroke="#000000" stroke-width="2.0" stroke-linecap="butt" stroke-opacity="0.0" clip-path="url(#id_0)" d="M497.0 345.0L486.0 345.0L486.0 345.0L497.0 345.0Z" fill-rule="nonzero"/><path fill="#38761d" clip-path="url(#id_0)" d="M497.0 345.0L486.0 345.0L486.0 345.0L497.0 345.0Z" fill-rule="nonzero"/><path stroke="#000000" stroke-width="2.0" stroke-linecap="butt" stroke-opacity="0.0" clip-path="url(#id_0)" d="M510.0 345.0L499.0 345.0L499.0 345.0L510.0 345.0Z" fill-rule="nonzero"/><path fill="#38761d" clip-path="url(#id_0)" d="M510.0 345.0L499.0 345.0L499.0 345.0L510.0 345.0Z" fill-rule="nonzero"/><path stroke="#000000" stroke-width="2.0" stroke-linecap="butt" stroke-opacity="0.0" clip-path="url(#id_0)" d="M523.0 345.0L512.0 345.0L512.0 336.0C512.0 334.89542 512.89545 334.0 514.0 334.0L521.0 334.0C522.10455 334.0 523.0 334.89542 523.0 336.0Z" fill-rule="nonzero"/><path fill="#38761d" clip-path="url(#id_0)" d="M523.0 345.0L512.0 345.0L512.0 336.0C512.0 334.89542 512.89545 334.0 514.0 334.0L521.0 334.0C522.10455 334.0 523.0 334.89542 523.0 336.0Z" fill-rule="nonzero"/><path stroke="#000000" stroke-width="2.0" stroke-linecap="butt" stroke-opacity="0.0" clip-path="url(#id_0)" d="M536.0 345.0L525.0 345.0L525.0 345.0L536.0 345.0Z" fill-rule="nonzero"/><path fill="#38761d" clip-path="url(#id_0)" d="M536.0 345.0L525.0 345.0L525.0 345.0L536.0 345.0Z" fill-rule="nonzero"/><path stroke="#000000" stroke-width="2.0" stroke-linecap="butt" stroke-opacity="0.0" clip-path="url(#id_0)" d="M549.0 345.0L538.0 345.0L538.0 345.0L549.0 345.0Z" fill-rule="nonzero"/><path fill="#38761d" clip-path="url(#id_0)" d="M549.0 345.0L538.0 345.0L538.0 345.0L549.0 345.0Z" fill-rule="nonzero"/><path stroke="#000000" stroke-width="2.0" stroke-linecap="butt" stroke-opacity="0.0" clip-path="url(#id_0)" d="M563.0 345.0L552.0 345.0L552.0 331.0C552.0 329.89542 552.89545 329.0 554.0 329.0L561.0 329.0C562.10455 329.0 563.0 329.89542 563.0 331.0Z" fill-rule="nonzero"/><path fill="#38761d" clip-path="url(#id_0)" d="M563.0 345.0L552.0 345.0L552.0 331.0C552.0 329.89542 552.89545 329.0 554.0 329.0L561.0 329.0C562.10455 329.0 563.0 329.89542 563.0 331.0Z" fill-rule="nonzero"/><path stroke="#000000" stroke-width="2.0" stroke-linecap="butt" stroke-opacity="0.0" clip-path="url(#id_0)" d="M576.0 345.0L565.0 345.0L565.0 336.0C565.0 334.89542 565.89545 334.0 567.0 334.0L574.0 334.0C575.10455 334.0 576.0 334.89542 576.0 336.0Z" fill-rule="nonzero"/><path fill="#38761d" clip-path="url(#id_0)" d="M576.0 345.0L565.0 345.0L565.0 336.0C565.0 334.89542 565.89545 334.0 567.0 334.0L574.0 334.0C575.10455 334.0 576.0 334.89542 576.0 336.0Z" fill-rule="nonzero"/><path stroke="#000000" stroke-width="2.0" stroke-linecap="butt" stroke-opacity="0.0" clip-path="url(#id_0)" d="M589.0 345.0L578.0 345.0L578.0 342.0C578.0 340.89542 578.89545 340.0 580.0 340.0L587.0 340.0C588.10455 340.0 589.0 340.89542 589.0 342.0Z" fill-rule="nonzero"/><path fill="#38761d" clip-path="url(#id_0)" d="M589.0 345.0L578.0 345.0L578.0 342.0C578.0 340.89542 578.89545 340.0 580.0 340.0L587.0 340.0C588.10455 340.0 589.0 340.89542 589.0 342.0Z" fill-rule="nonzero"/><path stroke="#000000" stroke-width="2.0" stroke-linecap="butt" stroke-opacity="0.0" clip-path="url(#id_0)" d="M602.0 345.0L591.0 345.0L591.0 342.0C591.0 340.89542 591.89545 340.0 593.0 340.0L600.0 340.0C601.10455 340.0 602.0 340.89542 602.0 342.0Z" fill-rule="nonzero"/><path fill="#38761d" clip-path="url(#id_0)" d="M602.0 345.0L591.0 345.0L591.0 342.0C591.0 340.89542 591.89545 340.0 593.0 340.0L600.0 340.0C601.10455 340.0 602.0 340.89542 602.0 342.0Z" fill-rule="nonzero"/><path stroke="#000000" stroke-width="2.0" stroke-linecap="butt" stroke-opacity="0.0" clip-path="url(#id_0)" d="M616.0 345.0L605.0 345.0L605.0 342.0C605.0 340.89542 605.89545 340.0 607.0 340.0L614.0 340.0C615.10455 340.0 616.0 340.89542 616.0 342.0Z" fill-rule="nonzero"/><path fill="#38761d" clip-path="url(#id_0)" d="M616.0 345.0L605.0 345.0L605.0 342.0C605.0 340.89542 605.89545 340.0 607.0 340.0L614.0 340.0C615.10455 340.0 616.0 340.89542 616.0 342.0Z" fill-rule="nonzero"/><path stroke="#000000" stroke-width="2.0" stroke-linecap="butt" stroke-opacity="0.0" clip-path="url(#id_0)" d="M629.0 345.0L618.0 345.0L618.0 336.0C618.0 334.89542 618.89545 334.0 620.0 334.0L627.0 334.0C628.10455 334.0 629.0 334.89542 629.0 336.0Z" fill-rule="nonzero"/><path fill="#38761d" clip-path="url(#id_0)" d="M629.0 345.0L618.0 345.0L618.0 336.0C618.0 334.89542 618.89545 334.0 620.0 334.0L627.0 334.0C628.10455 334.0 629.0 334.89542 629.0 336.0Z" fill-rule="nonzero"/><path stroke="#000000" stroke-width="2.0" stroke-linecap="butt" stroke-opacity="0.0" clip-path="url(#id_0)" d="M642.0 345.0L631.0 345.0L631.0 345.0L642.0 345.0Z" fill-rule="nonzero"/><path fill="#38761d" clip-path="url(#id_0)" d="M642.0 345.0L631.0 345.0L631.0 345.0L642.0 345.0Z" fill-rule="nonzero"/><path stroke="#000000" stroke-width="2.0" stroke-linecap="butt" stroke-opacity="0.0" clip-path="url(#id_0)" d="M655.0 345.0L644.0 345.0L644.0 342.0C644.0 340.89542 644.89545 340.0 646.0 340.0L653.0 340.0C654.10455 340.0 655.0 340.89542 655.0 342.0Z" fill-rule="nonzero"/><path fill="#38761d" clip-path="url(#id_0)" d="M655.0 345.0L644.0 345.0L644.0 342.0C644.0 340.89542 644.89545 340.0 646.0 340.0L653.0 340.0C654.10455 340.0 655.0 340.89542 655.0 342.0Z" fill-rule="nonzero"/><path stroke="#000000" stroke-width="2.0" stroke-linecap="butt" stroke-opacity="0.0" clip-path="url(#id_0)" d="M668.0 345.0L657.0 345.0L657.0 342.0C657.0 340.89542 657.89545 340.0 659.0 340.0L666.0 340.0C667.10455 340.0 668.0 340.89542 668.0 342.0Z" fill-rule="nonzero"/><path fill="#38761d" clip-path="url(#id_0)" d="M668.0 345.0L657.0 345.0L657.0 342.0C657.0 340.89542 657.89545 340.0 659.0 340.0L666.0 340.0C667.10455 340.0 668.0 340.89542 668.0 342.0Z" fill-rule="nonzero"/><path stroke="#000000" stroke-width="2.0" stroke-linecap="butt" stroke-opacity="0.0" clip-path="url(#id_0)" d="M682.0 345.0L671.0 345.0L671.0 345.0L682.0 345.0Z" fill-rule="nonzero"/><path fill="#38761d" clip-path="url(#id_0)" d="M682.0 345.0L671.0 345.0L671.0 345.0L682.0 345.0Z" fill-rule="nonzero"/><path fill="#000000" d="M321.17188 409.25L321.17188 397.89062L316.92188 397.89062L316.92188 396.35938L327.14062 396.35938L327.14062 397.89062L322.875 397.89062L322.875 409.25L321.17188 409.25ZM335.07812 406.25L336.71875 406.45312Q336.32812 407.875 335.28125 408.67188Q334.23438 409.46875 332.60938 409.46875Q330.5625 409.46875 329.35938 408.20312Q328.15625 406.9375 328.15625 404.65625Q328.15625 402.3125 329.35938 401.01562Q330.57812 399.70312 332.51562 399.70312Q334.39062 399.70312 335.57812 400.98438Q336.76562 402.25 336.76562 404.5625Q336.76562 404.70312 336.75 404.98438L329.79688 404.98438Q329.875 406.53125 330.65625 407.34375Q331.45312 408.15625 332.60938 408.15625Q333.48438 408.15625 334.09375 407.70312Q334.71875 407.25 335.07812 406.25ZM329.875 403.6875L335.09375 403.6875Q334.98438 402.51562 334.5 401.92188Q333.73438 401.0 332.53125 401.0Q331.45312 401.0 330.70312 401.73438Q329.96875 402.46875 329.875 403.6875ZM338.65625 409.25L338.65625 396.35938L340.23438 396.35938L340.23438 409.25L338.65625 409.25ZM349.07812 406.25L350.71875 406.45312Q350.32812 407.875 349.28125 408.67188Q348.23438 409.46875 346.60938 409.46875Q344.5625 409.46875 343.35938 408.20312Q342.15625 406.9375 342.15625 404.65625Q342.15625 402.3125 343.35938 401.01562Q344.57812 399.70312 346.51562 399.70312Q348.39062 399.70312 349.57812 400.98438Q350.76562 402.25 350.76562 404.5625Q350.76562 404.70312 350.75 404.98438L343.79688 404.98438Q343.875 406.53125 344.65625 407.34375Q345.45312 408.15625 346.60938 408.15625Q347.48438 408.15625 348.09375 407.70312Q348.71875 407.25 349.07812 406.25ZM343.875 403.6875L349.09375 403.6875Q348.98438 402.51562 348.5 401.92188Q347.73438 401.0 346.53125 401.0Q345.45312 401.0 344.70312 401.73438Q343.96875 402.46875 343.875 403.6875ZM358.78125 405.82812L360.32812 406.03125Q360.07812 407.64062 359.03125 408.5625Q357.98438 409.46875 356.45312 409.46875Q354.53125 409.46875 353.35938 408.21875Q352.20312 406.95312 352.20312 404.625Q352.20312 403.10938 352.70312 401.98438Q353.20312 400.84375 354.21875 400.28125Q355.25 399.70312 356.45312 399.70312Q357.98438 399.70312 358.9375 400.48438Q359.90625 401.25 360.1875 402.65625L358.64062 402.89062Q358.42188 401.95312 357.85938 401.48438Q357.3125 401.0 356.51562 401.0Q355.32812 401.0 354.57812 401.85938Q353.82812 402.71875 353.82812 404.57812Q353.82812 406.45312 354.54688 407.3125Q355.26562 408.15625 356.4375 408.15625Q357.35938 408.15625 357.98438 407.59375Q358.60938 407.01562 358.78125 405.82812ZM361.09375 404.57812Q361.09375 401.98438 362.54688 400.73438Q363.75 399.70312 365.46875 399.70312Q367.40625 399.70312 368.625 400.96875Q369.84375 402.23438 369.84375 404.45312Q369.84375 406.25 369.29688 407.28125Q368.76562 408.3125 367.73438 408.89062Q366.70312 409.46875 365.46875 409.46875Q363.51562 409.46875 362.29688 408.21875Q361.09375 406.95312 361.09375 404.57812ZM362.71875 404.57812Q362.71875 406.375 363.5 407.26562Q364.28125 408.15625 365.46875 408.15625Q366.65625 408.15625 367.4375 407.26562Q368.21875 406.35938 368.21875 404.53125Q368.21875 402.79688 367.42188 401.90625Q366.64062 401.01562 365.46875 401.01562Q364.28125 401.01562 363.5 401.90625Q362.71875 402.79688 362.71875 404.57812ZM371.6875 409.25L371.6875 399.92188L373.10938 399.92188L373.10938 401.25Q374.14062 399.70312 376.07812 399.70312Q376.92188 399.70312 377.625 400.01562Q378.34375 400.3125 378.6875 400.8125Q379.04688 401.29688 379.1875 401.96875Q379.26562 402.40625 379.26562 403.51562L379.26562 409.25L377.6875 409.25L377.6875 403.57812Q377.6875 402.60938 377.5 402.125Q377.32812 401.64062 376.84375 401.35938Q376.375 401.07812 375.75 401.07812Q374.73438 401.07812 374.0 401.71875Q373.26562 402.35938 373.26562 404.15625L373.26562 409.25L371.6875 409.25ZM381.04688 406.46875L382.625 406.21875Q382.75 407.15625 383.34375 407.65625Q383.95312 408.15625 385.03125 408.15625Q386.125 408.15625 386.65625 407.71875Q387.1875 407.26562 387.1875 406.67188Q387.1875 406.14062 386.71875 405.82812Q386.39062 405.625 385.09375 405.29688Q383.35938 404.85938 382.6875 404.54688Q382.01562 404.21875 381.65625 403.65625Q381.3125 403.07812 381.3125 402.39062Q381.3125 401.76562 381.59375 401.23438Q381.89062 400.70312 382.375 400.35938Q382.75 400.07812 383.39062 399.89062Q384.03125 399.70312 384.75 399.70312Q385.85938 399.70312 386.6875 400.03125Q387.51562 400.34375 387.90625 400.89062Q388.3125 401.42188 388.45312 402.32812L386.90625 402.53125Q386.79688 401.8125 386.29688 401.40625Q385.79688 401.0 384.875 401.0Q383.78125 401.0 383.3125 401.35938Q382.84375 401.71875 382.84375 402.20312Q382.84375 402.51562 383.04688 402.76562Q383.23438 403.01562 383.64062 403.1875Q383.89062 403.26562 385.04688 403.59375Q386.71875 404.03125 387.375 404.32812Q388.04688 404.60938 388.42188 405.15625Q388.8125 405.70312 388.8125 406.5Q388.8125 407.29688 388.34375 408.0Q387.89062 408.70312 387.01562 409.09375Q386.14062 409.46875 385.04688 409.46875Q383.21875 409.46875 382.26562 408.71875Q381.3125 407.95312 381.04688 406.46875ZM394.46875 409.25L399.42188 396.35938L401.26562 396.35938L406.53125 409.25L404.59375 409.25L403.09375 405.34375L397.70312 405.34375L396.28125 409.25L394.46875 409.25ZM398.1875 403.95312L402.5625 403.95312L401.21875 400.39062Q400.59375 398.76562 400.29688 397.71875Q400.0625 398.95312 399.60938 400.17188L398.1875 403.95312ZM411.14062 407.82812L411.375 409.23438Q410.70312 409.375 410.17188 409.375Q409.3125 409.375 408.82812 409.10938Q408.35938 408.82812 408.17188 408.39062Q407.98438 407.9375 407.98438 406.51562L407.98438 401.14062L406.8125 401.14062L406.8125 399.92188L407.98438 399.92188L407.98438 397.60938L409.54688 396.65625L409.54688 399.92188L411.14062 399.92188L411.14062 401.14062L409.54688 401.14062L409.54688 406.60938Q409.54688 407.28125 409.625 407.48438Q409.71875 407.67188 409.90625 407.78125Q410.09375 407.89062 410.45312 407.89062Q410.70312 407.89062 411.14062 407.82812ZM416.14062 407.82812L416.375 409.23438Q415.70312 409.375 415.17188 409.375Q414.3125 409.375 413.82812 409.10938Q413.35938 408.82812 413.17188 408.39062Q412.98438 407.9375 412.98438 406.51562L412.98438 401.14062L411.8125 401.14062L411.8125 399.92188L412.98438 399.92188L412.98438 397.60938L414.54688 396.65625L414.54688 399.92188L416.14062 399.92188L416.14062 401.14062L414.54688 401.14062L414.54688 406.60938Q414.54688 407.28125 414.625 407.48438Q414.71875 407.67188 414.90625 407.78125Q415.09375 407.89062 415.45312 407.89062Q415.70312 407.89062 416.14062 407.82812ZM424.07812 406.25L425.71875 406.45312Q425.32812 407.875 424.28125 408.67188Q423.23438 409.46875 421.60938 409.46875Q419.5625 409.46875 418.35938 408.20312Q417.15625 406.9375 417.15625 404.65625Q417.15625 402.3125 418.35938 401.01562Q419.57812 399.70312 421.51562 399.70312Q423.39062 399.70312 424.57812 400.98438Q425.76562 402.25 425.76562 404.5625Q425.76562 404.70312 425.75 404.98438L418.79688 404.98438Q418.875 406.53125 419.65625 407.34375Q420.45312 408.15625 421.60938 408.15625Q422.48438 408.15625 423.09375 407.70312Q423.71875 407.25 424.07812 406.25ZM418.875 403.6875L424.09375 403.6875Q423.98438 402.51562 423.5 401.92188Q422.73438 401.0 421.53125 401.0Q420.45312 401.0 419.70312 401.73438Q418.96875 402.46875 418.875 403.6875ZM427.6875 409.25L427.6875 399.92188L429.10938 399.92188L429.10938 401.25Q430.14062 399.70312 432.07812 399.70312Q432.92188 399.70312 433.625 400.01562Q434.34375 400.3125 434.6875 400.8125Q435.04688 401.29688 435.1875 401.96875Q435.26562 402.40625 435.26562 403.51562L435.26562 409.25L433.6875 409.25L433.6875 403.57812Q433.6875 402.60938 433.5 402.125Q433.32812 401.64062 432.84375 401.35938Q432.375 401.07812 431.75 401.07812Q430.73438 401.07812 430.0 401.71875Q429.26562 402.35938 429.26562 404.15625L429.26562 409.25L427.6875 409.25ZM443.75 409.25L443.75 408.07812Q442.85938 409.46875 441.125 409.46875Q440.01562 409.46875 439.07812 408.85938Q438.14062 408.23438 437.625 407.14062Q437.10938 406.03125 437.10938 404.59375Q437.10938 403.1875 437.57812 402.0625Q438.04688 400.92188 438.96875 400.3125Q439.90625 399.70312 441.0625 399.70312Q441.90625 399.70312 442.5625 400.0625Q443.21875 400.42188 443.64062 400.98438L443.64062 396.35938L445.20312 396.35938L445.20312 409.25L443.75 409.25ZM438.73438 404.59375Q438.73438 406.39062 439.48438 407.28125Q440.25 408.15625 441.28125 408.15625Q442.3125 408.15625 443.03125 407.3125Q443.76562 406.46875 443.76562 404.71875Q443.76562 402.8125 443.03125 401.92188Q442.29688 401.01562 441.21875 401.01562Q440.15625 401.01562 439.4375 401.875Q438.73438 402.73438 438.73438 404.59375ZM454.07812 406.25L455.71875 406.45312Q455.32812 407.875 454.28125 408.67188Q453.23438 409.46875 451.60938 409.46875Q449.5625 409.46875 448.35938 408.20312Q447.15625 406.9375 447.15625 404.65625Q447.15625 402.3125 448.35938 401.01562Q449.57812 399.70312 451.51562 399.70312Q453.39062 399.70312 454.57812 400.98438Q455.76562 402.25 455.76562 404.5625Q455.76562 404.70312 455.75 404.98438L448.79688 404.98438Q448.875 406.53125 449.65625 407.34375Q450.45312 408.15625 451.60938 408.15625Q452.48438 408.15625 453.09375 407.70312Q453.71875 407.25 454.07812 406.25ZM448.875 403.6875L454.09375 403.6875Q453.98438 402.51562 453.5 401.92188Q452.73438 401.0 451.53125 401.0Q450.45312 401.0 449.70312 401.73438Q448.96875 402.46875 448.875 403.6875ZM463.75 409.25L463.75 408.07812Q462.85938 409.46875 461.125 409.46875Q460.01562 409.46875 459.07812 408.85938Q458.14062 408.23438 457.625 407.14062Q457.10938 406.03125 457.10938 404.59375Q457.10938 403.1875 457.57812 402.0625Q458.04688 400.92188 458.96875 400.3125Q459.90625 399.70312 461.0625 399.70312Q461.90625 399.70312 462.5625 400.0625Q463.21875 400.42188 463.64062 400.98438L463.64062 396.35938L465.20312 396.35938L465.20312 409.25L463.75 409.25ZM458.73438 404.59375Q458.73438 406.39062 459.48438 407.28125Q460.25 408.15625 461.28125 408.15625Q462.3125 408.15625 463.03125 407.3125Q463.76562 406.46875 463.76562 404.71875Q463.76562 402.8125 463.03125 401.92188Q462.29688 401.01562 461.21875 401.01562Q460.15625 401.01562 459.4375 401.875Q458.73438 402.73438 458.73438 404.59375Z" fill-rule="nonzero"/><path fill="#000000" d="M38.75 255.28125L25.859375 250.32812L25.859375 248.48438L38.75 243.21875L38.75 245.15625L34.84375 246.65625L34.84375 252.04688L38.75 253.46875L38.75 255.28125ZM33.453125 251.5625L33.453125 247.1875L29.890625 248.53125Q28.265625 249.15625 27.21875 249.45312Q28.453125 249.6875 29.671875 250.14062L33.453125 251.5625ZM37.328125 238.60938L38.734375 238.375Q38.875 239.04688 38.875 239.57812Q38.875 240.4375 38.609375 240.92188Q38.328125 241.39062 37.890625 241.57812Q37.4375 241.76562 36.015625 241.76562L30.640625 241.76562L30.640625 242.9375L29.421875 242.9375L29.421875 241.76562L27.109375 241.76562L26.15625 240.20312L29.421875 240.20312L29.421875 238.60938L30.640625 238.60938L30.640625 240.20312L36.109375 240.20312Q36.78125 240.20312 36.984375 240.125Q37.171875 240.03125 37.28125 239.84375Q37.390625 239.65625 37.390625 239.29688Q37.390625 239.04688 37.328125 238.60938ZM37.328125 233.60938L38.734375 233.375Q38.875 234.04688 38.875 234.57812Q38.875 235.4375 38.609375 235.92188Q38.328125 236.39062 37.890625 236.57812Q37.4375 236.76562 36.015625 236.76562L30.640625 236.76562L30.640625 237.9375L29.421875 237.9375L29.421875 236.76562L27.109375 236.76562L26.15625 235.20312L29.421875 235.20312L29.421875 233.60938L30.640625 233.60938L30.640625 235.20312L36.109375 235.20312Q36.78125 235.20312 36.984375 235.125Q37.171875 235.03125 37.28125 234.84375Q37.390625 234.65625 37.390625 234.29688Q37.390625 234.04688 37.328125 233.60938ZM35.75 225.67188L35.953125 224.03125Q37.375 224.42188 38.171875 225.46875Q38.96875 226.51562 38.96875 228.14062Q38.96875 230.1875 37.703125 231.39062Q36.4375 232.59375 34.15625 232.59375Q31.8125 232.59375 30.515625 231.39062Q29.203125 230.17188 29.203125 228.23438Q29.203125 226.35938 30.484375 225.17188Q31.75 223.98438 34.0625 223.98438Q34.203125 223.98438 34.484375 224.0L34.484375 230.95312Q36.03125 230.875 36.84375 230.09375Q37.65625 229.29688 37.65625 228.14062Q37.65625 227.26562 37.203125 226.65625Q36.75 226.03125 35.75 225.67188ZM33.1875 230.875L33.1875 225.65625Q32.015625 225.76562 31.421875 226.25Q30.5 227.01562 30.5 228.21875Q30.5 229.29688 31.234375 230.04688Q31.96875 230.78125 33.1875 230.875ZM38.75 222.0625L29.421875 222.0625L29.421875 220.64062L30.75 220.64062Q29.203125 219.60938 29.203125 217.67188Q29.203125 216.82812 29.515625 216.125Q29.8125 215.40625 30.3125 215.0625Q30.796875 214.70312 31.46875 214.5625Q31.90625 214.48438 33.015625 214.48438L38.75 214.48438L38.75 216.0625L33.078125 216.0625Q32.109375 216.0625 31.625 216.25Q31.140625 216.42188 30.859375 216.90625Q30.578125 217.375 30.578125 218.0Q30.578125 219.01562 31.21875 219.75Q31.859375 220.48438 33.65625 220.48438L38.75 220.48438L38.75 222.0625ZM38.75 206.0L37.578125 206.0Q38.96875 206.89062 38.96875 208.625Q38.96875 209.73438 38.359375 210.67188Q37.734375 211.60938 36.640625 212.125Q35.53125 212.64062 34.09375 212.64062Q32.6875 212.64062 31.5625 212.17188Q30.421875 211.70312 29.8125 210.78125Q29.203125 209.84375 29.203125 208.6875Q29.203125 207.84375 29.5625 207.1875Q29.921875 206.53125 30.484375 206.10938L25.859375 206.10938L25.859375 204.54688L38.75 204.54688L38.75 206.0ZM34.09375 211.01562Q35.890625 211.01562 36.78125 210.26562Q37.65625 209.5 37.65625 208.46875Q37.65625 207.4375 36.8125 206.71875Q35.96875 205.98438 34.21875 205.98438Q32.3125 205.98438 31.421875 206.71875Q30.515625 207.45312 30.515625 208.53125Q30.515625 209.59375 31.375 210.3125Q32.234375 211.01562 34.09375 211.01562ZM35.75 195.67188L35.953125 194.03125Q37.375 194.42188 38.171875 195.46875Q38.96875 196.51562 38.96875 198.14062Q38.96875 200.1875 37.703125 201.39062Q36.4375 202.59375 34.15625 202.59375Q31.8125 202.59375 30.515625 201.39062Q29.203125 200.17188 29.203125 198.23438Q29.203125 196.35938 30.484375 195.17188Q31.75 193.98438 34.0625 193.98438Q34.203125 193.98438 34.484375 194.0L34.484375 200.95312Q36.03125 200.875 36.84375 200.09375Q37.65625 199.29688 37.65625 198.14062Q37.65625 197.26562 37.203125 196.65625Q36.75 196.03125 35.75 195.67188ZM33.1875 200.875L33.1875 195.65625Q32.015625 195.76562 31.421875 196.25Q30.5 197.01562 30.5 198.21875Q30.5 199.29688 31.234375 200.04688Q31.96875 200.78125 33.1875 200.875ZM35.75 185.67188L35.953125 184.03125Q37.375 184.42188 38.171875 185.46875Q38.96875 186.51562 38.96875 188.14062Q38.96875 190.1875 37.703125 191.39062Q36.4375 192.59375 34.15625 192.59375Q31.8125 192.59375 30.515625 191.39062Q29.203125 190.17188 29.203125 188.23438Q29.203125 186.35938 30.484375 185.17188Q31.75 183.98438 34.0625 183.98438Q34.203125 183.98438 34.484375 184.0L34.484375 190.95312Q36.03125 190.875 36.84375 190.09375Q37.65625 189.29688 37.65625 188.14062Q37.65625 187.26562 37.203125 186.65625Q36.75 186.03125 35.75 185.67188ZM33.1875 190.875L33.1875 185.65625Q32.015625 185.76562 31.421875 186.25Q30.5 187.01562 30.5 188.21875Q30.5 189.29688 31.234375 190.04688Q31.96875 190.78125 33.1875 190.875ZM35.96875 182.70312L35.71875 181.125Q36.65625 181.0 37.15625 180.40625Q37.65625 179.79688 37.65625 178.71875Q37.65625 177.625 37.21875 177.09375Q36.765625 176.5625 36.171875 176.5625Q35.640625 176.5625 35.328125 177.03125Q35.125 177.35938 34.796875 178.65625Q34.359375 180.39062 34.046875 181.0625Q33.71875 181.73438 33.15625 182.09375Q32.578125 182.4375 31.890625 182.4375Q31.265625 182.4375 30.734375 182.15625Q30.203125 181.85938 29.859375 181.375Q29.578125 181.0 29.390625 180.35938Q29.203125 179.71875 29.203125 179.0Q29.203125 177.89062 29.53125 177.0625Q29.84375 176.23438 30.390625 175.84375Q30.921875 175.4375 31.828125 175.29688L32.03125 176.84375Q31.3125 176.95312 30.90625 177.45312Q30.5 177.95312 30.5 178.875Q30.5 179.96875 30.859375 180.4375Q31.21875 180.90625 31.703125 180.90625Q32.015625 180.90625 32.265625 180.70312Q32.515625 180.51562 32.6875 180.10938Q32.765625 179.85938 33.09375 178.70312Q33.53125 177.03125 33.828125 176.375Q34.109375 175.70312 34.65625 175.32812Q35.203125 174.9375 36.0 174.9375Q36.796875 174.9375 37.5 175.40625Q38.203125 175.85938 38.59375 176.73438Q38.96875 177.60938 38.96875 178.70312Q38.96875 180.53125 38.21875 181.48438Q37.453125 182.4375 35.96875 182.70312Z" fill-rule="nonzero"/><path fill="#000000" d="M86.328125 345.3125Q86.328125 343.53125 86.6875 342.45312Q87.0625 341.35938 87.78125 340.78125Q88.5 340.1875 89.59375 340.1875Q90.40625 340.1875 91.015625 340.51562Q91.625 340.84375 92.015625 341.45312Q92.421875 342.0625 92.640625 342.9375Q92.859375 343.8125 92.859375 345.3125Q92.859375 347.07812 92.5 348.15625Q92.140625 349.23438 91.421875 349.82812Q90.703125 350.42188 89.59375 350.42188Q88.15625 350.42188 87.328125 349.375Q86.328125 348.125 86.328125 345.3125ZM87.59375 345.3125Q87.59375 347.78125 88.171875 348.59375Q88.75 349.40625 89.59375 349.40625Q90.453125 349.40625 91.03125 348.59375Q91.609375 347.76562 91.609375 345.3125Q91.609375 342.82812 91.03125 342.01562Q90.453125 341.20312 89.578125 341.20312Q88.734375 341.20312 88.234375 341.92188Q87.59375 342.84375 87.59375 345.3125Z" fill-rule="nonzero"/><path fill="#000000" d="M82.96875 295.65L81.734375 295.65L81.734375 287.80624Q81.296875 288.22812 80.5625 288.66562Q79.84375 289.0875 79.28125 289.29062L79.28125 288.10312Q80.3125 287.61874 81.078125 286.93124Q81.859375 286.24374 82.171875 285.5875L82.96875 285.5875L82.96875 295.65ZM86.328125 290.7125Q86.328125 288.93124 86.6875 287.85312Q87.0625 286.75937 87.78125 286.18124Q88.5 285.5875 89.59375 285.5875Q90.40625 285.5875 91.015625 285.91562Q91.625 286.24374 92.015625 286.85312Q92.421875 287.4625 92.640625 288.3375Q92.859375 289.2125 92.859375 290.7125Q92.859375 292.47812 92.5 293.55624Q92.140625 294.63437 91.421875 295.22812Q90.703125 295.82187 89.59375 295.82187Q88.15625 295.82187 87.328125 294.775Q86.328125 293.525 86.328125 290.7125ZM87.59375 290.7125Q87.59375 293.18124 88.171875 293.99374Q88.75 294.80624 89.59375 294.80624Q90.453125 294.80624 91.03125 293.99374Q91.609375 293.16562 91.609375 290.7125Q91.609375 288.22812 91.03125 287.41562Q90.453125 286.60312 89.578125 286.60312Q88.734375 286.60312 88.234375 287.32187Q87.59375 288.24374 87.59375 290.7125Z" fill-rule="nonzero"/><path fill="#000000" d="M84.796875 239.8625L84.796875 241.05L78.171875 241.05Q78.15625 240.6125 78.3125 240.19063Q78.578125 239.51875 79.125 238.8625Q79.6875 238.20625 80.734375 237.34688Q82.375 236.00313 82.9375 235.22188Q83.515625 234.44063 83.515625 233.7375Q83.515625 233.00313 82.984375 232.50313Q82.46875 232.00313 81.640625 232.00313Q80.75 232.00313 80.203125 232.53438Q79.671875 233.06563 79.671875 234.01875L78.40625 233.87813Q78.53125 232.47188 79.375 231.7375Q80.234375 230.9875 81.65625 230.9875Q83.109375 230.9875 83.9375 231.78438Q84.78125 232.58125 84.78125 233.76875Q84.78125 234.37813 84.53125 234.95625Q84.296875 235.53438 83.71875 236.175Q83.15625 236.81563 81.828125 237.94063Q80.71875 238.8625 80.40625 239.20625Q80.09375 239.53438 79.890625 239.8625L84.796875 239.8625ZM86.328125 236.1125Q86.328125 234.33125 86.6875 233.25313Q87.0625 232.15938 87.78125 231.58125Q88.5 230.9875 89.59375 230.9875Q90.40625 230.9875 91.015625 231.31563Q91.625 231.64375 92.015625 232.25313Q92.421875 232.8625 92.640625 233.7375Q92.859375 234.6125 92.859375 236.1125Q92.859375 237.87813 92.5 238.95625Q92.140625 240.03438 91.421875 240.62813Q90.703125 241.22188 89.59375 241.22188Q88.15625 241.22188 87.328125 240.175Q86.328125 238.925 86.328125 236.1125ZM87.59375 236.1125Q87.59375 238.58125 88.171875 239.39375Q88.75 240.20625 89.59375 240.20625Q90.453125 240.20625 91.03125 239.39375Q91.609375 238.56563 91.609375 236.1125Q91.609375 233.62813 91.03125 232.81563Q90.453125 232.00313 89.578125 232.00313Q88.734375 232.00313 88.234375 232.72188Q87.59375 233.64375 87.59375 236.1125Z" fill-rule="nonzero"/><path fill="#000000" d="M78.34375 183.80937L79.5625 183.6375Q79.78125 184.68437 80.28125 185.15312Q80.796875 185.60625 81.53125 185.60625Q82.40625 185.60625 83.0 185.0125Q83.59375 184.40312 83.59375 183.5125Q83.59375 182.66875 83.03125 182.12187Q82.484375 181.575 81.640625 181.575Q81.28125 181.575 80.765625 181.7L80.90625 180.62187Q81.03125 180.6375 81.09375 180.6375Q81.890625 180.6375 82.515625 180.23125Q83.140625 179.825 83.140625 178.96562Q83.140625 178.29375 82.6875 177.85625Q82.234375 177.40312 81.5 177.40312Q80.78125 177.40312 80.296875 177.85625Q79.828125 178.29375 79.6875 179.2L78.46875 178.98125Q78.6875 177.74687 79.484375 177.075Q80.28125 176.3875 81.46875 176.3875Q82.296875 176.3875 82.984375 176.74687Q83.671875 177.09062 84.03125 177.7Q84.40625 178.30937 84.40625 178.99687Q84.40625 179.6375 84.0625 180.16875Q83.71875 180.7 83.03125 181.02812Q83.921875 181.23125 84.40625 181.87187Q84.90625 182.5125 84.90625 183.49687Q84.90625 184.80937 83.9375 185.71562Q82.984375 186.62187 81.53125 186.62187Q80.203125 186.62187 79.328125 185.84062Q78.46875 185.05937 78.34375 183.80937ZM86.328125 181.5125Q86.328125 179.73125 86.6875 178.65312Q87.0625 177.55937 87.78125 176.98125Q88.5 176.3875 89.59375 176.3875Q90.40625 176.3875 91.015625 176.71562Q91.625 177.04375 92.015625 177.65312Q92.421875 178.2625 92.640625 179.1375Q92.859375 180.0125 92.859375 181.5125Q92.859375 183.27812 92.5 184.35625Q92.140625 185.43437 91.421875 186.02812Q90.703125 186.62187 89.59375 186.62187Q88.15625 186.62187 87.328125 185.575Q86.328125 184.325 86.328125 181.5125ZM87.59375 181.5125Q87.59375 183.98125 88.171875 184.79375Q88.75 185.60625 89.59375 185.60625Q90.453125 185.60625 91.03125 184.79375Q91.609375 183.96562 91.609375 181.5125Q91.609375 179.02812 91.03125 178.21562Q90.453125 177.40312 89.578125 177.40312Q88.734375 177.40312 88.234375 178.12187Q87.59375 179.04375 87.59375 181.5125Z" fill-rule="nonzero"/><path fill="#000000" d="M82.28125 131.85L82.28125 129.44376L77.921875 129.44376L77.921875 128.31876L82.5 121.83438L83.5 121.83438L83.5 128.31876L84.859375 128.31876L84.859375 129.44376L83.5 129.44376L83.5 131.85L82.28125 131.85ZM82.28125 128.31876L82.28125 123.80313L79.140625 128.31876L82.28125 128.31876ZM86.328125 126.912506Q86.328125 125.131256 86.6875 124.05313Q87.0625 122.95938 87.78125 122.381256Q88.5 121.787506 89.59375 121.787506Q90.40625 121.787506 91.015625 122.11563Q91.625 122.443756 92.015625 123.05313Q92.421875 123.662506 92.640625 124.537506Q92.859375 125.412506 92.859375 126.912506Q92.859375 128.67813 92.5 129.75626Q92.140625 130.83438 91.421875 131.42813Q90.703125 132.02188 89.59375 132.02188Q88.15625 132.02188 87.328125 130.975Q86.328125 129.725 86.328125 126.912506ZM87.59375 126.912506Q87.59375 129.38126 88.171875 130.19376Q88.75 131.00626 89.59375 131.00626Q90.453125 131.00626 91.03125 130.19376Q91.609375 129.36563 91.609375 126.912506Q91.609375 124.42813 91.03125 123.61563Q90.453125 122.80313 89.578125 122.80313Q88.734375 122.80313 88.234375 123.52188Q87.59375 124.443756 87.59375 126.912506Z" fill-rule="nonzero"/><path fill="#000000" d="M78.328125 74.625L79.625 74.515625Q79.765625 75.453125 80.28125 75.9375Q80.8125 76.40625 81.546875 76.40625Q82.4375 76.40625 83.046875 75.734375Q83.671875 75.0625 83.671875 73.96875Q83.671875 72.90625 83.078125 72.296875Q82.484375 71.6875 81.53125 71.6875Q80.9375 71.6875 80.453125 71.96875Q79.984375 72.234375 79.703125 72.65625L78.546875 72.515625L79.515625 67.359375L84.5 67.359375L84.5 68.546875L80.5 68.546875L79.96875 71.234375Q80.875 70.609375 81.859375 70.609375Q83.171875 70.609375 84.0625 71.515625Q84.96875 72.421875 84.96875 73.859375Q84.96875 75.21875 84.1875 76.203125Q83.21875 77.421875 81.546875 77.421875Q80.1875 77.421875 79.3125 76.65625Q78.453125 75.890625 78.328125 74.625ZM86.328125 72.3125Q86.328125 70.53125 86.6875 69.453125Q87.0625 68.359375 87.78125 67.78125Q88.5 67.1875 89.59375 67.1875Q90.40625 67.1875 91.015625 67.515625Q91.625 67.84375 92.015625 68.453125Q92.421875 69.0625 92.640625 69.9375Q92.859375 70.8125 92.859375 72.3125Q92.859375 74.078125 92.5 75.15625Q92.140625 76.234375 91.421875 76.828125Q90.703125 77.421875 89.59375 77.421875Q88.15625 77.421875 87.328125 76.375Q86.328125 75.125 86.328125 72.3125ZM87.59375 72.3125Q87.59375 74.78125 88.171875 75.59375Q88.75 76.40625 89.59375 76.40625Q90.453125 76.40625 91.03125 75.59375Q91.609375 74.765625 91.609375 72.3125Q91.609375 69.828125 91.03125 69.015625Q90.453125 68.203125 89.578125 68.203125Q88.734375 68.203125 88.234375 68.921875Q87.59375 69.84375 87.59375 72.3125Z" fill-rule="nonzero"/><path fill="#000000" d="M104.75 353.78125L104.75 354.82812L98.03125 354.82812Q98.390625 355.21875 98.765625 355.84375Q99.125 356.45312 99.296875 356.9375L98.28125 356.9375Q97.859375 356.0625 97.28125 355.40625Q96.6875 354.73438 96.125 354.45312L96.125 353.78125L104.75 353.78125Z" fill-rule="nonzero"/><path fill="#000000" d="M128.9162 357.75L128.77557 356.6875Q129.6662 356.51562 130.07245 356.07812Q130.46307 355.64062 130.46307 355.01562Q130.46307 354.26562 129.94745 353.75Q129.43182 353.23438 128.6662 353.23438Q127.94744 353.23438 127.47869 353.71875Q126.994316 354.1875 126.994316 354.92188Q126.994316 355.21875 127.119316 355.67188L126.181816 355.54688Q126.19744 355.4375 126.19744 355.375Q126.19744 354.70312 125.85369 354.17188Q125.494316 353.625 124.75994 353.625Q124.181816 353.625 123.806816 354.01562Q123.41619 354.40625 123.41619 355.03125Q123.41619 355.64062 123.806816 356.0625Q124.19744 356.46875 124.963066 356.57812L124.775566 357.64062Q123.72869 357.45312 123.150566 356.76562Q122.556816 356.07812 122.556816 355.0625Q122.556816 354.35938 122.869316 353.76562Q123.16619 353.17188 123.681816 352.85938Q124.19744 352.54688 124.79119 352.54688Q125.338066 352.54688 125.806816 352.84375Q126.25994 353.14062 126.525566 353.71875Q126.69744 352.96875 127.25994 352.54688Q127.806816 352.125 128.65057 352.125Q129.77557 352.125 130.55682 352.95312Q131.33807 353.76562 131.33807 355.01562Q131.33807 356.14062 130.6662 356.89062Q129.9787 357.64062 128.9162 357.75Z" fill-rule="nonzero"/><path fill="#000000" d="M155.36363 357.75L155.26988 356.64062Q156.08238 356.51562 156.48863 356.07812Q156.89488 355.625 156.89488 354.98438Q156.89488 354.23438 156.31676 353.70312Q155.73863 353.17188 154.80113 353.17188Q153.89488 353.17188 153.37926 353.6875Q152.848 354.1875 152.848 355.01562Q152.848 355.51562 153.08238 355.9375Q153.31676 356.34375 153.67613 356.57812L153.55113 357.5625L149.14488 356.73438L149.14488 352.45312L150.14488 352.45312L150.14488 355.89062L152.45738 356.34375Q151.9105 355.57812 151.9105 354.73438Q151.9105 353.60938 152.69176 352.84375Q153.473 352.0625 154.70738 352.0625Q155.86363 352.0625 156.723 352.73438Q157.75426 353.5625 157.75426 354.98438Q157.75426 356.15625 157.098 356.90625Q156.44176 357.64062 155.36363 357.75Z" fill-rule="nonzero"/><path fill="#000000" d="M176.5767 357.6875L175.56108 357.6875L175.56108 352.125L176.3892 352.125Q177.2642 352.9375 178.71733 353.75Q180.15483 354.54688 181.68608 354.98438Q182.7642 355.3125 184.04546 355.39062L184.04546 356.48438Q183.02983 356.46875 181.59233 356.09375Q180.15483 355.70312 178.8267 355.0Q177.49858 354.28125 176.5767 353.46875L176.5767 357.6875Z" fill-rule="nonzero"/><path fill="#000000" d="M208.4929 357.59375L208.39915 356.57812Q209.1179 356.45312 209.44603 356.09375Q209.75853 355.71875 209.75853 355.15625Q209.75853 354.67188 209.53978 354.3125Q209.3054 353.9375 208.94603 353.70312Q208.57103 353.46875 207.94603 353.3125Q207.3054 353.15625 206.64915 353.15625Q206.57103 353.15625 206.4304 353.15625Q206.9304 353.46875 207.25853 354.01562Q207.57103 354.5625 207.57103 355.20312Q207.57103 356.28125 206.8054 357.01562Q206.02415 357.75 204.75853 357.75Q203.44603 357.75 202.64915 356.98438Q201.85228 356.20312 201.85228 355.04688Q201.85228 354.21875 202.3054 353.53125Q202.75853 352.82812 203.60228 352.46875Q204.4304 352.10938 206.00853 352.10938Q207.64915 352.10938 208.63353 352.46875Q209.60228 352.8125 210.1179 353.53125Q210.6179 354.23438 210.6179 355.17188Q210.6179 356.1875 210.07103 356.82812Q209.50853 357.46875 208.4929 357.59375ZM204.69603 353.28125Q203.78978 353.28125 203.25853 353.76562Q202.72728 354.23438 202.72728 354.92188Q202.72728 355.625 203.3054 356.15625Q203.8679 356.67188 204.78978 356.67188Q205.60228 356.67188 206.1179 356.17188Q206.63353 355.67188 206.63353 354.95312Q206.63353 354.21875 206.1179 353.75Q205.60228 353.28125 204.69603 353.28125Z" fill-rule="nonzero"/><path fill="#000000" d="M236.90909 360.78125L236.90909 361.82812L230.19034 361.82812Q230.54971 362.21875 230.92471 362.84375Q231.28409 363.45312 231.45596 363.9375L230.44034 363.9375Q230.01846 363.0625 229.44034 362.40625Q228.84659 361.73438 228.28409 361.45312L228.28409 360.78125L236.90909 360.78125ZM236.90909 353.78125L236.90909 354.82812L230.19034 354.82812Q230.54971 355.21875 230.92471 355.84375Q231.28409 356.45312 231.45596 356.9375L230.44034 356.9375Q230.01846 356.0625 229.44034 355.40625Q228.84659 354.73438 228.28409 354.45312L228.28409 353.78125L236.90909 353.78125Z" fill-rule="nonzero"/><path fill="#000000" d="M263.3409 360.78125L263.3409 361.82812L256.62216 361.82812Q256.98154 362.21875 257.35654 362.84375Q257.7159 363.45312 257.8878 363.9375L256.87216 363.9375Q256.4503 363.0625 255.87216 362.40625Q255.27841 361.73438 254.71591 361.45312L254.71591 360.78125L263.3409 360.78125ZM261.0753 357.75L260.93466 356.6875Q261.8253 356.51562 262.23154 356.07812Q262.62216 355.64062 262.62216 355.01562Q262.62216 354.26562 262.10654 353.75Q261.5909 353.23438 260.8253 353.23438Q260.10654 353.23438 259.6378 353.71875Q259.1534 354.1875 259.1534 354.92188Q259.1534 355.21875 259.2784 355.67188L258.3409 355.54688Q258.35654 355.4375 258.35654 355.375Q258.35654 354.70312 258.0128 354.17188Q257.6534 353.625 256.91904 353.625Q256.3409 353.625 255.96591 354.01562Q255.57529 354.40625 255.57529 355.03125Q255.57529 355.64062 255.96591 356.0625Q256.35654 356.46875 257.12216 356.57812L256.93466 357.64062Q255.88779 357.45312 255.30966 356.76562Q254.71591 356.07812 254.71591 355.0625Q254.71591 354.35938 255.02841 353.76562Q255.32529 353.17188 255.84091 352.85938Q256.35654 352.54688 256.9503 352.54688Q257.49716 352.54688 257.9659 352.84375Q258.41904 353.14062 258.68466 353.71875Q258.85654 352.96875 259.41904 352.54688Q259.9659 352.125 260.80966 352.125Q261.93466 352.125 262.7159 352.95312Q263.49716 353.76562 263.49716 355.01562Q263.49716 356.14062 262.8253 356.89062Q262.1378 357.64062 261.0753 357.75Z" fill-rule="nonzero"/><path fill="#000000" d="M289.77274 360.78125L289.77274 361.82812L283.054 361.82812Q283.41336 362.21875 283.78836 362.84375Q284.14774 363.45312 284.3196 363.9375L283.304 363.9375Q282.8821 363.0625 282.304 362.40625Q281.71024 361.73438 281.14774 361.45312L281.14774 360.78125L289.77274 360.78125ZM287.52274 357.75L287.429 356.64062Q288.2415 356.51562 288.64774 356.07812Q289.054 355.625 289.054 354.98438Q289.054 354.23438 288.47586 353.70312Q287.89774 353.17188 286.96024 353.17188Q286.054 353.17188 285.53836 353.6875Q285.0071 354.1875 285.0071 355.01562Q285.0071 355.51562 285.2415 355.9375Q285.47586 356.34375 285.83524 356.57812L285.71024 357.5625L281.304 356.73438L281.304 352.45312L282.304 352.45312L282.304 355.89062L284.6165 356.34375Q284.0696 355.57812 284.0696 354.73438Q284.0696 353.60938 284.85086 352.84375Q285.6321 352.0625 286.8665 352.0625Q288.02274 352.0625 288.8821 352.73438Q289.91336 353.5625 289.91336 354.98438Q289.91336 356.15625 289.2571 356.90625Q288.60086 357.64062 287.52274 357.75Z" fill-rule="nonzero"/><path fill="#000000" d="M316.20456 360.78125L316.20456 361.82812L309.4858 361.82812Q309.84518 362.21875 310.22018 362.84375Q310.57956 363.45312 310.75143 363.9375L309.7358 363.9375Q309.31393 363.0625 308.7358 362.40625Q308.14206 361.73438 307.57956 361.45312L307.57956 360.78125L316.20456 360.78125ZM308.7358 357.6875L307.72018 357.6875L307.72018 352.125L308.5483 352.125Q309.4233 352.9375 310.87643 353.75Q312.31393 354.54688 313.84518 354.98438Q314.9233 355.3125 316.20456 355.39062L316.20456 356.48438Q315.18893 356.46875 313.75143 356.09375Q312.31393 355.70312 310.9858 355.0Q309.65768 354.28125 308.7358 353.46875L308.7358 357.6875Z" fill-rule="nonzero"/><path fill="#000000" d="M342.63635 360.78125L342.63635 361.82812L335.9176 361.82812Q336.27698 362.21875 336.65198 362.84375Q337.01135 363.45312 337.18323 363.9375L336.1676 363.9375Q335.74573 363.0625 335.1676 362.40625Q334.57385 361.73438 334.01135 361.45312L334.01135 360.78125L342.63635 360.78125ZM340.65198 357.59375L340.55823 356.57812Q341.27698 356.45312 341.6051 356.09375Q341.9176 355.71875 341.9176 355.15625Q341.9176 354.67188 341.69885 354.3125Q341.46448 353.9375 341.1051 353.70312Q340.7301 353.46875 340.1051 353.3125Q339.46448 353.15625 338.80823 353.15625Q338.7301 353.15625 338.58948 353.15625Q339.08948 353.46875 339.4176 354.01562Q339.7301 354.5625 339.7301 355.20312Q339.7301 356.28125 338.96448 357.01562Q338.18323 357.75 336.9176 357.75Q335.6051 357.75 334.80823 356.98438Q334.01135 356.20312 334.01135 355.04688Q334.01135 354.21875 334.46448 353.53125Q334.9176 352.82812 335.76135 352.46875Q336.58948 352.10938 338.1676 352.10938Q339.80823 352.10938 340.7926 352.46875Q341.76135 352.8125 342.27698 353.53125Q342.77698 354.23438 342.77698 355.17188Q342.77698 356.1875 342.2301 356.82812Q341.6676 357.46875 340.65198 357.59375ZM336.8551 353.28125Q335.94885 353.28125 335.4176 353.76562Q334.88635 354.23438 334.88635 354.92188Q334.88635 355.625 335.46448 356.15625Q336.02698 356.67188 336.94885 356.67188Q337.76135 356.67188 338.27698 356.17188Q338.7926 355.67188 338.7926 354.95312Q338.7926 354.21875 338.27698 353.75Q337.76135 353.28125 336.8551 353.28125Z" fill-rule="nonzero"/><path fill="#000000" d="M368.05255 359.20312L369.06818 359.20312L369.06818 364.89062Q368.69318 364.89062 368.3338 364.76562Q367.75568 364.54688 367.19318 364.07812Q366.63068 363.59375 365.8963 362.6875Q364.74005 361.28125 364.06818 360.79688Q363.3963 360.29688 362.80255 360.29688Q362.17755 360.29688 361.75568 360.75Q361.31818 361.20312 361.31818 361.92188Q361.31818 362.6875 361.7713 363.14062Q362.22443 363.59375 363.03693 363.60938L362.92755 364.6875Q361.7088 364.57812 361.0838 363.85938Q360.44318 363.125 360.44318 361.89062Q360.44318 360.65625 361.13068 359.9375Q361.81818 359.21875 362.8338 359.21875Q363.34943 359.21875 363.84943 359.4375Q364.3338 359.64062 364.8963 360.14062Q365.44318 360.625 366.3963 361.75Q367.19318 362.70312 367.49005 362.98438Q367.7713 363.25 368.05255 363.42188L368.05255 359.20312ZM369.06818 353.78125L369.06818 354.82812L362.34943 354.82812Q362.7088 355.21875 363.0838 355.84375Q363.44318 356.45312 363.61505 356.9375L362.59943 356.9375Q362.17755 356.0625 361.59943 355.40625Q361.00568 354.73438 360.44318 354.45312L360.44318 353.78125L369.06818 353.78125Z" fill-rule="nonzero"/><path fill="#000000" d="M394.48438 359.20312L395.5 359.20312L395.5 364.89062Q395.125 364.89062 394.76562 364.76562Q394.1875 364.54688 393.625 364.07812Q393.0625 363.59375 392.32812 362.6875Q391.17188 361.28125 390.5 360.79688Q389.82812 360.29688 389.23438 360.29688Q388.60938 360.29688 388.1875 360.75Q387.75 361.20312 387.75 361.92188Q387.75 362.6875 388.20312 363.14062Q388.65625 363.59375 389.46875 363.60938L389.35938 364.6875Q388.14062 364.57812 387.51562 363.85938Q386.875 363.125 386.875 361.89062Q386.875 360.65625 387.5625 359.9375Q388.25 359.21875 389.26562 359.21875Q389.78125 359.21875 390.28125 359.4375Q390.76562 359.64062 391.32812 360.14062Q391.875 360.625 392.82812 361.75Q393.625 362.70312 393.92188 362.98438Q394.20312 363.25 394.48438 363.42188L394.48438 359.20312ZM393.23438 357.75L393.09375 356.6875Q393.98438 356.51562 394.39062 356.07812Q394.78125 355.64062 394.78125 355.01562Q394.78125 354.26562 394.26562 353.75Q393.75 353.23438 392.98438 353.23438Q392.26562 353.23438 391.79688 353.71875Q391.3125 354.1875 391.3125 354.92188Q391.3125 355.21875 391.4375 355.67188L390.5 355.54688Q390.51562 355.4375 390.51562 355.375Q390.51562 354.70312 390.17188 354.17188Q389.8125 353.625 389.07812 353.625Q388.5 353.625 388.125 354.01562Q387.73438 354.40625 387.73438 355.03125Q387.73438 355.64062 388.125 356.0625Q388.51562 356.46875 389.28125 356.57812L389.09375 357.64062Q388.04688 357.45312 387.46875 356.76562Q386.875 356.07812 386.875 355.0625Q386.875 354.35938 387.1875 353.76562Q387.48438 353.17188 388.0 352.85938Q388.51562 352.54688 389.10938 352.54688Q389.65625 352.54688 390.125 352.84375Q390.57812 353.14062 390.84375 353.71875Q391.01562 352.96875 391.57812 352.54688Q392.125 352.125 392.96875 352.125Q394.09375 352.125 394.875 352.95312Q395.65625 353.76562 395.65625 355.01562Q395.65625 356.14062 394.98438 356.89062Q394.29688 357.64062 393.23438 357.75Z" fill-rule="nonzero"/><path fill="#000000" d="M420.9162 359.20312L421.93182 359.20312L421.93182 364.89062Q421.55682 364.89062 421.19745 364.76562Q420.61932 364.54688 420.05682 364.07812Q419.49432 363.59375 418.75995 362.6875Q417.6037 361.28125 416.93182 360.79688Q416.25995 360.29688 415.6662 360.29688Q415.0412 360.29688 414.61932 360.75Q414.18182 361.20312 414.18182 361.92188Q414.18182 362.6875 414.63495 363.14062Q415.08807 363.59375 415.90057 363.60938L415.7912 364.6875Q414.57245 364.57812 413.94745 363.85938Q413.30682 363.125 413.30682 361.89062Q413.30682 360.65625 413.99432 359.9375Q414.68182 359.21875 415.69745 359.21875Q416.21307 359.21875 416.71307 359.4375Q417.19745 359.64062 417.75995 360.14062Q418.30682 360.625 419.25995 361.75Q420.05682 362.70312 420.3537 362.98438Q420.63495 363.25 420.9162 363.42188L420.9162 359.20312ZM419.68182 357.75L419.58807 356.64062Q420.40057 356.51562 420.80682 356.07812Q421.21307 355.625 421.21307 354.98438Q421.21307 354.23438 420.63495 353.70312Q420.05682 353.17188 419.11932 353.17188Q418.21307 353.17188 417.69745 353.6875Q417.1662 354.1875 417.1662 355.01562Q417.1662 355.51562 417.40057 355.9375Q417.63495 356.34375 417.99432 356.57812L417.86932 357.5625L413.46307 356.73438L413.46307 352.45312L414.46307 352.45312L414.46307 355.89062L416.77557 356.34375Q416.2287 355.57812 416.2287 354.73438Q416.2287 353.60938 417.00995 352.84375Q417.7912 352.0625 419.02557 352.0625Q420.18182 352.0625 421.0412 352.73438Q422.07245 353.5625 422.07245 354.98438Q422.07245 356.15625 421.4162 356.90625Q420.75995 357.64062 419.68182 357.75Z" fill-rule="nonzero"/><path fill="#000000" d="M447.34802 359.20312L448.36365 359.20312L448.36365 364.89062Q447.98865 364.89062 447.62927 364.76562Q447.05115 364.54688 446.48865 364.07812Q445.92615 363.59375 445.19177 362.6875Q444.03552 361.28125 443.36365 360.79688Q442.69177 360.29688 442.09802 360.29688Q441.47302 360.29688 441.05115 360.75Q440.61365 361.20312 440.61365 361.92188Q440.61365 362.6875 441.06677 363.14062Q441.5199 363.59375 442.3324 363.60938L442.22302 364.6875Q441.00427 364.57812 440.37927 363.85938Q439.73865 363.125 439.73865 361.89062Q439.73865 360.65625 440.42615 359.9375Q441.11365 359.21875 442.12927 359.21875Q442.6449 359.21875 443.1449 359.4375Q443.62927 359.64062 444.19177 360.14062Q444.73865 360.625 445.69177 361.75Q446.48865 362.70312 446.78552 362.98438Q447.06677 363.25 447.34802 363.42188L447.34802 359.20312ZM440.8949 357.6875L439.87927 357.6875L439.87927 352.125L440.7074 352.125Q441.5824 352.9375 443.03552 353.75Q444.47302 354.54688 446.00427 354.98438Q447.0824 355.3125 448.36365 355.39062L448.36365 356.48438Q447.34802 356.46875 445.91052 356.09375Q444.47302 355.70312 443.1449 355.0Q441.81677 354.28125 440.8949 353.46875L440.8949 357.6875Z" fill-rule="nonzero"/><path fill="#000000" d="M473.77982 359.2031L474.79544 359.2031L474.79544 364.8906Q474.42044 364.8906 474.06107 364.7656Q473.48294 364.54684 472.92044 364.0781Q472.35794 363.59372 471.62357 362.68747Q470.46732 361.28122 469.79544 360.79684Q469.12357 360.29684 468.52982 360.29684Q467.90482 360.29684 467.48294 360.74997Q467.04544 361.2031 467.04544 361.92184Q467.04544 362.68747 467.49857 363.1406Q467.9517 363.59372 468.7642 363.60934L468.65482 364.68747Q467.43607 364.5781 466.81107 363.85934Q466.17044 363.12497 466.17044 361.8906Q466.17044 360.65622 466.85794 359.93747Q467.54544 359.21872 468.56107 359.21872Q469.0767 359.21872 469.5767 359.43747Q470.06107 359.6406 470.62357 360.1406Q471.17044 360.62497 472.12357 361.74997Q472.92044 362.7031 473.21732 362.98434Q473.49857 363.24997 473.77982 363.42184L473.77982 359.2031ZM472.81107 357.59372L472.71732 356.5781Q473.43607 356.4531 473.7642 356.09372Q474.0767 355.71872 474.0767 355.15622Q474.0767 354.67184 473.85794 354.31247Q473.62357 353.93747 473.2642 353.7031Q472.8892 353.46872 472.2642 353.31247Q471.62357 353.15622 470.96732 353.15622Q470.8892 353.15622 470.74857 353.15622Q471.24857 353.46872 471.5767 354.0156Q471.8892 354.56247 471.8892 355.2031Q471.8892 356.28122 471.12357 357.0156Q470.34232 357.74997 469.0767 357.74997Q467.7642 357.74997 466.96732 356.98434Q466.17044 356.2031 466.17044 355.04684Q466.17044 354.21872 466.62357 353.53122Q467.0767 352.8281 467.92044 352.46872Q468.74857 352.10934 470.3267 352.10934Q471.96732 352.10934 472.9517 352.46872Q473.92044 352.81247 474.43607 353.53122Q474.93607 354.23434 474.93607 355.17184Q474.93607 356.18747 474.3892 356.8281Q473.8267 357.46872 472.81107 357.59372ZM469.0142 353.28122Q468.10794 353.28122 467.5767 353.7656Q467.04544 354.23434 467.04544 354.92184Q467.04544 355.62497 467.62357 356.15622Q468.18607 356.67184 469.10794 356.67184Q469.92044 356.67184 470.43607 356.17184Q470.9517 355.67184 470.9517 354.9531Q470.9517 354.21872 470.43607 353.74997Q469.92044 353.28122 469.0142 353.28122Z" fill-rule="nonzero"/><path fill="#000000" d="M498.96164 364.74997L498.821 363.68747Q499.71164 363.5156 500.1179 363.0781Q500.5085 362.6406 500.5085 362.0156Q500.5085 361.2656 499.9929 360.74997Q499.47726 360.23434 498.71164 360.23434Q497.9929 360.23434 497.52414 360.71872Q497.03976 361.18747 497.03976 361.92184Q497.03976 362.21872 497.16476 362.67184L496.22726 362.54684Q496.2429 362.43747 496.2429 362.37497Q496.2429 361.7031 495.89914 361.17184Q495.53976 360.62497 494.8054 360.62497Q494.22726 360.62497 493.85226 361.0156Q493.46164 361.40622 493.46164 362.03122Q493.46164 362.6406 493.85226 363.06247Q494.2429 363.46872 495.0085 363.5781L494.821 364.6406Q493.77414 364.4531 493.196 363.7656Q492.60226 363.0781 492.60226 362.06247Q492.60226 361.35934 492.91476 360.7656Q493.21164 360.17184 493.72726 359.85934Q494.2429 359.54684 494.83664 359.54684Q495.3835 359.54684 495.85226 359.84372Q496.3054 360.1406 496.571 360.71872Q496.7429 359.96872 497.3054 359.54684Q497.85226 359.12497 498.696 359.12497Q499.821 359.12497 500.60226 359.9531Q501.3835 360.7656 501.3835 362.0156Q501.3835 363.1406 500.71164 363.8906Q500.02414 364.6406 498.96164 364.74997ZM501.22726 353.78122L501.22726 354.8281L494.5085 354.8281Q494.8679 355.21872 495.2429 355.84372Q495.60226 356.4531 495.77414 356.93747L494.7585 356.93747Q494.33664 356.06247 493.7585 355.40622Q493.16476 354.73434 492.60226 354.4531L492.60226 353.78122L501.22726 353.78122Z" fill-rule="nonzero"/><path fill="#000000" d="M525.3935 364.74997L525.25287 363.68747Q526.1435 363.5156 526.54974 363.0781Q526.94037 362.6406 526.94037 362.0156Q526.94037 361.2656 526.42474 360.74997Q525.9091 360.23434 525.1435 360.23434Q524.42474 360.23434 523.956 360.71872Q523.4716 361.18747 523.4716 361.92184Q523.4716 362.21872 523.5966 362.67184L522.6591 362.54684Q522.67474 362.43747 522.67474 362.37497Q522.67474 361.7031 522.331 361.17184Q521.9716 360.62497 521.23724 360.62497Q520.6591 360.62497 520.2841 361.0156Q519.8935 361.40622 519.8935 362.03122Q519.8935 362.6406 520.2841 363.06247Q520.67474 363.46872 521.44037 363.5781L521.25287 364.6406Q520.206 364.4531 519.62787 363.7656Q519.0341 363.0781 519.0341 362.06247Q519.0341 361.35934 519.3466 360.7656Q519.6435 360.17184 520.1591 359.85934Q520.67474 359.54684 521.2685 359.54684Q521.81537 359.54684 522.2841 359.84372Q522.73724 360.1406 523.00287 360.71872Q523.17474 359.96872 523.73724 359.54684Q524.2841 359.12497 525.12787 359.12497Q526.25287 359.12497 527.0341 359.9531Q527.81537 360.7656 527.81537 362.0156Q527.81537 363.1406 527.1435 363.8906Q526.456 364.6406 525.3935 364.74997ZM525.3935 357.74997L525.25287 356.68747Q526.1435 356.5156 526.54974 356.0781Q526.94037 355.6406 526.94037 355.0156Q526.94037 354.2656 526.42474 353.74997Q525.9091 353.23434 525.1435 353.23434Q524.42474 353.23434 523.956 353.71872Q523.4716 354.18747 523.4716 354.92184Q523.4716 355.21872 523.5966 355.67184L522.6591 355.54684Q522.67474 355.43747 522.67474 355.37497Q522.67474 354.7031 522.331 354.17184Q521.9716 353.62497 521.23724 353.62497Q520.6591 353.62497 520.2841 354.0156Q519.8935 354.40622 519.8935 355.03122Q519.8935 355.6406 520.2841 356.06247Q520.67474 356.46872 521.44037 356.5781L521.25287 357.6406Q520.206 357.4531 519.62787 356.7656Q519.0341 356.0781 519.0341 355.06247Q519.0341 354.35934 519.3466 353.7656Q519.6435 353.17184 520.1591 352.85934Q520.67474 352.54684 521.2685 352.54684Q521.81537 352.54684 522.2841 352.84372Q522.73724 353.1406 523.00287 353.71872Q523.17474 352.96872 523.73724 352.54684Q524.2841 352.12497 525.12787 352.12497Q526.25287 352.12497 527.0341 352.9531Q527.81537 353.7656 527.81537 355.0156Q527.81537 356.1406 527.1435 356.8906Q526.456 357.6406 525.3935 357.74997Z" fill-rule="nonzero"/><path fill="#000000" d="M551.82526 364.75003L551.68463 363.68753Q552.57526 363.51566 552.9815 363.07816Q553.37213 362.64066 553.37213 362.01566Q553.37213 361.26566 552.8565 360.75003Q552.3409 360.2344 551.57526 360.2344Q550.8565 360.2344 550.38776 360.71878Q549.9034 361.18753 549.9034 361.9219Q549.9034 362.21878 550.0284 362.6719L549.0909 362.5469Q549.1065 362.43753 549.1065 362.37503Q549.1065 361.70316 548.76276 361.1719Q548.4034 360.62503 547.669 360.62503Q547.0909 360.62503 546.7159 361.01566Q546.32526 361.40628 546.32526 362.03128Q546.32526 362.64066 546.7159 363.06253Q547.1065 363.46878 547.87213 363.57816L547.68463 364.64066Q546.63776 364.45316 546.05963 363.76566Q545.4659 363.07816 545.4659 362.06253Q545.4659 361.3594 545.7784 360.76566Q546.07526 360.1719 546.5909 359.8594Q547.1065 359.5469 547.70026 359.5469Q548.24713 359.5469 548.7159 359.84378Q549.169 360.14066 549.43463 360.71878Q549.6065 359.96878 550.169 359.5469Q550.7159 359.12503 551.55963 359.12503Q552.68463 359.12503 553.4659 359.95316Q554.24713 360.76566 554.24713 362.01566Q554.24713 363.14066 553.57526 363.89066Q552.88776 364.64066 551.82526 364.75003ZM551.8409 357.75003L551.74713 356.64066Q552.55963 356.51566 552.9659 356.07816Q553.37213 355.62503 553.37213 354.9844Q553.37213 354.2344 552.794 353.70316Q552.2159 353.1719 551.2784 353.1719Q550.37213 353.1719 549.8565 353.68753Q549.32526 354.18753 549.32526 355.01566Q549.32526 355.51566 549.55963 355.93753Q549.794 356.34378 550.1534 356.57816L550.0284 357.56253L545.62213 356.7344L545.62213 352.45316L546.62213 352.45316L546.62213 355.89066L548.93463 356.34378Q548.38776 355.57816 548.38776 354.7344Q548.38776 353.6094 549.169 352.84378Q549.95026 352.06253 551.18463 352.06253Q552.3409 352.06253 553.20026 352.7344Q554.2315 353.56253 554.2315 354.9844Q554.2315 356.15628 553.57526 356.90628Q552.919 357.64066 551.8409 357.75003Z" fill-rule="nonzero"/><path fill="#000000" d="M578.2571 364.75003L578.11646 363.68753Q579.0071 363.51566 579.4133 363.07816Q579.80396 362.64066 579.80396 362.01566Q579.80396 361.26566 579.2883 360.75003Q578.7727 360.2344 578.0071 360.2344Q577.2883 360.2344 576.8196 360.71878Q576.3352 361.18753 576.3352 361.9219Q576.3352 362.21878 576.4602 362.6719L575.5227 362.5469Q575.5383 362.43753 575.5383 362.37503Q575.5383 361.70316 575.1946 361.1719Q574.8352 360.62503 574.1008 360.62503Q573.5227 360.62503 573.1477 361.01566Q572.7571 361.40628 572.7571 362.03128Q572.7571 362.64066 573.1477 363.06253Q573.5383 363.46878 574.30396 363.57816L574.11646 364.64066Q573.0696 364.45316 572.49146 363.76566Q571.8977 363.07816 571.8977 362.06253Q571.8977 361.3594 572.2102 360.76566Q572.5071 360.1719 573.0227 359.8594Q573.5383 359.5469 574.1321 359.5469Q574.67896 359.5469 575.1477 359.84378Q575.6008 360.14066 575.86646 360.71878Q576.0383 359.96878 576.6008 359.5469Q577.1477 359.12503 577.99146 359.12503Q579.11646 359.12503 579.8977 359.95316Q580.67896 360.76566 580.67896 362.01566Q580.67896 363.14066 580.0071 363.89066Q579.3196 364.64066 578.2571 364.75003ZM573.05396 357.68753L572.0383 357.68753L572.0383 352.12503L572.86646 352.12503Q573.74146 352.93753 575.1946 353.75003Q576.6321 354.5469 578.1633 354.9844Q579.24146 355.31253 580.5227 355.39066L580.5227 356.4844Q579.5071 356.46878 578.0696 356.09378Q576.6321 355.70316 575.30396 355.00003Q573.9758 354.28128 573.05396 353.46878L573.05396 357.68753Z" fill-rule="nonzero"/><path fill="#000000" d="M604.6889 364.75003L604.5483 363.68753Q605.4389 363.51566 605.84515 363.07816Q606.2358 362.64066 606.2358 362.01566Q606.2358 361.26566 605.72015 360.75003Q605.2045 360.2344 604.4389 360.2344Q603.72015 360.2344 603.2514 360.71878Q602.767 361.18753 602.767 361.9219Q602.767 362.21878 602.892 362.6719L601.9545 362.5469Q601.97015 362.43753 601.97015 362.37503Q601.97015 361.70316 601.6264 361.1719Q601.267 360.62503 600.53265 360.62503Q599.9545 360.62503 599.5795 361.01566Q599.1889 361.40628 599.1889 362.03128Q599.1889 362.64066 599.5795 363.06253Q599.97015 363.46878 600.7358 363.57816L600.5483 364.64066Q599.5014 364.45316 598.9233 363.76566Q598.3295 363.07816 598.3295 362.06253Q598.3295 361.3594 598.642 360.76566Q598.9389 360.1719 599.4545 359.8594Q599.97015 359.5469 600.5639 359.5469Q601.1108 359.5469 601.5795 359.84378Q602.03265 360.14066 602.2983 360.71878Q602.47015 359.96878 603.03265 359.5469Q603.5795 359.12503 604.4233 359.12503Q605.5483 359.12503 606.3295 359.95316Q607.1108 360.76566 607.1108 362.01566Q607.1108 363.14066 606.4389 363.89066Q605.7514 364.64066 604.6889 364.75003ZM604.97015 357.59378L604.8764 356.57816Q605.59515 356.45316 605.9233 356.09378Q606.2358 355.71878 606.2358 355.15628Q606.2358 354.6719 606.017 354.31253Q605.78265 353.93753 605.4233 353.70316Q605.0483 353.46878 604.4233 353.31253Q603.78265 353.15628 603.1264 353.15628Q603.0483 353.15628 602.90765 353.15628Q603.40765 353.46878 603.7358 354.01566Q604.0483 354.56253 604.0483 355.20316Q604.0483 356.28128 603.28265 357.01566Q602.5014 357.75003 601.2358 357.75003Q599.9233 357.75003 599.1264 356.9844Q598.3295 356.20316 598.3295 355.0469Q598.3295 354.21878 598.78265 353.53128Q599.2358 352.82816 600.0795 352.46878Q600.90765 352.1094 602.4858 352.1094Q604.1264 352.1094 605.1108 352.46878Q606.0795 352.81253 606.59515 353.53128Q607.09515 354.2344 607.09515 355.1719Q607.09515 356.18753 606.5483 356.82816Q605.9858 357.46878 604.97015 357.59378ZM601.1733 353.28128Q600.267 353.28128 599.7358 353.76566Q599.2045 354.2344 599.2045 354.9219Q599.2045 355.62503 599.78265 356.15628Q600.34515 356.6719 601.267 356.6719Q602.0795 356.6719 602.59515 356.1719Q603.1108 355.6719 603.1108 354.95316Q603.1108 354.21878 602.59515 353.75003Q602.0795 353.28128 601.1733 353.28128Z" fill-rule="nonzero"/><path fill="#000000" d="M633.38635 361.375L631.32385 361.375L631.32385 365.09375L630.3551 365.09375L624.7926 361.17188L624.7926 360.3125L630.3551 360.3125L630.3551 359.15625L631.32385 359.15625L631.32385 360.3125L633.38635 360.3125L633.38635 361.375ZM630.3551 361.375L626.4957 361.375L630.3551 364.0625L630.3551 361.375ZM633.38635 353.78125L633.38635 354.82812L626.6676 354.82812Q627.027 355.21875 627.402 355.84375Q627.76135 356.45312 627.9332 356.9375L626.9176 356.9375Q626.4957 356.0625 625.9176 355.40625Q625.32385 354.73438 624.76135 354.45312L624.76135 353.78125L633.38635 353.78125Z" fill-rule="nonzero"/><path fill="#000000" d="M659.8182 361.375L657.7557 361.375L657.7557 365.09375L656.7869 365.09375L651.2244 361.17188L651.2244 360.3125L656.7869 360.3125L656.7869 359.15625L657.7557 359.15625L657.7557 360.3125L659.8182 360.3125L659.8182 361.375ZM656.7869 361.375L652.92755 361.375L656.7869 364.0625L656.7869 361.375ZM657.55255 357.75L657.4119 356.6875Q658.30255 356.51562 658.7088 356.07812Q659.0994 355.64062 659.0994 355.01562Q659.0994 354.26562 658.5838 353.75Q658.0682 353.23438 657.30255 353.23438Q656.5838 353.23438 656.11505 353.71875Q655.6307 354.1875 655.6307 354.92188Q655.6307 355.21875 655.7557 355.67188L654.8182 355.54688Q654.8338 355.4375 654.8338 355.375Q654.8338 354.70312 654.49005 354.17188Q654.1307 353.625 653.3963 353.625Q652.8182 353.625 652.4432 354.01562Q652.05255 354.40625 652.05255 355.03125Q652.05255 355.64062 652.4432 356.0625Q652.8338 356.46875 653.5994 356.57812L653.4119 357.64062Q652.36505 357.45312 651.7869 356.76562Q651.1932 356.07812 651.1932 355.0625Q651.1932 354.35938 651.5057 353.76562Q651.80255 353.17188 652.3182 352.85938Q652.8338 352.54688 653.42755 352.54688Q653.9744 352.54688 654.4432 352.84375Q654.8963 353.14062 655.1619 353.71875Q655.3338 352.96875 655.8963 352.54688Q656.4432 352.125 657.2869 352.125Q658.4119 352.125 659.1932 352.95312Q659.9744 353.76562 659.9744 355.01562Q659.9744 356.14062 659.30255 356.89062Q658.61505 357.64062 657.55255 357.75Z" fill-rule="nonzero"/><path fill="#000000" d="M686.25 361.375L684.1875 361.375L684.1875 365.09375L683.21875 365.09375L677.65625 361.17188L677.65625 360.3125L683.21875 360.3125L683.21875 359.15625L684.1875 359.15625L684.1875 360.3125L686.25 360.3125L686.25 361.375ZM683.21875 361.375L679.3594 361.375L683.21875 364.0625L683.21875 361.375ZM684.0 357.75L683.90625 356.64062Q684.71875 356.51562 685.125 356.07812Q685.53125 355.625 685.53125 354.98438Q685.53125 354.23438 684.9531 353.70312Q684.375 353.17188 683.4375 353.17188Q682.53125 353.17188 682.0156 353.6875Q681.4844 354.1875 681.4844 355.01562Q681.4844 355.51562 681.71875 355.9375Q681.9531 356.34375 682.3125 356.57812L682.1875 357.5625L677.78125 356.73438L677.78125 352.45312L678.78125 352.45312L678.78125 355.89062L681.09375 356.34375Q680.5469 355.57812 680.5469 354.73438Q680.5469 353.60938 681.3281 352.84375Q682.1094 352.0625 683.34375 352.0625Q684.5 352.0625 685.3594 352.73438Q686.3906 353.5625 686.3906 354.98438Q686.3906 356.15625 685.7344 356.90625Q685.0781 357.64062 684.0 357.75Z" fill-rule="nonzero"/><path fill="#000000" d="M90.28096 42.57749L90.28096 25.389992L92.546585 25.389992L92.546585 40.54624L101.015335 40.54624L101.015335 42.57749L90.28096 42.57749ZM103.109085 27.827492L103.109085 25.389992L105.21846 25.389992L105.21846 27.827492L103.109085 27.827492ZM103.109085 42.57749L103.109085 30.124367L105.21846 30.124367L105.21846 42.57749L103.109085 42.57749ZM110.046585 42.57749L108.09346 42.57749L108.09346 25.389992L110.202835 25.389992L110.202835 31.530617Q111.53096 29.843117 113.609085 29.843117Q114.74971 29.843117 115.78096 30.311867Q116.81221 30.780617 117.46846 31.624367Q118.12471 32.45249 118.49971 33.63999Q118.87471 34.811867 118.87471 36.17124Q118.87471 39.35874 117.296585 41.10874Q115.71846 42.85874 113.49971 42.85874Q111.296585 42.85874 110.046585 41.01499L110.046585 42.57749ZM110.015335 36.26499Q110.015335 38.499367 110.62471 39.499367Q111.62471 41.124367 113.327835 41.124367Q114.702835 41.124367 115.702835 39.92124Q116.71846 38.718117 116.71846 36.343117Q116.71846 33.905617 115.74971 32.749367Q114.796585 31.577492 113.421585 31.577492Q112.03096 31.577492 111.015335 32.780617Q110.015335 33.98374 110.015335 36.26499ZM121.077835 42.57749L121.077835 30.124367L122.96846 30.124367L122.96846 32.01499Q123.702835 30.686867 124.31221 30.264992Q124.93721 29.843117 125.671585 29.843117Q126.734085 29.843117 127.84346 30.530617L127.109085 32.48374Q126.34346 32.030617 125.56221 32.030617Q124.87471 32.030617 124.31221 32.45249Q123.765335 32.85874 123.53096 33.593117Q123.18721 34.718117 123.18721 36.061867L123.18721 42.57749L121.077835 42.57749ZM137.21846 41.04624Q136.04659 42.030617 134.95284 42.45249Q133.87471 42.85874 132.64034 42.85874Q130.59346 42.85874 129.48409 41.85874Q128.39034 40.85874 128.39034 39.29624Q128.39034 38.374367 128.79659 37.624367Q129.21846 36.874367 129.89034 36.42124Q130.56221 35.95249 131.40596 35.718117Q132.03096 35.561867 133.28096 35.405617Q135.84346 35.093117 137.04659 34.67124Q137.06221 34.249367 137.06221 34.124367Q137.06221 32.843117 136.45284 32.311867Q135.65596 31.593117 134.06221 31.593117Q132.56221 31.593117 131.85909 32.124367Q131.15596 32.63999 130.81221 33.968117L128.74971 33.686867Q129.03096 32.35874 129.67159 31.546242Q130.31221 30.733742 131.53096 30.296242Q132.74971 29.843117 134.35909 29.843117Q135.95284 29.843117 136.95284 30.218117Q137.95284 30.593117 138.42159 31.171242Q138.89034 31.733742 139.07784 32.60874Q139.17159 33.13999 139.17159 34.54624L139.17159 37.35874Q139.17159 40.29624 139.31221 41.07749Q139.45284 41.85874 139.84346 42.57749L137.64034 42.57749Q137.31221 41.92124 137.21846 41.04624ZM137.04659 36.32749Q135.89034 36.79624 133.59346 37.124367Q132.29659 37.311867 131.74971 37.54624Q131.21846 37.780617 130.92159 38.23374Q130.64034 38.686867 130.64034 39.23374Q130.64034 40.07749 131.26534 40.63999Q131.90596 41.20249 133.14034 41.20249Q134.35909 41.20249 135.31221 40.67124Q136.26534 40.13999 136.70284 39.218117Q137.04659 38.499367 137.04659 37.10874L137.04659 36.32749ZM142.07784 42.57749L142.07784 30.124367L143.96846 30.124367L143.96846 32.01499Q144.70284 30.686867 145.31221 30.264992Q145.93721 29.843117 146.67159 29.843117Q147.73409 29.843117 148.84346 30.530617L148.10909 32.48374Q147.34346 32.030617 146.56221 32.030617Q145.87471 32.030617 145.31221 32.45249Q144.76534 32.85874 144.53096 33.593117Q144.18721 34.718117 144.18721 36.061867L144.18721 42.57749L142.07784 42.57749ZM149.99971 47.374367L149.76534 45.38999Q150.46846 45.57749 150.98409 45.57749Q151.68721 45.57749 152.10909 45.343117Q152.53096 45.10874 152.79659 44.686867Q152.99971 44.374367 153.43721 43.124367Q153.49971 42.936867 153.62471 42.60874L148.90596 30.124367L151.17159 30.124367L153.76534 37.343117Q154.26534 38.70249 154.67159 40.218117Q155.03096 38.76499 155.53096 37.38999L158.20284 30.124367L160.31221 30.124367L155.57784 42.79624Q154.81221 44.843117 154.39034 45.60874Q153.82784 46.655617 153.09346 47.13999Q152.37471 47.624367 151.35909 47.624367Q150.74971 47.624367 149.99971 47.374367ZM169.42159 42.57749L169.42159 25.389992L181.84346 25.389992L181.84346 27.421242L171.68721 27.421242L171.68721 32.686867L181.18721 32.686867L181.18721 34.70249L171.68721 34.70249L171.68721 40.54624L182.23409 40.54624L182.23409 42.57749L169.42159 42.57749ZM188.56221 42.57749L183.82784 30.124367L186.04659 30.124367L188.71846 37.57749Q189.15596 38.79624 189.51534 40.093117Q189.79659 39.10874 190.29659 37.718117L193.06221 30.124367L195.23409 30.124367L190.53096 42.57749L188.56221 42.57749ZM196.31221 36.35874Q196.31221 32.88999 198.23409 31.233742Q199.84346 29.843117 202.15596 29.843117Q204.71846 29.843117 206.34346 31.530617Q207.96846 33.218117 207.96846 36.17124Q207.96846 38.57749 207.24971 39.95249Q206.53096 41.32749 205.15596 42.093117Q203.78096 42.85874 202.15596 42.85874Q199.53096 42.85874 197.92159 41.186867Q196.31221 39.499367 196.31221 36.35874ZM198.48409 36.35874Q198.48409 38.749367 199.51534 39.936867Q200.56221 41.124367 202.15596 41.124367Q203.71846 41.124367 204.76534 39.936867Q205.81221 38.73374 205.81221 36.280617Q205.81221 33.968117 204.74971 32.780617Q203.70284 31.593117 202.15596 31.593117Q200.56221 31.593117 199.51534 32.780617Q198.48409 33.968117 198.48409 36.35874ZM210.04659 42.57749L210.04659 25.389992L212.15596 25.389992L212.15596 42.57749L210.04659 42.57749ZM223.24971 42.57749L223.24971 40.749367Q221.79659 42.85874 219.31221 42.85874Q218.20284 42.85874 217.24971 42.436867Q216.29659 42.01499 215.82784 41.374367Q215.37471 40.73374 215.18721 39.811867Q215.04659 39.186867 215.04659 37.843117L215.04659 30.124367L217.15596 30.124367L217.15596 37.030617Q217.15596 38.686867 217.29659 39.26499Q217.48409 40.093117 218.12471 40.57749Q218.78096 41.04624 219.73409 41.04624Q220.67159 41.04624 221.49971 40.561867Q222.34346 40.061867 222.68721 39.23374Q223.03096 38.38999 223.03096 36.79624L223.03096 30.124367L225.14034 30.124367L225.14034 42.57749L223.24971 42.57749ZM232.70284 40.686867L233.01534 42.54624Q232.12471 42.749367 231.42159 42.749367Q230.26534 42.749367 229.62471 42.38999Q228.99971 42.01499 228.73409 41.42124Q228.48409 40.82749 228.48409 38.936867L228.48409 31.764992L226.93721 31.764992L226.93721 30.124367L228.48409 30.124367L228.48409 27.046242L230.57784 25.780617L230.57784 30.124367L232.70284 30.124367L232.70284 31.764992L230.57784 31.764992L230.57784 39.04624Q230.57784 39.95249 230.68721 40.218117Q230.81221 40.468117 231.06221 40.624367Q231.31221 40.76499 231.78096 40.76499Q232.12471 40.76499 232.70284 40.686867ZM235.10909 27.827492L235.10909 25.389992L237.21846 25.389992L237.21846 27.827492L235.10909 27.827492ZM235.10909 42.57749L235.10909 30.124367L237.21846 30.124367L237.21846 42.57749L235.10909 42.57749ZM239.31221 36.35874Q239.31221 32.88999 241.23409 31.233742Q242.84346 29.843117 245.15596 29.843117Q247.71846 29.843117 249.34346 31.530617Q250.96846 33.218117 250.96846 36.17124Q250.96846 38.57749 250.24971 39.95249Q249.53096 41.32749 248.15596 42.093117Q246.78096 42.85874 245.15596 42.85874Q242.53096 42.85874 240.92159 41.186867Q239.31221 39.499367 239.31221 36.35874ZM241.48409 36.35874Q241.48409 38.749367 242.51534 39.936867Q243.56221 41.124367 245.15596 41.124367Q246.71846 41.124367 247.76534 39.936867Q248.81221 38.73374 248.81221 36.280617Q248.81221 33.968117 247.74971 32.780617Q246.70284 31.593117 245.15596 31.593117Q243.56221 31.593117 242.51534 32.780617Q241.48409 33.968117 241.48409 36.35874ZM253.09346 42.57749L253.09346 30.124367L254.99971 30.124367L254.99971 31.905617Q256.3747 29.843117 258.95282 29.843117Q260.07782 29.843117 261.01532 30.249367Q261.96844 30.655617 262.4372 31.311867Q262.90594 31.968117 263.09344 32.874367Q263.21844 33.45249 263.21844 34.92124L263.21844 42.57749L261.10907 42.57749L261.10907 34.999367Q261.10907 33.718117 260.85907 33.07749Q260.60907 32.436867 259.98407 32.061867Q259.35907 31.671242 258.51532 31.671242Q257.17157 31.671242 256.1872 32.530617Q255.20284 33.38999 255.20284 35.780617L255.20284 42.57749L253.09346 42.57749ZM277.73407 42.57749L277.73407 27.421242L272.07782 27.421242L272.07782 25.389992L285.70282 25.389992L285.70282 27.421242L280.01532 27.421242L280.01532 42.57749L277.73407 42.57749ZM296.6247 38.561867L298.79657 38.843117Q298.28094 40.749367 296.89032 41.811867Q295.4997 42.85874 293.32782 42.85874Q290.59344 42.85874 288.98407 41.186867Q287.39032 39.499367 287.39032 36.45249Q287.39032 33.311867 288.9997 31.577492Q290.6247 29.843117 293.20282 29.843117Q295.70282 29.843117 297.28094 31.546242Q298.8747 33.249367 298.8747 36.32749Q298.8747 36.51499 298.85907 36.88999L289.57782 36.88999Q289.6872 38.936867 290.73407 40.030617Q291.78094 41.124367 293.34344 41.124367Q294.4997 41.124367 295.3122 40.51499Q296.14032 39.905617 296.6247 38.561867ZM289.6872 35.155617L296.64032 35.155617Q296.4997 33.593117 295.84344 32.79624Q294.84344 31.577492 293.23407 31.577492Q291.78094 31.577492 290.78094 32.561867Q289.79657 33.530617 289.6872 35.155617ZM301.04657 42.57749L301.04657 25.389992L303.15594 25.389992L303.15594 42.57749L301.04657 42.57749ZM314.6247 38.561867L316.79657 38.843117Q316.28094 40.749367 314.89032 41.811867Q313.4997 42.85874 311.32782 42.85874Q308.59344 42.85874 306.98407 41.186867Q305.39032 39.499367 305.39032 36.45249Q305.39032 33.311867 306.9997 31.577492Q308.6247 29.843117 311.20282 29.843117Q313.70282 29.843117 315.28094 31.546242Q316.8747 33.249367 316.8747 36.32749Q316.8747 36.51499 316.85907 36.88999L307.57782 36.88999Q307.6872 38.936867 308.73407 40.030617Q309.78094 41.124367 311.34344 41.124367Q312.4997 41.124367 313.3122 40.51499Q314.14032 39.905617 314.6247 38.561867ZM307.6872 35.155617L314.64032 35.155617Q314.4997 33.593117 313.84344 32.79624Q312.84344 31.577492 311.23407 31.577492Q309.78094 31.577492 308.78094 32.561867Q307.79657 33.530617 307.6872 35.155617ZM327.21844 38.01499L329.29657 38.280617Q328.95282 40.436867 327.54657 41.655617Q326.15594 42.85874 324.10907 42.85874Q321.5622 42.85874 319.9997 41.186867Q318.45282 39.51499 318.45282 36.405617Q318.45282 34.38999 319.1247 32.874367Q319.79657 31.358742 321.15594 30.608742Q322.51532 29.843117 324.1247 29.843117Q326.15594 29.843117 327.4372 30.874367Q328.73407 31.905617 329.09344 33.780617L327.04657 34.10874Q326.7497 32.843117 325.9997 32.218117Q325.26532 31.577492 324.20282 31.577492Q322.60907 31.577492 321.60907 32.73374Q320.6247 33.874367 320.6247 36.343117Q320.6247 38.843117 321.57782 39.98374Q322.54657 41.124367 324.09344 41.124367Q325.32782 41.124367 326.15594 40.35874Q326.9997 39.593117 327.21844 38.01499ZM330.3122 36.35874Q330.3122 32.88999 332.23407 31.233742Q333.84344 29.843117 336.15594 29.843117Q338.71844 29.843117 340.34344 31.530617Q341.96844 33.218117 341.96844 36.17124Q341.96844 38.57749 341.2497 39.95249Q340.53094 41.32749 339.15594 42.093117Q337.78094 42.85874 336.15594 42.85874Q333.53094 42.85874 331.92157 41.186867Q330.3122 39.499367 330.3122 36.35874ZM332.48407 36.35874Q332.48407 38.749367 333.51532 39.936867Q334.5622 41.124367 336.15594 41.124367Q337.71844 41.124367 338.76532 39.936867Q339.8122 38.73374 339.8122 36.280617Q339.8122 33.968117 338.7497 32.780617Q337.70282 31.593117 336.15594 31.593117Q334.5622 31.593117 333.51532 32.780617Q332.48407 33.968117 332.48407 36.35874ZM344.09344 42.57749L344.09344 30.124367L345.9997 30.124367L345.9997 31.905617Q347.3747 29.843117 349.95282 29.843117Q351.07782 29.843117 352.01532 30.249367Q352.96844 30.655617 353.4372 31.311867Q353.90594 31.968117 354.09344 32.874367Q354.21844 33.45249 354.21844 34.92124L354.21844 42.57749L352.10907 42.57749L352.10907 34.999367Q352.10907 33.718117 351.85907 33.07749Q351.60907 32.436867 350.98407 32.061867Q350.35907 31.671242 349.51532 31.671242Q348.17157 31.671242 347.1872 32.530617Q346.20282 33.38999 346.20282 35.780617L346.20282 42.57749L344.09344 42.57749ZM356.2497 38.85874L358.34344 38.530617Q358.51532 39.780617 359.3122 40.45249Q360.1247 41.124367 361.5622 41.124367Q363.01532 41.124367 363.71844 40.530617Q364.42157 39.936867 364.42157 39.13999Q364.42157 38.42124 363.79657 38.01499Q363.3747 37.73374 361.64032 37.29624Q359.32782 36.718117 358.42157 36.29624Q357.53094 35.85874 357.0622 35.10874Q356.60907 34.343117 356.60907 33.436867Q356.60907 32.60874 356.98407 31.905617Q357.3747 31.186867 358.03094 30.718117Q358.51532 30.358742 359.35907 30.108742Q360.21844 29.843117 361.1872 29.843117Q362.65594 29.843117 363.76532 30.264992Q364.8747 30.686867 365.39032 31.421242Q365.92157 32.13999 366.1247 33.343117L364.0622 33.624367Q363.92157 32.655617 363.2497 32.124367Q362.57782 31.577492 361.34344 31.577492Q359.89032 31.577492 359.26532 32.061867Q358.64032 32.54624 358.64032 33.186867Q358.64032 33.593117 358.90594 33.92124Q359.15594 34.26499 359.71844 34.48374Q360.03094 34.60874 361.57782 35.030617Q363.8122 35.624367 364.6872 36.01499Q365.57782 36.38999 366.07782 37.124367Q366.59344 37.843117 366.59344 38.92124Q366.59344 39.968117 365.96844 40.905617Q365.35907 41.843117 364.20282 42.35874Q363.04657 42.85874 361.57782 42.85874Q359.15594 42.85874 357.8747 41.85874Q356.60907 40.843117 356.2497 38.85874ZM374.48407 42.57749L381.07782 25.389992L383.53094 25.389992L390.5622 42.57749L387.96844 42.57749L385.96844 37.374367L378.78094 37.374367L376.89032 42.57749L374.48407 42.57749ZM379.4372 35.51499L385.26532 35.51499L383.46844 30.764992Q382.65594 28.593117 382.2497 27.202492Q381.92157 28.858742 381.32782 30.483742L379.4372 35.51499ZM396.70282 40.686867L397.01532 42.54624Q396.1247 42.749367 395.42157 42.749367Q394.26532 42.749367 393.6247 42.38999Q392.9997 42.01499 392.73407 41.42124Q392.48407 40.82749 392.48407 38.936867L392.48407 31.764992L390.9372 31.764992L390.9372 30.124367L392.48407 30.124367L392.48407 27.046242L394.57782 25.780617L394.57782 30.124367L396.70282 30.124367L396.70282 31.764992L394.57782 31.764992L394.57782 39.04624Q394.57782 39.95249 394.6872 40.218117Q394.8122 40.468117 395.0622 40.624367Q395.3122 40.76499 395.78094 40.76499Q396.1247 40.76499 396.70282 40.686867ZM403.70282 40.686867L404.01532 42.54624Q403.1247 42.749367 402.42157 42.749367Q401.26532 42.749367 400.6247 42.38999Q399.9997 42.01499 399.73407 41.42124Q399.48407 40.82749 399.48407 38.936867L399.48407 31.764992L397.9372 31.764992L397.9372 30.124367L399.48407 30.124367L399.48407 27.046242L401.57782 25.780617L401.57782 30.124367L403.70282 30.124367L403.70282 31.764992L401.57782 31.764992L401.57782 39.04624Q401.57782 39.95249 401.6872 40.218117Q401.8122 40.468117 402.0622 40.624367Q402.3122 40.76499 402.78094 40.76499Q403.1247 40.76499 403.70282 40.686867ZM414.6247 38.561867L416.79657 38.843117Q416.28094 40.749367 414.89032 41.811867Q413.4997 42.85874 411.32782 42.85874Q408.59344 42.85874 406.98407 41.186867Q405.39032 39.499367 405.39032 36.45249Q405.39032 33.311867 406.9997 31.577492Q408.6247 29.843117 411.20282 29.843117Q413.70282 29.843117 415.28094 31.546242Q416.8747 33.249367 416.8747 36.32749Q416.8747 36.51499 416.85907 36.88999L407.57782 36.88999Q407.6872 38.936867 408.73407 40.030617Q409.78094 41.124367 411.34344 41.124367Q412.4997 41.124367 413.3122 40.51499Q414.14032 39.905617 414.6247 38.561867ZM407.6872 35.155617L414.64032 35.155617Q414.4997 33.593117 413.84344 32.79624Q412.84344 31.577492 411.23407 31.577492Q409.78094 31.577492 408.78094 32.561867Q407.79657 33.530617 407.6872 35.155617ZM419.09344 42.57749L419.09344 30.124367L420.9997 30.124367L420.9997 31.905617Q422.3747 29.843117 424.95282 29.843117Q426.07782 29.843117 427.01532 30.249367Q427.96844 30.655617 428.4372 31.311867Q428.90594 31.968117 429.09344 32.874367Q429.21844 33.45249 429.21844 34.92124L429.21844 42.57749L427.10907 42.57749L427.10907 34.999367Q427.10907 33.718117 426.85907 33.07749Q426.60907 32.436867 425.98407 32.061867Q425.35907 31.671242 424.51532 31.671242Q423.17157 31.671242 422.1872 32.530617Q421.20282 33.38999 421.20282 35.780617L421.20282 42.57749L419.09344 42.57749ZM440.17157 42.57749L440.17157 40.999367Q438.98407 42.85874 436.6872 42.85874Q435.20282 42.85874 433.95282 42.04624Q432.70282 41.218117 432.01532 39.749367Q431.34344 38.280617 431.34344 36.35874Q431.34344 34.499367 431.95282 32.98374Q432.57782 31.468117 433.8122 30.655617Q435.0622 29.843117 436.59344 29.843117Q437.71844 29.843117 438.59344 30.327492Q439.48407 30.796242 440.03094 31.561867L440.03094 25.389992L442.1247 25.389992L442.1247 42.57749L440.17157 42.57749ZM433.4997 36.35874Q433.4997 38.749367 434.4997 39.936867Q435.51532 41.124367 436.89032 41.124367Q438.28094 41.124367 439.23407 39.999367Q440.20282 38.85874 440.20282 36.54624Q440.20282 33.98374 439.21844 32.79624Q438.23407 31.593117 436.79657 31.593117Q435.39032 31.593117 434.4372 32.749367Q433.4997 33.88999 433.4997 36.35874ZM453.6247 38.561867L455.79657 38.843117Q455.28094 40.749367 453.89032 41.811867Q452.4997 42.85874 450.32782 42.85874Q447.59344 42.85874 445.98407 41.186867Q444.39032 39.499367 444.39032 36.45249Q444.39032 33.311867 445.9997 31.577492Q447.6247 29.843117 450.20282 29.843117Q452.70282 29.843117 454.28094 31.546242Q455.8747 33.249367 455.8747 36.32749Q455.8747 36.51499 455.85907 36.88999L446.57782 36.88999Q446.6872 38.936867 447.73407 40.030617Q448.78094 41.124367 450.34344 41.124367Q451.4997 41.124367 452.3122 40.51499Q453.14032 39.905617 453.6247 38.561867ZM446.6872 35.155617L453.64032 35.155617Q453.4997 33.593117 452.84344 32.79624Q451.84344 31.577492 450.23407 31.577492Q448.78094 31.577492 447.78094 32.561867Q446.79657 33.530617 446.6872 35.155617ZM466.17157 42.57749L466.17157 40.999367Q464.98407 42.85874 462.6872 42.85874Q461.20282 42.85874 459.95282 42.04624Q458.70282 41.218117 458.01532 39.749367Q457.34344 38.280617 457.34344 36.35874Q457.34344 34.499367 457.95282 32.98374Q458.57782 31.468117 459.8122 30.655617Q461.0622 29.843117 462.59344 29.843117Q463.71844 29.843117 464.59344 30.327492Q465.48407 30.796242 466.03094 31.561867L466.03094 25.389992L468.1247 25.389992L468.1247 42.57749L466.17157 42.57749ZM459.4997 36.35874Q459.4997 38.749367 460.4997 39.936867Q461.51532 41.124367 462.89032 41.124367Q464.28094 41.124367 465.23407 39.999367Q466.20282 38.85874 466.20282 36.54624Q466.20282 33.98374 465.21844 32.79624Q464.23407 31.593117 462.79657 31.593117Q461.39032 31.593117 460.4372 32.749367Q459.4997 33.88999 459.4997 36.35874ZM478.3747 42.57749L478.3747 25.389992L484.84344 25.389992Q486.5622 25.389992 487.46844 25.561867Q488.73407 25.764992 489.57782 26.358742Q490.4372 26.952492 490.95282 28.030617Q491.48407 29.093117 491.48407 30.358742Q491.48407 32.561867 490.07782 34.07749Q488.6872 35.593117 485.04657 35.593117L480.64032 35.593117L480.64032 42.57749L478.3747 42.57749ZM480.64032 33.561867L485.07782 33.561867Q487.28094 33.561867 488.20282 32.749367Q489.14032 31.921242 489.14032 30.436867Q489.14032 29.358742 488.59344 28.593117Q488.04657 27.827492 487.15594 27.577492Q486.57782 27.421242 485.03094 27.421242L480.64032 27.421242L480.64032 33.561867ZM502.6247 38.561867L504.79657 38.843117Q504.28094 40.749367 502.89032 41.811867Q501.4997 42.85874 499.32782 42.85874Q496.59344 42.85874 494.98407 41.186867Q493.39032 39.499367 493.39032 36.45249Q493.39032 33.311867 494.9997 31.577492Q496.6247 29.843117 499.20282 29.843117Q501.70282 29.843117 503.28094 31.546242Q504.8747 33.249367 504.8747 36.32749Q504.8747 36.51499 504.85907 36.88999L495.57782 36.88999Q495.6872 38.936867 496.73407 40.030617Q497.78094 41.124367 499.34344 41.124367Q500.4997 41.124367 501.3122 40.51499Q502.14032 39.905617 502.6247 38.561867ZM495.6872 35.155617L502.64032 35.155617Q502.4997 33.593117 501.84344 32.79624Q500.84344 31.577492 499.23407 31.577492Q497.78094 31.577492 496.78094 32.561867Q495.79657 33.530617 495.6872 35.155617ZM507.07782 42.57749L507.07782 30.124367L508.96844 30.124367L508.96844 32.01499Q509.70282 30.686867 510.3122 30.264992Q510.9372 29.843117 511.67157 29.843117Q512.7341 29.843117 513.84344 30.530617L513.1091 32.48374Q512.34344 32.030617 511.5622 32.030617Q510.8747 32.030617 510.3122 32.45249Q509.76532 32.85874 509.53094 33.593117Q509.1872 34.718117 509.1872 36.061867L509.1872 42.57749L507.07782 42.57749ZM520.4841 42.57749L527.0778 25.389992L529.53094 25.389992L536.5622 42.57749L533.96844 42.57749L531.96844 37.374367L524.78094 37.374367L522.8903 42.57749L520.4841 42.57749ZM525.4372 35.51499L531.2653 35.51499L529.46844 30.764992Q528.65594 28.593117 528.2497 27.202492Q527.9216 28.858742 527.3278 30.483742L525.4372 35.51499ZM542.7028 40.686867L543.0153 42.54624Q542.1247 42.749367 541.4216 42.749367Q540.2653 42.749367 539.6247 42.38999Q538.9997 42.01499 538.7341 41.42124Q538.4841 40.82749 538.4841 38.936867L538.4841 31.764992L536.9372 31.764992L536.9372 30.124367L538.4841 30.124367L538.4841 27.046242L540.5778 25.780617L540.5778 30.124367L542.7028 30.124367L542.7028 31.764992L540.5778 31.764992L540.5778 39.04624Q540.5778 39.95249 540.6872 40.218117Q540.8122 40.468117 541.0622 40.624367Q541.3122 40.76499 541.78094 40.76499Q542.1247 40.76499 542.7028 40.686867ZM549.7028 40.686867L550.0153 42.54624Q549.1247 42.749367 548.4216 42.749367Q547.2653 42.749367 546.6247 42.38999Q545.9997 42.01499 545.7341 41.42124Q545.4841 40.82749 545.4841 38.936867L545.4841 31.764992L543.9372 31.764992L543.9372 30.124367L545.4841 30.124367L545.4841 27.046242L547.5778 25.780617L547.5778 30.124367L549.7028 30.124367L549.7028 31.764992L547.5778 31.764992L547.5778 39.04624Q547.5778 39.95249 547.6872 40.218117Q547.8122 40.468117 548.0622 40.624367Q548.3122 40.76499 548.78094 40.76499Q549.1247 40.76499 549.7028 40.686867ZM560.6247 38.561867L562.7966 38.843117Q562.28094 40.749367 560.8903 41.811867Q559.4997 42.85874 557.3278 42.85874Q554.59344 42.85874 552.9841 41.186867Q551.3903 39.499367 551.3903 36.45249Q551.3903 33.311867 552.9997 31.577492Q554.6247 29.843117 557.2028 29.843117Q559.7028 29.843117 561.28094 31.546242Q562.8747 33.249367 562.8747 36.32749Q562.8747 36.51499 562.8591 36.88999L553.5778 36.88999Q553.6872 38.936867 554.7341 40.030617Q555.78094 41.124367 557.34344 41.124367Q558.4997 41.124367 559.3122 40.51499Q560.1403 39.905617 560.6247 38.561867ZM553.6872 35.155617L560.6403 35.155617Q560.4997 33.593117 559.84344 32.79624Q558.84344 31.577492 557.2341 31.577492Q555.78094 31.577492 554.78094 32.561867Q553.7966 33.530617 553.6872 35.155617ZM565.09344 42.57749L565.09344 30.124367L566.9997 30.124367L566.9997 31.905617Q568.3747 29.843117 570.9528 29.843117Q572.0778 29.843117 573.0153 30.249367Q573.96844 30.655617 574.4372 31.311867Q574.90594 31.968117 575.09344 32.874367Q575.21844 33.45249 575.21844 34.92124L575.21844 42.57749L573.1091 42.57749L573.1091 34.999367Q573.1091 33.718117 572.8591 33.07749Q572.6091 32.436867 571.9841 32.061867Q571.3591 31.671242 570.5153 31.671242Q569.1716 31.671242 568.1872 32.530617Q567.2028 33.38999 567.2028 35.780617L567.2028 42.57749L565.09344 42.57749ZM586.1716 42.57749L586.1716 40.999367Q584.9841 42.85874 582.6872 42.85874Q581.2028 42.85874 579.9528 42.04624Q578.7028 41.218117 578.0153 39.749367Q577.34344 38.280617 577.34344 36.35874Q577.34344 34.499367 577.9528 32.98374Q578.5778 31.468117 579.8122 30.655617Q581.0622 29.843117 582.59344 29.843117Q583.71844 29.843117 584.59344 30.327492Q585.4841 30.796242 586.03094 31.561867L586.03094 25.389992L588.1247 25.389992L588.1247 42.57749L586.1716 42.57749ZM579.4997 36.35874Q579.4997 38.749367 580.4997 39.936867Q581.5153 41.124367 582.8903 41.124367Q584.28094 41.124367 585.2341 39.999367Q586.2028 38.85874 586.2028 36.54624Q586.2028 33.98374 585.21844 32.79624Q584.2341 31.593117 582.7966 31.593117Q581.3903 31.593117 580.4372 32.749367Q579.4997 33.88999 579.4997 36.35874ZM599.6247 38.561867L601.7966 38.843117Q601.28094 40.749367 599.8903 41.811867Q598.4997 42.85874 596.3278 42.85874Q593.59344 42.85874 591.9841 41.186867Q590.3903 39.499367 590.3903 36.45249Q590.3903 33.311867 591.9997 31.577492Q593.6247 29.843117 596.2028 29.843117Q598.7028 29.843117 600.28094 31.546242Q601.8747 33.249367 601.8747 36.32749Q601.8747 36.51499 601.8591 36.88999L592.5778 36.88999Q592.6872 38.936867 593.7341 40.030617Q594.78094 41.124367 596.34344 41.124367Q597.4997 41.124367 598.3122 40.51499Q599.1403 39.905617 599.6247 38.561867ZM592.6872 35.155617L599.6403 35.155617Q599.4997 33.593117 598.84344 32.79624Q597.84344 31.577492 596.2341 31.577492Q594.78094 31.577492 593.78094 32.561867Q592.7966 33.530617 592.6872 35.155617ZM612.6247 38.561867L614.7966 38.843117Q614.28094 40.749367 612.8903 41.811867Q611.4997 42.85874 609.3278 42.85874Q606.59344 42.85874 604.9841 41.186867Q603.3903 39.499367 603.3903 36.45249Q603.3903 33.311867 604.9997 31.577492Q606.6247 29.843117 609.2028 29.843117Q611.7028 29.843117 613.28094 31.546242Q614.8747 33.249367 614.8747 36.32749Q614.8747 36.51499 614.8591 36.88999L605.5778 36.88999Q605.6872 38.936867 606.7341 40.030617Q607.78094 41.124367 609.34344 41.124367Q610.4997 41.124367 611.3122 40.51499Q612.1403 39.905617 612.6247 38.561867ZM605.6872 35.155617L612.6403 35.155617Q612.4997 33.593117 611.84344 32.79624Q610.84344 31.577492 609.2341 31.577492Q607.78094 31.577492 606.78094 32.561867Q605.7966 33.530617 605.6872 35.155617Z" fill-rule="nonzero"/></svg>