<svg version="1.1" viewBox="0.0 0.0 655.0 371.0" fill="none" stroke="none" stroke-linecap="square" stroke-miterlimit="10" width="655" height="371" xmlns:xlink="http://www.w3.org/1999/xlink" xmlns="http://www.w3.org/2000/svg"><path fill="#ffffff" fill-opacity="0.0" d="M0 0L655.0 0L655.0 371.0L0 371.0L0 0Z" fill-rule="nonzero"/><path fill="#ff0000" d="M327.5 58.916668C359.33865 58.916668 389.8163 71.82806 411.9659 94.699326C434.1155 117.5706 446.0434 148.44644 445.02292 180.26874L327.5 176.5Z" fill-rule="nonzero"/><path fill="#76b900" d="M294.0443 63.776638C304.90387 60.553574 316.1722 58.916668 327.5 58.916668L327.5 176.5Z" fill-rule="nonzero"/><path fill="#88aaff" d="M248.44862 89.45564C261.52533 77.57971 277.1098 68.80271 294.0443 63.776638L327.5 176.5Z" fill-rule="nonzero"/><path fill="#ff00ff" d="M213.76225 146.67445C219.5391 124.64483 231.58919 104.76694 248.44862 89.45564L327.5 176.5Z" fill-rule="nonzero"/><path fill="#ff9900" d="M445.02292 180.26874C443.57526 225.41243 416.39697 265.73688 375.09576 284.01968C333.7946 302.3025 285.6713 295.31183 251.27914 266.03336C216.887 236.75488 202.30545 190.36415 213.76225 146.67445L327.5 176.5Z" fill-rule="nonzero"/><path fill="#ff0000" d="M62.5 316.95C62.5 320.2637 59.81371 322.95 56.5 322.95C53.18629 322.95 50.5 320.2637 50.5 316.95C50.5 313.6363 53.18629 310.95 56.5 310.95C59.81371 310.95 62.5 313.6363 62.5 316.95Z" fill-rule="nonzero"/><path fill="#999999" d="M71.3125 319.3094L72.921875 319.16876Q73.03125 320.1375 73.4375 320.7625Q73.859375 321.3719 74.734375 321.7625Q75.625 322.1375 76.71875 322.1375Q77.703125 322.1375 78.4375 321.85626Q79.1875 321.5594 79.546875 321.0594Q79.921875 320.54376 79.921875 319.95Q79.921875 319.34064 79.5625 318.8875Q79.21875 318.4344 78.40625 318.1375Q77.890625 317.9344 76.109375 317.5125Q74.34375 317.075 73.625 316.7Q72.703125 316.21564 72.25 315.4969Q71.796875 314.77814 71.796875 313.90314Q71.796875 312.91876 72.34375 312.075Q72.90625 311.23126 73.96875 310.79376Q75.03125 310.34064 76.34375 310.34064Q77.765625 310.34064 78.859375 310.8094Q79.953125 311.2625 80.546875 312.16876Q81.140625 313.0594 81.171875 314.2L79.546875 314.325Q79.40625 313.09064 78.640625 312.46564Q77.890625 311.84064 76.40625 311.84064Q74.859375 311.84064 74.140625 312.41876Q73.4375 312.98126 73.4375 313.77814Q73.4375 314.48126 73.953125 314.91876Q74.4375 315.3719 76.515625 315.84064Q78.59375 316.3094 79.375 316.66876Q80.5 317.1844 81.03125 317.98126Q81.5625 318.77814 81.5625 319.8094Q81.5625 320.84064 80.96875 321.7469Q80.390625 322.65314 79.28125 323.16876Q78.1875 323.66876 76.796875 323.66876Q75.046875 323.66876 73.859375 323.16876Q72.6875 322.65314 72.015625 321.6375Q71.34375 320.60626 71.3125 319.3094ZM83.703125 312.3875L83.703125 310.5594L85.28125 310.5594L85.28125 312.3875L83.703125 312.3875ZM83.703125 323.45L83.703125 314.1219L85.28125 314.1219L85.28125 323.45L83.703125 323.45ZM87.6875 323.45L87.6875 314.1219L89.109375 314.1219L89.109375 315.45Q90.140625 313.90314 92.078125 313.90314Q92.921875 313.90314 93.625 314.21564Q94.34375 314.5125 94.6875 315.0125Q95.046875 315.4969 95.1875 316.16876Q95.265625 316.60626 95.265625 317.71564L95.265625 323.45L93.6875 323.45L93.6875 317.77814Q93.6875 316.8094 93.5 316.325Q93.328125 315.84064 92.84375 315.5594Q92.375 315.27814 91.75 315.27814Q90.734375 315.27814 90.0 315.91876Q89.265625 316.5594 89.265625 318.35626L89.265625 323.45L87.6875 323.45ZM97.390625 324.23126L98.9375 324.45Q99.03125 325.16876 99.46875 325.4969Q100.0625 325.9344 101.078125 325.9344Q102.171875 325.9344 102.765625 325.48126Q103.375 325.04376 103.578125 324.2625Q103.703125 323.77814 103.703125 322.23126Q102.65625 323.45 101.109375 323.45Q99.1875 323.45 98.125 322.0594Q97.078125 320.66876 97.078125 318.73126Q97.078125 317.3875 97.5625 316.2625Q98.046875 315.1375 98.96875 314.52814Q99.890625 313.90314 101.125 313.90314Q102.78125 313.90314 103.84375 315.2469L103.84375 314.1219L105.3125 314.1219L105.3125 322.1844Q105.3125 324.3719 104.859375 325.27814Q104.421875 326.1844 103.453125 326.7Q102.5 327.23126 101.09375 327.23126Q99.421875 327.23126 98.390625 326.48126Q97.359375 325.73126 97.390625 324.23126ZM98.703125 318.6219Q98.703125 320.45 99.4375 321.29376Q100.171875 322.1375 101.265625 322.1375Q102.359375 322.1375 103.09375 321.3094Q103.828125 320.46564 103.828125 318.66876Q103.828125 316.95 103.0625 316.09064Q102.3125 315.21564 101.234375 315.21564Q100.1875 315.21564 99.4375 316.075Q98.703125 316.9344 98.703125 318.6219ZM107.65625 323.45L107.65625 310.5594L109.234375 310.5594L109.234375 323.45L107.65625 323.45ZM118.078125 320.45L119.71875 320.65314Q119.328125 322.075 118.28125 322.8719Q117.234375 323.66876 115.609375 323.66876Q113.5625 323.66876 112.359375 322.40314Q111.15625 321.1375 111.15625 318.85626Q111.15625 316.5125 112.359375 315.21564Q113.578125 313.90314 115.515625 313.90314Q117.390625 313.90314 118.578125 315.1844Q119.765625 316.45 119.765625 318.7625Q119.765625 318.90314 119.75 319.1844L112.796875 319.1844Q112.875 320.73126 113.65625 321.54376Q114.453125 322.35626 115.609375 322.35626Q116.484375 322.35626 117.09375 321.90314Q117.71875 321.45 118.078125 320.45ZM112.875 317.8875L118.09375 317.8875Q117.984375 316.71564 117.5 316.1219Q116.734375 315.2 115.53125 315.2Q114.453125 315.2 113.703125 315.9344Q112.96875 316.66876 112.875 317.8875ZM130.17188 323.45L130.17188 312.09064L125.921875 312.09064L125.921875 310.5594L136.14062 310.5594L136.14062 312.09064L131.875 312.09064L131.875 323.45L130.17188 323.45ZM145.07812 320.45L146.71875 320.65314Q146.32812 322.075 145.28125 322.8719Q144.23438 323.66876 142.60938 323.66876Q140.5625 323.66876 139.35938 322.40314Q138.15625 321.1375 138.15625 318.85626Q138.15625 316.5125 139.35938 315.21564Q140.57812 313.90314 142.51562 313.90314Q144.39062 313.90314 145.57812 315.1844Q146.76562 316.45 146.76562 318.7625Q146.76562 318.90314 146.75 319.1844L139.79688 319.1844Q139.875 320.73126 140.65625 321.54376Q141.45312 322.35626 142.60938 322.35626Q143.48438 322.35626 144.09375 321.90314Q144.71875 321.45 145.07812 320.45ZM139.875 317.8875L145.09375 317.8875Q144.98438 316.71564 144.5 316.1219Q143.73438 315.2 142.53125 315.2Q141.45312 315.2 140.70312 315.9344Q139.96875 316.66876 139.875 317.8875ZM148.65625 323.45L148.65625 310.5594L150.23438 310.5594L150.23438 323.45L148.65625 323.45ZM159.07812 320.45L160.71875 320.65314Q160.32812 322.075 159.28125 322.8719Q158.23438 323.66876 156.60938 323.66876Q154.5625 323.66876 153.35938 322.40314Q152.15625 321.1375 152.15625 318.85626Q152.15625 316.5125 153.35938 315.21564Q154.57812 313.90314 156.51562 313.90314Q158.39062 313.90314 159.57812 315.1844Q160.76562 316.45 160.76562 318.7625Q160.76562 318.90314 160.75 319.1844L153.79688 319.1844Q153.875 320.73126 154.65625 321.54376Q155.45312 322.35626 156.60938 322.35626Q157.48438 322.35626 158.09375 321.90314Q158.71875 321.45 159.07812 320.45ZM153.875 317.8875L159.09375 317.8875Q158.98438 316.71564 158.5 316.1219Q157.73438 315.2 156.53125 315.2Q155.45312 315.2 154.70312 315.9344Q153.96875 316.66876 153.875 317.8875ZM168.78125 320.02814L170.32812 320.23126Q170.07812 321.84064 169.03125 322.7625Q167.98438 323.66876 166.45312 323.66876Q164.53125 323.66876 163.35938 322.41876Q162.20312 321.15314 162.20312 318.825Q162.20312 317.3094 162.70312 316.1844Q163.20312 315.04376 164.21875 314.48126Q165.25 313.90314 166.45312 313.90314Q167.98438 313.90314 168.9375 314.6844Q169.90625 315.45 170.1875 316.85626L168.64062 317.09064Q168.42188 316.15314 167.85938 315.6844Q167.3125 315.2 166.51562 315.2Q165.32812 315.2 164.57812 316.0594Q163.82812 316.91876 163.82812 318.77814Q163.82812 320.65314 164.54688 321.5125Q165.26562 322.35626 166.4375 322.35626Q167.35938 322.35626 167.98438 321.79376Q168.60938 321.21564 168.78125 320.02814ZM171.09375 318.77814Q171.09375 316.1844 172.54688 314.9344Q173.75 313.90314 175.46875 313.90314Q177.40625 313.90314 178.625 315.16876Q179.84375 316.4344 179.84375 318.65314Q179.84375 320.45 179.29688 321.48126Q178.76562 322.5125 177.73438 323.09064Q176.70312 323.66876 175.46875 323.66876Q173.51562 323.66876 172.29688 322.41876Q171.09375 321.15314 171.09375 318.77814ZM172.71875 318.77814Q172.71875 320.575 173.5 321.46564Q174.28125 322.35626 175.46875 322.35626Q176.65625 322.35626 177.4375 321.46564Q178.21875 320.5594 178.21875 318.73126Q178.21875 316.9969 177.42188 316.10626Q176.64062 315.21564 175.46875 315.21564Q174.28125 315.21564 173.5 316.10626Q172.71875 316.9969 172.71875 318.77814ZM181.6875 323.45L181.6875 314.1219L183.10938 314.1219L183.10938 315.45Q184.14062 313.90314 186.07812 313.90314Q186.92188 313.90314 187.625 314.21564Q188.34375 314.5125 188.6875 315.0125Q189.04688 315.4969 189.1875 316.16876Q189.26562 316.60626 189.26562 317.71564L189.26562 323.45L187.6875 323.45L187.6875 317.77814Q187.6875 316.8094 187.5 316.325Q187.32812 315.84064 186.84375 315.5594Q186.375 315.27814 185.75 315.27814Q184.73438 315.27814 184.0 315.91876Q183.26562 316.5594 183.26562 318.35626L183.26562 323.45L181.6875 323.45Z" fill-rule="nonzero"/><path fill="#ff9900" d="M218.5 316.95C218.5 320.2637 215.8137 322.95 212.5 322.95C209.1863 322.95 206.5 320.2637 206.5 316.95C206.5 313.6363 209.1863 310.95 212.5 310.95C215.8137 310.95 218.5 313.6363 218.5 316.95Z" fill-rule="nonzero"/><path fill="#999999" d="M227.48438 317.8094L227.48438 316.34064L236.01562 312.73126L236.01562 314.3094L229.25 317.09064L236.01562 319.8875L236.01562 321.46564L227.48438 317.8094ZM246.5625 321.9344L246.5625 323.45L238.04688 323.45Q238.03125 322.8719 238.23438 322.35626Q238.5625 321.48126 239.26562 320.6375Q239.98438 319.79376 241.34375 318.6844Q243.4375 316.96564 244.17188 315.96564Q244.92188 314.95 244.92188 314.0594Q244.92188 313.10626 244.25 312.46564Q243.57812 311.825 242.5 311.825Q241.34375 311.825 240.65625 312.5125Q239.98438 313.2 239.96875 314.40314L238.34375 314.23126Q238.51562 312.41876 239.59375 311.46564Q240.6875 310.5125 242.53125 310.5125Q244.375 310.5125 245.45312 311.54376Q246.54688 312.575 246.54688 314.09064Q246.54688 314.85626 246.21875 315.60626Q245.90625 316.35626 245.17188 317.1844Q244.4375 318.0125 242.73438 319.45Q241.3125 320.65314 240.90625 321.075Q240.5 321.4969 240.25 321.9344L246.5625 321.9344ZM248.25 320.075L249.90625 319.9344Q250.09375 321.15314 250.76562 321.7625Q251.4375 322.3719 252.39062 322.3719Q253.53125 322.3719 254.3125 321.5125Q255.10938 320.65314 255.10938 319.21564Q255.10938 317.8719 254.34375 317.09064Q253.59375 316.3094 252.35938 316.3094Q251.59375 316.3094 250.96875 316.65314Q250.35938 316.9969 250.01562 317.5594L248.53125 317.35626L249.78125 310.7469L256.1875 310.7469L256.1875 312.2469L251.04688 312.2469L250.34375 315.71564Q251.51562 314.90314 252.78125 314.90314Q254.46875 314.90314 255.625 316.075Q256.79688 317.2469 256.79688 319.075Q256.79688 320.825 255.76562 322.10626Q254.53125 323.66876 252.39062 323.66876Q250.625 323.66876 249.51562 322.6844Q248.40625 321.7 248.25 320.075ZM258.54688 313.65314Q258.54688 312.27814 259.23438 311.3094Q259.9375 310.34064 261.25 310.34064Q262.46875 310.34064 263.26562 311.21564Q264.0625 312.075 264.0625 313.7625Q264.0625 315.3875 263.25 316.27814Q262.45312 317.15314 261.26562 317.15314Q260.10938 317.15314 259.32812 316.29376Q258.54688 315.41876 258.54688 313.65314ZM261.29688 311.4344Q260.70312 311.4344 260.3125 311.95Q259.92188 312.45 259.92188 313.8094Q259.92188 315.0594 260.3125 315.5594Q260.71875 316.0594 261.29688 316.0594Q261.89062 316.0594 262.28125 315.5594Q262.67188 315.04376 262.67188 313.7Q262.67188 312.45 262.28125 311.95Q261.89062 311.4344 261.29688 311.4344ZM261.3125 323.91876L268.35938 310.34064L269.64062 310.34064L262.60938 323.91876L261.3125 323.91876ZM266.875 320.41876Q266.875 319.04376 267.5625 318.075Q268.26562 317.10626 269.59375 317.10626Q270.8125 317.10626 271.59375 317.98126Q272.39062 318.84064 272.39062 320.52814Q272.39062 322.15314 271.59375 323.04376Q270.79688 323.91876 269.60938 323.91876Q268.4375 323.91876 267.65625 323.04376Q266.875 322.16876 266.875 320.41876ZM269.64062 318.2Q269.04688 318.2 268.65625 318.71564Q268.26562 319.21564 268.26562 320.59064Q268.26562 321.8094 268.65625 322.325Q269.04688 322.84064 269.625 322.84064Q270.23438 322.84064 270.625 322.325Q271.01562 321.8094 271.01562 320.46564Q271.01562 319.21564 270.625 318.71564Q270.23438 318.2 269.64062 318.2ZM279.09375 318.77814Q279.09375 316.1844 280.54688 314.9344Q281.75 313.90314 283.46875 313.90314Q285.40625 313.90314 286.625 315.16876Q287.84375 316.4344 287.84375 318.65314Q287.84375 320.45 287.29688 321.48126Q286.76562 322.5125 285.73438 323.09064Q284.70312 323.66876 283.46875 323.66876Q281.51562 323.66876 280.29688 322.41876Q279.09375 321.15314 279.09375 318.77814ZM280.71875 318.77814Q280.71875 320.575 281.5 321.46564Q282.28125 322.35626 283.46875 322.35626Q284.65625 322.35626 285.4375 321.46564Q286.21875 320.5594 286.21875 318.73126Q286.21875 316.9969 285.42188 316.10626Q284.64062 315.21564 283.46875 315.21564Q282.28125 315.21564 281.5 316.10626Q280.71875 316.9969 280.71875 318.77814ZM290.0625 323.45L290.0625 315.34064L288.67188 315.34064L288.67188 314.1219L290.0625 314.1219L290.0625 313.1219Q290.0625 312.1844 290.23438 311.73126Q290.45312 311.10626 291.03125 310.73126Q291.60938 310.34064 292.65625 310.34064Q293.3125 310.34064 294.125 310.4969L293.89062 311.8875Q293.39062 311.79376 292.95312 311.79376Q292.23438 311.79376 291.9375 312.10626Q291.64062 312.40314 291.64062 313.2469L291.64062 314.1219L293.45312 314.1219L293.45312 315.34064L291.64062 315.34064L291.64062 323.45L290.0625 323.45ZM303.17188 323.45L303.17188 312.09064L298.92188 312.09064L298.92188 310.5594L309.14062 310.5594L309.14062 312.09064L304.875 312.09064L304.875 323.45L303.17188 323.45ZM318.07812 320.45L319.71875 320.65314Q319.32812 322.075 318.28125 322.8719Q317.23438 323.66876 315.60938 323.66876Q313.5625 323.66876 312.35938 322.40314Q311.15625 321.1375 311.15625 318.85626Q311.15625 316.5125 312.35938 315.21564Q313.57812 313.90314 315.51562 313.90314Q317.39062 313.90314 318.57812 315.1844Q319.76562 316.45 319.76562 318.7625Q319.76562 318.90314 319.75 319.1844L312.79688 319.1844Q312.875 320.73126 313.65625 321.54376Q314.45312 322.35626 315.60938 322.35626Q316.48438 322.35626 317.09375 321.90314Q317.71875 321.45 318.07812 320.45ZM312.875 317.8875L318.09375 317.8875Q317.98438 316.71564 317.5 316.1219Q316.73438 315.2 315.53125 315.2Q314.45312 315.2 313.70312 315.9344Q312.96875 316.66876 312.875 317.8875ZM321.65625 323.45L321.65625 310.5594L323.23438 310.5594L323.23438 323.45L321.65625 323.45ZM332.07812 320.45L333.71875 320.65314Q333.32812 322.075 332.28125 322.8719Q331.23438 323.66876 329.60938 323.66876Q327.5625 323.66876 326.35938 322.40314Q325.15625 321.1375 325.15625 318.85626Q325.15625 316.5125 326.35938 315.21564Q327.57812 313.90314 329.51562 313.90314Q331.39062 313.90314 332.57812 315.1844Q333.76562 316.45 333.76562 318.7625Q333.76562 318.90314 333.75 319.1844L326.79688 319.1844Q326.875 320.73126 327.65625 321.54376Q328.45312 322.35626 329.60938 322.35626Q330.48438 322.35626 331.09375 321.90314Q331.71875 321.45 332.07812 320.45ZM326.875 317.8875L332.09375 317.8875Q331.98438 316.71564 331.5 316.1219Q330.73438 315.2 329.53125 315.2Q328.45312 315.2 327.70312 315.9344Q326.96875 316.66876 326.875 317.8875ZM341.78125 320.02814L343.32812 320.23126Q343.07812 321.84064 342.03125 322.7625Q340.98438 323.66876 339.45312 323.66876Q337.53125 323.66876 336.35938 322.41876Q335.20312 321.15314 335.20312 318.825Q335.20312 317.3094 335.70312 316.1844Q336.20312 315.04376 337.21875 314.48126Q338.25 313.90314 339.45312 313.90314Q340.98438 313.90314 341.9375 314.6844Q342.90625 315.45 343.1875 316.85626L341.64062 317.09064Q341.42188 316.15314 340.85938 315.6844Q340.3125 315.2 339.51562 315.2Q338.32812 315.2 337.57812 316.0594Q336.82812 316.91876 336.82812 318.77814Q336.82812 320.65314 337.54688 321.5125Q338.26562 322.35626 339.4375 322.35626Q340.35938 322.35626 340.98438 321.79376Q341.60938 321.21564 341.78125 320.02814ZM344.09375 318.77814Q344.09375 316.1844 345.54688 314.9344Q346.75 313.90314 348.46875 313.90314Q350.40625 313.90314 351.625 315.16876Q352.84375 316.4344 352.84375 318.65314Q352.84375 320.45 352.29688 321.48126Q351.76562 322.5125 350.73438 323.09064Q349.70312 323.66876 348.46875 323.66876Q346.51562 323.66876 345.29688 322.41876Q344.09375 321.15314 344.09375 318.77814ZM345.71875 318.77814Q345.71875 320.575 346.5 321.46564Q347.28125 322.35626 348.46875 322.35626Q349.65625 322.35626 350.4375 321.46564Q351.21875 320.5594 351.21875 318.73126Q351.21875 316.9969 350.42188 316.10626Q349.64062 315.21564 348.46875 315.21564Q347.28125 315.21564 346.5 316.10626Q345.71875 316.9969 345.71875 318.77814ZM354.6875 323.45L354.6875 314.1219L356.10938 314.1219L356.10938 315.45Q357.14062 313.90314 359.07812 313.90314Q359.92188 313.90314 360.625 314.21564Q361.34375 314.5125 361.6875 315.0125Q362.04688 315.4969 362.1875 316.16876Q362.26562 316.60626 362.26562 317.71564L362.26562 323.45L360.6875 323.45L360.6875 317.77814Q360.6875 316.8094 360.5 316.325Q360.32812 315.84064 359.84375 315.5594Q359.375 315.27814 358.75 315.27814Q357.73438 315.27814 357.0 315.91876Q356.26562 316.5594 356.26562 318.35626L356.26562 323.45L354.6875 323.45ZM364.04688 320.66876L365.625 320.41876Q365.75 321.35626 366.34375 321.85626Q366.95312 322.35626 368.03125 322.35626Q369.125 322.35626 369.65625 321.91876Q370.1875 321.46564 370.1875 320.8719Q370.1875 320.34064 369.71875 320.02814Q369.39062 319.825 368.09375 319.4969Q366.35938 319.0594 365.6875 318.7469Q365.01562 318.41876 364.65625 317.85626Q364.3125 317.27814 364.3125 316.59064Q364.3125 315.96564 364.59375 315.4344Q364.89062 314.90314 365.375 314.5594Q365.75 314.27814 366.39062 314.09064Q367.03125 313.90314 367.75 313.90314Q368.85938 313.90314 369.6875 314.23126Q370.51562 314.54376 370.90625 315.09064Q371.3125 315.6219 371.45312 316.52814L369.90625 316.73126Q369.79688 316.0125 369.29688 315.60626Q368.79688 315.2 367.875 315.2Q366.78125 315.2 366.3125 315.5594Q365.84375 315.91876 365.84375 316.40314Q365.84375 316.71564 366.04688 316.96564Q366.23438 317.21564 366.64062 317.3875Q366.89062 317.46564 368.04688 317.79376Q369.71875 318.23126 370.375 318.52814Q371.04688 318.8094 371.42188 319.35626Q371.8125 319.90314 371.8125 320.7Q371.8125 321.4969 371.34375 322.2Q370.89062 322.90314 370.01562 323.29376Q369.14062 323.66876 368.04688 323.66876Q366.21875 323.66876 365.26562 322.91876Q364.3125 322.15314 364.04688 320.66876Z" fill-rule="nonzero"/><path fill="#ff00ff" d="M400.5 316.95C400.5 320.2637 397.81372 322.95 394.5 322.95C391.18628 322.95 388.5 320.2637 388.5 316.95C388.5 313.6363 391.18628 310.95 394.5 310.95C397.81372 310.95 400.5 313.6363 400.5 316.95Z" fill-rule="nonzero"/><path fill="#999999" d="M417.5625 321.9344L417.5625 323.45L409.04688 323.45Q409.03125 322.8719 409.23438 322.35626Q409.5625 321.48126 410.26562 320.6375Q410.98438 319.79376 412.34375 318.6844Q414.4375 316.96564 415.17188 315.96564Q415.92188 314.95 415.92188 314.0594Q415.92188 313.10626 415.25 312.46564Q414.57812 311.825 413.5 311.825Q412.34375 311.825 411.65625 312.5125Q410.98438 313.2 410.96875 314.40314L409.34375 314.23126Q409.51562 312.41876 410.59375 311.46564Q411.6875 310.5125 413.53125 310.5125Q415.375 310.5125 416.45312 311.54376Q417.54688 312.575 417.54688 314.09064Q417.54688 314.85626 417.21875 315.60626Q416.90625 316.35626 416.17188 317.1844Q415.4375 318.0125 413.73438 319.45Q412.3125 320.65314 411.90625 321.075Q411.5 321.4969 411.25 321.9344L417.5625 321.9344ZM419.25 320.075L420.90625 319.9344Q421.09375 321.15314 421.76562 321.7625Q422.4375 322.3719 423.39062 322.3719Q424.53125 322.3719 425.3125 321.5125Q426.10938 320.65314 426.10938 319.21564Q426.10938 317.8719 425.34375 317.09064Q424.59375 316.3094 423.35938 316.3094Q422.59375 316.3094 421.96875 316.65314Q421.35938 316.9969 421.01562 317.5594L419.53125 317.35626L420.78125 310.7469L427.1875 310.7469L427.1875 312.2469L422.04688 312.2469L421.34375 315.71564Q422.51562 314.90314 423.78125 314.90314Q425.46875 314.90314 426.625 316.075Q427.79688 317.2469 427.79688 319.075Q427.79688 320.825 426.76562 322.10626Q425.53125 323.66876 423.39062 323.66876Q421.625 323.66876 420.51562 322.6844Q419.40625 321.7 419.25 320.075ZM429.54688 313.65314Q429.54688 312.27814 430.23438 311.3094Q430.9375 310.34064 432.25 310.34064Q433.46875 310.34064 434.26562 311.21564Q435.0625 312.075 435.0625 313.7625Q435.0625 315.3875 434.25 316.27814Q433.45312 317.15314 432.26562 317.15314Q431.10938 317.15314 430.32812 316.29376Q429.54688 315.41876 429.54688 313.65314ZM432.29688 311.4344Q431.70312 311.4344 431.3125 311.95Q430.92188 312.45 430.92188 313.8094Q430.92188 315.0594 431.3125 315.5594Q431.71875 316.0594 432.29688 316.0594Q432.89062 316.0594 433.28125 315.5594Q433.67188 315.04376 433.67188 313.7Q433.67188 312.45 433.28125 311.95Q432.89062 311.4344 432.29688 311.4344ZM432.3125 323.91876L439.35938 310.34064L440.64062 310.34064L433.60938 323.91876L432.3125 323.91876ZM437.875 320.41876Q437.875 319.04376 438.5625 318.075Q439.26562 317.10626 440.59375 317.10626Q441.8125 317.10626 442.59375 317.98126Q443.39062 318.84064 443.39062 320.52814Q443.39062 322.15314 442.59375 323.04376Q441.79688 323.91876 440.60938 323.91876Q439.4375 323.91876 438.65625 323.04376Q437.875 322.16876 437.875 320.41876ZM440.64062 318.2Q440.04688 318.2 439.65625 318.71564Q439.26562 319.21564 439.26562 320.59064Q439.26562 321.8094 439.65625 322.325Q440.04688 322.84064 440.625 322.84064Q441.23438 322.84064 441.625 322.325Q442.01562 321.8094 442.01562 320.46564Q442.01562 319.21564 441.625 318.71564Q441.23438 318.2 440.64062 318.2ZM454.14062 322.02814L454.375 323.4344Q453.70312 323.575 453.17188 323.575Q452.3125 323.575 451.82812 323.3094Q451.35938 323.02814 451.17188 322.59064Q450.98438 322.1375 450.98438 320.71564L450.98438 315.34064L449.8125 315.34064L449.8125 314.1219L450.98438 314.1219L450.98438 311.8094L452.54688 310.85626L452.54688 314.1219L454.14062 314.1219L454.14062 315.34064L452.54688 315.34064L452.54688 320.8094Q452.54688 321.48126 452.625 321.6844Q452.71875 321.8719 452.90625 321.98126Q453.09375 322.09064 453.45312 322.09064Q453.70312 322.09064 454.14062 322.02814ZM455.09375 318.77814Q455.09375 316.1844 456.54688 314.9344Q457.75 313.90314 459.46875 313.90314Q461.40625 313.90314 462.625 315.16876Q463.84375 316.4344 463.84375 318.65314Q463.84375 320.45 463.29688 321.48126Q462.76562 322.5125 461.73438 323.09064Q460.70312 323.66876 459.46875 323.66876Q457.51562 323.66876 456.29688 322.41876Q455.09375 321.15314 455.09375 318.77814ZM456.71875 318.77814Q456.71875 320.575 457.5 321.46564Q458.28125 322.35626 459.46875 322.35626Q460.65625 322.35626 461.4375 321.46564Q462.21875 320.5594 462.21875 318.73126Q462.21875 316.9969 461.42188 316.10626Q460.64062 315.21564 459.46875 315.21564Q458.28125 315.21564 457.5 316.10626Q456.71875 316.9969 456.71875 318.77814ZM470.25 320.075L471.90625 319.9344Q472.09375 321.15314 472.76562 321.7625Q473.4375 322.3719 474.39062 322.3719Q475.53125 322.3719 476.3125 321.5125Q477.10938 320.65314 477.10938 319.21564Q477.10938 317.8719 476.34375 317.09064Q475.59375 316.3094 474.35938 316.3094Q473.59375 316.3094 472.96875 316.65314Q472.35938 316.9969 472.01562 317.5594L470.53125 317.35626L471.78125 310.7469L478.1875 310.7469L478.1875 312.2469L473.04688 312.2469L472.34375 315.71564Q473.51562 314.90314 474.78125 314.90314Q476.46875 314.90314 477.625 316.075Q478.79688 317.2469 478.79688 319.075Q478.79688 320.825 477.76562 322.10626Q476.53125 323.66876 474.39062 323.66876Q472.625 323.66876 471.51562 322.6844Q470.40625 321.7 470.25 320.075ZM480.25 317.09064Q480.25 314.8094 480.71875 313.41876Q481.1875 312.02814 482.10938 311.27814Q483.04688 310.5125 484.45312 310.5125Q485.48438 310.5125 486.26562 310.9344Q487.04688 311.34064 487.54688 312.1375Q488.0625 312.91876 488.35938 314.0594Q488.65625 315.1844 488.65625 317.09064Q488.65625 319.35626 488.1875 320.7625Q487.71875 322.15314 486.78125 322.91876Q485.85938 323.66876 484.45312 323.66876Q482.57812 323.66876 481.51562 322.34064Q480.25 320.73126 480.25 317.09064ZM481.875 317.09064Q481.875 320.2625 482.60938 321.325Q483.35938 322.3719 484.45312 322.3719Q485.53125 322.3719 486.28125 321.325Q487.03125 320.2625 487.03125 317.09064Q487.03125 313.91876 486.28125 312.8719Q485.53125 311.825 484.4375 311.825Q483.34375 311.825 482.6875 312.7469Q481.875 313.91876 481.875 317.09064ZM490.54688 313.65314Q490.54688 312.27814 491.23438 311.3094Q491.9375 310.34064 493.25 310.34064Q494.46875 310.34064 495.26562 311.21564Q496.0625 312.075 496.0625 313.7625Q496.0625 315.3875 495.25 316.27814Q494.45312 317.15314 493.26562 317.15314Q492.10938 317.15314 491.32812 316.29376Q490.54688 315.41876 490.54688 313.65314ZM493.29688 311.4344Q492.70312 311.4344 492.3125 311.95Q491.92188 312.45 491.92188 313.8094Q491.92188 315.0594 492.3125 315.5594Q492.71875 316.0594 493.29688 316.0594Q493.89062 316.0594 494.28125 315.5594Q494.67188 315.04376 494.67188 313.7Q494.67188 312.45 494.28125 311.95Q493.89062 311.4344 493.29688 311.4344ZM493.3125 323.91876L500.35938 310.34064L501.64062 310.34064L494.60938 323.91876L493.3125 323.91876ZM498.875 320.41876Q498.875 319.04376 499.5625 318.075Q500.26562 317.10626 501.59375 317.10626Q502.8125 317.10626 503.59375 317.98126Q504.39062 318.84064 504.39062 320.52814Q504.39062 322.15314 503.59375 323.04376Q502.79688 323.91876 501.60938 323.91876Q500.4375 323.91876 499.65625 323.04376Q498.875 322.16876 498.875 320.41876ZM501.64062 318.2Q501.04688 318.2 500.65625 318.71564Q500.26562 319.21564 500.26562 320.59064Q500.26562 321.8094 500.65625 322.325Q501.04688 322.84064 501.625 322.84064Q502.23438 322.84064 502.625 322.325Q503.01562 321.8094 503.01562 320.46564Q503.01562 319.21564 502.625 318.71564Q502.23438 318.2 501.64062 318.2ZM511.09375 318.77814Q511.09375 316.1844 512.5469 314.9344Q513.75 313.90314 515.46875 313.90314Q517.40625 313.90314 518.625 315.16876Q519.84375 316.4344 519.84375 318.65314Q519.84375 320.45 519.2969 321.48126Q518.7656 322.5125 517.7344 323.09064Q516.7031 323.66876 515.46875 323.66876Q513.5156 323.66876 512.2969 322.41876Q511.09375 321.15314 511.09375 318.77814ZM512.71875 318.77814Q512.71875 320.575 513.5 321.46564Q514.28125 322.35626 515.46875 322.35626Q516.65625 322.35626 517.4375 321.46564Q518.21875 320.5594 518.21875 318.73126Q518.21875 316.9969 517.4219 316.10626Q516.6406 315.21564 515.46875 315.21564Q514.28125 315.21564 513.5 316.10626Q512.71875 316.9969 512.71875 318.77814ZM522.0625 323.45L522.0625 315.34064L520.6719 315.34064L520.6719 314.1219L522.0625 314.1219L522.0625 313.1219Q522.0625 312.1844 522.2344 311.73126Q522.4531 311.10626 523.03125 310.73126Q523.6094 310.34064 524.65625 310.34064Q525.3125 310.34064 526.125 310.4969L525.8906 311.8875Q525.3906 311.79376 524.9531 311.79376Q524.2344 311.79376 523.9375 312.10626Q523.6406 312.40314 523.6406 313.2469L523.6406 314.1219L525.4531 314.1219L525.4531 315.34064L523.6406 315.34064L523.6406 323.45L522.0625 323.45ZM535.1719 323.45L535.1719 312.09064L530.9219 312.09064L530.9219 310.5594L541.1406 310.5594L541.1406 312.09064L536.875 312.09064L536.875 323.45L535.1719 323.45ZM550.0781 320.45L551.71875 320.65314Q551.3281 322.075 550.28125 322.8719Q549.2344 323.66876 547.6094 323.66876Q545.5625 323.66876 544.3594 322.40314Q543.15625 321.1375 543.15625 318.85626Q543.15625 316.5125 544.3594 315.21564Q545.5781 313.90314 547.5156 313.90314Q549.3906 313.90314 550.5781 315.1844Q551.7656 316.45 551.7656 318.7625Q551.7656 318.90314 551.75 319.1844L544.7969 319.1844Q544.875 320.73126 545.65625 321.54376Q546.4531 322.35626 547.6094 322.35626Q548.4844 322.35626 549.09375 321.90314Q549.71875 321.45 550.0781 320.45ZM544.875 317.8875L550.09375 317.8875Q549.9844 316.71564 549.5 316.1219Q548.7344 315.2 547.53125 315.2Q546.4531 315.2 545.7031 315.9344Q544.96875 316.66876 544.875 317.8875ZM553.65625 323.45L553.65625 310.5594L555.2344 310.5594L555.2344 323.45L553.65625 323.45ZM564.0781 320.45L565.71875 320.65314Q565.3281 322.075 564.28125 322.8719Q563.2344 323.66876 561.6094 323.66876Q559.5625 323.66876 558.3594 322.40314Q557.15625 321.1375 557.15625 318.85626Q557.15625 316.5125 558.3594 315.21564Q559.5781 313.90314 561.5156 313.90314Q563.3906 313.90314 564.5781 315.1844Q565.7656 316.45 565.7656 318.7625Q565.7656 318.90314 565.75 319.1844L558.7969 319.1844Q558.875 320.73126 559.65625 321.54376Q560.4531 322.35626 561.6094 322.35626Q562.4844 322.35626 563.09375 321.90314Q563.71875 321.45 564.0781 320.45ZM558.875 317.8875L564.09375 317.8875Q563.9844 316.71564 563.5 316.1219Q562.7344 315.2 561.53125 315.2Q560.4531 315.2 559.7031 315.9344Q558.96875 316.66876 558.875 317.8875ZM573.78125 320.02814L575.3281 320.23126Q575.0781 321.84064 574.03125 322.7625Q572.9844 323.66876 571.4531 323.66876Q569.53125 323.66876 568.3594 322.41876Q567.2031 321.15314 567.2031 318.825Q567.2031 317.3094 567.7031 316.1844Q568.2031 315.04376 569.21875 314.48126Q570.25 313.90314 571.4531 313.90314Q572.9844 313.90314 573.9375 314.6844Q574.90625 315.45 575.1875 316.85626L573.6406 317.09064Q573.4219 316.15314 572.8594 315.6844Q572.3125 315.2 571.5156 315.2Q570.3281 315.2 569.5781 316.0594Q568.8281 316.91876 568.8281 318.77814Q568.8281 320.65314 569.5469 321.5125Q570.2656 322.35626 571.4375 322.35626Q572.3594 322.35626 572.9844 321.79376Q573.6094 321.21564 573.78125 320.02814ZM576.09375 318.77814Q576.09375 316.1844 577.5469 314.9344Q578.75 313.90314 580.46875 313.90314Q582.40625 313.90314 583.625 315.16876Q584.84375 316.4344 584.84375 318.65314Q584.84375 320.45 584.2969 321.48126Q583.7656 322.5125 582.7344 323.09064Q581.7031 323.66876 580.46875 323.66876Q578.5156 323.66876 577.2969 322.41876Q576.09375 321.15314 576.09375 318.77814ZM577.71875 318.77814Q577.71875 320.575 578.5 321.46564Q579.28125 322.35626 580.46875 322.35626Q581.65625 322.35626 582.4375 321.46564Q583.21875 320.5594 583.21875 318.73126Q583.21875 316.9969 582.4219 316.10626Q581.6406 315.21564 580.46875 315.21564Q579.28125 315.21564 578.5 316.10626Q577.71875 316.9969 577.71875 318.77814ZM586.6875 323.45L586.6875 314.1219L588.1094 314.1219L588.1094 315.45Q589.1406 313.90314 591.0781 313.90314Q591.9219 313.90314 592.625 314.21564Q593.34375 314.5125 593.6875 315.0125Q594.0469 315.4969 594.1875 316.16876Q594.2656 316.60626 594.2656 317.71564L594.2656 323.45L592.6875 323.45L592.6875 317.77814Q592.6875 316.8094 592.5 316.325Q592.3281 315.84064 591.84375 315.5594Q591.375 315.27814 590.75 315.27814Q589.7344 315.27814 589.0 315.91876Q588.2656 316.5594 588.2656 318.35626L588.2656 323.45L586.6875 323.45ZM596.0469 320.66876L597.625 320.41876Q597.75 321.35626 598.34375 321.85626Q598.9531 322.35626 600.03125 322.35626Q601.125 322.35626 601.65625 321.91876Q602.1875 321.46564 602.1875 320.8719Q602.1875 320.34064 601.71875 320.02814Q601.3906 319.825 600.09375 319.4969Q598.3594 319.0594 597.6875 318.7469Q597.0156 318.41876 596.65625 317.85626Q596.3125 317.27814 596.3125 316.59064Q596.3125 315.96564 596.59375 315.4344Q596.8906 314.90314 597.375 314.5594Q597.75 314.27814 598.3906 314.09064Q599.03125 313.90314 599.75 313.90314Q600.8594 313.90314 601.6875 314.23126Q602.5156 314.54376 602.90625 315.09064Q603.3125 315.6219 603.4531 316.52814L601.90625 316.73126Q601.7969 316.0125 601.2969 315.60626Q600.7969 315.2 599.875 315.2Q598.78125 315.2 598.3125 315.5594Q597.84375 315.91876 597.84375 316.40314Q597.84375 316.71564 598.0469 316.96564Q598.2344 317.21564 598.6406 317.3875Q598.8906 317.46564 600.0469 317.79376Q601.71875 318.23126 602.375 318.52814Q603.0469 318.8094 603.4219 319.35626Q603.8125 319.90314 603.8125 320.7Q603.8125 321.4969 603.34375 322.2Q602.8906 322.90314 602.0156 323.29376Q601.1406 323.66876 600.0469 323.66876Q598.21875 323.66876 597.2656 322.91876Q596.3125 322.15314 596.0469 320.66876Z" fill-rule="nonzero"/><path fill="#88aaff" d="M135.0 341.95C135.0 345.2637 132.3137 347.95 129.0 347.95C125.686295 347.95 123.0 345.2637 123.0 341.95C123.0 338.6363 125.686295 335.95 129.0 335.95C132.3137 335.95 135.0 338.6363 135.0 341.95Z" fill-rule="nonzero"/><path fill="#999999" d="M143.75 345.075L145.40625 344.9344Q145.59375 346.15314 146.26562 346.7625Q146.9375 347.3719 147.89062 347.3719Q149.03125 347.3719 149.8125 346.5125Q150.60938 345.65314 150.60938 344.21564Q150.60938 342.8719 149.84375 342.09064Q149.09375 341.3094 147.85938 341.3094Q147.09375 341.3094 146.46875 341.65314Q145.85938 341.9969 145.51562 342.5594L144.03125 342.35626L145.28125 335.7469L151.6875 335.7469L151.6875 337.2469L146.54688 337.2469L145.84375 340.71564Q147.01562 339.90314 148.28125 339.90314Q149.96875 339.90314 151.125 341.075Q152.29688 342.2469 152.29688 344.075Q152.29688 345.825 151.26562 347.10626Q150.03125 348.66876 147.89062 348.66876Q146.125 348.66876 145.01562 347.6844Q143.90625 346.7 143.75 345.075ZM153.75 342.09064Q153.75 339.8094 154.21875 338.41876Q154.6875 337.02814 155.60938 336.27814Q156.54688 335.5125 157.95312 335.5125Q158.98438 335.5125 159.76562 335.9344Q160.54688 336.34064 161.04688 337.1375Q161.5625 337.91876 161.85938 339.0594Q162.15625 340.1844 162.15625 342.09064Q162.15625 344.35626 161.6875 345.7625Q161.21875 347.15314 160.28125 347.91876Q159.35938 348.66876 157.95312 348.66876Q156.07812 348.66876 155.01562 347.34064Q153.75 345.73126 153.75 342.09064ZM155.375 342.09064Q155.375 345.2625 156.10938 346.325Q156.85938 347.3719 157.95312 347.3719Q159.03125 347.3719 159.78125 346.325Q160.53125 345.2625 160.53125 342.09064Q160.53125 338.91876 159.78125 337.8719Q159.03125 336.825 157.9375 336.825Q156.84375 336.825 156.1875 337.7469Q155.375 338.91876 155.375 342.09064ZM164.04688 338.65314Q164.04688 337.27814 164.73438 336.3094Q165.4375 335.34064 166.75 335.34064Q167.96875 335.34064 168.76562 336.21564Q169.5625 337.075 169.5625 338.7625Q169.5625 340.3875 168.75 341.27814Q167.95312 342.15314 166.76562 342.15314Q165.60938 342.15314 164.82812 341.29376Q164.04688 340.41876 164.04688 338.65314ZM166.79688 336.4344Q166.20312 336.4344 165.8125 336.95Q165.42188 337.45 165.42188 338.8094Q165.42188 340.0594 165.8125 340.5594Q166.21875 341.0594 166.79688 341.0594Q167.39062 341.0594 167.78125 340.5594Q168.17188 340.04376 168.17188 338.7Q168.17188 337.45 167.78125 336.95Q167.39062 336.4344 166.79688 336.4344ZM166.8125 348.91876L173.85938 335.34064L175.14062 335.34064L168.10938 348.91876L166.8125 348.91876ZM172.375 345.41876Q172.375 344.04376 173.0625 343.075Q173.76562 342.10626 175.09375 342.10626Q176.3125 342.10626 177.09375 342.98126Q177.89062 343.84064 177.89062 345.52814Q177.89062 347.15314 177.09375 348.04376Q176.29688 348.91876 175.10938 348.91876Q173.9375 348.91876 173.15625 348.04376Q172.375 347.16876 172.375 345.41876ZM175.14062 343.2Q174.54688 343.2 174.15625 343.71564Q173.76562 344.21564 173.76562 345.59064Q173.76562 346.8094 174.15625 347.325Q174.54688 347.84064 175.125 347.84064Q175.73438 347.84064 176.125 347.325Q176.51562 346.8094 176.51562 345.46564Q176.51562 344.21564 176.125 343.71564Q175.73438 343.2 175.14062 343.2ZM188.64062 347.02814L188.875 348.4344Q188.20312 348.575 187.67188 348.575Q186.8125 348.575 186.32812 348.3094Q185.85938 348.02814 185.67188 347.59064Q185.48438 347.1375 185.48438 345.71564L185.48438 340.34064L184.3125 340.34064L184.3125 339.1219L185.48438 339.1219L185.48438 336.8094L187.04688 335.85626L187.04688 339.1219L188.64062 339.1219L188.64062 340.34064L187.04688 340.34064L187.04688 345.8094Q187.04688 346.48126 187.125 346.6844Q187.21875 346.8719 187.40625 346.98126Q187.59375 347.09064 187.95312 347.09064Q188.20312 347.09064 188.64062 347.02814ZM189.59375 343.77814Q189.59375 341.1844 191.04688 339.9344Q192.25 338.90314 193.96875 338.90314Q195.90625 338.90314 197.125 340.16876Q198.34375 341.4344 198.34375 343.65314Q198.34375 345.45 197.79688 346.48126Q197.26562 347.5125 196.23438 348.09064Q195.20312 348.66876 193.96875 348.66876Q192.01562 348.66876 190.79688 347.41876Q189.59375 346.15314 189.59375 343.77814ZM191.21875 343.77814Q191.21875 345.575 192.0 346.46564Q192.78125 347.35626 193.96875 347.35626Q195.15625 347.35626 195.9375 346.46564Q196.71875 345.5594 196.71875 343.73126Q196.71875 341.9969 195.92188 341.10626Q195.14062 340.21564 193.96875 340.21564Q192.78125 340.21564 192.0 341.10626Q191.21875 341.9969 191.21875 343.77814ZM204.85938 337.2469L204.85938 335.73126L213.1875 335.73126L213.1875 336.96564Q211.96875 338.27814 210.75 340.45Q209.54688 342.60626 208.89062 344.90314Q208.40625 346.52814 208.28125 348.45L206.65625 348.45Q206.6875 346.9344 207.25 344.77814Q207.82812 342.6219 208.89062 340.6219Q209.95312 338.6219 211.15625 337.2469L204.85938 337.2469ZM214.75 345.075L216.40625 344.9344Q216.59375 346.15314 217.26562 346.7625Q217.9375 347.3719 218.89062 347.3719Q220.03125 347.3719 220.8125 346.5125Q221.60938 345.65314 221.60938 344.21564Q221.60938 342.8719 220.84375 342.09064Q220.09375 341.3094 218.85938 341.3094Q218.09375 341.3094 217.46875 341.65314Q216.85938 341.9969 216.51562 342.5594L215.03125 342.35626L216.28125 335.7469L222.6875 335.7469L222.6875 337.2469L217.54688 337.2469L216.84375 340.71564Q218.01562 339.90314 219.28125 339.90314Q220.96875 339.90314 222.125 341.075Q223.29688 342.2469 223.29688 344.075Q223.29688 345.825 222.26562 347.10626Q221.03125 348.66876 218.89062 348.66876Q217.125 348.66876 216.01562 347.6844Q214.90625 346.7 214.75 345.075ZM225.04688 338.65314Q225.04688 337.27814 225.73438 336.3094Q226.4375 335.34064 227.75 335.34064Q228.96875 335.34064 229.76562 336.21564Q230.5625 337.075 230.5625 338.7625Q230.5625 340.3875 229.75 341.27814Q228.95312 342.15314 227.76562 342.15314Q226.60938 342.15314 225.82812 341.29376Q225.04688 340.41876 225.04688 338.65314ZM227.79688 336.4344Q227.20312 336.4344 226.8125 336.95Q226.42188 337.45 226.42188 338.8094Q226.42188 340.0594 226.8125 340.5594Q227.21875 341.0594 227.79688 341.0594Q228.39062 341.0594 228.78125 340.5594Q229.17188 340.04376 229.17188 338.7Q229.17188 337.45 228.78125 336.95Q228.39062 336.4344 227.79688 336.4344ZM227.8125 348.91876L234.85938 335.34064L236.14062 335.34064L229.10938 348.91876L227.8125 348.91876ZM233.375 345.41876Q233.375 344.04376 234.0625 343.075Q234.76562 342.10626 236.09375 342.10626Q237.3125 342.10626 238.09375 342.98126Q238.89062 343.84064 238.89062 345.52814Q238.89062 347.15314 238.09375 348.04376Q237.29688 348.91876 236.10938 348.91876Q234.9375 348.91876 234.15625 348.04376Q233.375 347.16876 233.375 345.41876ZM236.14062 343.2Q235.54688 343.2 235.15625 343.71564Q234.76562 344.21564 234.76562 345.59064Q234.76562 346.8094 235.15625 347.325Q235.54688 347.84064 236.125 347.84064Q236.73438 347.84064 237.125 347.325Q237.51562 346.8094 237.51562 345.46564Q237.51562 344.21564 237.125 343.71564Q236.73438 343.2 236.14062 343.2ZM245.59375 343.77814Q245.59375 341.1844 247.04688 339.9344Q248.25 338.90314 249.96875 338.90314Q251.90625 338.90314 253.125 340.16876Q254.34375 341.4344 254.34375 343.65314Q254.34375 345.45 253.79688 346.48126Q253.26562 347.5125 252.23438 348.09064Q251.20312 348.66876 249.96875 348.66876Q248.01562 348.66876 246.79688 347.41876Q245.59375 346.15314 245.59375 343.77814ZM247.21875 343.77814Q247.21875 345.575 248.0 346.46564Q248.78125 347.35626 249.96875 347.35626Q251.15625 347.35626 251.9375 346.46564Q252.71875 345.5594 252.71875 343.73126Q252.71875 341.9969 251.92188 341.10626Q251.14062 340.21564 249.96875 340.21564Q248.78125 340.21564 248.0 341.10626Q247.21875 341.9969 247.21875 343.77814ZM256.5625 348.45L256.5625 340.34064L255.17188 340.34064L255.17188 339.1219L256.5625 339.1219L256.5625 338.1219Q256.5625 337.1844 256.73438 336.73126Q256.95312 336.10626 257.53125 335.73126Q258.10938 335.34064 259.15625 335.34064Q259.8125 335.34064 260.625 335.4969L260.39062 336.8875Q259.89062 336.79376 259.45312 336.79376Q258.73438 336.79376 258.4375 337.10626Q258.14062 337.40314 258.14062 338.2469L258.14062 339.1219L259.95312 339.1219L259.95312 340.34064L258.14062 340.34064L258.14062 348.45L256.5625 348.45ZM269.67188 348.45L269.67188 337.09064L265.42188 337.09064L265.42188 335.5594L275.64062 335.5594L275.64062 337.09064L271.375 337.09064L271.375 348.45L269.67188 348.45ZM284.57812 345.45L286.21875 345.65314Q285.82812 347.075 284.78125 347.8719Q283.73438 348.66876 282.10938 348.66876Q280.0625 348.66876 278.85938 347.40314Q277.65625 346.1375 277.65625 343.85626Q277.65625 341.5125 278.85938 340.21564Q280.07812 338.90314 282.01562 338.90314Q283.89062 338.90314 285.07812 340.1844Q286.26562 341.45 286.26562 343.7625Q286.26562 343.90314 286.25 344.1844L279.29688 344.1844Q279.375 345.73126 280.15625 346.54376Q280.95312 347.35626 282.10938 347.35626Q282.98438 347.35626 283.59375 346.90314Q284.21875 346.45 284.57812 345.45ZM279.375 342.8875L284.59375 342.8875Q284.48438 341.71564 284.0 341.1219Q283.23438 340.2 282.03125 340.2Q280.95312 340.2 280.20312 340.9344Q279.46875 341.66876 279.375 342.8875ZM288.15625 348.45L288.15625 335.5594L289.73438 335.5594L289.73438 348.45L288.15625 348.45ZM298.57812 345.45L300.21875 345.65314Q299.82812 347.075 298.78125 347.8719Q297.73438 348.66876 296.10938 348.66876Q294.0625 348.66876 292.85938 347.40314Q291.65625 346.1375 291.65625 343.85626Q291.65625 341.5125 292.85938 340.21564Q294.07812 338.90314 296.01562 338.90314Q297.89062 338.90314 299.07812 340.1844Q300.26562 341.45 300.26562 343.7625Q300.26562 343.90314 300.25 344.1844L293.29688 344.1844Q293.375 345.73126 294.15625 346.54376Q294.95312 347.35626 296.10938 347.35626Q296.98438 347.35626 297.59375 346.90314Q298.21875 346.45 298.57812 345.45ZM293.375 342.8875L298.59375 342.8875Q298.48438 341.71564 298.0 341.1219Q297.23438 340.2 296.03125 340.2Q294.95312 340.2 294.20312 340.9344Q293.46875 341.66876 293.375 342.8875ZM308.28125 345.02814L309.82812 345.23126Q309.57812 346.84064 308.53125 347.7625Q307.48438 348.66876 305.95312 348.66876Q304.03125 348.66876 302.85938 347.41876Q301.70312 346.15314 301.70312 343.825Q301.70312 342.3094 302.20312 341.1844Q302.70312 340.04376 303.71875 339.48126Q304.75 338.90314 305.95312 338.90314Q307.48438 338.90314 308.4375 339.6844Q309.40625 340.45 309.6875 341.85626L308.14062 342.09064Q307.92188 341.15314 307.35938 340.6844Q306.8125 340.2 306.01562 340.2Q304.82812 340.2 304.07812 341.0594Q303.32812 341.91876 303.32812 343.77814Q303.32812 345.65314 304.04688 346.5125Q304.76562 347.35626 305.9375 347.35626Q306.85938 347.35626 307.48438 346.79376Q308.10938 346.21564 308.28125 345.02814ZM310.59375 343.77814Q310.59375 341.1844 312.04688 339.9344Q313.25 338.90314 314.96875 338.90314Q316.90625 338.90314 318.125 340.16876Q319.34375 341.4344 319.34375 343.65314Q319.34375 345.45 318.79688 346.48126Q318.26562 347.5125 317.23438 348.09064Q316.20312 348.66876 314.96875 348.66876Q313.01562 348.66876 311.79688 347.41876Q310.59375 346.15314 310.59375 343.77814ZM312.21875 343.77814Q312.21875 345.575 313.0 346.46564Q313.78125 347.35626 314.96875 347.35626Q316.15625 347.35626 316.9375 346.46564Q317.71875 345.5594 317.71875 343.73126Q317.71875 341.9969 316.92188 341.10626Q316.14062 340.21564 314.96875 340.21564Q313.78125 340.21564 313.0 341.10626Q312.21875 341.9969 312.21875 343.77814ZM321.1875 348.45L321.1875 339.1219L322.60938 339.1219L322.60938 340.45Q323.64062 338.90314 325.57812 338.90314Q326.42188 338.90314 327.125 339.21564Q327.84375 339.5125 328.1875 340.0125Q328.54688 340.4969 328.6875 341.16876Q328.76562 341.60626 328.76562 342.71564L328.76562 348.45L327.1875 348.45L327.1875 342.77814Q327.1875 341.8094 327.0 341.325Q326.82812 340.84064 326.34375 340.5594Q325.875 340.27814 325.25 340.27814Q324.23438 340.27814 323.5 340.91876Q322.76562 341.5594 322.76562 343.35626L322.76562 348.45L321.1875 348.45ZM330.54688 345.66876L332.125 345.41876Q332.25 346.35626 332.84375 346.85626Q333.45312 347.35626 334.53125 347.35626Q335.625 347.35626 336.15625 346.91876Q336.6875 346.46564 336.6875 345.8719Q336.6875 345.34064 336.21875 345.02814Q335.89062 344.825 334.59375 344.4969Q332.85938 344.0594 332.1875 343.7469Q331.51562 343.41876 331.15625 342.85626Q330.8125 342.27814 330.8125 341.59064Q330.8125 340.96564 331.09375 340.4344Q331.39062 339.90314 331.875 339.5594Q332.25 339.27814 332.89062 339.09064Q333.53125 338.90314 334.25 338.90314Q335.35938 338.90314 336.1875 339.23126Q337.01562 339.54376 337.40625 340.09064Q337.8125 340.6219 337.95312 341.52814L336.40625 341.73126Q336.29688 341.0125 335.79688 340.60626Q335.29688 340.2 334.375 340.2Q333.28125 340.2 332.8125 340.5594Q332.34375 340.91876 332.34375 341.40314Q332.34375 341.71564 332.54688 341.96564Q332.73438 342.21564 333.14062 342.3875Q333.39062 342.46564 334.54688 342.79376Q336.21875 343.23126 336.875 343.52814Q337.54688 343.8094 337.92188 344.35626Q338.3125 344.90314 338.3125 345.7Q338.3125 346.4969 337.84375 347.2Q337.39062 347.90314 336.51562 348.29376Q335.64062 348.66876 334.54688 348.66876Q332.71875 348.66876 331.76562 347.91876Q330.8125 347.15314 330.54688 345.66876Z" fill-rule="nonzero"/><path fill="#76b900" d="M367.0 341.95C367.0 345.2637 364.31372 347.95 361.0 347.95C357.68628 347.95 355.0 345.2637 355.0 341.95C355.0 338.6363 357.68628 335.95 361.0 335.95C364.31372 335.95 367.0 338.6363 367.0 341.95Z" fill-rule="nonzero"/><path fill="#999999" d="M384.51562 342.8094L375.98438 346.46564L375.98438 344.8875L382.75 342.09064L375.98438 339.3094L375.98438 337.73126L384.51562 341.34064L384.51562 342.8094ZM395.51562 340.8719L387.0 340.8719L387.0 339.40314L395.51562 339.40314L395.51562 340.8719ZM395.51562 344.77814L387.0 344.77814L387.0 343.3094L395.51562 343.3094L395.51562 344.77814ZM397.85938 337.2469L397.85938 335.73126L406.1875 335.73126L406.1875 336.96564Q404.96875 338.27814 403.75 340.45Q402.54688 342.60626 401.89062 344.90314Q401.40625 346.52814 401.28125 348.45L399.65625 348.45Q399.6875 346.9344 400.25 344.77814Q400.82812 342.6219 401.89062 340.6219Q402.95312 338.6219 404.15625 337.2469L397.85938 337.2469ZM407.75 345.075L409.40625 344.9344Q409.59375 346.15314 410.26562 346.7625Q410.9375 347.3719 411.89062 347.3719Q413.03125 347.3719 413.8125 346.5125Q414.60938 345.65314 414.60938 344.21564Q414.60938 342.8719 413.84375 342.09064Q413.09375 341.3094 411.85938 341.3094Q411.09375 341.3094 410.46875 341.65314Q409.85938 341.9969 409.51562 342.5594L408.03125 342.35626L409.28125 335.7469L415.6875 335.7469L415.6875 337.2469L410.54688 337.2469L409.84375 340.71564Q411.01562 339.90314 412.28125 339.90314Q413.96875 339.90314 415.125 341.075Q416.29688 342.2469 416.29688 344.075Q416.29688 345.825 415.26562 347.10626Q414.03125 348.66876 411.89062 348.66876Q410.125 348.66876 409.01562 347.6844Q407.90625 346.7 407.75 345.075ZM418.04688 338.65314Q418.04688 337.27814 418.73438 336.3094Q419.4375 335.34064 420.75 335.34064Q421.96875 335.34064 422.76562 336.21564Q423.5625 337.075 423.5625 338.7625Q423.5625 340.3875 422.75 341.27814Q421.95312 342.15314 420.76562 342.15314Q419.60938 342.15314 418.82812 341.29376Q418.04688 340.41876 418.04688 338.65314ZM420.79688 336.4344Q420.20312 336.4344 419.8125 336.95Q419.42188 337.45 419.42188 338.8094Q419.42188 340.0594 419.8125 340.5594Q420.21875 341.0594 420.79688 341.0594Q421.39062 341.0594 421.78125 340.5594Q422.17188 340.04376 422.17188 338.7Q422.17188 337.45 421.78125 336.95Q421.39062 336.4344 420.79688 336.4344ZM420.8125 348.91876L427.85938 335.34064L429.14062 335.34064L422.10938 348.91876L420.8125 348.91876ZM426.375 345.41876Q426.375 344.04376 427.0625 343.075Q427.76562 342.10626 429.09375 342.10626Q430.3125 342.10626 431.09375 342.98126Q431.89062 343.84064 431.89062 345.52814Q431.89062 347.15314 431.09375 348.04376Q430.29688 348.91876 429.10938 348.91876Q427.9375 348.91876 427.15625 348.04376Q426.375 347.16876 426.375 345.41876ZM429.14062 343.2Q428.54688 343.2 428.15625 343.71564Q427.76562 344.21564 427.76562 345.59064Q427.76562 346.8094 428.15625 347.325Q428.54688 347.84064 429.125 347.84064Q429.73438 347.84064 430.125 347.325Q430.51562 346.8094 430.51562 345.46564Q430.51562 344.21564 430.125 343.71564Q429.73438 343.2 429.14062 343.2ZM438.59375 343.77814Q438.59375 341.1844 440.04688 339.9344Q441.25 338.90314 442.96875 338.90314Q444.90625 338.90314 446.125 340.16876Q447.34375 341.4344 447.34375 343.65314Q447.34375 345.45 446.79688 346.48126Q446.26562 347.5125 445.23438 348.09064Q444.20312 348.66876 442.96875 348.66876Q441.01562 348.66876 439.79688 347.41876Q438.59375 346.15314 438.59375 343.77814ZM440.21875 343.77814Q440.21875 345.575 441.0 346.46564Q441.78125 347.35626 442.96875 347.35626Q444.15625 347.35626 444.9375 346.46564Q445.71875 345.5594 445.71875 343.73126Q445.71875 341.9969 444.92188 341.10626Q444.14062 340.21564 442.96875 340.21564Q441.78125 340.21564 441.0 341.10626Q440.21875 341.9969 440.21875 343.77814ZM449.5625 348.45L449.5625 340.34064L448.17188 340.34064L448.17188 339.1219L449.5625 339.1219L449.5625 338.1219Q449.5625 337.1844 449.73438 336.73126Q449.95312 336.10626 450.53125 335.73126Q451.10938 335.34064 452.15625 335.34064Q452.8125 335.34064 453.625 335.4969L453.39062 336.8875Q452.89062 336.79376 452.45312 336.79376Q451.73438 336.79376 451.4375 337.10626Q451.14062 337.40314 451.14062 338.2469L451.14062 339.1219L452.95312 339.1219L452.95312 340.34064L451.14062 340.34064L451.14062 348.45L449.5625 348.45ZM462.67188 348.45L462.67188 337.09064L458.42188 337.09064L458.42188 335.5594L468.64062 335.5594L468.64062 337.09064L464.375 337.09064L464.375 348.45L462.67188 348.45ZM477.57812 345.45L479.21875 345.65314Q478.82812 347.075 477.78125 347.8719Q476.73438 348.66876 475.10938 348.66876Q473.0625 348.66876 471.85938 347.40314Q470.65625 346.1375 470.65625 343.85626Q470.65625 341.5125 471.85938 340.21564Q473.07812 338.90314 475.01562 338.90314Q476.89062 338.90314 478.07812 340.1844Q479.26562 341.45 479.26562 343.7625Q479.26562 343.90314 479.25 344.1844L472.29688 344.1844Q472.375 345.73126 473.15625 346.54376Q473.95312 347.35626 475.10938 347.35626Q475.98438 347.35626 476.59375 346.90314Q477.21875 346.45 477.57812 345.45ZM472.375 342.8875L477.59375 342.8875Q477.48438 341.71564 477.0 341.1219Q476.23438 340.2 475.03125 340.2Q473.95312 340.2 473.20312 340.9344Q472.46875 341.66876 472.375 342.8875ZM481.15625 348.45L481.15625 335.5594L482.73438 335.5594L482.73438 348.45L481.15625 348.45ZM491.57812 345.45L493.21875 345.65314Q492.82812 347.075 491.78125 347.8719Q490.73438 348.66876 489.10938 348.66876Q487.0625 348.66876 485.85938 347.40314Q484.65625 346.1375 484.65625 343.85626Q484.65625 341.5125 485.85938 340.21564Q487.07812 338.90314 489.01562 338.90314Q490.89062 338.90314 492.07812 340.1844Q493.26562 341.45 493.26562 343.7625Q493.26562 343.90314 493.25 344.1844L486.29688 344.1844Q486.375 345.73126 487.15625 346.54376Q487.95312 347.35626 489.10938 347.35626Q489.98438 347.35626 490.59375 346.90314Q491.21875 346.45 491.57812 345.45ZM486.375 342.8875L491.59375 342.8875Q491.48438 341.71564 491.0 341.1219Q490.23438 340.2 489.03125 340.2Q487.95312 340.2 487.20312 340.9344Q486.46875 341.66876 486.375 342.8875ZM501.28125 345.02814L502.82812 345.23126Q502.57812 346.84064 501.53125 347.7625Q500.48438 348.66876 498.95312 348.66876Q497.03125 348.66876 495.85938 347.41876Q494.70312 346.15314 494.70312 343.825Q494.70312 342.3094 495.20312 341.1844Q495.70312 340.04376 496.71875 339.48126Q497.75 338.90314 498.95312 338.90314Q500.48438 338.90314 501.4375 339.6844Q502.40625 340.45 502.6875 341.85626L501.14062 342.09064Q500.92188 341.15314 500.35938 340.6844Q499.8125 340.2 499.01562 340.2Q497.82812 340.2 497.07812 341.0594Q496.32812 341.91876 496.32812 343.77814Q496.32812 345.65314 497.04688 346.5125Q497.76562 347.35626 498.9375 347.35626Q499.85938 347.35626 500.48438 346.79376Q501.10938 346.21564 501.28125 345.02814ZM503.59375 343.77814Q503.59375 341.1844 505.04688 339.9344Q506.25 338.90314 507.96875 338.90314Q509.90625 338.90314 511.125 340.16876Q512.34375 341.4344 512.34375 343.65314Q512.34375 345.45 511.79688 346.48126Q511.26562 347.5125 510.23438 348.09064Q509.20312 348.66876 507.96875 348.66876Q506.01562 348.66876 504.79688 347.41876Q503.59375 346.15314 503.59375 343.77814ZM505.21875 343.77814Q505.21875 345.575 506.0 346.46564Q506.78125 347.35626 507.96875 347.35626Q509.15625 347.35626 509.9375 346.46564Q510.71875 345.5594 510.71875 343.73126Q510.71875 341.9969 509.92188 341.10626Q509.14062 340.21564 507.96875 340.21564Q506.78125 340.21564 506.0 341.10626Q505.21875 341.9969 505.21875 343.77814ZM514.1875 348.45L514.1875 339.1219L515.6094 339.1219L515.6094 340.45Q516.6406 338.90314 518.5781 338.90314Q519.4219 338.90314 520.125 339.21564Q520.84375 339.5125 521.1875 340.0125Q521.5469 340.4969 521.6875 341.16876Q521.7656 341.60626 521.7656 342.71564L521.7656 348.45L520.1875 348.45L520.1875 342.77814Q520.1875 341.8094 520.0 341.325Q519.8281 340.84064 519.34375 340.5594Q518.875 340.27814 518.25 340.27814Q517.2344 340.27814 516.5 340.91876Q515.7656 341.5594 515.7656 343.35626L515.7656 348.45L514.1875 348.45ZM523.5469 345.66876L525.125 345.41876Q525.25 346.35626 525.84375 346.85626Q526.4531 347.35626 527.53125 347.35626Q528.625 347.35626 529.15625 346.91876Q529.6875 346.46564 529.6875 345.8719Q529.6875 345.34064 529.21875 345.02814Q528.8906 344.825 527.59375 344.4969Q525.8594 344.0594 525.1875 343.7469Q524.5156 343.41876 524.15625 342.85626Q523.8125 342.27814 523.8125 341.59064Q523.8125 340.96564 524.09375 340.4344Q524.3906 339.90314 524.875 339.5594Q525.25 339.27814 525.8906 339.09064Q526.53125 338.90314 527.25 338.90314Q528.3594 338.90314 529.1875 339.23126Q530.0156 339.54376 530.40625 340.09064Q530.8125 340.6219 530.9531 341.52814L529.40625 341.73126Q529.2969 341.0125 528.7969 340.60626Q528.2969 340.2 527.375 340.2Q526.28125 340.2 525.8125 340.5594Q525.34375 340.91876 525.34375 341.40314Q525.34375 341.71564 525.5469 341.96564Q525.7344 342.21564 526.1406 342.3875Q526.3906 342.46564 527.5469 342.79376Q529.21875 343.23126 529.875 343.52814Q530.5469 343.8094 530.9219 344.35626Q531.3125 344.90314 531.3125 345.7Q531.3125 346.4969 530.84375 347.2Q530.3906 347.90314 529.5156 348.29376Q528.6406 348.66876 527.5469 348.66876Q525.71875 348.66876 524.7656 347.91876Q523.8125 347.15314 523.5469 345.66876Z" fill-rule="nonzero"/><path fill="#999999" d="M50.765625 40.55L50.765625 23.3625L53.03125 23.3625L53.03125 38.51875L61.5 38.51875L61.5 40.55L50.765625 40.55ZM63.59375 25.8L63.59375 23.3625L65.703125 23.3625L65.703125 25.8L63.59375 25.8ZM63.59375 40.55L63.59375 28.096874L65.703125 28.096874L65.703125 40.55L63.59375 40.55ZM70.53125 40.55L68.578125 40.55L68.578125 23.3625L70.6875 23.3625L70.6875 29.503124Q72.015625 27.815624 74.09375 27.815624Q75.234375 27.815624 76.265625 28.284374Q77.296875 28.753124 77.953125 29.596874Q78.609375 30.425 78.984375 31.6125Q79.359375 32.784374 79.359375 34.14375Q79.359375 37.33125 77.78125 39.08125Q76.203125 40.83125 73.984375 40.83125Q71.78125 40.83125 70.53125 38.9875L70.53125 40.55ZM70.5 34.2375Q70.5 36.471874 71.109375 37.471874Q72.109375 39.096874 73.8125 39.096874Q75.1875 39.096874 76.1875 37.89375Q77.203125 36.690624 77.203125 34.315624Q77.203125 31.878124 76.234375 30.721874Q75.28125 29.55 73.90625 29.55Q72.515625 29.55 71.5 30.753124Q70.5 31.95625 70.5 34.2375ZM82.5625 40.55L82.5625 28.096874L84.453125 28.096874L84.453125 29.9875Q85.1875 28.659374 85.796875 28.2375Q86.421875 27.815624 87.15625 27.815624Q88.21875 27.815624 89.328125 28.503124L88.59375 30.45625Q87.828125 30.003124 87.046875 30.003124Q86.359375 30.003124 85.796875 30.425Q85.25 30.83125 85.015625 31.565624Q84.671875 32.690624 84.671875 34.034374L84.671875 40.55L82.5625 40.55ZM98.703125 39.01875Q97.53125 40.003124 96.4375 40.425Q95.359375 40.83125 94.125 40.83125Q92.078125 40.83125 90.96875 39.83125Q89.875 38.83125 89.875 37.26875Q89.875 36.346874 90.28125 35.596874Q90.703125 34.846874 91.375 34.39375Q92.046875 33.925 92.890625 33.690624Q93.515625 33.534374 94.765625 33.378124Q97.328125 33.065624 98.53125 32.64375Q98.546875 32.221874 98.546875 32.096874Q98.546875 30.815624 97.9375 30.284374Q97.140625 29.565624 95.546875 29.565624Q94.046875 29.565624 93.34375 30.096874Q92.640625 30.6125 92.296875 31.940624L90.234375 31.659374Q90.515625 30.33125 91.15625 29.51875Q91.796875 28.70625 93.015625 28.26875Q94.234375 27.815624 95.84375 27.815624Q97.4375 27.815624 98.4375 28.190624Q99.4375 28.565624 99.90625 29.14375Q100.375 29.70625 100.5625 30.58125Q100.65625 31.1125 100.65625 32.51875L100.65625 35.33125Q100.65625 38.26875 100.796875 39.05Q100.9375 39.83125 101.328125 40.55L99.125 40.55Q98.796875 39.89375 98.703125 39.01875ZM98.53125 34.3Q97.375 34.76875 95.078125 35.096874Q93.78125 35.284374 93.234375 35.51875Q92.703125 35.753124 92.40625 36.20625Q92.125 36.659374 92.125 37.20625Q92.125 38.05 92.75 38.6125Q93.390625 39.175 94.625 39.175Q95.84375 39.175 96.796875 38.64375Q97.75 38.1125 98.1875 37.190624Q98.53125 36.471874 98.53125 35.08125L98.53125 34.3ZM103.5625 40.55L103.5625 28.096874L105.453125 28.096874L105.453125 29.9875Q106.1875 28.659374 106.796875 28.2375Q107.421875 27.815624 108.15625 27.815624Q109.21875 27.815624 110.328125 28.503124L109.59375 30.45625Q108.828125 30.003124 108.046875 30.003124Q107.359375 30.003124 106.796875 30.425Q106.25 30.83125 106.015625 31.565624Q105.671875 32.690624 105.671875 34.034374L105.671875 40.55L103.5625 40.55ZM111.484375 45.346874L111.25 43.3625Q111.953125 43.55 112.46875 43.55Q113.171875 43.55 113.59375 43.315624Q114.015625 43.08125 114.28125 42.659374Q114.484375 42.346874 114.921875 41.096874Q114.984375 40.909374 115.109375 40.58125L110.390625 28.096874L112.65625 28.096874L115.25 35.315624Q115.75 36.675 116.15625 38.190624Q116.515625 36.7375 117.015625 35.3625L119.6875 28.096874L121.796875 28.096874L117.0625 40.76875Q116.296875 42.815624 115.875 43.58125Q115.3125 44.628124 114.578125 45.1125Q113.859375 45.596874 112.84375 45.596874Q112.234375 45.596874 111.484375 45.346874ZM130.90625 40.55L130.90625 23.3625L143.32812 23.3625L143.32812 25.39375L133.17188 25.39375L133.17188 30.659374L142.67188 30.659374L142.67188 32.675L133.17188 32.675L133.17188 38.51875L143.71875 38.51875L143.71875 40.55L130.90625 40.55ZM150.04688 40.55L145.3125 28.096874L147.53125 28.096874L150.20312 35.55Q150.64062 36.76875 151.0 38.065624Q151.28125 37.08125 151.78125 35.690624L154.54688 28.096874L156.71875 28.096874L152.01562 40.55L150.04688 40.55ZM156.79688 34.33125Q156.79688 30.8625 158.71875 29.20625Q160.32812 27.815624 162.64062 27.815624Q165.20312 27.815624 166.82812 29.503124Q168.45312 31.190624 168.45312 34.14375Q168.45312 36.55 167.73438 37.925Q167.01562 39.3 165.64062 40.065624Q164.26562 40.83125 162.64062 40.83125Q160.01562 40.83125 158.40625 39.159374Q156.79688 37.471874 156.79688 34.33125ZM158.96875 34.33125Q158.96875 36.721874 160.0 37.909374Q161.04688 39.096874 162.64062 39.096874Q164.20312 39.096874 165.25 37.909374Q166.29688 36.70625 166.29688 34.253124Q166.29688 31.940624 165.23438 30.753124Q164.1875 29.565624 162.64062 29.565624Q161.04688 29.565624 160.0 30.753124Q158.96875 31.940624 158.96875 34.33125ZM170.53125 40.55L170.53125 23.3625L172.64062 23.3625L172.64062 40.55L170.53125 40.55ZM184.73438 40.55L184.73438 38.721874Q183.28125 40.83125 180.79688 40.83125Q179.6875 40.83125 178.73438 40.409374Q177.78125 39.9875 177.3125 39.346874Q176.85938 38.70625 176.67188 37.784374Q176.53125 37.159374 176.53125 35.815624L176.53125 28.096874L178.64062 28.096874L178.64062 35.003124Q178.64062 36.659374 178.78125 37.2375Q178.96875 38.065624 179.60938 38.55Q180.26562 39.01875 181.21875 39.01875Q182.15625 39.01875 182.98438 38.534374Q183.82812 38.034374 184.17188 37.20625Q184.51562 36.3625 184.51562 34.76875L184.51562 28.096874L186.625 28.096874L186.625 40.55L184.73438 40.55ZM195.1875 38.659374L195.5 40.51875Q194.60938 40.721874 193.90625 40.721874Q192.75 40.721874 192.10938 40.3625Q191.48438 39.9875 191.21875 39.39375Q190.96875 38.8 190.96875 36.909374L190.96875 29.7375L189.42188 29.7375L189.42188 28.096874L190.96875 28.096874L190.96875 25.01875L193.0625 23.753124L193.0625 28.096874L195.1875 28.096874L195.1875 29.7375L193.0625 29.7375L193.0625 37.01875Q193.0625 37.925 193.17188 38.190624Q193.29688 38.440624 193.54688 38.596874Q193.79688 38.7375 194.26562 38.7375Q194.60938 38.7375 195.1875 38.659374ZM197.59375 25.8L197.59375 23.3625L199.70312 23.3625L199.70312 25.8L197.59375 25.8ZM197.59375 40.55L197.59375 28.096874L199.70312 28.096874L199.70312 40.55L197.59375 40.55ZM201.79688 34.33125Q201.79688 30.8625 203.71875 29.20625Q205.32812 27.815624 207.64062 27.815624Q210.20312 27.815624 211.82812 29.503124Q213.45312 31.190624 213.45312 34.14375Q213.45312 36.55 212.73438 37.925Q212.01562 39.3 210.64062 40.065624Q209.26562 40.83125 207.64062 40.83125Q205.01562 40.83125 203.40625 39.159374Q201.79688 37.471874 201.79688 34.33125ZM203.96875 34.33125Q203.96875 36.721874 205.0 37.909374Q206.04688 39.096874 207.64062 39.096874Q209.20312 39.096874 210.25 37.909374Q211.29688 36.70625 211.29688 34.253124Q211.29688 31.940624 210.23438 30.753124Q209.1875 29.565624 207.64062 29.565624Q206.04688 29.565624 205.0 30.753124Q203.96875 31.940624 203.96875 34.33125ZM215.57812 40.55L215.57812 28.096874L217.48438 28.096874L217.48438 29.878124Q218.85938 27.815624 221.4375 27.815624Q222.5625 27.815624 223.5 28.221874Q224.45312 28.628124 224.92188 29.284374Q225.39062 29.940624 225.57812 30.846874Q225.70312 31.425 225.70312 32.89375L225.70312 40.55L223.59375 40.55L223.59375 32.971874Q223.59375 31.690624 223.34375 31.05Q223.09375 30.409374 222.46875 30.034374Q221.84375 29.64375 221.0 29.64375Q219.65625 29.64375 218.67188 30.503124Q217.6875 31.3625 217.6875 33.753124L217.6875 40.55L215.57812 40.55ZM241.21875 40.55L241.21875 25.39375L235.5625 25.39375L235.5625 23.3625L249.1875 23.3625L249.1875 25.39375L243.5 25.39375L243.5 40.55L241.21875 40.55ZM259.10938 36.534374L261.28125 36.815624Q260.76562 38.721874 259.375 39.784374Q257.98438 40.83125 255.8125 40.83125Q253.07812 40.83125 251.46875 39.159374Q249.875 37.471874 249.875 34.425Q249.875 31.284374 251.48438 29.55Q253.10938 27.815624 255.6875 27.815624Q258.1875 27.815624 259.76562 29.51875Q261.35938 31.221874 261.35938 34.3Q261.35938 34.4875 261.34375 34.8625L252.0625 34.8625Q252.17188 36.909374 253.21875 38.003124Q254.26562 39.096874 255.82812 39.096874Q256.98438 39.096874 257.79688 38.4875Q258.625 37.878124 259.10938 36.534374ZM252.17188 33.128124L259.125 33.128124Q258.98438 31.565624 258.32812 30.76875Q257.32812 29.55 255.71875 29.55Q254.26562 29.55 253.26562 30.534374Q252.28125 31.503124 252.17188 33.128124ZM263.53125 40.55L263.53125 23.3625L265.64062 23.3625L265.64062 40.55L263.53125 40.55ZM278.10938 36.534374L280.28125 36.815624Q279.76562 38.721874 278.375 39.784374Q276.98438 40.83125 274.8125 40.83125Q272.07812 40.83125 270.46875 39.159374Q268.875 37.471874 268.875 34.425Q268.875 31.284374 270.48438 29.55Q272.10938 27.815624 274.6875 27.815624Q277.1875 27.815624 278.76562 29.51875Q280.35938 31.221874 280.35938 34.3Q280.35938 34.4875 280.34375 34.8625L271.0625 34.8625Q271.17188 36.909374 272.21875 38.003124Q273.26562 39.096874 274.82812 39.096874Q275.98438 39.096874 276.79688 38.4875Q277.625 37.878124 278.10938 36.534374ZM271.17188 33.128124L278.125 33.128124Q277.98438 31.565624 277.32812 30.76875Q276.32812 29.55 274.71875 29.55Q273.26562 29.55 272.26562 30.534374Q271.28125 31.503124 271.17188 33.128124ZM290.70312 35.9875L292.78125 36.253124Q292.4375 38.409374 291.03125 39.628124Q289.64062 40.83125 287.59375 40.83125Q285.04688 40.83125 283.48438 39.159374Q281.9375 37.4875 281.9375 34.378124Q281.9375 32.3625 282.60938 30.846874Q283.28125 29.33125 284.64062 28.58125Q286.0 27.815624 287.60938 27.815624Q289.64062 27.815624 290.92188 28.846874Q292.21875 29.878124 292.57812 31.753124L290.53125 32.08125Q290.23438 30.815624 289.48438 30.190624Q288.75 29.55 287.6875 29.55Q286.09375 29.55 285.09375 30.70625Q284.10938 31.846874 284.10938 34.315624Q284.10938 36.815624 285.0625 37.95625Q286.03125 39.096874 287.57812 39.096874Q288.8125 39.096874 289.64062 38.33125Q290.48438 37.565624 290.70312 35.9875ZM293.79688 34.33125Q293.79688 30.8625 295.71875 29.20625Q297.32812 27.815624 299.64062 27.815624Q302.20312 27.815624 303.82812 29.503124Q305.45312 31.190624 305.45312 34.14375Q305.45312 36.55 304.73438 37.925Q304.01562 39.3 302.64062 40.065624Q301.26562 40.83125 299.64062 40.83125Q297.01562 40.83125 295.40625 39.159374Q293.79688 37.471874 293.79688 34.33125ZM295.96875 34.33125Q295.96875 36.721874 297.0 37.909374Q298.04688 39.096874 299.64062 39.096874Q301.20312 39.096874 302.25 37.909374Q303.29688 36.70625 303.29688 34.253124Q303.29688 31.940624 302.23438 30.753124Q301.1875 29.565624 299.64062 29.565624Q298.04688 29.565624 297.0 30.753124Q295.96875 31.940624 295.96875 34.33125ZM307.57812 40.55L307.57812 28.096874L309.48438 28.096874L309.48438 29.878124Q310.85938 27.815624 313.4375 27.815624Q314.5625 27.815624 315.5 28.221874Q316.45312 28.628124 316.92188 29.284374Q317.39062 29.940624 317.57812 30.846874Q317.70312 31.425 317.70312 32.89375L317.70312 40.55L315.59375 40.55L315.59375 32.971874Q315.59375 31.690624 315.34375 31.05Q315.09375 30.409374 314.46875 30.034374Q313.84375 29.64375 313.0 29.64375Q311.65625 29.64375 310.67188 30.503124Q309.6875 31.3625 309.6875 33.753124L309.6875 40.55L307.57812 40.55ZM328.85938 40.55L328.85938 23.3625L335.32812 23.3625Q337.04688 23.3625 337.95312 23.534374Q339.21875 23.7375 340.0625 24.33125Q340.92188 24.925 341.4375 26.003124Q341.96875 27.065624 341.96875 28.33125Q341.96875 30.534374 340.5625 32.05Q339.17188 33.565624 335.53125 33.565624L331.125 33.565624L331.125 40.55L328.85938 40.55ZM331.125 31.534374L335.5625 31.534374Q337.76562 31.534374 338.6875 30.721874Q339.625 29.89375 339.625 28.409374Q339.625 27.33125 339.07812 26.565624Q338.53125 25.8 337.64062 25.55Q337.0625 25.39375 335.51562 25.39375L331.125 25.39375L331.125 31.534374ZM352.70312 39.01875Q351.53125 40.003124 350.4375 40.425Q349.35938 40.83125 348.125 40.83125Q346.07812 40.83125 344.96875 39.83125Q343.875 38.83125 343.875 37.26875Q343.875 36.346874 344.28125 35.596874Q344.70312 34.846874 345.375 34.39375Q346.04688 33.925 346.89062 33.690624Q347.51562 33.534374 348.76562 33.378124Q351.32812 33.065624 352.53125 32.64375Q352.54688 32.221874 352.54688 32.096874Q352.54688 30.815624 351.9375 30.284374Q351.14062 29.565624 349.54688 29.565624Q348.04688 29.565624 347.34375 30.096874Q346.64062 30.6125 346.29688 31.940624L344.23438 31.659374Q344.51562 30.33125 345.15625 29.51875Q345.79688 28.70625 347.01562 28.26875Q348.23438 27.815624 349.84375 27.815624Q351.4375 27.815624 352.4375 28.190624Q353.4375 28.565624 353.90625 29.14375Q354.375 29.70625 354.5625 30.58125Q354.65625 31.1125 354.65625 32.51875L354.65625 35.33125Q354.65625 38.26875 354.79688 39.05Q354.9375 39.83125 355.32812 40.55L353.125 40.55Q352.79688 39.89375 352.70312 39.01875ZM352.53125 34.3Q351.375 34.76875 349.07812 35.096874Q347.78125 35.284374 347.23438 35.51875Q346.70312 35.753124 346.40625 36.20625Q346.125 36.659374 346.125 37.20625Q346.125 38.05 346.75 38.6125Q347.39062 39.175 348.625 39.175Q349.84375 39.175 350.79688 38.64375Q351.75 38.1125 352.1875 37.190624Q352.53125 36.471874 352.53125 35.08125L352.53125 34.3ZM357.5625 40.55L357.5625 28.096874L359.45312 28.096874L359.45312 29.9875Q360.1875 28.659374 360.79688 28.2375Q361.42188 27.815624 362.15625 27.815624Q363.21875 27.815624 364.32812 28.503124L363.59375 30.45625Q362.82812 30.003124 362.04688 30.003124Q361.35938 30.003124 360.79688 30.425Q360.25 30.83125 360.01562 31.565624Q359.67188 32.690624 359.67188 34.034374L359.67188 40.55L357.5625 40.55ZM370.1875 38.659374L370.5 40.51875Q369.60938 40.721874 368.90625 40.721874Q367.75 40.721874 367.10938 40.3625Q366.48438 39.9875 366.21875 39.39375Q365.96875 38.8 365.96875 36.909374L365.96875 29.7375L364.42188 29.7375L364.42188 28.096874L365.96875 28.096874L365.96875 25.01875L368.0625 23.753124L368.0625 28.096874L370.1875 28.096874L370.1875 29.7375L368.0625 29.7375L368.0625 37.01875Q368.0625 37.925 368.17188 38.190624Q368.29688 38.440624 368.54688 38.596874Q368.79688 38.7375 369.26562 38.7375Q369.60938 38.7375 370.1875 38.659374ZM372.59375 25.8L372.59375 23.3625L374.70312 23.3625L374.70312 25.8L372.59375 25.8ZM372.59375 40.55L372.59375 28.096874L374.70312 28.096874L374.70312 40.55L372.59375 40.55ZM385.70312 35.9875L387.78125 36.253124Q387.4375 38.409374 386.03125 39.628124Q384.64062 40.83125 382.59375 40.83125Q380.04688 40.83125 378.48438 39.159374Q376.9375 37.4875 376.9375 34.378124Q376.9375 32.3625 377.60938 30.846874Q378.28125 29.33125 379.64062 28.58125Q381.0 27.815624 382.60938 27.815624Q384.64062 27.815624 385.92188 28.846874Q387.21875 29.878124 387.57812 31.753124L385.53125 32.08125Q385.23438 30.815624 384.48438 30.190624Q383.75 29.55 382.6875 29.55Q381.09375 29.55 380.09375 30.70625Q379.10938 31.846874 379.10938 34.315624Q379.10938 36.815624 380.0625 37.95625Q381.03125 39.096874 382.57812 39.096874Q383.8125 39.096874 384.64062 38.33125Q385.48438 37.565624 385.70312 35.9875ZM389.59375 25.8L389.59375 23.3625L391.70312 23.3625L391.70312 25.8L389.59375 25.8ZM389.59375 40.55L389.59375 28.096874L391.70312 28.096874L391.70312 40.55L389.59375 40.55ZM394.57812 45.315624L394.57812 28.096874L396.5 28.096874L396.5 29.721874Q397.1875 28.76875 398.03125 28.3Q398.89062 27.815624 400.10938 27.815624Q401.70312 27.815624 402.92188 28.64375Q404.14062 29.45625 404.76562 30.95625Q405.39062 32.45625 405.39062 34.2375Q405.39062 36.14375 404.70312 37.675Q404.01562 39.20625 402.70312 40.01875Q401.40625 40.83125 399.96875 40.83125Q398.90625 40.83125 398.0625 40.39375Q397.23438 39.940624 396.6875 39.253124L396.6875 45.315624L394.57812 45.315624ZM396.5 34.39375Q396.5 36.8 397.46875 37.95625Q398.4375 39.096874 399.82812 39.096874Q401.23438 39.096874 402.23438 37.909374Q403.23438 36.721874 403.23438 34.221874Q403.23438 31.846874 402.25 30.659374Q401.28125 29.471874 399.92188 29.471874Q398.5625 29.471874 397.53125 30.7375Q396.5 31.9875 396.5 34.39375ZM416.70312 39.01875Q415.53125 40.003124 414.4375 40.425Q413.35938 40.83125 412.125 40.83125Q410.07812 40.83125 408.96875 39.83125Q407.875 38.83125 407.875 37.26875Q407.875 36.346874 408.28125 35.596874Q408.70312 34.846874 409.375 34.39375Q410.04688 33.925 410.89062 33.690624Q411.51562 33.534374 412.76562 33.378124Q415.32812 33.065624 416.53125 32.64375Q416.54688 32.221874 416.54688 32.096874Q416.54688 30.815624 415.9375 30.284374Q415.14062 29.565624 413.54688 29.565624Q412.04688 29.565624 411.34375 30.096874Q410.64062 30.6125 410.29688 31.940624L408.23438 31.659374Q408.51562 30.33125 409.15625 29.51875Q409.79688 28.70625 411.01562 28.26875Q412.23438 27.815624 413.84375 27.815624Q415.4375 27.815624 416.4375 28.190624Q417.4375 28.565624 417.90625 29.14375Q418.375 29.70625 418.5625 30.58125Q418.65625 31.1125 418.65625 32.51875L418.65625 35.33125Q418.65625 38.26875 418.79688 39.05Q418.9375 39.83125 419.32812 40.55L417.125 40.55Q416.79688 39.89375 416.70312 39.01875ZM416.53125 34.3Q415.375 34.76875 413.07812 35.096874Q411.78125 35.284374 411.23438 35.51875Q410.70312 35.753124 410.40625 36.20625Q410.125 36.659374 410.125 37.20625Q410.125 38.05 410.75 38.6125Q411.39062 39.175 412.625 39.175Q413.84375 39.175 414.79688 38.64375Q415.75 38.1125 416.1875 37.190624Q416.53125 36.471874 416.53125 35.08125L416.53125 34.3ZM426.1875 38.659374L426.5 40.51875Q425.60938 40.721874 424.90625 40.721874Q423.75 40.721874 423.10938 40.3625Q422.48438 39.9875 422.21875 39.39375Q421.96875 38.8 421.96875 36.909374L421.96875 29.7375L420.42188 29.7375L420.42188 28.096874L421.96875 28.096874L421.96875 25.01875L424.0625 23.753124L424.0625 28.096874L426.1875 28.096874L426.1875 29.7375L424.0625 29.7375L424.0625 37.01875Q424.0625 37.925 424.17188 38.190624Q424.29688 38.440624 424.54688 38.596874Q424.79688 38.7375 425.26562 38.7375Q425.60938 38.7375 426.1875 38.659374ZM428.59375 25.8L428.59375 23.3625L430.70312 23.3625L430.70312 25.8L428.59375 25.8ZM428.59375 40.55L428.59375 28.096874L430.70312 28.096874L430.70312 40.55L428.59375 40.55ZM432.79688 34.33125Q432.79688 30.8625 434.71875 29.20625Q436.32812 27.815624 438.64062 27.815624Q441.20312 27.815624 442.82812 29.503124Q444.45312 31.190624 444.45312 34.14375Q444.45312 36.55 443.73438 37.925Q443.01562 39.3 441.64062 40.065624Q440.26562 40.83125 438.64062 40.83125Q436.01562 40.83125 434.40625 39.159374Q432.79688 37.471874 432.79688 34.33125ZM434.96875 34.33125Q434.96875 36.721874 436.0 37.909374Q437.04688 39.096874 438.64062 39.096874Q440.20312 39.096874 441.25 37.909374Q442.29688 36.70625 442.29688 34.253124Q442.29688 31.940624 441.23438 30.753124Q440.1875 29.565624 438.64062 29.565624Q437.04688 29.565624 436.0 30.753124Q434.96875 31.940624 434.96875 34.33125ZM446.57812 40.55L446.57812 28.096874L448.48438 28.096874L448.48438 29.878124Q449.85938 27.815624 452.4375 27.815624Q453.5625 27.815624 454.5 28.221874Q455.45312 28.628124 455.92188 29.284374Q456.39062 29.940624 456.57812 30.846874Q456.70312 31.425 456.70312 32.89375L456.70312 40.55L454.59375 40.55L454.59375 32.971874Q454.59375 31.690624 454.34375 31.05Q454.09375 30.409374 453.46875 30.034374Q452.84375 29.64375 452.0 29.64375Q450.65625 29.64375 449.67188 30.503124Q448.6875 31.3625 448.6875 33.753124L448.6875 40.55L446.57812 40.55ZM467.85938 40.55L467.85938 23.3625L474.32812 23.3625Q476.04688 23.3625 476.95312 23.534374Q478.21875 23.7375 479.0625 24.33125Q479.92188 24.925 480.4375 26.003124Q480.96875 27.065624 480.96875 28.33125Q480.96875 30.534374 479.5625 32.05Q478.17188 33.565624 474.53125 33.565624L470.125 33.565624L470.125 40.55L467.85938 40.55ZM470.125 31.534374L474.5625 31.534374Q476.76562 31.534374 477.6875 30.721874Q478.625 29.89375 478.625 28.409374Q478.625 27.33125 478.07812 26.565624Q477.53125 25.8 476.64062 25.55Q476.0625 25.39375 474.51562 25.39375L470.125 25.39375L470.125 31.534374ZM492.10938 36.534374L494.28125 36.815624Q493.76562 38.721874 492.375 39.784374Q490.98438 40.83125 488.8125 40.83125Q486.07812 40.83125 484.46875 39.159374Q482.875 37.471874 482.875 34.425Q482.875 31.284374 484.48438 29.55Q486.10938 27.815624 488.6875 27.815624Q491.1875 27.815624 492.76562 29.51875Q494.35938 31.221874 494.35938 34.3Q494.35938 34.4875 494.34375 34.8625L485.0625 34.8625Q485.17188 36.909374 486.21875 38.003124Q487.26562 39.096874 488.82812 39.096874Q489.98438 39.096874 490.79688 38.4875Q491.625 37.878124 492.10938 36.534374ZM485.17188 33.128124L492.125 33.128124Q491.98438 31.565624 491.32812 30.76875Q490.32812 29.55 488.71875 29.55Q487.26562 29.55 486.26562 30.534374Q485.28125 31.503124 485.17188 33.128124ZM496.5625 40.55L496.5625 28.096874L498.45312 28.096874L498.45312 29.9875Q499.1875 28.659374 499.79688 28.2375Q500.42188 27.815624 501.15625 27.815624Q502.21875 27.815624 503.32812 28.503124L502.59375 30.45625Q501.82812 30.003124 501.04688 30.003124Q500.35938 30.003124 499.79688 30.425Q499.25 30.83125 499.01562 31.565624Q498.67188 32.690624 498.67188 34.034374L498.67188 40.55L496.5625 40.55ZM509.96875 40.55L516.5625 23.3625L519.0156 23.3625L526.0469 40.55L523.4531 40.55L521.4531 35.346874L514.2656 35.346874L512.375 40.55L509.96875 40.55ZM514.9219 33.4875L520.75 33.4875L518.9531 28.7375Q518.1406 26.565624 517.7344 25.175Q517.40625 26.83125 516.8125 28.45625L514.9219 33.4875ZM531.1875 38.659374L531.5 40.51875Q530.6094 40.721874 529.90625 40.721874Q528.75 40.721874 528.1094 40.3625Q527.4844 39.9875 527.21875 39.39375Q526.96875 38.8 526.96875 36.909374L526.96875 29.7375L525.4219 29.7375L525.4219 28.096874L526.96875 28.096874L526.96875 25.01875L529.0625 23.753124L529.0625 28.096874L531.1875 28.096874L531.1875 29.7375L529.0625 29.7375L529.0625 37.01875Q529.0625 37.925 529.1719 38.190624Q529.2969 38.440624 529.5469 38.596874Q529.7969 38.7375 530.2656 38.7375Q530.6094 38.7375 531.1875 38.659374ZM538.1875 38.659374L538.5 40.51875Q537.6094 40.721874 536.90625 40.721874Q535.75 40.721874 535.1094 40.3625Q534.4844 39.9875 534.21875 39.39375Q533.96875 38.8 533.96875 36.909374L533.96875 29.7375L532.4219 29.7375L532.4219 28.096874L533.96875 28.096874L533.96875 25.01875L536.0625 23.753124L536.0625 28.096874L538.1875 28.096874L538.1875 29.7375L536.0625 29.7375L536.0625 37.01875Q536.0625 37.925 536.1719 38.190624Q536.2969 38.440624 536.5469 38.596874Q536.7969 38.7375 537.2656 38.7375Q537.6094 38.7375 538.1875 38.659374ZM549.1094 36.534374L551.28125 36.815624Q550.7656 38.721874 549.375 39.784374Q547.9844 40.83125 545.8125 40.83125Q543.0781 40.83125 541.46875 39.159374Q539.875 37.471874 539.875 34.425Q539.875 31.284374 541.4844 29.55Q543.1094 27.815624 545.6875 27.815624Q548.1875 27.815624 549.7656 29.51875Q551.3594 31.221874 551.3594 34.3Q551.3594 34.4875 551.34375 34.8625L542.0625 34.8625Q542.1719 36.909374 543.21875 38.003124Q544.2656 39.096874 545.8281 39.096874Q546.9844 39.096874 547.7969 38.4875Q548.625 37.878124 549.1094 36.534374ZM542.1719 33.128124L549.125 33.128124Q548.9844 31.565624 548.3281 30.76875Q547.3281 29.55 545.71875 29.55Q544.2656 29.55 543.2656 30.534374Q542.28125 31.503124 542.1719 33.128124ZM553.5781 40.55L553.5781 28.096874L555.4844 28.096874L555.4844 29.878124Q556.8594 27.815624 559.4375 27.815624Q560.5625 27.815624 561.5 28.221874Q562.4531 28.628124 562.9219 29.284374Q563.3906 29.940624 563.5781 30.846874Q563.7031 31.425 563.7031 32.89375L563.7031 40.55L561.59375 40.55L561.59375 32.971874Q561.59375 31.690624 561.34375 31.05Q561.09375 30.409374 560.46875 30.034374Q559.84375 29.64375 559.0 29.64375Q557.65625 29.64375 556.6719 30.503124Q555.6875 31.3625 555.6875 33.753124L555.6875 40.55L553.5781 40.55ZM575.65625 40.55L575.65625 38.971874Q574.46875 40.83125 572.1719 40.83125Q570.6875 40.83125 569.4375 40.01875Q568.1875 39.190624 567.5 37.721874Q566.8281 36.253124 566.8281 34.33125Q566.8281 32.471874 567.4375 30.95625Q568.0625 29.440624 569.2969 28.628124Q570.5469 27.815624 572.0781 27.815624Q573.2031 27.815624 574.0781 28.3Q574.96875 28.76875 575.5156 29.534374L575.5156 23.3625L577.6094 23.3625L577.6094 40.55L575.65625 40.55ZM568.9844 34.33125Q568.9844 36.721874 569.9844 37.909374Q571.0 39.096874 572.375 39.096874Q573.7656 39.096874 574.71875 37.971874Q575.6875 36.83125 575.6875 34.51875Q575.6875 31.95625 574.7031 30.76875Q573.71875 29.565624 572.28125 29.565624Q570.875 29.565624 569.9219 30.721874Q568.9844 31.8625 568.9844 34.33125ZM590.1094 36.534374L592.28125 36.815624Q591.7656 38.721874 590.375 39.784374Q588.9844 40.83125 586.8125 40.83125Q584.0781 40.83125 582.46875 39.159374Q580.875 37.471874 580.875 34.425Q580.875 31.284374 582.4844 29.55Q584.1094 27.815624 586.6875 27.815624Q589.1875 27.815624 590.7656 29.51875Q592.3594 31.221874 592.3594 34.3Q592.3594 34.4875 592.34375 34.8625L583.0625 34.8625Q583.1719 36.909374 584.21875 38.003124Q585.2656 39.096874 586.8281 39.096874Q587.9844 39.096874 588.7969 38.4875Q589.625 37.878124 590.1094 36.534374ZM583.1719 33.128124L590.125 33.128124Q589.9844 31.565624 589.3281 30.76875Q588.3281 29.55 586.71875 29.55Q585.2656 29.55 584.2656 30.534374Q583.28125 31.503124 583.1719 33.128124ZM603.1094 36.534374L605.28125 36.815624Q604.7656 38.721874 603.375 39.784374Q601.9844 40.83125 599.8125 40.83125Q597.0781 40.83125 595.46875 39.159374Q593.875 37.471874 593.875 34.425Q593.875 31.284374 595.4844 29.55Q597.1094 27.815624 599.6875 27.815624Q602.1875 27.815624 603.7656 29.51875Q605.3594 31.221874 605.3594 34.3Q605.3594 34.4875 605.34375 34.8625L596.0625 34.8625Q596.1719 36.909374 597.21875 38.003124Q598.2656 39.096874 599.8281 39.096874Q600.9844 39.096874 601.7969 38.4875Q602.625 37.878124 603.1094 36.534374ZM596.1719 33.128124L603.125 33.128124Q602.9844 31.565624 602.3281 30.76875Q601.3281 29.55 599.71875 29.55Q598.2656 29.55 597.2656 30.534374Q596.28125 31.503124 596.1719 33.128124Z" fill-rule="nonzero"/></svg>