<svg version="1.1" viewBox="0.0 0.0 655.0 371.0" fill="none" stroke="none" stroke-linecap="square" stroke-miterlimit="10" width="655" height="371" xmlns:xlink="http://www.w3.org/1999/xlink" xmlns="http://www.w3.org/2000/svg"><path fill="#ffffff" fill-opacity="0.0" d="M0 0L655.0 0L655.0 371.0L0 371.0L0 0Z" fill-rule="nonzero"/><path fill="#ff0000" d="M327.5 58.916668C394.60782 58.916668 450.70206 109.96593 457.00778 176.77682L327.5 189.0Z" fill-rule="nonzero"/><path fill="#76b900" d="M293.98358 63.30862C304.91714 60.393112 316.1844 58.916668 327.5 58.916668L327.5 189.0Z" fill-rule="nonzero"/><path fill="#88aaff" d="M253.18753 82.23235C265.58444 73.60384 279.38937 67.20026 293.98358 63.30862L327.5 189.0Z" fill-rule="nonzero"/><path fill="#ff00ff" d="M211.55219 130.02731C221.27739 110.90633 235.58044 94.48725 253.18753 82.23235L327.5 189.0Z" fill-rule="nonzero"/><path fill="#ff9900" d="M457.00778 176.77682C462.2077 231.87134 431.9815 284.22464 381.6683 307.26862C331.3551 330.31262 271.97025 319.00217 233.65013 279.07706C195.33005 239.15196 186.46434 179.35321 211.55219 130.02731L327.5 189.0Z" fill-rule="nonzero"/><path fill="#000000" d="M376.41708 124.82793L376.41708 126.01543L369.79208 126.01543Q369.77646 125.57793 369.9327 125.15605Q370.19833 124.48418 370.7452 123.82793Q371.3077 123.17168 372.35458 122.3123Q373.9952 120.96855 374.5577 120.1873Q375.13583 119.40605 375.13583 118.70293Q375.13583 117.96855 374.60458 117.46855Q374.08896 116.96855 373.26083 116.96855Q372.3702 116.96855 371.82333 117.4998Q371.29208 118.03105 371.29208 118.98418L370.02646 118.84355Q370.15146 117.4373 370.9952 116.70293Q371.85458 115.95293 373.27646 115.95293Q374.72958 115.95293 375.5577 116.7498Q376.40146 117.54668 376.40146 118.73418Q376.40146 119.34355 376.15146 119.92168Q375.91708 120.4998 375.33896 121.14043Q374.77646 121.78105 373.44833 122.90605Q372.33896 123.82793 372.02646 124.17168Q371.71396 124.4998 371.51083 124.82793L376.41708 124.82793ZM377.96396 123.3748L379.1827 123.20293Q379.40146 124.2498 379.90146 124.71855Q380.41708 125.17168 381.15146 125.17168Q382.02646 125.17168 382.6202 124.57793Q383.21396 123.96855 383.21396 123.07793Q383.21396 122.23418 382.65146 121.6873Q382.10458 121.14043 381.26083 121.14043Q380.90146 121.14043 380.38583 121.26543L380.52646 120.1873Q380.65146 120.20293 380.71396 120.20293Q381.51083 120.20293 382.13583 119.79668Q382.76083 119.39043 382.76083 118.53105Q382.76083 117.85918 382.3077 117.42168Q381.85458 116.96855 381.1202 116.96855Q380.40146 116.96855 379.91708 117.42168Q379.44833 117.85918 379.3077 118.76543L378.08896 118.54668Q378.3077 117.3123 379.10458 116.64043Q379.90146 115.95293 381.08896 115.95293Q381.91708 115.95293 382.60458 116.3123Q383.29208 116.65605 383.65146 117.26543Q384.02646 117.8748 384.02646 118.5623Q384.02646 119.20293 383.6827 119.73418Q383.33896 120.26543 382.65146 120.59355Q383.54208 120.79668 384.02646 121.4373Q384.52646 122.07793 384.52646 123.0623Q384.52646 124.3748 383.5577 125.28105Q382.60458 126.1873 381.15146 126.1873Q379.82333 126.1873 378.94833 125.40605Q378.08896 124.6248 377.96396 123.3748ZM386.63583 126.01543L386.63583 124.60918L388.04208 124.60918L388.04208 126.01543L386.63583 126.01543ZM389.94833 123.39043L391.2452 123.28105Q391.38583 124.21855 391.90146 124.70293Q392.4327 125.17168 393.16708 125.17168Q394.0577 125.17168 394.66708 124.4998Q395.29208 123.82793 395.29208 122.73418Q395.29208 121.67168 394.69833 121.0623Q394.10458 120.45293 393.15146 120.45293Q392.5577 120.45293 392.07333 120.73418Q391.60458 120.9998 391.32333 121.42168L390.16708 121.28105L391.13583 116.1248L396.1202 116.1248L396.1202 117.3123L392.1202 117.3123L391.58896 119.9998Q392.4952 119.3748 393.47958 119.3748Q394.79208 119.3748 395.6827 120.28105Q396.58896 121.1873 396.58896 122.6248Q396.58896 123.98418 395.8077 124.96855Q394.83896 126.1873 393.16708 126.1873Q391.8077 126.1873 390.9327 125.42168Q390.07333 124.65605 389.94833 123.39043ZM398.1827 118.40605Q398.1827 117.32793 398.71396 116.57793Q399.26083 115.82793 400.29208 115.82793Q401.22958 115.82793 401.83896 116.4998Q402.46396 117.17168 402.46396 118.46855Q402.46396 119.7498 401.83896 120.4373Q401.21396 121.1248 400.3077 121.1248Q399.40146 121.1248 398.79208 120.45293Q398.1827 119.76543 398.1827 118.40605ZM400.32333 116.67168Q399.8702 116.67168 399.5577 117.07793Q399.26083 117.46855 399.26083 118.51543Q399.26083 119.48418 399.5577 119.8748Q399.8702 120.26543 400.32333 120.26543Q400.79208 120.26543 401.08896 119.8748Q401.40146 119.48418 401.40146 118.42168Q401.40146 117.45293 401.08896 117.0623Q400.77646 116.67168 400.32333 116.67168ZM400.32333 126.39043L405.8077 115.82793L406.8077 115.82793L401.35458 126.39043L400.32333 126.39043ZM404.66708 123.65605Q404.66708 122.57793 405.19833 121.84355Q405.7452 121.09355 406.77646 121.09355Q407.71396 121.09355 408.33896 121.76543Q408.96396 122.4373 408.96396 123.73418Q408.96396 125.01543 408.33896 125.70293Q407.71396 126.39043 406.77646 126.39043Q405.8702 126.39043 405.26083 125.71855Q404.66708 125.03105 404.66708 123.65605ZM406.8077 121.9373Q406.33896 121.9373 406.04208 122.34355Q405.7452 122.73418 405.7452 123.78105Q405.7452 124.7498 406.04208 125.14043Q406.35458 125.53105 406.8077 125.53105Q407.27646 125.53105 407.57333 125.14043Q407.88583 124.7498 407.88583 123.6873Q407.88583 122.71855 407.57333 122.32793Q407.27646 121.9373 406.8077 121.9373Z" fill-rule="nonzero"/><path fill="#000000" d="M289.3477 289.71814L290.64456 289.60876Q290.7852 290.54626 291.3008 291.03064Q291.83206 291.4994 292.56644 291.4994Q293.45706 291.4994 294.06644 290.8275Q294.69144 290.15564 294.69144 289.0619Q294.69144 287.9994 294.0977 287.39Q293.50394 286.78064 292.5508 286.78064Q291.95706 286.78064 291.4727 287.0619Q291.00394 287.3275 290.7227 287.7494L289.56644 287.60876L290.5352 282.4525L295.51956 282.4525L295.51956 283.64L291.51956 283.64L290.9883 286.3275Q291.89456 285.7025 292.87894 285.7025Q294.19144 285.7025 295.08206 286.60876Q295.9883 287.515 295.9883 288.9525Q295.9883 290.3119 295.20706 291.29626Q294.2383 292.515 292.56644 292.515Q291.20706 292.515 290.33206 291.7494Q289.4727 290.98376 289.3477 289.71814ZM297.5352 290.03064L298.7227 289.92126Q298.8633 290.7494 299.2852 291.1244Q299.7227 291.4994 300.37894 291.4994Q300.94144 291.4994 301.3633 291.2494Q301.8008 290.98376 302.06644 290.54626Q302.3477 290.10876 302.5352 289.3744Q302.7227 288.64 302.7227 287.8744Q302.7227 287.79626 302.70706 287.6244Q302.3477 288.21814 301.70706 288.59314Q301.06644 288.9525 300.31644 288.9525Q299.06644 288.9525 298.20706 288.04626Q297.3477 287.14 297.3477 285.67126Q297.3477 284.14 298.2383 283.21814Q299.14456 282.28064 300.50394 282.28064Q301.4727 282.28064 302.2852 282.8119Q303.0977 283.3275 303.51956 284.3119Q303.94144 285.28064 303.94144 287.1244Q303.94144 289.04626 303.51956 290.1869Q303.1133 291.3275 302.2852 291.92126Q301.45706 292.515 300.3477 292.515Q299.1758 292.515 298.4258 291.85876Q297.69144 291.2025 297.5352 290.03064ZM302.56644 285.60876Q302.56644 284.54626 302.00394 283.92126Q301.44144 283.29626 300.6602 283.29626Q299.83206 283.29626 299.2227 283.96814Q298.6133 284.64 298.6133 285.7025Q298.6133 286.65564 299.19144 287.265Q299.76956 287.85876 300.6133 287.85876Q301.4727 287.85876 302.01956 287.265Q302.56644 286.65564 302.56644 285.60876ZM306.0352 292.34314L306.0352 290.9369L307.44144 290.9369L307.44144 292.34314L306.0352 292.34314ZM309.3477 287.40564Q309.3477 285.6244 309.70706 284.54626Q310.08206 283.4525 310.8008 282.8744Q311.51956 282.28064 312.6133 282.28064Q313.4258 282.28064 314.0352 282.60876Q314.64456 282.9369 315.0352 283.54626Q315.44144 284.15564 315.6602 285.03064Q315.87894 285.90564 315.87894 287.40564Q315.87894 289.17126 315.51956 290.2494Q315.1602 291.3275 314.44144 291.92126Q313.7227 292.515 312.6133 292.515Q311.1758 292.515 310.3477 291.46814Q309.3477 290.21814 309.3477 287.40564ZM310.6133 287.40564Q310.6133 289.8744 311.19144 290.6869Q311.76956 291.4994 312.6133 291.4994Q313.4727 291.4994 314.0508 290.6869Q314.62894 289.85876 314.62894 287.40564Q314.62894 284.92126 314.0508 284.10876Q313.4727 283.29626 312.5977 283.29626Q311.75394 283.29626 311.25394 284.015Q310.6133 284.9369 310.6133 287.40564ZM317.58206 284.73376Q317.58206 283.65564 318.1133 282.90564Q318.6602 282.15564 319.69144 282.15564Q320.62894 282.15564 321.2383 282.8275Q321.8633 283.4994 321.8633 284.79626Q321.8633 286.0775 321.2383 286.765Q320.6133 287.4525 319.70706 287.4525Q318.8008 287.4525 318.19144 286.78064Q317.58206 286.09314 317.58206 284.73376ZM319.7227 282.9994Q319.26956 282.9994 318.95706 283.40564Q318.6602 283.79626 318.6602 284.84314Q318.6602 285.8119 318.95706 286.2025Q319.26956 286.59314 319.7227 286.59314Q320.19144 286.59314 320.4883 286.2025Q320.8008 285.8119 320.8008 284.7494Q320.8008 283.78064 320.4883 283.39Q320.1758 282.9994 319.7227 282.9994ZM319.7227 292.71814L325.20706 282.15564L326.20706 282.15564L320.75394 292.71814L319.7227 292.71814ZM324.06644 289.98376Q324.06644 288.90564 324.5977 288.17126Q325.14456 287.42126 326.1758 287.42126Q327.1133 287.42126 327.7383 288.09314Q328.3633 288.765 328.3633 290.0619Q328.3633 291.34314 327.7383 292.03064Q327.1133 292.71814 326.1758 292.71814Q325.26956 292.71814 324.6602 292.04626Q324.06644 291.35876 324.06644 289.98376ZM326.20706 288.265Q325.7383 288.265 325.44144 288.67126Q325.14456 289.0619 325.14456 290.10876Q325.14456 291.0775 325.44144 291.46814Q325.75394 291.85876 326.20706 291.85876Q326.6758 291.85876 326.9727 291.46814Q327.2852 291.0775 327.2852 290.015Q327.2852 289.04626 326.9727 288.65564Q326.6758 288.265 326.20706 288.265Z" fill-rule="nonzero"/><path fill="#000000" d="M240.99802 123.30922L240.99802 122.12172L247.49802 122.12172L247.49802 123.074844Q246.52927 124.09047 245.59177 125.77797Q244.65427 127.46547 244.13864 129.26234Q243.77927 130.51234 243.66989 132.01234L242.40427 132.01234Q242.41989 130.82484 242.85739 129.15297Q243.31052 127.481094 244.13864 125.93422Q244.98239 124.37172 245.91989 123.30922L240.99802 123.30922ZM249.60739 132.01234L249.60739 130.6061L251.01364 130.6061L251.01364 132.01234L249.60739 132.01234ZM254.81052 126.574844Q254.04489 126.293594 253.66989 125.77797Q253.31052 125.262344 253.31052 124.52797Q253.31052 123.43422 254.09177 122.699844Q254.88864 121.949844 256.18552 121.949844Q257.49802 121.949844 258.2949 122.71547Q259.1074 123.481094 259.1074 124.574844Q259.1074 125.262344 258.7324 125.77797Q258.37302 126.293594 257.62302 126.574844Q258.5449 126.87172 259.02927 127.543594Q259.51364 128.21547 259.51364 129.15297Q259.51364 130.43422 258.6074 131.30922Q257.70114 132.18422 256.21677 132.18422Q254.73239 132.18422 253.81052 131.30922Q252.90427 130.4186 252.90427 129.1061Q252.90427 128.13734 253.40427 127.481094Q253.90427 126.80922 254.81052 126.574844ZM254.57614 124.49672Q254.57614 125.199844 255.02927 125.65297Q255.48239 126.106094 256.21677 126.106094Q256.93552 126.106094 257.38864 125.668594Q257.84177 125.21547 257.84177 124.55922Q257.84177 123.887344 257.37302 123.43422Q256.90427 122.96547 256.20114 122.96547Q255.49802 122.96547 255.02927 123.418594Q254.57614 123.856094 254.57614 124.49672ZM254.16989 129.12172Q254.16989 129.65297 254.41989 130.15297Q254.66989 130.63734 255.15427 130.90297Q255.65427 131.1686 256.2324 131.1686Q257.1074 131.1686 257.6699 130.6061Q258.24802 130.0436 258.24802 129.1686Q258.24802 128.27797 257.65427 127.699844Q257.07614 127.106094 256.18552 127.106094Q255.31052 127.106094 254.73239 127.68422Q254.16989 128.26234 254.16989 129.12172ZM261.15427 124.40297Q261.15427 123.324844 261.68552 122.574844Q262.2324 121.824844 263.26364 121.824844Q264.20114 121.824844 264.81052 122.49672Q265.43552 123.168594 265.43552 124.46547Q265.43552 125.74672 264.81052 126.43422Q264.18552 127.12172 263.27927 127.12172Q262.37302 127.12172 261.76364 126.449844Q261.15427 125.762344 261.15427 124.40297ZM263.2949 122.668594Q262.84177 122.668594 262.52927 123.074844Q262.2324 123.46547 262.2324 124.512344Q262.2324 125.481094 262.52927 125.87172Q262.84177 126.262344 263.2949 126.262344Q263.76364 126.262344 264.06052 125.87172Q264.37302 125.481094 264.37302 124.418594Q264.37302 123.449844 264.06052 123.05922Q263.74802 122.668594 263.2949 122.668594ZM263.2949 132.38734L268.77927 121.824844L269.77927 121.824844L264.32614 132.38734L263.2949 132.38734ZM267.63864 129.65297Q267.63864 128.57484 268.1699 127.84047Q268.71677 127.09047 269.74802 127.09047Q270.68552 127.09047 271.31052 127.762344Q271.93552 128.43422 271.93552 129.7311Q271.93552 131.01234 271.31052 131.69984Q270.68552 132.38734 269.74802 132.38734Q268.84177 132.38734 268.2324 131.71547Q267.63864 131.02797 267.63864 129.65297ZM269.77927 127.93422Q269.31052 127.93422 269.01364 128.34047Q268.71677 128.7311 268.71677 129.77797Q268.71677 130.74672 269.01364 131.13734Q269.32614 131.52797 269.77927 131.52797Q270.24802 131.52797 270.5449 131.13734Q270.8574 130.74672 270.8574 129.68422Q270.8574 128.71547 270.5449 128.32484Q270.24802 127.93422 269.77927 127.93422Z" fill-rule="nonzero"/><path fill="#ff0000" d="M86.5 341.95C86.5 345.2637 83.813705 347.95 80.5 347.95C77.186295 347.95 74.5 345.2637 74.5 341.95C74.5 338.6363 77.186295 335.95 80.5 335.95C83.813705 335.95 86.5 338.6363 86.5 341.95Z" fill-rule="nonzero"/><path fill="#999999" d="M95.375 342.16876Q95.375 338.96564 97.09375 337.15314Q98.8125 335.34064 101.546875 335.34064Q103.328125 335.34064 104.75 336.2Q106.1875 337.04376 106.9375 338.575Q107.6875 340.09064 107.6875 342.02814Q107.6875 343.98126 106.890625 345.52814Q106.109375 347.075 104.65625 347.8719Q103.203125 348.66876 101.53125 348.66876Q99.71875 348.66876 98.28125 347.79376Q96.84375 346.91876 96.109375 345.40314Q95.375 343.8719 95.375 342.16876ZM97.125 342.2Q97.125 344.52814 98.375 345.8719Q99.640625 347.21564 101.515625 347.21564Q103.453125 347.21564 104.6875 345.85626Q105.9375 344.4969 105.9375 342.0125Q105.9375 340.45 105.40625 339.27814Q104.875 338.09064 103.84375 337.45Q102.828125 336.8094 101.546875 336.8094Q99.734375 336.8094 98.421875 338.0594Q97.125 339.29376 97.125 342.2ZM109.6875 348.45L109.6875 339.1219L111.109375 339.1219L111.109375 340.45Q112.140625 338.90314 114.078125 338.90314Q114.921875 338.90314 115.625 339.21564Q116.34375 339.5125 116.6875 340.0125Q117.046875 340.4969 117.1875 341.16876Q117.265625 341.60626 117.265625 342.71564L117.265625 348.45L115.6875 348.45L115.6875 342.77814Q115.6875 341.8094 115.5 341.325Q115.328125 340.84064 114.84375 340.5594Q114.375 340.27814 113.75 340.27814Q112.734375 340.27814 112.0 340.91876Q111.265625 341.5594 111.265625 343.35626L111.265625 348.45L109.6875 348.45ZM125.78125 345.02814L127.328125 345.23126Q127.078125 346.84064 126.03125 347.7625Q124.984375 348.66876 123.453125 348.66876Q121.53125 348.66876 120.359375 347.41876Q119.203125 346.15314 119.203125 343.825Q119.203125 342.3094 119.703125 341.1844Q120.203125 340.04376 121.21875 339.48126Q122.25 338.90314 123.453125 338.90314Q124.984375 338.90314 125.9375 339.6844Q126.90625 340.45 127.1875 341.85626L125.640625 342.09064Q125.421875 341.15314 124.859375 340.6844Q124.3125 340.2 123.515625 340.2Q122.328125 340.2 121.578125 341.0594Q120.828125 341.91876 120.828125 343.77814Q120.828125 345.65314 121.546875 346.5125Q122.265625 347.35626 123.4375 347.35626Q124.359375 347.35626 124.984375 346.79376Q125.609375 346.21564 125.78125 345.02814ZM135.07812 345.45L136.71875 345.65314Q136.32812 347.075 135.28125 347.8719Q134.23438 348.66876 132.60938 348.66876Q130.5625 348.66876 129.35938 347.40314Q128.15625 346.1375 128.15625 343.85626Q128.15625 341.5125 129.35938 340.21564Q130.57812 338.90314 132.51562 338.90314Q134.39062 338.90314 135.57812 340.1844Q136.76562 341.45 136.76562 343.7625Q136.76562 343.90314 136.75 344.1844L129.79688 344.1844Q129.875 345.73126 130.65625 346.54376Q131.45312 347.35626 132.60938 347.35626Q133.48438 347.35626 134.09375 346.90314Q134.71875 346.45 135.07812 345.45ZM129.875 342.8875L135.09375 342.8875Q134.98438 341.71564 134.5 341.1219Q133.73438 340.2 132.53125 340.2Q131.45312 340.2 130.70312 340.9344Q129.96875 341.66876 129.875 342.8875Z" fill-rule="nonzero"/><path fill="#ff9900" d="M165.5 341.95C165.5 345.2637 162.8137 347.95 159.5 347.95C156.1863 347.95 153.5 345.2637 153.5 341.95C153.5 338.6363 156.1863 335.95 159.5 335.95C162.8137 335.95 165.5 338.6363 165.5 341.95Z" fill-rule="nonzero"/><path fill="#999999" d="M174.48438 342.8094L174.48438 341.34064L183.01562 337.73126L183.01562 339.3094L176.25 342.09064L183.01562 344.8875L183.01562 346.46564L174.48438 342.8094ZM193.5625 346.9344L193.5625 348.45L185.04688 348.45Q185.03125 347.8719 185.23438 347.35626Q185.5625 346.48126 186.26562 345.6375Q186.98438 344.79376 188.34375 343.6844Q190.4375 341.96564 191.17188 340.96564Q191.92188 339.95 191.92188 339.0594Q191.92188 338.10626 191.25 337.46564Q190.57812 336.825 189.5 336.825Q188.34375 336.825 187.65625 337.5125Q186.98438 338.2 186.96875 339.40314L185.34375 339.23126Q185.51562 337.41876 186.59375 336.46564Q187.6875 335.5125 189.53125 335.5125Q191.375 335.5125 192.45312 336.54376Q193.54688 337.575 193.54688 339.09064Q193.54688 339.85626 193.21875 340.60626Q192.90625 341.35626 192.17188 342.1844Q191.4375 343.0125 189.73438 344.45Q188.3125 345.65314 187.90625 346.075Q187.5 346.4969 187.25 346.9344L193.5625 346.9344ZM195.25 345.075L196.90625 344.9344Q197.09375 346.15314 197.76562 346.7625Q198.4375 347.3719 199.39062 347.3719Q200.53125 347.3719 201.3125 346.5125Q202.10938 345.65314 202.10938 344.21564Q202.10938 342.8719 201.34375 342.09064Q200.59375 341.3094 199.35938 341.3094Q198.59375 341.3094 197.96875 341.65314Q197.35938 341.9969 197.01562 342.5594L195.53125 342.35626L196.78125 335.7469L203.1875 335.7469L203.1875 337.2469L198.04688 337.2469L197.34375 340.71564Q198.51562 339.90314 199.78125 339.90314Q201.46875 339.90314 202.625 341.075Q203.79688 342.2469 203.79688 344.075Q203.79688 345.825 202.76562 347.10626Q201.53125 348.66876 199.39062 348.66876Q197.625 348.66876 196.51562 347.6844Q195.40625 346.7 195.25 345.075ZM205.54688 338.65314Q205.54688 337.27814 206.23438 336.3094Q206.9375 335.34064 208.25 335.34064Q209.46875 335.34064 210.26562 336.21564Q211.0625 337.075 211.0625 338.7625Q211.0625 340.3875 210.25 341.27814Q209.45312 342.15314 208.26562 342.15314Q207.10938 342.15314 206.32812 341.29376Q205.54688 340.41876 205.54688 338.65314ZM208.29688 336.4344Q207.70312 336.4344 207.3125 336.95Q206.92188 337.45 206.92188 338.8094Q206.92188 340.0594 207.3125 340.5594Q207.71875 341.0594 208.29688 341.0594Q208.89062 341.0594 209.28125 340.5594Q209.67188 340.04376 209.67188 338.7Q209.67188 337.45 209.28125 336.95Q208.89062 336.4344 208.29688 336.4344ZM208.3125 348.91876L215.35938 335.34064L216.64062 335.34064L209.60938 348.91876L208.3125 348.91876ZM213.875 345.41876Q213.875 344.04376 214.5625 343.075Q215.26562 342.10626 216.59375 342.10626Q217.8125 342.10626 218.59375 342.98126Q219.39062 343.84064 219.39062 345.52814Q219.39062 347.15314 218.59375 348.04376Q217.79688 348.91876 216.60938 348.91876Q215.4375 348.91876 214.65625 348.04376Q213.875 347.16876 213.875 345.41876ZM216.64062 343.2Q216.04688 343.2 215.65625 343.71564Q215.26562 344.21564 215.26562 345.59064Q215.26562 346.8094 215.65625 347.325Q216.04688 347.84064 216.625 347.84064Q217.23438 347.84064 217.625 347.325Q218.01562 346.8094 218.01562 345.46564Q218.01562 344.21564 217.625 343.71564Q217.23438 343.2 216.64062 343.2Z" fill-rule="nonzero"/><path fill="#ff00ff" d="M248.5 341.95C248.5 345.2637 245.8137 347.95 242.5 347.95C239.1863 347.95 236.5 345.2637 236.5 341.95C236.5 338.6363 239.1863 335.95 242.5 335.95C245.8137 335.95 248.5 338.6363 248.5 341.95Z" fill-rule="nonzero"/><path fill="#999999" d="M265.5625 346.9344L265.5625 348.45L257.04688 348.45Q257.03125 347.8719 257.23438 347.35626Q257.5625 346.48126 258.26562 345.6375Q258.98438 344.79376 260.34375 343.6844Q262.4375 341.96564 263.17188 340.96564Q263.92188 339.95 263.92188 339.0594Q263.92188 338.10626 263.25 337.46564Q262.57812 336.825 261.5 336.825Q260.34375 336.825 259.65625 337.5125Q258.98438 338.2 258.96875 339.40314L257.34375 339.23126Q257.51562 337.41876 258.59375 336.46564Q259.6875 335.5125 261.53125 335.5125Q263.375 335.5125 264.45312 336.54376Q265.54688 337.575 265.54688 339.09064Q265.54688 339.85626 265.21875 340.60626Q264.90625 341.35626 264.17188 342.1844Q263.4375 343.0125 261.73438 344.45Q260.3125 345.65314 259.90625 346.075Q259.5 346.4969 259.25 346.9344L265.5625 346.9344ZM267.25 345.075L268.90625 344.9344Q269.09375 346.15314 269.76562 346.7625Q270.4375 347.3719 271.39062 347.3719Q272.53125 347.3719 273.3125 346.5125Q274.10938 345.65314 274.10938 344.21564Q274.10938 342.8719 273.34375 342.09064Q272.59375 341.3094 271.35938 341.3094Q270.59375 341.3094 269.96875 341.65314Q269.35938 341.9969 269.01562 342.5594L267.53125 342.35626L268.78125 335.7469L275.1875 335.7469L275.1875 337.2469L270.04688 337.2469L269.34375 340.71564Q270.51562 339.90314 271.78125 339.90314Q273.46875 339.90314 274.625 341.075Q275.79688 342.2469 275.79688 344.075Q275.79688 345.825 274.76562 347.10626Q273.53125 348.66876 271.39062 348.66876Q269.625 348.66876 268.51562 347.6844Q267.40625 346.7 267.25 345.075ZM277.54688 338.65314Q277.54688 337.27814 278.23438 336.3094Q278.9375 335.34064 280.25 335.34064Q281.46875 335.34064 282.26562 336.21564Q283.0625 337.075 283.0625 338.7625Q283.0625 340.3875 282.25 341.27814Q281.45312 342.15314 280.26562 342.15314Q279.10938 342.15314 278.32812 341.29376Q277.54688 340.41876 277.54688 338.65314ZM280.29688 336.4344Q279.70312 336.4344 279.3125 336.95Q278.92188 337.45 278.92188 338.8094Q278.92188 340.0594 279.3125 340.5594Q279.71875 341.0594 280.29688 341.0594Q280.89062 341.0594 281.28125 340.5594Q281.67188 340.04376 281.67188 338.7Q281.67188 337.45 281.28125 336.95Q280.89062 336.4344 280.29688 336.4344ZM280.3125 348.91876L287.35938 335.34064L288.64062 335.34064L281.60938 348.91876L280.3125 348.91876ZM285.875 345.41876Q285.875 344.04376 286.5625 343.075Q287.26562 342.10626 288.59375 342.10626Q289.8125 342.10626 290.59375 342.98126Q291.39062 343.84064 291.39062 345.52814Q291.39062 347.15314 290.59375 348.04376Q289.79688 348.91876 288.60938 348.91876Q287.4375 348.91876 286.65625 348.04376Q285.875 347.16876 285.875 345.41876ZM288.64062 343.2Q288.04688 343.2 287.65625 343.71564Q287.26562 344.21564 287.26562 345.59064Q287.26562 346.8094 287.65625 347.325Q288.04688 347.84064 288.625 347.84064Q289.23438 347.84064 289.625 347.325Q290.01562 346.8094 290.01562 345.46564Q290.01562 344.21564 289.625 343.71564Q289.23438 343.2 288.64062 343.2ZM302.14062 347.02814L302.375 348.4344Q301.70312 348.575 301.17188 348.575Q300.3125 348.575 299.82812 348.3094Q299.35938 348.02814 299.17188 347.59064Q298.98438 347.1375 298.98438 345.71564L298.98438 340.34064L297.8125 340.34064L297.8125 339.1219L298.98438 339.1219L298.98438 336.8094L300.54688 335.85626L300.54688 339.1219L302.14062 339.1219L302.14062 340.34064L300.54688 340.34064L300.54688 345.8094Q300.54688 346.48126 300.625 346.6844Q300.71875 346.8719 300.90625 346.98126Q301.09375 347.09064 301.45312 347.09064Q301.70312 347.09064 302.14062 347.02814ZM303.09375 343.77814Q303.09375 341.1844 304.54688 339.9344Q305.75 338.90314 307.46875 338.90314Q309.40625 338.90314 310.625 340.16876Q311.84375 341.4344 311.84375 343.65314Q311.84375 345.45 311.29688 346.48126Q310.76562 347.5125 309.73438 348.09064Q308.70312 348.66876 307.46875 348.66876Q305.51562 348.66876 304.29688 347.41876Q303.09375 346.15314 303.09375 343.77814ZM304.71875 343.77814Q304.71875 345.575 305.5 346.46564Q306.28125 347.35626 307.46875 347.35626Q308.65625 347.35626 309.4375 346.46564Q310.21875 345.5594 310.21875 343.73126Q310.21875 341.9969 309.42188 341.10626Q308.64062 340.21564 307.46875 340.21564Q306.28125 340.21564 305.5 341.10626Q304.71875 341.9969 304.71875 343.77814ZM318.25 345.075L319.90625 344.9344Q320.09375 346.15314 320.76562 346.7625Q321.4375 347.3719 322.39062 347.3719Q323.53125 347.3719 324.3125 346.5125Q325.10938 345.65314 325.10938 344.21564Q325.10938 342.8719 324.34375 342.09064Q323.59375 341.3094 322.35938 341.3094Q321.59375 341.3094 320.96875 341.65314Q320.35938 341.9969 320.01562 342.5594L318.53125 342.35626L319.78125 335.7469L326.1875 335.7469L326.1875 337.2469L321.04688 337.2469L320.34375 340.71564Q321.51562 339.90314 322.78125 339.90314Q324.46875 339.90314 325.625 341.075Q326.79688 342.2469 326.79688 344.075Q326.79688 345.825 325.76562 347.10626Q324.53125 348.66876 322.39062 348.66876Q320.625 348.66876 319.51562 347.6844Q318.40625 346.7 318.25 345.075ZM328.25 342.09064Q328.25 339.8094 328.71875 338.41876Q329.1875 337.02814 330.10938 336.27814Q331.04688 335.5125 332.45312 335.5125Q333.48438 335.5125 334.26562 335.9344Q335.04688 336.34064 335.54688 337.1375Q336.0625 337.91876 336.35938 339.0594Q336.65625 340.1844 336.65625 342.09064Q336.65625 344.35626 336.1875 345.7625Q335.71875 347.15314 334.78125 347.91876Q333.85938 348.66876 332.45312 348.66876Q330.57812 348.66876 329.51562 347.34064Q328.25 345.73126 328.25 342.09064ZM329.875 342.09064Q329.875 345.2625 330.60938 346.325Q331.35938 347.3719 332.45312 347.3719Q333.53125 347.3719 334.28125 346.325Q335.03125 345.2625 335.03125 342.09064Q335.03125 338.91876 334.28125 337.8719Q333.53125 336.825 332.4375 336.825Q331.34375 336.825 330.6875 337.7469Q329.875 338.91876 329.875 342.09064ZM338.54688 338.65314Q338.54688 337.27814 339.23438 336.3094Q339.9375 335.34064 341.25 335.34064Q342.46875 335.34064 343.26562 336.21564Q344.0625 337.075 344.0625 338.7625Q344.0625 340.3875 343.25 341.27814Q342.45312 342.15314 341.26562 342.15314Q340.10938 342.15314 339.32812 341.29376Q338.54688 340.41876 338.54688 338.65314ZM341.29688 336.4344Q340.70312 336.4344 340.3125 336.95Q339.92188 337.45 339.92188 338.8094Q339.92188 340.0594 340.3125 340.5594Q340.71875 341.0594 341.29688 341.0594Q341.89062 341.0594 342.28125 340.5594Q342.67188 340.04376 342.67188 338.7Q342.67188 337.45 342.28125 336.95Q341.89062 336.4344 341.29688 336.4344ZM341.3125 348.91876L348.35938 335.34064L349.64062 335.34064L342.60938 348.91876L341.3125 348.91876ZM346.875 345.41876Q346.875 344.04376 347.5625 343.075Q348.26562 342.10626 349.59375 342.10626Q350.8125 342.10626 351.59375 342.98126Q352.39062 343.84064 352.39062 345.52814Q352.39062 347.15314 351.59375 348.04376Q350.79688 348.91876 349.60938 348.91876Q348.4375 348.91876 347.65625 348.04376Q346.875 347.16876 346.875 345.41876ZM349.64062 343.2Q349.04688 343.2 348.65625 343.71564Q348.26562 344.21564 348.26562 345.59064Q348.26562 346.8094 348.65625 347.325Q349.04688 347.84064 349.625 347.84064Q350.23438 347.84064 350.625 347.325Q351.01562 346.8094 351.01562 345.46564Q351.01562 344.21564 350.625 343.71564Q350.23438 343.2 349.64062 343.2Z" fill-rule="nonzero"/><path fill="#88aaff" d="M381.5 341.95C381.5 345.2637 378.81372 347.95 375.5 347.95C372.18628 347.95 369.5 345.2637 369.5 341.95C369.5 338.6363 372.18628 335.95 375.5 335.95C378.81372 335.95 381.5 338.6363 381.5 341.95Z" fill-rule="nonzero"/><path fill="#999999" d="M390.25 345.075L391.90625 344.9344Q392.09375 346.15314 392.76562 346.7625Q393.4375 347.3719 394.39062 347.3719Q395.53125 347.3719 396.3125 346.5125Q397.10938 345.65314 397.10938 344.21564Q397.10938 342.8719 396.34375 342.09064Q395.59375 341.3094 394.35938 341.3094Q393.59375 341.3094 392.96875 341.65314Q392.35938 341.9969 392.01562 342.5594L390.53125 342.35626L391.78125 335.7469L398.1875 335.7469L398.1875 337.2469L393.04688 337.2469L392.34375 340.71564Q393.51562 339.90314 394.78125 339.90314Q396.46875 339.90314 397.625 341.075Q398.79688 342.2469 398.79688 344.075Q398.79688 345.825 397.76562 347.10626Q396.53125 348.66876 394.39062 348.66876Q392.625 348.66876 391.51562 347.6844Q390.40625 346.7 390.25 345.075ZM400.25 342.09064Q400.25 339.8094 400.71875 338.41876Q401.1875 337.02814 402.10938 336.27814Q403.04688 335.5125 404.45312 335.5125Q405.48438 335.5125 406.26562 335.9344Q407.04688 336.34064 407.54688 337.1375Q408.0625 337.91876 408.35938 339.0594Q408.65625 340.1844 408.65625 342.09064Q408.65625 344.35626 408.1875 345.7625Q407.71875 347.15314 406.78125 347.91876Q405.85938 348.66876 404.45312 348.66876Q402.57812 348.66876 401.51562 347.34064Q400.25 345.73126 400.25 342.09064ZM401.875 342.09064Q401.875 345.2625 402.60938 346.325Q403.35938 347.3719 404.45312 347.3719Q405.53125 347.3719 406.28125 346.325Q407.03125 345.2625 407.03125 342.09064Q407.03125 338.91876 406.28125 337.8719Q405.53125 336.825 404.4375 336.825Q403.34375 336.825 402.6875 337.7469Q401.875 338.91876 401.875 342.09064ZM410.54688 338.65314Q410.54688 337.27814 411.23438 336.3094Q411.9375 335.34064 413.25 335.34064Q414.46875 335.34064 415.26562 336.21564Q416.0625 337.075 416.0625 338.7625Q416.0625 340.3875 415.25 341.27814Q414.45312 342.15314 413.26562 342.15314Q412.10938 342.15314 411.32812 341.29376Q410.54688 340.41876 410.54688 338.65314ZM413.29688 336.4344Q412.70312 336.4344 412.3125 336.95Q411.92188 337.45 411.92188 338.8094Q411.92188 340.0594 412.3125 340.5594Q412.71875 341.0594 413.29688 341.0594Q413.89062 341.0594 414.28125 340.5594Q414.67188 340.04376 414.67188 338.7Q414.67188 337.45 414.28125 336.95Q413.89062 336.4344 413.29688 336.4344ZM413.3125 348.91876L420.35938 335.34064L421.64062 335.34064L414.60938 348.91876L413.3125 348.91876ZM418.875 345.41876Q418.875 344.04376 419.5625 343.075Q420.26562 342.10626 421.59375 342.10626Q422.8125 342.10626 423.59375 342.98126Q424.39062 343.84064 424.39062 345.52814Q424.39062 347.15314 423.59375 348.04376Q422.79688 348.91876 421.60938 348.91876Q420.4375 348.91876 419.65625 348.04376Q418.875 347.16876 418.875 345.41876ZM421.64062 343.2Q421.04688 343.2 420.65625 343.71564Q420.26562 344.21564 420.26562 345.59064Q420.26562 346.8094 420.65625 347.325Q421.04688 347.84064 421.625 347.84064Q422.23438 347.84064 422.625 347.325Q423.01562 346.8094 423.01562 345.46564Q423.01562 344.21564 422.625 343.71564Q422.23438 343.2 421.64062 343.2ZM435.14062 347.02814L435.375 348.4344Q434.70312 348.575 434.17188 348.575Q433.3125 348.575 432.82812 348.3094Q432.35938 348.02814 432.17188 347.59064Q431.98438 347.1375 431.98438 345.71564L431.98438 340.34064L430.8125 340.34064L430.8125 339.1219L431.98438 339.1219L431.98438 336.8094L433.54688 335.85626L433.54688 339.1219L435.14062 339.1219L435.14062 340.34064L433.54688 340.34064L433.54688 345.8094Q433.54688 346.48126 433.625 346.6844Q433.71875 346.8719 433.90625 346.98126Q434.09375 347.09064 434.45312 347.09064Q434.70312 347.09064 435.14062 347.02814ZM436.09375 343.77814Q436.09375 341.1844 437.54688 339.9344Q438.75 338.90314 440.46875 338.90314Q442.40625 338.90314 443.625 340.16876Q444.84375 341.4344 444.84375 343.65314Q444.84375 345.45 444.29688 346.48126Q443.76562 347.5125 442.73438 348.09064Q441.70312 348.66876 440.46875 348.66876Q438.51562 348.66876 437.29688 347.41876Q436.09375 346.15314 436.09375 343.77814ZM437.71875 343.77814Q437.71875 345.575 438.5 346.46564Q439.28125 347.35626 440.46875 347.35626Q441.65625 347.35626 442.4375 346.46564Q443.21875 345.5594 443.21875 343.73126Q443.21875 341.9969 442.42188 341.10626Q441.64062 340.21564 440.46875 340.21564Q439.28125 340.21564 438.5 341.10626Q437.71875 341.9969 437.71875 343.77814ZM451.35938 337.2469L451.35938 335.73126L459.6875 335.73126L459.6875 336.96564Q458.46875 338.27814 457.25 340.45Q456.04688 342.60626 455.39062 344.90314Q454.90625 346.52814 454.78125 348.45L453.15625 348.45Q453.1875 346.9344 453.75 344.77814Q454.32812 342.6219 455.39062 340.6219Q456.45312 338.6219 457.65625 337.2469L451.35938 337.2469ZM461.25 345.075L462.90625 344.9344Q463.09375 346.15314 463.76562 346.7625Q464.4375 347.3719 465.39062 347.3719Q466.53125 347.3719 467.3125 346.5125Q468.10938 345.65314 468.10938 344.21564Q468.10938 342.8719 467.34375 342.09064Q466.59375 341.3094 465.35938 341.3094Q464.59375 341.3094 463.96875 341.65314Q463.35938 341.9969 463.01562 342.5594L461.53125 342.35626L462.78125 335.7469L469.1875 335.7469L469.1875 337.2469L464.04688 337.2469L463.34375 340.71564Q464.51562 339.90314 465.78125 339.90314Q467.46875 339.90314 468.625 341.075Q469.79688 342.2469 469.79688 344.075Q469.79688 345.825 468.76562 347.10626Q467.53125 348.66876 465.39062 348.66876Q463.625 348.66876 462.51562 347.6844Q461.40625 346.7 461.25 345.075ZM471.54688 338.65314Q471.54688 337.27814 472.23438 336.3094Q472.9375 335.34064 474.25 335.34064Q475.46875 335.34064 476.26562 336.21564Q477.0625 337.075 477.0625 338.7625Q477.0625 340.3875 476.25 341.27814Q475.45312 342.15314 474.26562 342.15314Q473.10938 342.15314 472.32812 341.29376Q471.54688 340.41876 471.54688 338.65314ZM474.29688 336.4344Q473.70312 336.4344 473.3125 336.95Q472.92188 337.45 472.92188 338.8094Q472.92188 340.0594 473.3125 340.5594Q473.71875 341.0594 474.29688 341.0594Q474.89062 341.0594 475.28125 340.5594Q475.67188 340.04376 475.67188 338.7Q475.67188 337.45 475.28125 336.95Q474.89062 336.4344 474.29688 336.4344ZM474.3125 348.91876L481.35938 335.34064L482.64062 335.34064L475.60938 348.91876L474.3125 348.91876ZM479.875 345.41876Q479.875 344.04376 480.5625 343.075Q481.26562 342.10626 482.59375 342.10626Q483.8125 342.10626 484.59375 342.98126Q485.39062 343.84064 485.39062 345.52814Q485.39062 347.15314 484.59375 348.04376Q483.79688 348.91876 482.60938 348.91876Q481.4375 348.91876 480.65625 348.04376Q479.875 347.16876 479.875 345.41876ZM482.64062 343.2Q482.04688 343.2 481.65625 343.71564Q481.26562 344.21564 481.26562 345.59064Q481.26562 346.8094 481.65625 347.325Q482.04688 347.84064 482.625 347.84064Q483.23438 347.84064 483.625 347.325Q484.01562 346.8094 484.01562 345.46564Q484.01562 344.21564 483.625 343.71564Q483.23438 343.2 482.64062 343.2Z" fill-rule="nonzero"/><path fill="#76b900" d="M514.5 341.95C514.5 345.2637 511.81372 347.95 508.5 347.95C505.18628 347.95 502.5 345.2637 502.5 341.95C502.5 338.6363 505.18628 335.95 508.5 335.95C511.81372 335.95 514.5 338.6363 514.5 341.95Z" fill-rule="nonzero"/><path fill="#999999" d="M532.0156 342.8094L523.4844 346.46564L523.4844 344.8875L530.25 342.09064L523.4844 339.3094L523.4844 337.73126L532.0156 341.34064L532.0156 342.8094ZM543.0156 340.8719L534.5 340.8719L534.5 339.40314L543.0156 339.40314L543.0156 340.8719ZM543.0156 344.77814L534.5 344.77814L534.5 343.3094L543.0156 343.3094L543.0156 344.77814ZM545.3594 337.2469L545.3594 335.73126L553.6875 335.73126L553.6875 336.96564Q552.46875 338.27814 551.25 340.45Q550.0469 342.60626 549.3906 344.90314Q548.90625 346.52814 548.78125 348.45L547.15625 348.45Q547.1875 346.9344 547.75 344.77814Q548.3281 342.6219 549.3906 340.6219Q550.4531 338.6219 551.65625 337.2469L545.3594 337.2469ZM555.25 345.075L556.90625 344.9344Q557.09375 346.15314 557.7656 346.7625Q558.4375 347.3719 559.3906 347.3719Q560.53125 347.3719 561.3125 346.5125Q562.1094 345.65314 562.1094 344.21564Q562.1094 342.8719 561.34375 342.09064Q560.59375 341.3094 559.3594 341.3094Q558.59375 341.3094 557.96875 341.65314Q557.3594 341.9969 557.0156 342.5594L555.53125 342.35626L556.78125 335.7469L563.1875 335.7469L563.1875 337.2469L558.0469 337.2469L557.34375 340.71564Q558.5156 339.90314 559.78125 339.90314Q561.46875 339.90314 562.625 341.075Q563.7969 342.2469 563.7969 344.075Q563.7969 345.825 562.7656 347.10626Q561.53125 348.66876 559.3906 348.66876Q557.625 348.66876 556.5156 347.6844Q555.40625 346.7 555.25 345.075ZM565.5469 338.65314Q565.5469 337.27814 566.2344 336.3094Q566.9375 335.34064 568.25 335.34064Q569.46875 335.34064 570.2656 336.21564Q571.0625 337.075 571.0625 338.7625Q571.0625 340.3875 570.25 341.27814Q569.4531 342.15314 568.2656 342.15314Q567.1094 342.15314 566.3281 341.29376Q565.5469 340.41876 565.5469 338.65314ZM568.2969 336.4344Q567.7031 336.4344 567.3125 336.95Q566.9219 337.45 566.9219 338.8094Q566.9219 340.0594 567.3125 340.5594Q567.71875 341.0594 568.2969 341.0594Q568.8906 341.0594 569.28125 340.5594Q569.6719 340.04376 569.6719 338.7Q569.6719 337.45 569.28125 336.95Q568.8906 336.4344 568.2969 336.4344ZM568.3125 348.91876L575.3594 335.34064L576.6406 335.34064L569.6094 348.91876L568.3125 348.91876ZM573.875 345.41876Q573.875 344.04376 574.5625 343.075Q575.2656 342.10626 576.59375 342.10626Q577.8125 342.10626 578.59375 342.98126Q579.3906 343.84064 579.3906 345.52814Q579.3906 347.15314 578.59375 348.04376Q577.7969 348.91876 576.6094 348.91876Q575.4375 348.91876 574.65625 348.04376Q573.875 347.16876 573.875 345.41876ZM576.6406 343.2Q576.0469 343.2 575.65625 343.71564Q575.2656 344.21564 575.2656 345.59064Q575.2656 346.8094 575.65625 347.325Q576.0469 347.84064 576.625 347.84064Q577.2344 347.84064 577.625 347.325Q578.0156 346.8094 578.0156 345.46564Q578.0156 344.21564 577.625 343.71564Q577.2344 343.2 576.6406 343.2Z" fill-rule="nonzero"/><path fill="#999999" d="M50.765625 40.55L50.765625 23.3625L53.03125 23.3625L53.03125 38.51875L61.5 38.51875L61.5 40.55L50.765625 40.55ZM63.59375 25.8L63.59375 23.3625L65.703125 23.3625L65.703125 25.8L63.59375 25.8ZM63.59375 40.55L63.59375 28.096874L65.703125 28.096874L65.703125 40.55L63.59375 40.55ZM70.53125 40.55L68.578125 40.55L68.578125 23.3625L70.6875 23.3625L70.6875 29.503124Q72.015625 27.815624 74.09375 27.815624Q75.234375 27.815624 76.265625 28.284374Q77.296875 28.753124 77.953125 29.596874Q78.609375 30.425 78.984375 31.6125Q79.359375 32.784374 79.359375 34.14375Q79.359375 37.33125 77.78125 39.08125Q76.203125 40.83125 73.984375 40.83125Q71.78125 40.83125 70.53125 38.9875L70.53125 40.55ZM70.5 34.2375Q70.5 36.471874 71.109375 37.471874Q72.109375 39.096874 73.8125 39.096874Q75.1875 39.096874 76.1875 37.89375Q77.203125 36.690624 77.203125 34.315624Q77.203125 31.878124 76.234375 30.721874Q75.28125 29.55 73.90625 29.55Q72.515625 29.55 71.5 30.753124Q70.5 31.95625 70.5 34.2375ZM82.5625 40.55L82.5625 28.096874L84.453125 28.096874L84.453125 29.9875Q85.1875 28.659374 85.796875 28.2375Q86.421875 27.815624 87.15625 27.815624Q88.21875 27.815624 89.328125 28.503124L88.59375 30.45625Q87.828125 30.003124 87.046875 30.003124Q86.359375 30.003124 85.796875 30.425Q85.25 30.83125 85.015625 31.565624Q84.671875 32.690624 84.671875 34.034374L84.671875 40.55L82.5625 40.55ZM98.703125 39.01875Q97.53125 40.003124 96.4375 40.425Q95.359375 40.83125 94.125 40.83125Q92.078125 40.83125 90.96875 39.83125Q89.875 38.83125 89.875 37.26875Q89.875 36.346874 90.28125 35.596874Q90.703125 34.846874 91.375 34.39375Q92.046875 33.925 92.890625 33.690624Q93.515625 33.534374 94.765625 33.378124Q97.328125 33.065624 98.53125 32.64375Q98.546875 32.221874 98.546875 32.096874Q98.546875 30.815624 97.9375 30.284374Q97.140625 29.565624 95.546875 29.565624Q94.046875 29.565624 93.34375 30.096874Q92.640625 30.6125 92.296875 31.940624L90.234375 31.659374Q90.515625 30.33125 91.15625 29.51875Q91.796875 28.70625 93.015625 28.26875Q94.234375 27.815624 95.84375 27.815624Q97.4375 27.815624 98.4375 28.190624Q99.4375 28.565624 99.90625 29.14375Q100.375 29.70625 100.5625 30.58125Q100.65625 31.1125 100.65625 32.51875L100.65625 35.33125Q100.65625 38.26875 100.796875 39.05Q100.9375 39.83125 101.328125 40.55L99.125 40.55Q98.796875 39.89375 98.703125 39.01875ZM98.53125 34.3Q97.375 34.76875 95.078125 35.096874Q93.78125 35.284374 93.234375 35.51875Q92.703125 35.753124 92.40625 36.20625Q92.125 36.659374 92.125 37.20625Q92.125 38.05 92.75 38.6125Q93.390625 39.175 94.625 39.175Q95.84375 39.175 96.796875 38.64375Q97.75 38.1125 98.1875 37.190624Q98.53125 36.471874 98.53125 35.08125L98.53125 34.3ZM103.5625 40.55L103.5625 28.096874L105.453125 28.096874L105.453125 29.9875Q106.1875 28.659374 106.796875 28.2375Q107.421875 27.815624 108.15625 27.815624Q109.21875 27.815624 110.328125 28.503124L109.59375 30.45625Q108.828125 30.003124 108.046875 30.003124Q107.359375 30.003124 106.796875 30.425Q106.25 30.83125 106.015625 31.565624Q105.671875 32.690624 105.671875 34.034374L105.671875 40.55L103.5625 40.55ZM111.484375 45.346874L111.25 43.3625Q111.953125 43.55 112.46875 43.55Q113.171875 43.55 113.59375 43.315624Q114.015625 43.08125 114.28125 42.659374Q114.484375 42.346874 114.921875 41.096874Q114.984375 40.909374 115.109375 40.58125L110.390625 28.096874L112.65625 28.096874L115.25 35.315624Q115.75 36.675 116.15625 38.190624Q116.515625 36.7375 117.015625 35.3625L119.6875 28.096874L121.796875 28.096874L117.0625 40.76875Q116.296875 42.815624 115.875 43.58125Q115.3125 44.628124 114.578125 45.1125Q113.859375 45.596874 112.84375 45.596874Q112.234375 45.596874 111.484375 45.346874ZM130.90625 40.55L130.90625 23.3625L143.32812 23.3625L143.32812 25.39375L133.17188 25.39375L133.17188 30.659374L142.67188 30.659374L142.67188 32.675L133.17188 32.675L133.17188 38.51875L143.71875 38.51875L143.71875 40.55L130.90625 40.55ZM150.04688 40.55L145.3125 28.096874L147.53125 28.096874L150.20312 35.55Q150.64062 36.76875 151.0 38.065624Q151.28125 37.08125 151.78125 35.690624L154.54688 28.096874L156.71875 28.096874L152.01562 40.55L150.04688 40.55ZM156.79688 34.33125Q156.79688 30.8625 158.71875 29.20625Q160.32812 27.815624 162.64062 27.815624Q165.20312 27.815624 166.82812 29.503124Q168.45312 31.190624 168.45312 34.14375Q168.45312 36.55 167.73438 37.925Q167.01562 39.3 165.64062 40.065624Q164.26562 40.83125 162.64062 40.83125Q160.01562 40.83125 158.40625 39.159374Q156.79688 37.471874 156.79688 34.33125ZM158.96875 34.33125Q158.96875 36.721874 160.0 37.909374Q161.04688 39.096874 162.64062 39.096874Q164.20312 39.096874 165.25 37.909374Q166.29688 36.70625 166.29688 34.253124Q166.29688 31.940624 165.23438 30.753124Q164.1875 29.565624 162.64062 29.565624Q161.04688 29.565624 160.0 30.753124Q158.96875 31.940624 158.96875 34.33125ZM170.53125 40.55L170.53125 23.3625L172.64062 23.3625L172.64062 40.55L170.53125 40.55ZM184.73438 40.55L184.73438 38.721874Q183.28125 40.83125 180.79688 40.83125Q179.6875 40.83125 178.73438 40.409374Q177.78125 39.9875 177.3125 39.346874Q176.85938 38.70625 176.67188 37.784374Q176.53125 37.159374 176.53125 35.815624L176.53125 28.096874L178.64062 28.096874L178.64062 35.003124Q178.64062 36.659374 178.78125 37.2375Q178.96875 38.065624 179.60938 38.55Q180.26562 39.01875 181.21875 39.01875Q182.15625 39.01875 182.98438 38.534374Q183.82812 38.034374 184.17188 37.20625Q184.51562 36.3625 184.51562 34.76875L184.51562 28.096874L186.625 28.096874L186.625 40.55L184.73438 40.55ZM195.1875 38.659374L195.5 40.51875Q194.60938 40.721874 193.90625 40.721874Q192.75 40.721874 192.10938 40.3625Q191.48438 39.9875 191.21875 39.39375Q190.96875 38.8 190.96875 36.909374L190.96875 29.7375L189.42188 29.7375L189.42188 28.096874L190.96875 28.096874L190.96875 25.01875L193.0625 23.753124L193.0625 28.096874L195.1875 28.096874L195.1875 29.7375L193.0625 29.7375L193.0625 37.01875Q193.0625 37.925 193.17188 38.190624Q193.29688 38.440624 193.54688 38.596874Q193.79688 38.7375 194.26562 38.7375Q194.60938 38.7375 195.1875 38.659374ZM197.59375 25.8L197.59375 23.3625L199.70312 23.3625L199.70312 25.8L197.59375 25.8ZM197.59375 40.55L197.59375 28.096874L199.70312 28.096874L199.70312 40.55L197.59375 40.55ZM201.79688 34.33125Q201.79688 30.8625 203.71875 29.20625Q205.32812 27.815624 207.64062 27.815624Q210.20312 27.815624 211.82812 29.503124Q213.45312 31.190624 213.45312 34.14375Q213.45312 36.55 212.73438 37.925Q212.01562 39.3 210.64062 40.065624Q209.26562 40.83125 207.64062 40.83125Q205.01562 40.83125 203.40625 39.159374Q201.79688 37.471874 201.79688 34.33125ZM203.96875 34.33125Q203.96875 36.721874 205.0 37.909374Q206.04688 39.096874 207.64062 39.096874Q209.20312 39.096874 210.25 37.909374Q211.29688 36.70625 211.29688 34.253124Q211.29688 31.940624 210.23438 30.753124Q209.1875 29.565624 207.64062 29.565624Q206.04688 29.565624 205.0 30.753124Q203.96875 31.940624 203.96875 34.33125ZM215.57812 40.55L215.57812 28.096874L217.48438 28.096874L217.48438 29.878124Q218.85938 27.815624 221.4375 27.815624Q222.5625 27.815624 223.5 28.221874Q224.45312 28.628124 224.92188 29.284374Q225.39062 29.940624 225.57812 30.846874Q225.70312 31.425 225.70312 32.89375L225.70312 40.55L223.59375 40.55L223.59375 32.971874Q223.59375 31.690624 223.34375 31.05Q223.09375 30.409374 222.46875 30.034374Q221.84375 29.64375 221.0 29.64375Q219.65625 29.64375 218.67188 30.503124Q217.6875 31.3625 217.6875 33.753124L217.6875 40.55L215.57812 40.55ZM241.21875 40.55L241.21875 25.39375L235.5625 25.39375L235.5625 23.3625L249.1875 23.3625L249.1875 25.39375L243.5 25.39375L243.5 40.55L241.21875 40.55ZM259.10938 36.534374L261.28125 36.815624Q260.76562 38.721874 259.375 39.784374Q257.98438 40.83125 255.8125 40.83125Q253.07812 40.83125 251.46875 39.159374Q249.875 37.471874 249.875 34.425Q249.875 31.284374 251.48438 29.55Q253.10938 27.815624 255.6875 27.815624Q258.1875 27.815624 259.76562 29.51875Q261.35938 31.221874 261.35938 34.3Q261.35938 34.4875 261.34375 34.8625L252.0625 34.8625Q252.17188 36.909374 253.21875 38.003124Q254.26562 39.096874 255.82812 39.096874Q256.98438 39.096874 257.79688 38.4875Q258.625 37.878124 259.10938 36.534374ZM252.17188 33.128124L259.125 33.128124Q258.98438 31.565624 258.32812 30.76875Q257.32812 29.55 255.71875 29.55Q254.26562 29.55 253.26562 30.534374Q252.28125 31.503124 252.17188 33.128124ZM263.53125 40.55L263.53125 23.3625L265.64062 23.3625L265.64062 40.55L263.53125 40.55ZM278.10938 36.534374L280.28125 36.815624Q279.76562 38.721874 278.375 39.784374Q276.98438 40.83125 274.8125 40.83125Q272.07812 40.83125 270.46875 39.159374Q268.875 37.471874 268.875 34.425Q268.875 31.284374 270.48438 29.55Q272.10938 27.815624 274.6875 27.815624Q277.1875 27.815624 278.76562 29.51875Q280.35938 31.221874 280.35938 34.3Q280.35938 34.4875 280.34375 34.8625L271.0625 34.8625Q271.17188 36.909374 272.21875 38.003124Q273.26562 39.096874 274.82812 39.096874Q275.98438 39.096874 276.79688 38.4875Q277.625 37.878124 278.10938 36.534374ZM271.17188 33.128124L278.125 33.128124Q277.98438 31.565624 277.32812 30.76875Q276.32812 29.55 274.71875 29.55Q273.26562 29.55 272.26562 30.534374Q271.28125 31.503124 271.17188 33.128124ZM290.70312 35.9875L292.78125 36.253124Q292.4375 38.409374 291.03125 39.628124Q289.64062 40.83125 287.59375 40.83125Q285.04688 40.83125 283.48438 39.159374Q281.9375 37.4875 281.9375 34.378124Q281.9375 32.3625 282.60938 30.846874Q283.28125 29.33125 284.64062 28.58125Q286.0 27.815624 287.60938 27.815624Q289.64062 27.815624 290.92188 28.846874Q292.21875 29.878124 292.57812 31.753124L290.53125 32.08125Q290.23438 30.815624 289.48438 30.190624Q288.75 29.55 287.6875 29.55Q286.09375 29.55 285.09375 30.70625Q284.10938 31.846874 284.10938 34.315624Q284.10938 36.815624 285.0625 37.95625Q286.03125 39.096874 287.57812 39.096874Q288.8125 39.096874 289.64062 38.33125Q290.48438 37.565624 290.70312 35.9875ZM293.79688 34.33125Q293.79688 30.8625 295.71875 29.20625Q297.32812 27.815624 299.64062 27.815624Q302.20312 27.815624 303.82812 29.503124Q305.45312 31.190624 305.45312 34.14375Q305.45312 36.55 304.73438 37.925Q304.01562 39.3 302.64062 40.065624Q301.26562 40.83125 299.64062 40.83125Q297.01562 40.83125 295.40625 39.159374Q293.79688 37.471874 293.79688 34.33125ZM295.96875 34.33125Q295.96875 36.721874 297.0 37.909374Q298.04688 39.096874 299.64062 39.096874Q301.20312 39.096874 302.25 37.909374Q303.29688 36.70625 303.29688 34.253124Q303.29688 31.940624 302.23438 30.753124Q301.1875 29.565624 299.64062 29.565624Q298.04688 29.565624 297.0 30.753124Q295.96875 31.940624 295.96875 34.33125ZM307.57812 40.55L307.57812 28.096874L309.48438 28.096874L309.48438 29.878124Q310.85938 27.815624 313.4375 27.815624Q314.5625 27.815624 315.5 28.221874Q316.45312 28.628124 316.92188 29.284374Q317.39062 29.940624 317.57812 30.846874Q317.70312 31.425 317.70312 32.89375L317.70312 40.55L315.59375 40.55L315.59375 32.971874Q315.59375 31.690624 315.34375 31.05Q315.09375 30.409374 314.46875 30.034374Q313.84375 29.64375 313.0 29.64375Q311.65625 29.64375 310.67188 30.503124Q309.6875 31.3625 309.6875 33.753124L309.6875 40.55L307.57812 40.55ZM328.85938 40.55L328.85938 23.3625L335.32812 23.3625Q337.04688 23.3625 337.95312 23.534374Q339.21875 23.7375 340.0625 24.33125Q340.92188 24.925 341.4375 26.003124Q341.96875 27.065624 341.96875 28.33125Q341.96875 30.534374 340.5625 32.05Q339.17188 33.565624 335.53125 33.565624L331.125 33.565624L331.125 40.55L328.85938 40.55ZM331.125 31.534374L335.5625 31.534374Q337.76562 31.534374 338.6875 30.721874Q339.625 29.89375 339.625 28.409374Q339.625 27.33125 339.07812 26.565624Q338.53125 25.8 337.64062 25.55Q337.0625 25.39375 335.51562 25.39375L331.125 25.39375L331.125 31.534374ZM352.70312 39.01875Q351.53125 40.003124 350.4375 40.425Q349.35938 40.83125 348.125 40.83125Q346.07812 40.83125 344.96875 39.83125Q343.875 38.83125 343.875 37.26875Q343.875 36.346874 344.28125 35.596874Q344.70312 34.846874 345.375 34.39375Q346.04688 33.925 346.89062 33.690624Q347.51562 33.534374 348.76562 33.378124Q351.32812 33.065624 352.53125 32.64375Q352.54688 32.221874 352.54688 32.096874Q352.54688 30.815624 351.9375 30.284374Q351.14062 29.565624 349.54688 29.565624Q348.04688 29.565624 347.34375 30.096874Q346.64062 30.6125 346.29688 31.940624L344.23438 31.659374Q344.51562 30.33125 345.15625 29.51875Q345.79688 28.70625 347.01562 28.26875Q348.23438 27.815624 349.84375 27.815624Q351.4375 27.815624 352.4375 28.190624Q353.4375 28.565624 353.90625 29.14375Q354.375 29.70625 354.5625 30.58125Q354.65625 31.1125 354.65625 32.51875L354.65625 35.33125Q354.65625 38.26875 354.79688 39.05Q354.9375 39.83125 355.32812 40.55L353.125 40.55Q352.79688 39.89375 352.70312 39.01875ZM352.53125 34.3Q351.375 34.76875 349.07812 35.096874Q347.78125 35.284374 347.23438 35.51875Q346.70312 35.753124 346.40625 36.20625Q346.125 36.659374 346.125 37.20625Q346.125 38.05 346.75 38.6125Q347.39062 39.175 348.625 39.175Q349.84375 39.175 350.79688 38.64375Q351.75 38.1125 352.1875 37.190624Q352.53125 36.471874 352.53125 35.08125L352.53125 34.3ZM357.5625 40.55L357.5625 28.096874L359.45312 28.096874L359.45312 29.9875Q360.1875 28.659374 360.79688 28.2375Q361.42188 27.815624 362.15625 27.815624Q363.21875 27.815624 364.32812 28.503124L363.59375 30.45625Q362.82812 30.003124 362.04688 30.003124Q361.35938 30.003124 360.79688 30.425Q360.25 30.83125 360.01562 31.565624Q359.67188 32.690624 359.67188 34.034374L359.67188 40.55L357.5625 40.55ZM370.1875 38.659374L370.5 40.51875Q369.60938 40.721874 368.90625 40.721874Q367.75 40.721874 367.10938 40.3625Q366.48438 39.9875 366.21875 39.39375Q365.96875 38.8 365.96875 36.909374L365.96875 29.7375L364.42188 29.7375L364.42188 28.096874L365.96875 28.096874L365.96875 25.01875L368.0625 23.753124L368.0625 28.096874L370.1875 28.096874L370.1875 29.7375L368.0625 29.7375L368.0625 37.01875Q368.0625 37.925 368.17188 38.190624Q368.29688 38.440624 368.54688 38.596874Q368.79688 38.7375 369.26562 38.7375Q369.60938 38.7375 370.1875 38.659374ZM372.59375 25.8L372.59375 23.3625L374.70312 23.3625L374.70312 25.8L372.59375 25.8ZM372.59375 40.55L372.59375 28.096874L374.70312 28.096874L374.70312 40.55L372.59375 40.55ZM385.70312 35.9875L387.78125 36.253124Q387.4375 38.409374 386.03125 39.628124Q384.64062 40.83125 382.59375 40.83125Q380.04688 40.83125 378.48438 39.159374Q376.9375 37.4875 376.9375 34.378124Q376.9375 32.3625 377.60938 30.846874Q378.28125 29.33125 379.64062 28.58125Q381.0 27.815624 382.60938 27.815624Q384.64062 27.815624 385.92188 28.846874Q387.21875 29.878124 387.57812 31.753124L385.53125 32.08125Q385.23438 30.815624 384.48438 30.190624Q383.75 29.55 382.6875 29.55Q381.09375 29.55 380.09375 30.70625Q379.10938 31.846874 379.10938 34.315624Q379.10938 36.815624 380.0625 37.95625Q381.03125 39.096874 382.57812 39.096874Q383.8125 39.096874 384.64062 38.33125Q385.48438 37.565624 385.70312 35.9875ZM389.59375 25.8L389.59375 23.3625L391.70312 23.3625L391.70312 25.8L389.59375 25.8ZM389.59375 40.55L389.59375 28.096874L391.70312 28.096874L391.70312 40.55L389.59375 40.55ZM394.57812 45.315624L394.57812 28.096874L396.5 28.096874L396.5 29.721874Q397.1875 28.76875 398.03125 28.3Q398.89062 27.815624 400.10938 27.815624Q401.70312 27.815624 402.92188 28.64375Q404.14062 29.45625 404.76562 30.95625Q405.39062 32.45625 405.39062 34.2375Q405.39062 36.14375 404.70312 37.675Q404.01562 39.20625 402.70312 40.01875Q401.40625 40.83125 399.96875 40.83125Q398.90625 40.83125 398.0625 40.39375Q397.23438 39.940624 396.6875 39.253124L396.6875 45.315624L394.57812 45.315624ZM396.5 34.39375Q396.5 36.8 397.46875 37.95625Q398.4375 39.096874 399.82812 39.096874Q401.23438 39.096874 402.23438 37.909374Q403.23438 36.721874 403.23438 34.221874Q403.23438 31.846874 402.25 30.659374Q401.28125 29.471874 399.92188 29.471874Q398.5625 29.471874 397.53125 30.7375Q396.5 31.9875 396.5 34.39375ZM416.70312 39.01875Q415.53125 40.003124 414.4375 40.425Q413.35938 40.83125 412.125 40.83125Q410.07812 40.83125 408.96875 39.83125Q407.875 38.83125 407.875 37.26875Q407.875 36.346874 408.28125 35.596874Q408.70312 34.846874 409.375 34.39375Q410.04688 33.925 410.89062 33.690624Q411.51562 33.534374 412.76562 33.378124Q415.32812 33.065624 416.53125 32.64375Q416.54688 32.221874 416.54688 32.096874Q416.54688 30.815624 415.9375 30.284374Q415.14062 29.565624 413.54688 29.565624Q412.04688 29.565624 411.34375 30.096874Q410.64062 30.6125 410.29688 31.940624L408.23438 31.659374Q408.51562 30.33125 409.15625 29.51875Q409.79688 28.70625 411.01562 28.26875Q412.23438 27.815624 413.84375 27.815624Q415.4375 27.815624 416.4375 28.190624Q417.4375 28.565624 417.90625 29.14375Q418.375 29.70625 418.5625 30.58125Q418.65625 31.1125 418.65625 32.51875L418.65625 35.33125Q418.65625 38.26875 418.79688 39.05Q418.9375 39.83125 419.32812 40.55L417.125 40.55Q416.79688 39.89375 416.70312 39.01875ZM416.53125 34.3Q415.375 34.76875 413.07812 35.096874Q411.78125 35.284374 411.23438 35.51875Q410.70312 35.753124 410.40625 36.20625Q410.125 36.659374 410.125 37.20625Q410.125 38.05 410.75 38.6125Q411.39062 39.175 412.625 39.175Q413.84375 39.175 414.79688 38.64375Q415.75 38.1125 416.1875 37.190624Q416.53125 36.471874 416.53125 35.08125L416.53125 34.3ZM426.1875 38.659374L426.5 40.51875Q425.60938 40.721874 424.90625 40.721874Q423.75 40.721874 423.10938 40.3625Q422.48438 39.9875 422.21875 39.39375Q421.96875 38.8 421.96875 36.909374L421.96875 29.7375L420.42188 29.7375L420.42188 28.096874L421.96875 28.096874L421.96875 25.01875L424.0625 23.753124L424.0625 28.096874L426.1875 28.096874L426.1875 29.7375L424.0625 29.7375L424.0625 37.01875Q424.0625 37.925 424.17188 38.190624Q424.29688 38.440624 424.54688 38.596874Q424.79688 38.7375 425.26562 38.7375Q425.60938 38.7375 426.1875 38.659374ZM428.59375 25.8L428.59375 23.3625L430.70312 23.3625L430.70312 25.8L428.59375 25.8ZM428.59375 40.55L428.59375 28.096874L430.70312 28.096874L430.70312 40.55L428.59375 40.55ZM432.79688 34.33125Q432.79688 30.8625 434.71875 29.20625Q436.32812 27.815624 438.64062 27.815624Q441.20312 27.815624 442.82812 29.503124Q444.45312 31.190624 444.45312 34.14375Q444.45312 36.55 443.73438 37.925Q443.01562 39.3 441.64062 40.065624Q440.26562 40.83125 438.64062 40.83125Q436.01562 40.83125 434.40625 39.159374Q432.79688 37.471874 432.79688 34.33125ZM434.96875 34.33125Q434.96875 36.721874 436.0 37.909374Q437.04688 39.096874 438.64062 39.096874Q440.20312 39.096874 441.25 37.909374Q442.29688 36.70625 442.29688 34.253124Q442.29688 31.940624 441.23438 30.753124Q440.1875 29.565624 438.64062 29.565624Q437.04688 29.565624 436.0 30.753124Q434.96875 31.940624 434.96875 34.33125ZM446.57812 40.55L446.57812 28.096874L448.48438 28.096874L448.48438 29.878124Q449.85938 27.815624 452.4375 27.815624Q453.5625 27.815624 454.5 28.221874Q455.45312 28.628124 455.92188 29.284374Q456.39062 29.940624 456.57812 30.846874Q456.70312 31.425 456.70312 32.89375L456.70312 40.55L454.59375 40.55L454.59375 32.971874Q454.59375 31.690624 454.34375 31.05Q454.09375 30.409374 453.46875 30.034374Q452.84375 29.64375 452.0 29.64375Q450.65625 29.64375 449.67188 30.503124Q448.6875 31.3625 448.6875 33.753124L448.6875 40.55L446.57812 40.55ZM467.85938 40.55L467.85938 23.3625L474.32812 23.3625Q476.04688 23.3625 476.95312 23.534374Q478.21875 23.7375 479.0625 24.33125Q479.92188 24.925 480.4375 26.003124Q480.96875 27.065624 480.96875 28.33125Q480.96875 30.534374 479.5625 32.05Q478.17188 33.565624 474.53125 33.565624L470.125 33.565624L470.125 40.55L467.85938 40.55ZM470.125 31.534374L474.5625 31.534374Q476.76562 31.534374 477.6875 30.721874Q478.625 29.89375 478.625 28.409374Q478.625 27.33125 478.07812 26.565624Q477.53125 25.8 476.64062 25.55Q476.0625 25.39375 474.51562 25.39375L470.125 25.39375L470.125 31.534374ZM492.10938 36.534374L494.28125 36.815624Q493.76562 38.721874 492.375 39.784374Q490.98438 40.83125 488.8125 40.83125Q486.07812 40.83125 484.46875 39.159374Q482.875 37.471874 482.875 34.425Q482.875 31.284374 484.48438 29.55Q486.10938 27.815624 488.6875 27.815624Q491.1875 27.815624 492.76562 29.51875Q494.35938 31.221874 494.35938 34.3Q494.35938 34.4875 494.34375 34.8625L485.0625 34.8625Q485.17188 36.909374 486.21875 38.003124Q487.26562 39.096874 488.82812 39.096874Q489.98438 39.096874 490.79688 38.4875Q491.625 37.878124 492.10938 36.534374ZM485.17188 33.128124L492.125 33.128124Q491.98438 31.565624 491.32812 30.76875Q490.32812 29.55 488.71875 29.55Q487.26562 29.55 486.26562 30.534374Q485.28125 31.503124 485.17188 33.128124ZM496.5625 40.55L496.5625 28.096874L498.45312 28.096874L498.45312 29.9875Q499.1875 28.659374 499.79688 28.2375Q500.42188 27.815624 501.15625 27.815624Q502.21875 27.815624 503.32812 28.503124L502.59375 30.45625Q501.82812 30.003124 501.04688 30.003124Q500.35938 30.003124 499.79688 30.425Q499.25 30.83125 499.01562 31.565624Q498.67188 32.690624 498.67188 34.034374L498.67188 40.55L496.5625 40.55ZM509.96875 40.55L516.5625 23.3625L519.0156 23.3625L526.0469 40.55L523.4531 40.55L521.4531 35.346874L514.2656 35.346874L512.375 40.55L509.96875 40.55ZM514.9219 33.4875L520.75 33.4875L518.9531 28.7375Q518.1406 26.565624 517.7344 25.175Q517.40625 26.83125 516.8125 28.45625L514.9219 33.4875ZM531.1875 38.659374L531.5 40.51875Q530.6094 40.721874 529.90625 40.721874Q528.75 40.721874 528.1094 40.3625Q527.4844 39.9875 527.21875 39.39375Q526.96875 38.8 526.96875 36.909374L526.96875 29.7375L525.4219 29.7375L525.4219 28.096874L526.96875 28.096874L526.96875 25.01875L529.0625 23.753124L529.0625 28.096874L531.1875 28.096874L531.1875 29.7375L529.0625 29.7375L529.0625 37.01875Q529.0625 37.925 529.1719 38.190624Q529.2969 38.440624 529.5469 38.596874Q529.7969 38.7375 530.2656 38.7375Q530.6094 38.7375 531.1875 38.659374ZM538.1875 38.659374L538.5 40.51875Q537.6094 40.721874 536.90625 40.721874Q535.75 40.721874 535.1094 40.3625Q534.4844 39.9875 534.21875 39.39375Q533.96875 38.8 533.96875 36.909374L533.96875 29.7375L532.4219 29.7375L532.4219 28.096874L533.96875 28.096874L533.96875 25.01875L536.0625 23.753124L536.0625 28.096874L538.1875 28.096874L538.1875 29.7375L536.0625 29.7375L536.0625 37.01875Q536.0625 37.925 536.1719 38.190624Q536.2969 38.440624 536.5469 38.596874Q536.7969 38.7375 537.2656 38.7375Q537.6094 38.7375 538.1875 38.659374ZM549.1094 36.534374L551.28125 36.815624Q550.7656 38.721874 549.375 39.784374Q547.9844 40.83125 545.8125 40.83125Q543.0781 40.83125 541.46875 39.159374Q539.875 37.471874 539.875 34.425Q539.875 31.284374 541.4844 29.55Q543.1094 27.815624 545.6875 27.815624Q548.1875 27.815624 549.7656 29.51875Q551.3594 31.221874 551.3594 34.3Q551.3594 34.4875 551.34375 34.8625L542.0625 34.8625Q542.1719 36.909374 543.21875 38.003124Q544.2656 39.096874 545.8281 39.096874Q546.9844 39.096874 547.7969 38.4875Q548.625 37.878124 549.1094 36.534374ZM542.1719 33.128124L549.125 33.128124Q548.9844 31.565624 548.3281 30.76875Q547.3281 29.55 545.71875 29.55Q544.2656 29.55 543.2656 30.534374Q542.28125 31.503124 542.1719 33.128124ZM553.5781 40.55L553.5781 28.096874L555.4844 28.096874L555.4844 29.878124Q556.8594 27.815624 559.4375 27.815624Q560.5625 27.815624 561.5 28.221874Q562.4531 28.628124 562.9219 29.284374Q563.3906 29.940624 563.5781 30.846874Q563.7031 31.425 563.7031 32.89375L563.7031 40.55L561.59375 40.55L561.59375 32.971874Q561.59375 31.690624 561.34375 31.05Q561.09375 30.409374 560.46875 30.034374Q559.84375 29.64375 559.0 29.64375Q557.65625 29.64375 556.6719 30.503124Q555.6875 31.3625 555.6875 33.753124L555.6875 40.55L553.5781 40.55ZM575.65625 40.55L575.65625 38.971874Q574.46875 40.83125 572.1719 40.83125Q570.6875 40.83125 569.4375 40.01875Q568.1875 39.190624 567.5 37.721874Q566.8281 36.253124 566.8281 34.33125Q566.8281 32.471874 567.4375 30.95625Q568.0625 29.440624 569.2969 28.628124Q570.5469 27.815624 572.0781 27.815624Q573.2031 27.815624 574.0781 28.3Q574.96875 28.76875 575.5156 29.534374L575.5156 23.3625L577.6094 23.3625L577.6094 40.55L575.65625 40.55ZM568.9844 34.33125Q568.9844 36.721874 569.9844 37.909374Q571.0 39.096874 572.375 39.096874Q573.7656 39.096874 574.71875 37.971874Q575.6875 36.83125 575.6875 34.51875Q575.6875 31.95625 574.7031 30.76875Q573.71875 29.565624 572.28125 29.565624Q570.875 29.565624 569.9219 30.721874Q568.9844 31.8625 568.9844 34.33125ZM590.1094 36.534374L592.28125 36.815624Q591.7656 38.721874 590.375 39.784374Q588.9844 40.83125 586.8125 40.83125Q584.0781 40.83125 582.46875 39.159374Q580.875 37.471874 580.875 34.425Q580.875 31.284374 582.4844 29.55Q584.1094 27.815624 586.6875 27.815624Q589.1875 27.815624 590.7656 29.51875Q592.3594 31.221874 592.3594 34.3Q592.3594 34.4875 592.34375 34.8625L583.0625 34.8625Q583.1719 36.909374 584.21875 38.003124Q585.2656 39.096874 586.8281 39.096874Q587.9844 39.096874 588.7969 38.4875Q589.625 37.878124 590.1094 36.534374ZM583.1719 33.128124L590.125 33.128124Q589.9844 31.565624 589.3281 30.76875Q588.3281 29.55 586.71875 29.55Q585.2656 29.55 584.2656 30.534374Q583.28125 31.503124 583.1719 33.128124ZM603.1094 36.534374L605.28125 36.815624Q604.7656 38.721874 603.375 39.784374Q601.9844 40.83125 599.8125 40.83125Q597.0781 40.83125 595.46875 39.159374Q593.875 37.471874 593.875 34.425Q593.875 31.284374 595.4844 29.55Q597.1094 27.815624 599.6875 27.815624Q602.1875 27.815624 603.7656 29.51875Q605.3594 31.221874 605.3594 34.3Q605.3594 34.4875 605.34375 34.8625L596.0625 34.8625Q596.1719 36.909374 597.21875 38.003124Q598.2656 39.096874 599.8281 39.096874Q600.9844 39.096874 601.7969 38.4875Q602.625 37.878124 603.1094 36.534374ZM596.1719 33.128124L603.125 33.128124Q602.9844 31.565624 602.3281 30.76875Q601.3281 29.55 599.71875 29.55Q598.2656 29.55 597.2656 30.534374Q596.28125 31.503124 596.1719 33.128124Z" fill-rule="nonzero"/></svg>